<svg width="59" height="50" viewBox="0 0 59 50" fill="none" xmlns="http://www.w3.org/2000/svg">
<g clip-path="url(#clip0_413_3079)">
<path d="M36.7399 1.83441C37.9131 1.73434 39.0701 1.60092 40.2352 1.53421C42.5492 1.40913 44.7662 1.93448 46.967 2.60993C48.3586 3.03521 49.7665 3.34375 51.239 3.33541C52.7844 3.31873 54.2085 2.91013 55.5354 2.10959C55.8024 1.95116 56.0532 1.68431 56.4173 1.90946C56.7814 2.13461 56.8219 2.49318 56.8138 2.88511C56.8057 7.95516 56.8057 13.0335 56.8138 18.1036C56.8138 18.6289 56.6439 18.9708 56.1908 19.2043C54.9447 19.8548 53.6097 20.1716 52.2261 20.3468C49.9202 20.6386 47.7518 19.9632 45.5672 19.4128C44.3455 19.1043 43.1237 18.7624 41.8777 18.5872C40.2271 18.3538 38.5765 18.4955 36.9826 19.0792C36.7318 19.171 36.7318 19.3127 36.7318 19.5212C36.7318 21.0055 36.7318 22.4982 36.7318 23.9825C36.7318 24.3578 36.6185 24.708 36.2706 24.8247C36.0359 24.9081 35.7123 24.8748 35.4777 24.783C35.154 24.658 35.1136 24.3161 35.1136 23.9742C35.1217 19.8464 35.1136 15.7187 35.1136 11.5909C35.1136 8.06356 35.1217 4.52787 35.1055 1.00052C35.1055 0.40846 35.4534 0.0415487 35.9227 0.0248709C36.3839 0.00819315 36.7237 0.450154 36.7318 1.0172C36.748 1.30072 36.7399 1.60092 36.7399 1.83441ZM51.3361 5.00319C51.3361 6.18731 51.3361 7.32974 51.3361 8.49719C52.6307 8.43881 53.8605 8.18865 55.0095 7.62994C55.0904 7.58825 55.1794 7.47984 55.1875 7.39645C55.1956 6.32074 55.1956 5.24502 55.1956 4.12761C53.9415 4.70299 52.6792 4.9615 51.3361 5.00319ZM36.7399 7.07124C38.0021 6.89612 39.2157 6.72934 40.4375 6.56256C40.4375 5.45349 40.4375 4.31106 40.4375 3.1603C39.24 3.10192 38.1073 3.30206 36.9826 3.58558C36.8855 3.61059 36.756 3.78571 36.756 3.88578C36.7399 4.9615 36.7399 6.02887 36.7399 7.07124ZM45.7128 3.88578C44.5235 3.65229 43.3341 3.4188 42.1042 3.16863C42.1042 4.40279 42.1042 5.55356 42.1042 6.68765C43.3098 6.93781 44.4992 7.18798 45.7128 7.43815C45.7128 6.27904 45.7128 5.11993 45.7128 3.88578ZM42.1123 11.9161C43.326 12.183 44.5154 12.4415 45.7128 12.7C45.7128 11.5409 45.7128 10.3651 45.7128 9.14762C44.5154 8.89745 43.326 8.64729 42.1123 8.38878C42.1123 9.59792 42.1123 10.7737 42.1123 11.9161ZM50.883 10.265C49.7017 10.0566 48.5366 9.84809 47.3553 9.63962C47.3553 10.7987 47.3553 11.9578 47.3553 13.1753C48.5204 13.4088 49.6856 13.6423 50.883 13.8758C50.883 12.6166 50.883 11.4325 50.883 10.265ZM36.7399 17.2864C37.9859 17.0946 39.1995 16.9111 40.4456 16.7277C40.4456 15.7103 40.4456 14.6346 40.4456 13.5506C39.2643 13.5339 38.1234 13.659 37.0069 13.9925C36.9017 14.0259 36.756 14.1926 36.748 14.3011C36.7318 15.3017 36.7399 16.3024 36.7399 17.2864ZM45.7209 17.6866C45.7209 16.5859 45.7209 15.5185 45.7209 14.3844C44.5316 14.1176 43.3341 13.8508 42.1042 13.5672C42.1042 14.743 42.1042 15.8104 42.1042 16.8694C43.3017 17.1446 44.4911 17.4115 45.7209 17.6866ZM47.3634 18.187C48.4719 18.3788 49.5804 18.5622 50.7212 18.754C50.7212 17.5866 50.7212 16.5275 50.7212 15.5185C49.5885 15.3017 48.48 15.0849 47.3634 14.8681C47.3634 15.9355 47.3634 17.0112 47.3634 18.187ZM52.3799 18.5956C53.3023 18.5372 54.1599 18.3121 54.9771 17.9535C55.0661 17.9118 55.1875 17.7867 55.1875 17.7033C55.2037 16.6693 55.1956 15.6353 55.1956 14.6179C54.2408 14.8931 53.3265 15.16 52.3799 15.4351C52.3799 16.4442 52.3799 17.4949 52.3799 18.5956Z" fill="white"/>
<path d="M46.2389 32.8631C47.0803 32.8298 47.8813 32.7881 48.6824 32.7547C48.8199 32.7464 48.9494 32.7547 49.0869 32.7714C49.718 32.8715 50.2601 33.0966 50.4462 33.8138C50.6485 34.606 50.4705 35.3148 49.896 35.8651C49.5886 36.157 49.2002 36.3571 48.8199 36.6156C49.7747 37.7414 49.9688 39.134 49.9365 40.61C49.9122 41.7607 49.9284 42.9198 49.9284 44.0706C49.9284 44.721 49.7747 45.3298 49.3944 45.8635C49.3216 45.9635 49.2973 46.1136 49.2973 46.2471C49.2892 46.689 49.2568 47.1393 49.2973 47.5813C49.4025 48.682 48.4882 49.9162 47.2098 49.9829C46.2712 50.0246 45.3246 50.0162 44.386 49.9245C43.4555 49.8328 42.6707 48.8405 42.6545 47.8731C42.6464 47.5813 42.6545 47.2894 42.6545 46.9642C38.5928 46.9642 34.5392 46.9642 30.4775 46.9642C30.4451 47.3561 30.4532 47.7564 30.3804 48.14C30.1862 49.1073 29.458 49.8745 28.5194 49.9495C27.5 50.0246 26.4724 49.9996 25.4529 49.9245C24.6438 49.8661 23.6567 48.7988 23.7053 47.9065C23.7214 47.6563 23.681 47.4062 23.681 47.156C23.6891 46.5306 23.6648 45.9385 23.325 45.3715C23.147 45.0713 23.0984 44.6627 23.0984 44.2958C23.0742 42.7697 23.0903 41.2354 23.0903 39.7094C23.0823 38.6003 23.4059 37.6163 24.0855 36.7491C24.126 36.699 24.1584 36.6323 24.1988 36.5739C23.8509 36.3321 23.503 36.1153 23.1713 35.8651C22.5644 35.4148 22.346 34.7811 22.4511 34.0389C22.5644 33.2301 23.1955 32.7631 24.1341 32.7464C24.927 32.7381 25.728 32.7297 26.5209 32.7464C26.7637 32.7547 26.8689 32.663 26.9417 32.4295C27.2491 31.4872 27.5485 30.5449 27.9126 29.6277C28.6165 27.8765 29.9516 26.9509 31.764 26.9175C34.9437 26.8591 38.1235 26.8925 41.3114 26.9008C43.0186 26.9092 44.564 28.0599 45.1628 29.7444C45.5268 30.8118 45.8909 31.8625 46.2389 32.8631ZM36.4568 45.2714C40.0977 45.2714 43.7306 45.2714 47.3716 45.2714C47.9461 45.2714 48.2616 44.9712 48.3264 44.3792C48.3344 44.2791 48.3506 44.1874 48.3506 44.0873C48.3506 42.6947 48.3587 41.3104 48.3506 39.9178C48.3506 39.5843 48.3021 39.2507 48.2374 38.9339C47.8813 37.3078 46.5059 36.0653 45.009 36.0653C39.3615 36.0486 33.7139 36.082 28.0663 36.0486C26.3996 36.0403 24.6762 37.8081 24.6924 39.6093C24.7086 41.1687 24.6924 42.7197 24.6924 44.2791C24.6924 45.0129 24.9594 45.2714 25.6633 45.2714C29.2638 45.2714 32.8563 45.2714 36.4568 45.2714ZM45.0737 34.3475C44.5721 32.9299 44.119 31.5456 43.5931 30.1864C43.1885 29.144 42.3794 28.602 41.2952 28.5936C38.1154 28.577 34.9357 28.5686 31.7478 28.5936C30.704 28.602 29.6684 29.2774 29.3447 30.2948C29.0373 31.2788 28.6651 32.2377 28.3172 33.2134C28.1877 33.5803 28.0663 33.9472 27.9288 34.3391C33.6815 34.3475 39.3534 34.3475 45.0737 34.3475ZM25.2587 46.9559C25.2587 47.156 25.2587 47.3311 25.2587 47.5062C25.2587 48.14 25.461 48.3401 26.0759 48.3485C26.61 48.3485 27.1521 48.3401 27.6861 48.3485C28.7864 48.3818 28.9483 48.3568 28.8754 47.0059C28.8754 46.9976 28.8593 46.9892 28.835 46.9475C27.678 46.9559 26.4967 46.9559 25.2587 46.9559ZM47.7357 46.9642C46.5382 46.9642 45.365 46.9642 44.1676 46.9642C44.1676 47.1643 44.1595 47.3311 44.1676 47.4979C44.1837 48.1567 44.386 48.3485 45.0333 48.3568C45.5188 48.3568 46.0042 48.3401 46.4897 48.3651C47.8247 48.4235 47.8004 48.0233 47.7357 46.9642ZM26.3187 34.3975C25.461 34.3975 24.7328 34.3975 24.0046 34.3975C23.9885 34.4392 23.9642 34.4809 23.948 34.5226C24.4658 34.8395 24.9836 35.1563 25.5581 35.5066C25.8089 35.123 26.0355 34.7978 26.3187 34.3975ZM48.9817 34.3892C48.2535 34.3892 47.5334 34.3892 46.8133 34.3892C46.7891 34.4392 46.7567 34.4892 46.7324 34.5393C46.9994 34.8061 47.2179 35.148 47.5334 35.3148C47.8247 35.4649 48.828 34.7727 48.9817 34.3892Z" fill="white"/>
<path d="M24.1192 11.8991C21.6514 11.8991 19.1836 11.8407 16.7159 11.9157C13.4956 12.0075 10.5909 13.1165 8.03415 15.1262C4.70873 17.7446 2.62933 21.2219 1.91731 25.4498C0.865477 31.7373 2.57269 37.1659 7.19268 41.4938C9.45818 43.6119 12.1849 44.7876 15.2028 45.2796C16.9829 45.5715 18.771 45.4965 20.5672 45.5131C21.1579 45.5215 21.5139 45.8634 21.4572 46.3804C21.4168 46.764 21.1902 47.0141 20.8261 47.1059C20.6319 47.1559 20.4297 47.1726 20.2274 47.1642C18.9571 47.1476 17.6868 47.1809 16.4327 47.0975C13.2367 46.8724 10.2754 45.88 7.65387 43.9538C3.69735 41.0518 1.23767 37.1075 0.347649 32.1959C-0.679915 26.5088 0.606563 21.347 4.06954 16.8273C6.67486 13.4251 10.0974 11.332 14.24 10.5231C15.1462 10.348 16.0848 10.2646 17.0071 10.2563C22.0236 10.2313 27.0401 10.2396 32.0565 10.2396C32.5986 10.2396 32.8899 10.4397 32.9546 10.865C33.0436 11.4154 32.7685 11.8073 32.2102 11.8824C32.008 11.9074 31.8057 11.8907 31.6034 11.8907C29.1114 11.8907 26.6112 11.8907 24.1192 11.8907V11.8991Z" fill="white"/>
<path d="M24.5729 21.3972C22.2508 21.3972 19.9367 21.4055 17.6146 21.3972C15.1306 21.3805 12.0398 23.3819 11.2712 26.7257C10.6563 29.3942 11.1822 31.8125 13.0593 33.7888C14.3215 35.1147 15.9074 35.8485 17.7521 35.8735C18.5451 35.8819 19.3461 35.8735 20.139 35.8818C20.7782 35.8902 21.0937 36.2154 21.0533 36.8158C21.029 37.1827 20.7863 37.5163 20.4303 37.5079C18.7959 37.4996 17.1372 37.6997 15.5433 37.141C12.2017 35.9652 10.1384 33.6387 9.55589 30.0113C8.90861 26.0003 10.9637 22.081 14.54 20.4632C15.5433 20.0129 16.5951 19.7461 17.7036 19.7461C22.4935 19.7461 27.2753 19.7544 32.0652 19.7628C32.7287 19.7628 33.0766 20.1797 32.9471 20.7885C32.8662 21.1971 32.5588 21.3972 32.0167 21.3972C29.5327 21.3889 27.0569 21.3889 24.5729 21.3972C24.5729 21.3889 24.5729 21.3889 24.5729 21.3972Z" fill="white"/>
<path d="M57.4379 31.187C57.3893 28.2017 56.7501 25.3998 55.3261 22.7981C55.14 22.4645 55.051 22.1309 55.2856 21.7891C55.6497 21.2554 56.3294 21.2804 56.6288 21.9058C57.1628 23.0149 57.6968 24.1406 58.0932 25.3081C58.9104 27.7347 59.1289 30.2447 58.9266 32.8047C58.6273 36.6656 57.3003 40.0846 54.8487 43.0199C54.2985 43.6786 53.6513 44.2624 53.0363 44.8544C52.6965 45.188 52.2191 45.1463 51.9198 44.7961C51.6366 44.4708 51.6366 44.0039 51.9845 43.6786C52.9959 42.728 53.9344 41.719 54.695 40.5432C56.0462 38.4502 56.9039 36.157 57.2194 33.6636C57.3246 32.8464 57.3651 32.0125 57.4379 31.187Z" fill="white"/>
<path d="M50.012 30.0031C50.012 30.1282 50.0282 30.2532 50.012 30.3783C49.9635 30.8286 49.6156 31.1372 49.1867 31.1288C48.7498 31.1205 48.4666 30.7953 48.41 30.2866C48.321 29.5528 48.2563 28.8023 48.0863 28.0851C47.965 27.5848 47.6737 27.1345 47.4633 26.6675C47.3986 26.5341 47.3177 26.4007 47.2853 26.2506C47.1963 25.817 47.4148 25.4167 47.8193 25.2416C48.1349 25.0998 48.5799 25.2249 48.766 25.6418C49.1382 26.4924 49.4861 27.3596 49.7612 28.2436C49.9392 28.8023 49.9635 29.411 50.0606 29.9947C50.0444 30.0031 50.0282 30.0031 50.012 30.0031Z" fill="white"/>
<path d="M18.189 16.4193C17.4365 16.5194 16.676 16.6195 15.9235 16.7279C15.5432 16.7862 15.1872 16.5611 15.0901 16.1858C15.0092 15.869 15.1791 15.4937 15.5432 15.4187C16.765 15.1435 18.0029 14.9767 19.257 15.1601C19.6697 15.2185 19.7991 15.452 19.7749 15.894C19.7506 16.2942 19.4998 16.4527 19.168 16.486C18.8444 16.5194 18.5207 16.4944 18.1971 16.4944C18.189 16.461 18.189 16.4443 18.189 16.4193Z" fill="white"/>
<path d="M17.1127 42.2281C16.1822 42.0363 15.2518 41.8528 14.3213 41.636C13.9572 41.5526 13.7792 41.1857 13.852 40.8271C13.9167 40.5102 14.2808 40.2434 14.6206 40.3101C15.5188 40.4686 16.4169 40.627 17.3069 40.8104C17.6872 40.8855 17.9218 41.2107 17.8894 41.5443C17.8571 41.8945 17.5172 42.1864 17.1127 42.2281Z" fill="white"/>
<path d="M6.3276 26.7924C6.3276 27.6347 6.3276 28.4769 6.3276 29.3191C6.3276 29.6944 6.1415 29.9195 5.80168 29.9862C5.40522 30.0613 5.08967 29.8611 5.01685 29.4692C4.96021 29.1607 4.95212 28.8355 4.9683 28.5186C5.00066 27.8681 5.04921 27.2177 5.10585 26.5756C5.15439 26.0503 5.42949 25.7918 5.83404 25.8335C6.22241 25.8752 6.43278 26.167 6.4166 26.6673C6.4166 26.709 6.4166 26.7507 6.40851 26.7924C6.38423 26.7924 6.35996 26.7924 6.3276 26.7924Z" fill="white"/>
<path d="M7.95468 35.2403C7.96277 35.6572 7.80904 35.8657 7.4854 35.9574C7.14557 36.0491 6.87857 35.9074 6.74102 35.6155C6.41738 34.9401 6.1261 34.2396 5.83482 33.5475C5.74582 33.3306 5.66491 33.1138 5.60827 32.8803C5.51927 32.5051 5.70536 32.1299 6.00473 32.0214C6.35265 31.8964 6.70057 32.0631 6.86239 32.4467C7.2103 33.2806 7.55013 34.1228 7.88995 34.9567C7.9385 35.0735 7.94659 35.1986 7.95468 35.2403Z" fill="white"/>
<path d="M12.1516 39.5924C12.1677 40.2429 11.6256 40.6348 11.2211 40.3179C10.412 39.7008 9.65142 39.0254 8.90704 38.3333C8.65622 38.0998 8.70477 37.7495 8.96368 37.4827C9.23878 37.1992 9.53005 37.1575 9.82942 37.3993C10.5495 37.9997 11.2534 38.6168 11.9493 39.2422C12.0545 39.3589 12.1192 39.5424 12.1516 39.5924Z" fill="white"/>
<path d="M53.669 26.9847C53.6852 27.3432 53.491 27.5684 53.1835 27.6518C52.868 27.7352 52.5686 27.6268 52.4311 27.3182C52.0508 26.4677 51.6786 25.6171 51.3468 24.7498C51.2174 24.4246 51.3711 24.1244 51.6786 23.941C51.9941 23.7575 52.342 23.7992 52.4958 24.1161C52.9246 25 53.2806 25.9173 53.6609 26.8262C53.6771 26.8596 53.669 26.9263 53.669 26.9847Z" fill="white"/>
<path d="M10.4195 19.1372C10.2739 18.9954 10.0149 18.862 9.95021 18.6618C9.88548 18.4534 9.93403 18.0614 10.0716 17.9614C10.8564 17.411 11.6655 16.9023 12.4908 16.4354C12.8225 16.2519 13.1866 16.4604 13.3161 16.8023C13.4455 17.1442 13.3485 17.436 13.0491 17.6278C12.3209 18.0948 11.5927 18.5534 10.8564 19.0121C10.7674 19.0621 10.6379 19.0705 10.4195 19.1372Z" fill="white"/>
<path d="M6.15611 23.0238C6.51212 22.1899 6.95713 21.2143 7.68532 20.4221C7.89569 20.1886 8.2517 20.2303 8.50252 20.4554C8.77762 20.6973 8.7938 21.0141 8.62388 21.3227C8.21124 22.0815 7.78242 22.832 7.3455 23.5825C7.18368 23.8577 6.91667 23.9744 6.6173 23.8827C6.30175 23.791 6.12375 23.5658 6.15611 23.0238Z" fill="white"/>
<path d="M23.8606 16.4942C23.4318 16.4942 22.9949 16.5025 22.566 16.4942C22.1696 16.4859 21.9187 16.219 21.9026 15.8187C21.8945 15.4352 22.1129 15.1683 22.5256 15.16C23.4156 15.1433 24.3056 15.1433 25.1875 15.16C25.5678 15.1683 25.8186 15.4518 25.8186 15.8271C25.8186 16.219 25.5597 16.4859 25.1471 16.4942C24.7182 16.5025 24.2894 16.4942 23.8606 16.4942Z" fill="white"/>
<path d="M29.865 15.1516C30.2696 15.1516 30.6741 15.1432 31.0787 15.1516C31.4671 15.1683 31.7017 15.4268 31.7017 15.8103C31.7017 16.1522 31.4428 16.4691 31.111 16.4775C30.2453 16.4941 29.3876 16.4941 28.5219 16.4775C28.1497 16.4691 27.8827 16.1439 27.8908 15.7937C27.8989 15.4101 28.1254 15.1599 28.53 15.1432C28.975 15.1266 29.42 15.1349 29.865 15.1349C29.865 15.1432 29.865 15.1516 29.865 15.1516Z" fill="white"/>
<path d="M54.2268 31.2872C54.2268 31.6457 54.2349 32.0043 54.2268 32.3712C54.2106 32.8549 53.9678 33.105 53.5309 33.0967C53.1102 33.0967 52.8594 32.8299 52.8594 32.3545C52.8594 31.6207 52.8594 30.8869 52.8675 30.1531C52.8675 29.7445 53.1668 29.4359 53.5471 29.4276C53.9678 29.4109 54.2349 29.6444 54.2591 30.0864C54.2834 30.4866 54.2672 30.8869 54.2672 31.2955C54.2429 31.2872 54.2349 31.2872 54.2268 31.2872Z" fill="white"/>
<path d="M20.7132 40.9189C21.4252 40.9189 21.7812 41.3359 21.5547 41.8863C21.4091 42.2365 21.0288 42.3616 20.4624 42.2532C20.1307 42.1865 19.8717 41.8779 19.8717 41.561C19.8556 41.1274 20.1388 40.9189 20.7132 40.9189Z" fill="white"/>
<path d="M29.0085 42.9284C28.6848 42.9284 28.3612 42.9284 28.0376 42.9284C27.0019 42.9201 26.0067 42.0278 25.9096 41.0355C25.7721 39.6179 26.387 38.5672 27.5925 38.392C28.7819 38.2169 29.9713 38.317 30.9018 39.2676C31.5572 39.9431 31.7514 40.7936 31.6381 41.7109C31.5653 42.303 30.8047 42.9117 30.1736 42.9284C29.7852 42.9367 29.3969 42.9284 29.0085 42.9284ZM30.1008 41.3857C30.0603 40.5185 29.8419 40.1932 29.1379 40.0515C28.7334 39.9681 28.3127 39.9681 27.9 39.9931C27.7625 40.0015 27.5764 40.1932 27.5278 40.335C27.366 40.7936 27.544 41.1772 27.9971 41.2439C28.6767 41.344 29.3726 41.344 30.1008 41.3857Z" fill="white"/>
<path d="M43.9026 42.9532C43.6356 42.9532 43.3605 42.9365 43.0935 42.9532C42.0417 43.0366 41.087 42.2861 41.3944 40.7684C41.7019 39.2674 42.7537 38.4085 44.3476 38.3502C44.7198 38.3335 45.1082 38.3168 45.4723 38.3919C46.3704 38.5836 46.9692 39.3008 47.0986 40.2764C47.2281 41.2521 46.7911 42.161 45.9011 42.6614C45.626 42.8115 45.3024 42.8949 44.9868 42.9366C44.6308 42.9866 44.2667 42.9449 43.9026 42.9532ZM42.9074 41.3438C43.4415 41.3438 43.9512 41.3605 44.4609 41.3355C44.6875 41.3271 44.914 41.2855 45.1244 41.2021C45.4561 41.0686 45.5937 40.7267 45.5209 40.3432C45.4561 39.9679 45.1891 39.9596 44.9059 39.9596C44.7198 39.9596 44.5257 39.9429 44.3396 39.9596C43.5224 40.0263 42.9803 40.2598 42.9074 41.3438Z" fill="white"/>
<path d="M36.4889 39.4673C37.4032 39.4673 38.3175 39.4673 39.2318 39.4673C39.7658 39.4673 40.0894 39.7592 40.1056 40.2345C40.1218 40.7265 39.7982 41.0684 39.2561 41.0684C37.4356 41.0767 35.6232 41.0684 33.8027 41.0684C33.7056 41.0684 33.6166 41.0517 33.5195 41.035C33.0502 40.935 32.8156 40.6014 32.856 40.1094C32.8884 39.7258 33.1554 39.484 33.6166 39.4757C34.5794 39.4506 35.5342 39.459 36.4889 39.4673C36.4889 39.459 36.4889 39.459 36.4889 39.4673Z" fill="white"/>
</g>
<defs>
<clipPath id="clip0_413_3079">
<rect width="59" height="50" fill="white"/>
</clipPath>
</defs>
</svg>
