<svg width="32" height="19" viewBox="0 0 32 19" fill="none" xmlns="http://www.w3.org/2000/svg">
<g clip-path="url(#clip0_413_2997)">
<path d="M0 2.40819C0.049987 2.24383 0.0833116 2.07125 0.14163 1.90689C0.524863 0.772809 1.58292 0.00853525 2.82426 0.00853525C4.90706 0.000317261 6.98985 0.00853525 9.07264 0.00853525C15.7376 0.00853525 22.4025 0.00853525 29.0674 0.00853525C30.4754 0.00853525 31.5834 0.830335 31.9084 2.10412C31.95 2.25205 31.9833 2.40819 31.9833 2.55611C31.9917 2.90127 31.9833 3.25464 31.9833 3.64089C31.8417 3.64089 31.7167 3.64089 31.5834 3.64089C22.6358 3.64089 13.6964 3.64089 4.74876 3.64089C3.89065 3.64089 3.55741 3.96139 3.55741 4.80784C3.55741 6.45966 3.55741 8.11148 3.55741 9.77151C3.55741 10.4947 3.91565 10.8563 4.64879 10.8563C7.13981 10.8563 9.62249 10.8563 12.1135 10.8563C12.2301 10.8563 12.3385 10.8563 12.4718 10.8563C12.4718 13.1984 12.4718 15.5241 12.4718 17.8662C11.8886 17.8662 11.3137 17.8662 10.7222 17.8662C11.0221 16.009 10.4389 14.5215 8.77272 13.5764C7.39807 12.804 5.97344 12.8697 4.67378 13.7572C3.22416 14.7434 2.72429 16.1487 3.02421 17.8498C2.04947 18.0388 0.824785 17.3814 0.316584 16.3788C0.174954 16.0994 0.099974 15.7871 0 15.483C0 11.1193 0 6.76373 0 2.40819Z" fill="#1A1A1A"/>
<path d="M19.5195 10.8643C23.6851 10.8643 27.8174 10.8643 31.9746 10.8643C31.983 10.9136 31.9996 10.9464 31.9996 10.9875C31.9996 12.3846 32.0163 13.7816 31.9913 15.1787C31.9663 16.7155 30.65 17.9235 29.1004 17.8824C29.0587 17.8824 29.0171 17.8742 28.9754 17.866C29.2753 16.058 28.7255 14.5952 27.1259 13.6337C25.7512 12.8119 24.31 12.8448 22.9686 13.7241C21.4857 14.7021 20.9692 16.1238 21.2774 17.866C20.7026 17.866 20.1194 17.866 19.5195 17.866C19.5195 15.5321 19.5195 13.2146 19.5195 10.8643Z" fill="#1A1A1A"/>
<path d="M17.5942 17.8663C16.5112 17.8663 15.4531 17.8663 14.3867 17.8663C14.3867 13.7491 14.3867 9.6483 14.3867 5.51465C15.4448 5.51465 16.5112 5.51465 17.5942 5.51465C17.5942 9.61543 17.5942 13.7244 17.5942 17.8663Z" fill="#1A1A1A"/>
<path d="M31.9745 5.49805C31.9745 6.67322 31.9745 7.82374 31.9745 8.98248C29.3085 8.98248 26.6509 8.98248 23.9766 8.98248C23.9766 7.81552 23.9766 6.65678 23.9766 5.49805C26.6509 5.49805 29.3002 5.49805 31.9745 5.49805Z" fill="#1A1A1A"/>
<path d="M6.87391 14.916C8.01528 14.916 8.94004 15.82 8.94004 16.9459C8.94004 18.0717 8.01528 18.9839 6.87391 18.9757C5.75753 18.9757 4.83277 18.0635 4.82444 16.9541C4.80778 15.8446 5.73254 14.916 6.87391 14.916Z" fill="#1A1A1A"/>
<path d="M25.1286 19.0002C23.9789 19.0002 23.0625 18.0962 23.0625 16.9703C23.0625 15.8527 24.0039 14.9323 25.137 14.9405C26.2617 14.9487 27.1781 15.8527 27.1864 16.9621C27.1864 18.0962 26.2783 18.992 25.1286 19.0002Z" fill="#1A1A1A"/>
<path d="M8.01418 5.50586C8.01418 6.65638 8.01418 7.81512 8.01418 8.98207C7.1644 8.98207 6.32295 8.98207 5.46484 8.98207C5.46484 7.83155 5.46484 6.68103 5.46484 5.50586C6.29796 5.50586 7.14774 5.50586 8.01418 5.50586Z" fill="#1A1A1A"/>
<path d="M12.4879 5.50586C12.4879 6.67281 12.4879 7.81512 12.4879 8.98207C11.6381 8.98207 10.7883 8.98207 9.92188 8.98207C9.92188 7.83155 9.92188 6.67281 9.92188 5.50586C10.7717 5.50586 11.6131 5.50586 12.4879 5.50586Z" fill="#1A1A1A"/>
<path d="M22.0611 8.99029C21.2029 8.99029 20.3615 8.99029 19.5117 8.99029C19.5117 7.82333 19.5117 6.67281 19.5117 5.50586C20.3615 5.50586 21.2029 5.50586 22.0611 5.50586C22.0611 6.65638 22.0611 7.8069 22.0611 8.99029Z" fill="#1A1A1A"/>
</g>
<defs>
<clipPath id="clip0_413_2997">
<rect width="32" height="19" fill="white"/>
</clipPath>
</defs>
</svg>
