<svg width="32" height="16" viewBox="0 0 32 16" fill="none" xmlns="http://www.w3.org/2000/svg">
<g clip-path="url(#clip0_413_2979)">
<path d="M0 7.2351C0.225059 6.61744 0.658505 6.38899 1.30034 6.38899C9.17739 6.38052 17.0544 6.34668 24.9232 6.34668C25.715 6.34668 26.5069 6.55821 27.2988 6.68512C27.8823 6.7782 28.4657 6.87973 29.0492 6.98973C30.1328 7.19279 30.9581 7.78507 31.5249 8.74964C31.5582 8.80041 31.5749 8.85964 31.6249 8.95271C31.0998 8.95271 30.6163 8.95271 30.1328 8.95271C29.5077 8.95271 29.0742 9.35038 29.0826 9.90882C29.0909 10.4588 29.5244 10.848 30.1245 10.848C30.7413 10.848 31.3498 10.848 31.9833 10.848C31.9833 11.6603 32.0167 12.4472 31.975 13.234C31.95 13.6571 31.5749 13.9786 31.1331 13.9871C30.2079 14.0125 29.2826 13.9955 28.3157 13.9955C28.3074 12.4979 27.7572 11.2795 26.5486 10.408C25.7734 9.84959 24.8981 9.61268 23.9562 9.6719C22.0224 9.79036 20.1136 11.3895 20.1136 13.9871C16.8461 13.9871 13.5869 13.9871 10.286 13.9871C10.3027 12.481 9.7192 11.2626 8.50221 10.3911C7.73535 9.84113 6.86845 9.61268 5.93488 9.6719C3.87601 9.79882 2.03386 11.5672 2.10055 13.9702C1.63376 13.9702 1.16697 14.004 0.708518 13.9617C0.33342 13.9279 0.150039 13.5979 0 13.2679C0 11.2541 0 9.24885 0 7.2351ZM14.3704 8.95271C14.1287 8.95271 13.8953 8.94425 13.6536 8.95271C13.1368 8.96117 12.7366 9.34192 12.7033 9.84959C12.6783 10.3403 13.0534 10.8057 13.5619 10.8395C14.087 10.8734 14.6205 10.8734 15.1539 10.8395C15.6624 10.8057 16.0375 10.3488 16.0042 9.84959C15.9792 9.34192 15.5791 8.96117 15.0539 8.95271C14.8205 8.94425 14.5955 8.95271 14.3704 8.95271Z" fill="#1A1A1A"/>
<path d="M11.8359 4.40012C11.8359 2.92788 11.8359 1.48103 11.8359 0.0426336C11.8693 0.0257113 11.886 0.00878906 11.9026 0.00878906C13.4614 0.0341725 15.0368 -0.0504389 16.5788 0.118784C18.6127 0.338773 20.2965 1.41334 21.7552 2.84327C22.2386 3.31709 22.6804 3.84168 23.1972 4.40858C19.3546 4.40012 15.6119 4.40012 11.8359 4.40012Z" fill="#1A1A1A"/>
<path d="M9.93609 0.0174478C9.93609 1.48122 9.93609 2.92808 9.93609 4.40031C7.07701 4.40031 4.22627 4.40031 1.36719 4.40031C2.40913 2.14119 7.02699 -0.219464 9.93609 0.0174478Z" fill="#1A1A1A"/>
<path d="M24.2045 16.0001C22.9958 16.0001 22.0122 15.0101 22.0039 13.7917C22.0039 12.5733 23.0125 11.558 24.2295 11.5665C25.4298 11.5749 26.4301 12.5733 26.4301 13.7833C26.4384 15.0101 25.4381 16.0086 24.2045 16.0001Z" fill="#1A1A1A"/>
<path d="M8.39333 13.7836C8.39333 15.0274 7.41808 16.0089 6.18442 16.0089C4.96744 16.0089 3.99219 15.0274 3.99219 13.8005C3.99219 12.5652 4.98411 11.5668 6.2011 11.5752C7.41808 11.5668 8.39333 12.5567 8.39333 13.7836Z" fill="#1A1A1A"/>
</g>
<defs>
<clipPath id="clip0_413_2979">
<rect width="32" height="16" fill="white"/>
</clipPath>
</defs>
</svg>
