<svg width="55" height="50" viewBox="0 0 55 50" fill="none" xmlns="http://www.w3.org/2000/svg">
<g clip-path="url(#clip0_413_3049)">
<path d="M47.161 36.427C47.161 33.756 47.1705 31.1135 47.1514 28.4804C47.1514 28.1773 47.0847 27.8553 46.9703 27.5711C46.8177 27.1923 46.503 26.9934 46.0739 26.9934C40.3051 26.9934 34.5362 26.9934 28.7673 26.9934C28.6719 26.9934 28.5861 27.0123 28.4717 27.0218C28.4717 30.1663 28.4717 33.2824 28.4717 36.408C33.1249 37.4025 34.7745 41.3427 34.2119 44.3735C33.554 47.9348 30.5408 50.0754 27.3083 49.9996C23.6849 49.9144 21.2057 47.2908 20.7003 44.3167C20.1091 40.907 22.3118 37.1468 26.4788 36.427C26.4788 33.3108 26.4788 30.1853 26.4788 27.0123C26.2785 27.0123 26.0974 27.0123 25.9066 27.0123C20.3475 27.0123 14.7789 27.0312 9.21975 26.9934C8.11365 26.9839 7.77991 27.5901 7.77991 28.4236C7.77991 30.1 7.76084 31.767 7.76084 33.4434C7.76084 34.438 7.76084 35.423 7.76084 36.408C11.9564 37.2131 14.016 40.6134 13.6251 44.0705C13.2437 47.4328 10.2877 50.028 6.86452 50.0091C3.22201 49.9901 0.647456 47.4139 0.10394 44.4493C-0.573071 40.7365 1.77263 37.1468 5.81563 36.427C5.81563 35.1199 5.81563 33.8128 5.81563 32.5058C5.81563 31.0661 5.81563 29.6359 5.81563 28.1962C5.81563 26.3872 7.11244 25.118 8.92416 25.118C14.5786 25.118 20.2426 25.118 25.8971 25.118C26.0687 25.118 26.2404 25.118 26.4502 25.118C26.4502 22.8733 26.4502 20.6664 26.4502 18.3932C26.2785 18.3932 26.1069 18.3932 25.9353 18.3932C23.9805 18.3932 22.0258 18.3932 20.071 18.3932C18.8123 18.3932 17.9255 17.5029 17.9255 16.2527C17.9255 11.5359 17.9255 6.80961 17.9255 2.09281C17.9255 0.908875 18.8314 0.0185547 20.0329 0.0185547C24.9722 0.0185547 29.921 0.0185547 34.8604 0.0185547C36.0713 0.0185547 36.9963 0.937289 36.9963 2.1307C36.9963 6.83803 36.9963 11.5359 36.9963 16.2432C36.9963 17.4745 36.0809 18.3932 34.8508 18.3932C32.734 18.3932 30.6267 18.3932 28.4812 18.3932C28.4812 20.638 28.4812 22.8543 28.4812 25.118C28.6814 25.118 28.8626 25.118 29.0533 25.118C34.7269 25.118 40.4004 25.118 46.0739 25.118C47.7808 25.118 49.1157 26.4345 49.1157 28.1299C49.1157 30.8956 49.1157 33.6518 49.1157 36.4459C51.2803 36.8626 52.968 37.9708 54.0932 39.8746C54.8942 41.248 55.1611 42.7444 54.9037 44.2883C54.2648 48.0674 51.0991 50.1417 47.8094 49.9996C44.1859 49.8481 41.6495 47.1013 41.3063 43.9852C40.9058 40.1587 43.4613 37.0426 47.161 36.427ZM35.0701 16.4611C35.0701 11.5927 35.0701 6.75278 35.0701 1.9318C29.9782 1.9318 24.9245 1.9318 19.8708 1.9318C19.8708 6.79067 19.8708 11.6117 19.8708 16.4611C24.9436 16.4611 29.9878 16.4611 35.0701 16.4611ZM43.2038 43.1896C43.118 45.7185 45.2348 48.0579 48.1431 48.0958C50.7749 48.1337 53.111 45.8606 53.1015 43.218C53.0824 40.4713 50.9084 38.2644 48.0573 38.3023C45.0823 38.3307 43.1084 40.7933 43.2038 43.1896ZM11.7562 43.2275C11.7752 40.5092 9.6107 38.2834 6.83591 38.3023C3.95623 38.3213 2.04915 40.5186 1.90612 42.9339C1.74402 45.7185 3.94669 48.0864 6.81684 48.0958C9.71559 48.0958 11.8229 45.6901 11.7562 43.2275ZM32.4288 43.237C32.4288 40.5755 30.1213 38.2834 27.4228 38.2834C24.7433 38.2834 22.5216 40.4997 22.5121 43.1896C22.5025 45.8511 24.7719 48.1243 27.4895 48.0864C30.2262 48.058 32.3907 45.8511 32.4288 43.237Z" fill="#1A1A1A"/>
</g>
<defs>
<clipPath id="clip0_413_3049">
<rect width="55" height="50" fill="white"/>
</clipPath>
</defs>
</svg>
