<svg width="32" height="22" viewBox="0 0 32 22" fill="none" xmlns="http://www.w3.org/2000/svg">
<g clip-path="url(#clip0_413_2971)">
<path d="M32.0008 17.9655C31.9383 18.21 31.882 18.4545 31.8133 18.699C31.207 20.759 29.1758 22.1466 26.982 21.9938C24.7945 21.841 22.9633 20.1905 22.6883 18.0572C22.4445 16.2233 23.1383 14.7685 24.6445 13.6804C24.8195 13.552 24.857 13.4603 24.7758 13.2647C24.4945 12.5984 24.2258 11.926 23.9758 11.2475C23.9008 11.0519 23.807 10.9908 23.5945 10.9969C22.1258 11.0091 20.657 11.003 19.1883 11.003C19.0758 11.003 18.9633 11.003 18.8633 11.003C18.8633 9.92102 18.7695 8.85739 18.8883 7.8121C19.0383 6.46117 20.207 5.54425 21.607 5.50146C23.0883 5.45867 24.1758 4.54174 24.4195 3.12357C24.5633 2.29223 24.1633 1.83377 23.307 1.83377C22.7883 1.83377 22.2695 1.83377 21.732 1.83377C21.732 1.22249 21.732 0.641772 21.732 0.0243787C22.3508 0.0243787 22.9883 -0.0245238 23.607 0.0366043C25.0945 0.171086 26.3383 0.831269 27.3195 1.90712C28.4258 3.12357 29.357 4.45616 29.7883 6.06383C30.0195 6.92574 30.1695 7.79987 30.0133 8.69234C29.782 10.0188 28.5758 11.003 27.1945 11.003C26.7695 11.003 26.3445 11.003 25.8695 11.003C26.007 11.3392 26.1258 11.6448 26.2508 11.9505C26.3758 12.2622 26.5008 12.574 26.6383 12.9041C27.4133 12.7574 28.1695 12.8368 28.8883 13.1058C30.5883 13.7476 31.6133 14.9519 31.9508 16.7062C31.9633 16.7612 31.9883 16.8163 32.007 16.8713C32.0008 17.2319 32.0008 17.5987 32.0008 17.9655ZM25.5445 15.337C24.5195 16.0277 24.2133 17.562 24.8383 18.7112C25.507 19.9338 27.0383 20.4839 28.3508 19.9705C29.682 19.4509 30.407 18.0449 30.032 16.7062C29.6945 15.4898 28.4133 14.5362 27.307 14.7012C27.6008 15.4959 27.8945 16.2845 28.1945 17.0975C27.607 17.3053 27.032 17.5131 26.4383 17.721C26.132 16.9202 25.8445 16.1377 25.5445 15.337Z" fill="#1A1A1A"/>
<path d="M12.9244 14.6644C12.6682 14.0348 12.4307 13.4541 12.1869 12.855C15.6369 12.855 19.0932 12.855 22.6182 12.855C21.0682 14.3771 20.5432 16.2293 20.7057 18.3321C20.5432 18.3321 20.4182 18.3321 20.2994 18.3321C17.2869 18.3321 14.2807 18.3382 11.2682 18.326C11.0057 18.326 10.8744 18.3871 10.7682 18.6378C9.78066 20.9606 7.34941 22.2871 4.75566 21.9326C2.33691 21.6025 0.361906 19.6158 0.0494058 17.1951C-0.394344 13.7536 2.46816 10.7522 5.99941 11.0151C8.26191 11.1862 9.84941 12.366 10.7807 14.3832C10.8744 14.5911 10.9682 14.6767 11.2057 14.6705C11.7494 14.6522 12.2932 14.6644 12.9244 14.6644ZM8.80566 14.6522C8.20566 13.3502 6.34316 12.5555 4.80566 12.9223C2.98691 13.3502 1.79941 14.8967 1.88066 16.7061C1.96191 18.4605 3.36816 19.9092 5.22441 20.1476C6.61816 20.331 8.41816 19.4202 8.78691 18.3505C7.28066 18.2038 6.54316 17.5741 6.56191 16.4555C6.58066 15.3735 7.36816 14.7317 8.80566 14.6522Z" fill="#1A1A1A"/>
<path d="M16.9625 7.32913C16.9625 8.56391 16.9625 9.76202 16.9625 10.9785C16.825 10.9846 16.7375 10.9968 16.65 10.9968C14.6937 10.9968 12.7375 10.9968 10.7812 10.9907C10.6562 10.9907 10.5 10.9724 10.4062 10.899C8.75625 9.63977 6.85 9.18131 4.8 9.16297C3.60625 9.15686 2.54375 8.80843 1.64375 8.04432C0.56875 7.13963 0.025 5.97819 0 4.58447C0 4.29106 0 3.99764 0 3.67978C0.10625 3.67367 0.19375 3.66144 0.28125 3.66144C1.7875 3.66144 3.3 3.65533 4.80625 3.66755C4.9625 3.66755 5.1375 3.71646 5.26875 3.79592C7.20625 4.92679 9.14375 6.06377 11.0813 7.18853C11.225 7.27411 11.4062 7.32301 11.575 7.32301C13.2625 7.33524 14.95 7.32913 16.6313 7.32913C16.75 7.32913 16.8625 7.32913 16.9625 7.32913Z" fill="#1A1A1A"/>
<path d="M11.668 5.4161C12.5367 3.45389 13.9555 2.24967 16.0367 1.90735C18.0117 1.57726 19.6742 2.24356 21.093 3.66784C20.843 3.72286 20.6492 3.75953 20.4492 3.80844C19.4867 4.06517 18.693 4.57254 18.0367 5.30607C17.9492 5.40388 17.7867 5.48335 17.6555 5.48335C15.7992 5.49557 13.9492 5.48946 12.093 5.48946C11.9742 5.48946 11.8492 5.44667 11.668 5.4161Z" fill="#1A1A1A"/>
</g>
<defs>
<clipPath id="clip0_413_2971">
<rect width="32" height="22" fill="white"/>
</clipPath>
</defs>
</svg>
