<svg width="50" height="50" viewBox="0 0 50 50" fill="none" xmlns="http://www.w3.org/2000/svg">
<g clip-path="url(#clip0_413_3070)">
<path d="M48.0575 24.3591C48.3273 24.3862 48.5633 24.3726 48.7724 24.4269C49.5144 24.6234 49.9933 25.369 49.9933 26.3179C49.9933 29.0968 49.9933 31.8757 49.9933 34.6546C49.9933 35.3188 49.973 35.9898 50 36.6541C50.0337 37.6233 49.3795 38.5451 48.2463 38.4366C48.2059 38.4299 48.1586 38.4434 48.0575 38.4502C48.0575 38.5722 48.0575 38.6874 48.0575 38.8094C48.0575 40.6191 48.0642 42.422 48.044 44.2317C48.0305 45.7973 47.3897 47.1055 46.3038 48.2103C45.0695 49.4709 43.5451 50.0064 41.8117 50.0132C33.6031 50.0132 25.4013 50.0132 17.1928 50.0132C13.2672 50.0132 9.34844 50.0132 5.42291 50.0132C3.86483 50.0132 2.48213 49.5658 1.40294 48.3865C0.505868 47.4172 0.0202347 46.2582 0.0202347 44.9298C0.00674491 34.092 0.0134898 23.2543 0 12.4233C0 10.7831 1.15338 9.17677 2.83286 8.4651C3.48712 8.18721 4.16835 8.04487 4.89006 8.05165C7.82409 8.0652 10.7581 8.05165 13.6922 8.0652C14.0429 8.0652 14.3464 7.99065 14.6499 7.83476C18.9869 5.67263 23.3171 3.52406 27.6541 1.38227C28.3961 1.01627 29.1313 0.629932 29.8934 0.311375C31.755 -0.461297 33.5829 0.250374 34.4462 2.08039C35.3433 3.97818 36.2134 5.88275 37.0835 7.79409C37.1779 7.99743 37.2791 8.0652 37.5017 8.0652C38.8169 8.05165 40.1322 8.05843 41.4475 8.05843C43.7677 8.05165 45.69 9.67155 45.98 11.976C46.088 12.8639 45.9733 13.7789 45.9396 14.6804C45.9328 14.8837 45.9868 14.9854 46.1284 15.1006C47.3627 16.1173 48.017 17.4254 48.044 19.0249C48.071 20.6855 48.0575 22.3461 48.0575 24.0066C48.0575 24.1151 48.0575 24.2303 48.0575 24.3591ZM1.90881 15.3717C1.90881 15.514 1.90881 15.6021 1.90881 15.697C1.90881 21.3904 1.90881 27.0838 1.90881 32.7771C1.90881 36.6744 1.90206 40.5716 1.91555 44.4689C1.9223 46.6581 3.23756 48.034 5.30824 48.034C17.4828 48.0408 29.6574 48.0408 41.8252 48.0272C42.3445 48.0272 42.8841 47.9459 43.3765 47.7832C45.0223 47.2614 46.1217 45.6415 46.1352 43.7911C46.1487 42.0967 46.1419 40.4022 46.1352 38.7077C46.1352 38.6332 46.1217 38.5586 46.1217 38.4637C46.007 38.457 45.9058 38.4434 45.8114 38.4434C42.9786 38.4434 40.1457 38.457 37.3128 38.4434C36.7665 38.4434 36.2134 38.396 35.6806 38.2875C31.9911 37.5352 29.6236 33.9023 30.3319 30.0321C30.6354 28.3783 31.4313 27.0024 32.7195 25.9248C33.8864 24.9555 35.2152 24.393 36.7463 24.393C39.7477 24.3862 42.7492 24.393 45.7507 24.393C45.8721 24.393 45.9868 24.393 46.0947 24.393C46.1217 24.332 46.1352 24.3116 46.1352 24.2913C46.1352 22.5969 46.1622 20.9024 46.1284 19.2079C46.1082 18.1303 45.7102 17.1949 44.8267 16.5104C44.0375 15.9071 43.1202 15.7309 42.1692 15.7309C29.6911 15.7241 17.213 15.7241 4.74167 15.7241C3.79738 15.7106 2.8531 15.7309 1.90881 15.3717ZM48.0237 26.3585C47.9226 26.3518 47.8619 26.345 47.7944 26.345C44.1791 26.345 40.5571 26.345 36.9419 26.3518C36.6181 26.3518 36.2876 26.3924 35.9773 26.4602C33.1377 27.1312 31.7348 29.8288 32.3014 32.4789C32.8342 34.9664 34.8172 36.5117 37.3466 36.5185C40.773 36.5185 44.1994 36.5185 47.6258 36.5185C47.7539 36.5185 47.8888 36.5185 48.0237 36.5185C48.0237 33.1093 48.0237 29.7475 48.0237 26.3585ZM37.6501 13.745C37.5017 13.4265 37.3735 13.1486 37.2521 12.8775C35.721 9.54277 34.1832 6.21486 32.6588 2.88017C32.4565 2.44639 32.1462 2.14816 31.6741 2.0465C31.121 1.9245 30.6489 2.16172 30.17 2.39217C22.7776 6.03186 15.3919 9.66477 7.99946 13.2977C7.73641 13.4265 7.4801 13.562 7.21705 13.6908C8.53231 13.7382 9.82059 13.745 11.1089 13.7382C11.2168 13.7382 11.3247 13.6908 11.4259 13.6434C16.6329 11.0813 21.8468 8.51932 27.0538 5.95052C27.5462 5.70652 28.0386 5.74719 28.4028 6.16064C29.4078 7.29253 30.6556 7.77376 32.1462 7.70598C32.6184 7.68565 32.9286 7.90254 33.131 8.35665C33.9067 10.0986 34.7093 11.8269 35.5119 13.562C35.5524 13.6434 35.6873 13.7247 35.7817 13.7315C36.3888 13.7518 36.9958 13.745 37.6501 13.745ZM33.4143 13.7382C32.8072 12.4098 32.2272 11.1288 31.6336 9.84777C31.5999 9.76644 31.4717 9.69188 31.3841 9.6851C29.9811 9.57666 28.7266 9.10221 27.6609 8.16687C27.5125 8.03809 27.4046 8.02454 27.2292 8.11265C23.5127 9.93588 19.7963 11.7523 16.0731 13.5688C15.9922 13.6095 15.918 13.6569 15.7898 13.7382C21.6984 13.7382 27.5327 13.7382 33.4143 13.7382ZM44.0375 13.9755C44.0577 13.5485 44.0847 13.1892 44.0982 12.83C44.1657 11.5287 43.3495 10.2816 42.0747 10.1053C40.773 9.92911 39.4375 10.0037 38.1222 9.96299C38.1155 10.0511 38.1087 10.0782 38.1155 10.0918C38.6483 11.2643 39.1879 12.4369 39.7275 13.6095C39.7545 13.6705 39.8557 13.7315 39.9231 13.7315C41.2923 13.7654 42.6615 13.6569 44.0375 13.9755ZM10.0904 10.085C10.0836 10.0579 10.0769 10.0375 10.0634 10.0104C8.49858 10.0104 6.94051 10.024 5.37569 10.0037C4.78888 9.99688 4.2358 10.0782 3.7097 10.2951C2.88008 10.634 2.25954 11.1762 2.03022 12.0912C1.91555 12.5453 2.03022 12.9181 2.39444 13.2028C2.75192 13.4807 3.12289 13.5417 3.54782 13.3248C4.96425 12.6063 6.39417 11.915 7.81735 11.2101C8.57952 10.8373 9.33495 10.4578 10.0904 10.085Z" fill="white"/>
<path d="M6.62506 35.0751C6.62506 38.159 6.62506 41.2429 6.62506 44.3268C6.62506 44.9978 6.15292 45.4655 5.56611 45.4045C5.12769 45.357 4.74998 44.9233 4.68927 44.3878C4.67578 44.2523 4.67578 44.1167 4.67578 43.9811C4.67578 37.9286 4.67578 31.876 4.67578 25.8166C4.67578 25.2066 5.03326 24.766 5.55936 24.7321C6.17315 24.6915 6.62506 25.1252 6.6318 25.7624C6.6318 27.084 6.6318 28.4057 6.6318 29.7274C6.62506 31.5032 6.62506 33.2857 6.62506 35.0751Z" fill="white"/>
<path d="M6.62346 20.713C6.62346 21.1875 6.62346 21.6619 6.62346 22.1364C6.62346 22.6651 6.21202 23.0921 5.70615 23.0988C5.14632 23.1124 4.68092 22.7057 4.67418 22.1635C4.66069 21.1604 4.66069 20.1505 4.67418 19.1474C4.68092 18.6594 5.14632 18.2256 5.62521 18.2256C6.11759 18.2256 6.60997 18.6865 6.62346 19.1813C6.6302 19.6964 6.62346 20.2047 6.62346 20.713Z" fill="white"/>
<path d="M37.0159 34.4243C35.3499 34.4039 34.0347 33.0416 34.0549 31.3539C34.0752 29.5917 35.4174 28.2564 37.1778 28.3174C38.7426 28.3717 40.0714 29.5781 40.0579 31.3946C40.0377 33.2585 38.5673 34.4717 37.0159 34.4243ZM38.0681 31.3675C38.0681 30.7642 37.6297 30.3372 37.0227 30.3372C36.4426 30.344 36.0312 30.7846 36.0312 31.381C36.0379 31.9436 36.5033 32.4384 37.0362 32.4384C37.5892 32.4451 38.0681 31.9436 38.0681 31.3675Z" fill="white"/>
</g>
<defs>
<clipPath id="clip0_413_3070">
<rect width="50" height="50" fill="white"/>
</clipPath>
</defs>
</svg>
