<svg width="56" height="50" viewBox="0 0 56 50" fill="none" xmlns="http://www.w3.org/2000/svg">
<g clip-path="url(#clip0_413_3062)">
<path d="M24.0054 30.1728C25.3827 29.7259 26.3059 28.7565 27.2065 27.7493C27.2443 27.7038 27.2821 27.6357 27.2821 27.5826C27.2519 26.795 27.2443 25.9998 27.1762 25.2197C27.1611 25.0152 27.0097 24.8032 26.8811 24.6214C26.0032 23.4703 25.3978 22.1828 25.027 20.7893C24.9665 20.562 24.8908 20.4863 24.6411 20.4484C23.8692 20.3273 23.3394 19.8426 22.9081 19.1534C22.1816 16.8208 21.9697 16.6011 22.0984 15.2379C22.1513 14.6547 22.3859 14.1019 22.7492 13.6475C22.7794 13.6096 22.8021 13.5793 22.8324 13.5415C22.893 13.4581 22.8854 13.3067 22.8778 13.1855C22.787 11.7162 22.6054 10.247 22.613 8.77774C22.6432 5.36968 24.2475 2.87044 27.214 1.227C28.4173 0.560536 29.7265 0.204583 31.0811 0.113702C32.5567 0.0152467 34.0551 -0.0226206 35.5308 0.0379671C37.173 0.113702 38.7394 0.530242 40.0184 1.64354C40.4497 2.02221 40.8054 2.49177 41.1459 2.94618C41.3578 3.22639 41.5697 3.47632 41.8951 3.65051C43.507 4.50631 44.5892 5.80895 44.854 7.63415C44.9978 8.62627 44.9448 9.66384 44.8767 10.6787C44.8162 11.5875 44.6043 12.4887 44.4757 13.3976C44.4605 13.496 44.4832 13.6399 44.5513 13.7081C45.2097 14.3594 45.2778 15.1849 45.2021 16.0255C45.1265 16.9419 44.9903 17.8507 44.6043 18.6914C44.1881 19.6002 43.5978 20.3121 42.5384 20.4939C42.44 20.509 42.3038 20.6454 42.2735 20.7514C41.9027 22.1373 41.3048 23.4097 40.427 24.5457C40.0411 25.0455 40.0713 25.659 39.9957 26.2346C39.9578 26.5451 39.9805 26.8632 39.9957 27.1813C40.0108 27.5448 40.147 27.8326 40.3967 28.1204C41.5394 29.4306 43.053 30.0213 44.68 30.4757C46.5038 30.9907 48.3427 31.5133 50.0984 32.2252C53.1632 33.4748 54.9265 35.8604 55.5924 39.0943C55.9859 41.0104 55.9557 42.9492 55.9859 44.888C56.0011 45.9862 56.0011 47.0843 55.9557 48.1825C55.9178 49.1594 55.0021 49.9925 54.0259 49.9925C41.2897 49.9925 28.5459 49.9925 15.8097 49.9925C15.3405 49.9925 14.9319 49.8562 14.5459 49.5836C14.3946 49.4775 14.1751 49.3866 14.0086 49.4094C12.7827 49.5533 11.5643 49.4548 10.3686 49.2125C6.43349 48.4021 3.53511 46.1301 1.59025 42.6463C0.341601 40.4197 -0.180561 37.9962 0.0616011 35.4515C0.318898 32.6947 1.34052 30.2334 3.1643 28.1279C5.08647 25.9165 7.47782 24.4775 10.3384 23.9095C14.2432 23.1295 17.7848 24.008 20.8951 26.5224C22.1438 27.5372 23.173 28.7565 24.0054 30.1728ZM49.7654 48.5611C49.9243 48.5611 50.0454 48.5611 50.174 48.5611C51.347 48.5611 52.52 48.5611 53.693 48.5611C54.3438 48.5611 54.4876 48.4248 54.5178 47.7735C54.5254 47.6978 54.5254 47.622 54.5178 47.5463C54.4951 45.5545 54.5027 43.5627 54.4421 41.5708C54.4043 40.2379 54.1924 38.9201 53.6703 37.6781C52.7773 35.5575 51.1881 34.1413 49.0616 33.3915C46.814 32.5963 44.5135 31.945 42.2357 31.2482C42.16 31.2255 41.9935 31.3391 41.9405 31.43C40.8584 33.2552 39.7913 35.0879 38.7243 36.9207C38.4216 37.4357 38.0432 37.4887 37.5816 37.0949C37.0973 36.6784 36.6054 36.2694 36.1059 35.8453C35.6897 36.6026 35.1903 37.3221 35.6897 38.2234C35.6973 38.2309 35.6897 38.2461 35.6973 38.2612C36.0227 39.8971 36.3784 41.5178 36.6584 43.1613C36.8475 44.2897 36.9384 45.4333 37.0594 46.5693C37.1276 47.2282 37.1654 47.8871 37.2184 48.546C40.9416 48.546 44.627 48.546 48.3351 48.546C48.3351 48.3794 48.3351 48.2431 48.3351 48.1067C48.3351 46.077 48.3351 44.0474 48.3351 42.0101C48.3351 41.8662 48.3503 41.6996 48.4184 41.5784C48.5697 41.2679 48.9103 41.1391 49.2508 41.2225C49.5913 41.3133 49.773 41.5784 49.773 41.9949C49.773 44.0398 49.773 46.0846 49.773 48.1295C49.7654 48.2506 49.7654 48.387 49.7654 48.5611ZM23.4151 15.4878C23.4605 16.4951 23.6497 17.3812 24.0357 18.2294C24.2854 18.7747 24.6562 19.1004 25.3297 19.0398C26.0411 18.9716 26.2151 19.1382 26.3816 19.8653C26.813 21.7359 27.5848 23.4097 29.0151 24.7577C31.2475 26.8556 34.6378 27.2191 37.2184 25.5605C39.307 24.2125 40.4648 22.2661 40.9113 19.8501C41.04 19.1534 41.2973 18.9338 41.9632 19.0549C42.5005 19.1534 42.8638 18.9186 43.0908 18.5021C43.6432 17.4872 43.7794 16.3664 43.7416 15.2228C43.734 15.0334 43.5903 14.7608 43.4389 14.6926C43.3103 14.632 43.0681 14.8062 42.894 14.9047C42.614 15.0637 42.3643 15.2833 42.0692 15.4121C41.6757 15.5787 41.2443 15.2682 41.2216 14.8365C41.1913 14.2079 41.1611 13.5793 41.1459 12.9431C41.1005 11.0195 40.253 9.55024 38.6184 8.54297C38.5124 8.48238 38.2854 8.48238 38.1946 8.55054C36.6659 9.73957 34.8724 10.2318 33.0032 10.4591C31.1265 10.6787 29.2573 10.5045 27.4184 10.141C27.0475 10.0652 26.9416 10.1713 26.8357 10.4818C26.4043 11.8526 26.1924 13.2612 26.0184 14.685C25.9275 15.4424 25.4584 15.6696 24.8075 15.2682C24.5503 15.1092 24.3308 14.9047 24.0735 14.7381C23.7935 14.5563 23.5892 14.632 23.4984 14.9501C23.4303 15.1395 23.4303 15.3515 23.4151 15.4878ZM24.5881 13.443C24.6486 13.1628 24.6789 13.0189 24.7167 12.8674C24.9589 11.8071 25.1405 10.7317 25.4584 9.69413C25.8292 8.46723 26.1546 8.35363 27.4108 8.61113C29.454 9.02009 31.5124 9.23972 33.5784 8.80046C35.0767 8.48238 36.4994 7.99768 37.6648 6.94496C38.0357 6.61173 38.3686 6.60416 38.8075 6.86923C39.1481 7.08129 39.4886 7.30092 39.814 7.5357C41.0097 8.39907 42.0086 9.44421 42.4021 10.9059C42.614 11.686 42.6897 12.5039 42.8411 13.3748C42.9092 13.2688 43.0151 13.1779 43.0303 13.0719C43.1665 12.0873 43.333 11.1104 43.3935 10.1182C43.4389 9.32303 43.4313 8.5051 43.2951 7.71746C43.0757 6.41482 42.2432 5.52115 41.0778 4.94557C40.5254 4.67293 40.1621 4.25639 39.8216 3.75654C39.4886 3.25669 39.0346 2.80228 38.5427 2.46147C37.5892 1.80258 36.454 1.61325 35.3265 1.55266C34.1459 1.49207 32.9654 1.50722 31.7848 1.54509C30.6648 1.58295 29.5675 1.78744 28.5308 2.2267C25.8973 3.34757 24.4065 5.36211 24.2248 8.20216C24.1189 9.81531 24.3081 11.4436 24.3838 13.0643C24.3686 13.1552 24.4746 13.2537 24.5881 13.443ZM24.293 36.5723C24.3081 30.1198 18.9503 24.9319 12.7373 25.0228C6.68322 25.1137 1.21944 30.2031 1.42376 36.898C1.60538 42.8432 6.61512 48.2279 13.3427 48.0159C19.5103 47.8189 24.2324 42.5933 24.293 36.5723ZM17.6713 48.5384C21.9092 48.5384 26.0486 48.5384 30.1881 48.5384C30.2032 48.4854 30.2184 48.4551 30.2259 48.4172C30.3773 46.8571 30.5211 45.2894 30.6875 43.7293C30.907 41.6693 31.3232 39.6472 31.8378 37.6402C31.8832 37.466 31.9059 37.254 31.8378 37.1025C31.6562 36.6935 31.4216 36.3073 31.187 35.8907C30.68 36.33 30.2032 36.739 29.7265 37.1404C29.3481 37.4584 28.9621 37.413 28.7124 36.9965C27.8573 35.5802 27.0021 34.1564 26.1621 32.725C25.8746 32.2328 25.6248 31.7102 25.3524 31.1876C25.2238 31.2482 25.1178 31.2936 25.0194 31.3391C24.9059 31.3921 24.8 31.4375 24.6562 31.5057C25.9957 34.8077 26.0789 38.1098 24.7243 41.4118C23.3621 44.7214 20.9859 47.0389 17.6713 48.5384ZM33.9946 37.9431C33.7221 38.0492 33.3816 37.7311 33.2378 38.3067C32.7989 40.094 32.3751 41.8889 32.1784 43.7217C32.0497 44.9183 31.8908 46.1149 31.7546 47.3191C31.7092 47.7205 31.7016 48.1295 31.6789 48.5384C33.0638 48.5384 34.3957 48.5384 35.7578 48.5384C35.5232 44.9486 35.0238 41.4345 33.9946 37.9431ZM38.5275 26.4921C35.2735 28.6051 32.0497 28.7035 28.7805 26.4996C28.7578 26.9768 28.7503 27.4085 28.7124 27.8326C28.6897 28.0749 28.7805 28.234 28.9546 28.3779C29.8173 29.0973 30.6648 29.8244 31.52 30.5439C32.2238 31.1346 32.9275 31.7178 33.6238 32.3009C33.6994 32.2555 33.7448 32.2328 33.7827 32.2025C35.3492 30.9225 36.9157 29.6426 38.4746 28.3476C38.5578 28.2794 38.6184 28.1355 38.6184 28.0295C38.6108 27.5448 38.573 27.0449 38.5275 26.4921ZM37.8994 35.3909C38.9816 33.7399 40.0259 32.1192 40.7524 30.3015C40.3665 29.991 39.9957 29.6956 39.6248 29.3927C38.1492 30.6045 36.7038 31.7859 35.213 33.0052C36.1286 33.8308 37.0065 34.6032 37.8994 35.3909ZM32.0421 33.0658C32.027 33.0128 32.027 32.9977 32.0194 32.9901C30.6573 31.8162 29.2951 30.6423 27.9254 29.4836C27.8648 29.4381 27.7059 29.4306 27.6454 29.476C27.3578 29.6805 27.0854 29.9001 26.8281 30.1425C26.7524 30.2106 26.6919 30.4 26.7297 30.4833C27.4713 32.1949 28.4551 33.7702 29.454 35.3682C30.3243 34.5881 31.1794 33.8308 32.0421 33.0658ZM34.8497 34.8759C33.9416 33.8232 33.3362 33.8535 32.3827 34.891C32.6097 35.3606 32.8519 35.8226 33.0713 36.2921C33.2454 36.6632 33.5708 36.489 33.8357 36.4966C33.9643 36.5042 34.1535 36.4057 34.214 36.2921C34.4486 35.8377 34.6378 35.353 34.8497 34.8759Z" fill="#1A1A1A"/>
<path d="M22.7785 36.5871C22.7104 42.2672 18.1244 46.4932 12.9709 46.4856C7.03793 46.478 2.62604 41.5023 2.92875 35.86C3.18604 31.0509 7.55253 26.4084 13.1904 26.5901C18.4725 26.7643 22.7331 31.2402 22.7785 36.5871ZM20.652 33.3457C19.7817 30.8085 17.0952 28.3472 13.6066 28.0442C9.30821 27.6731 6.24334 30.4374 5.0628 33.1942C5.14604 33.2169 5.22929 33.2396 5.31253 33.2548C6.60658 33.4062 7.90064 33.5729 9.20226 33.694C9.47469 33.7168 9.78496 33.8455 10.0498 33.5729C11.6844 31.9218 14.265 32.1642 15.839 33.4896C15.9298 33.5653 16.0812 33.6259 16.2023 33.6259C16.7925 33.6183 17.3828 33.5956 17.9731 33.5501C18.866 33.4971 19.7514 33.4214 20.652 33.3457ZM15.0444 44.8119C17.012 44.1757 18.6239 43.1306 19.7817 41.4568C20.5385 40.3587 21.0682 39.1696 21.2498 37.814C21.1363 37.814 21.0985 37.8064 21.0606 37.814C19.8725 38.0185 18.692 38.2533 17.5039 38.4123C16.8606 38.5032 16.3914 38.7304 16.0055 39.2908C15.7482 39.6771 15.5136 40.0179 15.4682 40.4874C15.3471 41.8961 15.1958 43.3123 15.0444 44.8119ZM10.6325 44.7286C10.6325 44.6225 10.6401 44.5241 10.6325 44.4256C10.5114 43.2517 10.3677 42.0779 10.2769 40.8964C10.2239 40.1845 10.1482 39.5029 9.55037 39.0106C9.40658 38.8894 9.2401 38.7607 9.06604 38.7152C8.55902 38.5789 8.04442 38.4729 7.52983 38.3593C6.50064 38.1321 5.47145 37.8973 4.43469 37.6625C4.94929 41.0479 7.38604 43.8576 10.6325 44.7286ZM12.8725 39.3211C14.3558 39.4423 15.5969 38.0866 15.6271 36.678C15.6725 34.7695 14.1742 33.7773 12.8271 33.7698C11.3439 33.7546 10.1179 35.0497 10.1179 36.6553C10.1255 37.92 11.2985 39.4271 12.8725 39.3211ZM11.7828 40.6389C11.7828 40.6616 11.7677 40.7449 11.7677 40.8358C11.866 42.1763 11.9644 43.5168 12.0779 44.8573C12.0855 44.9331 12.199 45.0618 12.2671 45.0618C12.706 45.0845 13.145 45.0694 13.6066 45.0694C13.7277 43.5698 13.8563 42.1006 13.9774 40.6389C13.2206 40.6389 12.5169 40.6389 11.7828 40.6389ZM4.31361 36.1781C5.82712 36.5114 7.27253 36.8294 8.68766 37.14C8.76334 36.4356 8.83145 35.7995 8.90712 35.1103C7.46929 34.9361 6.00875 34.7619 4.51037 34.5801C4.44226 35.1406 4.38172 35.6328 4.31361 36.1781ZM17.0498 37.0264C18.4877 36.7764 19.9331 36.5265 21.4163 36.2614C21.3179 35.7086 21.2271 35.2087 21.1363 34.6786C19.6606 34.8149 18.2379 34.9512 16.8531 35.08C16.9212 35.754 16.9817 36.375 17.0498 37.0264Z" fill="#1A1A1A"/>
</g>
<defs>
<clipPath id="clip0_413_3062">
<rect width="56" height="50" fill="white"/>
</clipPath>
</defs>
</svg>
