<svg width="32" height="22" viewBox="0 0 32 22" fill="none" xmlns="http://www.w3.org/2000/svg">
<g clip-path="url(#clip0_413_3010)">
<path d="M0 0.735004C0.216498 0.175399 0.624512 0 1.19906 0C7.44418 0.00835232 13.681 0.00835232 19.9261 0.00835232C20.8171 0.00835232 21.1335 0.317388 21.1335 1.20273C21.1335 4.70235 21.1335 8.19362 21.1335 11.6932C21.1335 11.8102 21.1335 11.9188 21.1335 12.0607C21.0252 12.0691 20.9336 12.0774 20.8421 12.0774C13.9558 12.0774 7.06948 12.0774 0.18319 12.0774C0.124902 12.0774 0.0582878 12.0691 0 12.0691C0 8.29385 0 4.51025 0 0.735004Z" fill="#1A1A1A"/>
<path d="M0 13.9485C0.133229 13.9485 0.266458 13.9568 0.408015 13.9568C7.1694 13.9568 13.9391 13.9568 20.7005 13.9568C20.8337 13.9568 20.967 13.9568 21.1335 13.9568C21.1335 14.0988 21.1335 14.1991 21.1335 14.2993C21.1335 15.8194 21.1335 17.3479 21.1335 18.868C21.1335 19.6448 20.7838 20.0039 20.0094 20.0039C18.9935 20.0039 17.9693 20.0039 16.9534 20.0039C16.8618 20.0039 16.7702 20.0039 16.662 20.0039C16.7203 17.6987 15.7377 16.0867 13.5477 15.3851C11.7242 14.8088 10.1754 15.36 8.90138 16.805C7.46916 15.2013 5.72053 14.7169 3.73875 15.5772C1.85688 16.3957 1.05751 17.9409 1.14078 19.9622C0.607858 20.054 0.299766 19.8619 0 19.2689C0 17.4982 0 15.7275 0 13.9485Z" fill="#1A1A1A"/>
<path d="M25.1561 6.04688C25.1561 6.22227 25.1561 6.34756 25.1561 6.47284C25.1561 8.60268 25.1561 10.7325 25.1561 12.8624C25.1561 13.6057 25.5059 13.9565 26.247 13.9565C28.0289 13.9565 29.8025 13.9565 31.5844 13.9565C31.701 13.9565 31.8093 13.9565 31.9592 13.9565C31.9675 14.0735 31.9758 14.1737 31.9758 14.2739C31.9758 15.8191 31.9758 17.3643 31.9758 18.9094C31.9758 19.6361 31.6094 20.0036 30.8767 20.0119C30.5353 20.0119 30.1939 20.0119 29.8275 20.0119C29.9357 18.1828 29.2613 16.7545 27.7125 15.8191C26.1637 14.892 24.5982 14.9504 23.0078 15.9277C23.0078 15.769 23.0078 15.6604 23.0078 15.5435C23.0078 12.7705 23.0078 9.98917 23.0078 7.2162C23.0078 6.38932 23.3409 6.05523 24.1569 6.05523C24.4817 6.04687 24.7981 6.04688 25.1561 6.04688Z" fill="#1A1A1A"/>
<path d="M27.0469 12.0523C27.0469 10.0477 27.0469 8.0682 27.0469 6.0887C29.7781 5.64603 32.426 8.87837 31.9431 12.0523C30.311 12.0523 28.6789 12.0523 27.0469 12.0523Z" fill="#1A1A1A"/>
<path d="M5.48093 17.0557C6.8382 17.0474 7.96232 18.1582 7.954 19.5113C7.94567 20.9312 6.89649 21.9919 5.48925 22.0003C4.09035 22.0086 2.99953 20.9145 3.00786 19.4946C3.01619 18.1666 4.13198 17.0557 5.48093 17.0557Z" fill="#1A1A1A"/>
<path d="M12.317 17.0557C13.6659 17.0557 14.7817 18.1582 14.7901 19.4946C14.7984 20.9145 13.7076 22.0086 12.3087 22.0086C10.9098 22.0003 9.85226 20.9395 9.84393 19.5196C9.82728 18.1666 10.9597 17.0474 12.317 17.0557Z" fill="#1A1A1A"/>
<path d="M25.4799 17.0557C26.8372 17.0474 27.9779 18.1749 27.9696 19.5029C27.9613 20.9145 26.9038 21.9919 25.5049 22.0003C24.0976 22.0086 23.0152 20.9145 23.0235 19.4946C23.0235 18.1582 24.131 17.0641 25.4799 17.0557Z" fill="#1A1A1A"/>
</g>
<defs>
<clipPath id="clip0_413_3010">
<rect width="32" height="22" fill="white"/>
</clipPath>
</defs>
</svg>
