<svg viewBox="0 0 81.022 50.05" xmlns="http://www.w3.org/2000/svg" xmlns:xlink="http://www.w3.org/1999/xlink" width="81.021973" height="50.050049" fill="none" customFrame="#000000">
	<g id="Group">
		<path id="Vector" />
		<path id="Vector" d="M80.9007 21.8733C80.4896 20.3726 79.6549 19.0469 78.023 18.7343C76.9516 18.5217 75.818 18.7093 74.7092 18.7468C74.5971 18.7468 74.4352 18.9594 74.3853 19.1095C74.1611 19.7973 73.9742 20.4977 73.7749 21.198C73.6379 21.6482 73.5133 22.0985 73.3264 22.6988C73.2143 22.4611 73.1769 22.3986 73.152 22.3236C72.118 19.4346 71.0965 16.5332 70.05 13.6567C69.1406 11.1555 66.836 9.16699 63.6343 9.26704C60.8812 9.35459 58.1156 9.27955 55.35 9.27955C50.1177 9.27955 44.8855 9.25454 39.6532 9.29206C36.7631 9.31707 34.7449 10.7928 33.5739 13.3816C32.8513 14.9824 32.2907 16.6582 31.6803 18.3091C31.1322 19.7973 30.5965 21.2981 30.0359 22.8488C29.7992 22.4736 29.5874 22.1735 29.4006 21.8608C28.9147 21.0229 28.2171 20.6352 27.2454 20.6727C26.473 20.6978 25.7131 20.6727 24.9407 20.6853C23.9067 20.6978 23.1219 21.1605 22.5862 22.0484C21.1909 24.3496 22.798 27.5387 25.5262 27.3011C25.7504 27.276 25.9747 27.3011 26.2861 27.3011C26.174 27.5887 26.0743 27.7888 26.0121 28.0014C25.8127 28.7768 25.5013 29.5647 25.4764 30.3401C25.3892 33.1665 25.3518 36.0054 25.4141 38.8443C25.439 39.8198 25.576 40.8954 26.037 41.7208C26.6349 42.8213 26.7346 43.8969 26.6972 45.0724C26.6848 45.5102 26.7221 45.9479 26.6848 46.3856C26.6225 47.0985 26.7221 47.8238 27.0336 48.4616C27.1955 48.7743 27.3949 49.0619 27.6316 49.3246C28.3915 50.1375 29.6497 49.9249 30.6339 49.9249C31.3564 49.9249 32.0914 49.9124 32.814 49.9249C33.2874 49.9374 33.7483 49.9999 34.2217 49.9499C35.3304 49.8373 35.9907 49.0619 36.327 48.0489C36.5886 47.2485 36.6136 46.3856 36.5762 45.5477C36.5637 45.3601 36.5886 45.1725 36.5637 44.9849C36.4765 44.4096 36.7008 44.247 37.2738 44.247C46.9036 44.2595 56.5334 44.2595 66.1632 44.247C66.674 44.247 66.8111 44.4346 66.7861 44.8974C66.7612 45.5852 66.7612 46.273 66.7737 46.9609C66.7861 47.5362 66.9107 48.1115 67.2097 48.6117C67.3467 48.8618 67.5336 49.0744 67.7329 49.2745C67.9447 49.4871 68.1689 49.6998 68.443 49.8373C68.7918 50.0124 69.178 50.0124 69.5517 50.0249C69.9753 50.0499 70.4113 50.0499 70.8349 50.0499C71.6945 50.0499 72.554 50.0374 73.4136 50.0374C73.4261 50.0374 73.451 50.0374 73.4635 50.0374C74.2857 50.0374 75.0705 49.9999 75.6934 49.3871C75.9052 49.1745 76.1045 48.9494 76.2789 48.6993C76.528 48.3241 76.6775 47.8989 76.7398 47.4611C76.8021 47.0484 76.8021 46.6232 76.8021 46.198C76.8021 45.4101 76.7648 44.6097 76.8146 43.8218C76.8395 43.4091 76.9765 42.9714 77.1759 42.6212C77.6991 41.7208 78.0479 40.8203 78.0354 39.7448C77.9981 36.7433 77.9856 33.7418 78.0354 30.7403C78.0603 29.2145 77.6742 27.8263 76.9142 26.5382C76.852 26.4256 76.8021 26.2881 76.7149 26.0754C77.0264 26.0754 77.2506 26.0629 77.4748 26.0754C78.3843 26.1255 79.194 25.8753 79.8667 25.25C80.826 24.2996 81.2495 23.1615 80.9007 21.8733ZM33.2126 20.5477C33.9227 18.6217 34.6826 16.7083 35.3678 14.7573C36.1526 12.4812 37.7721 11.5307 39.9522 11.5182C47.9252 11.4681 55.8981 11.4681 63.871 11.5182C65.5653 11.5307 67.0477 12.2685 67.7205 13.9194C68.8043 16.5582 69.7262 19.272 70.7477 22.0609C58.0034 22.0609 45.4087 22.0609 32.7143 22.0609C32.8887 21.5107 33.0382 21.0229 33.2126 20.5477ZM24.8784 24.8248C24.4175 24.5622 24.2306 24.0244 24.3926 23.3991C24.5171 22.8989 24.8659 22.7613 25.3269 22.8238C25.3892 22.8363 25.4515 22.8363 25.5138 22.8238C26.7346 22.6612 27.7935 22.8738 28.3292 24.237C27.6814 24.9749 25.738 25.3251 24.8784 24.8248ZM34.3338 47.0985C34.3213 47.6237 33.7483 48.0864 33.088 48.1115C32.1163 48.149 31.1322 48.1615 30.1729 48.099C29.3258 48.0489 29.0144 47.6362 29.0144 46.7983C29.0144 45.9854 29.0144 45.1725 29.0144 44.2971C30.7834 44.2971 32.5274 44.2971 34.3587 44.2971C34.3463 45.235 34.3712 46.1605 34.3338 47.0985ZM74.5722 47.0859C74.5348 47.6988 73.9991 48.0739 73.2766 48.1115C72.2426 48.1615 71.2086 48.149 70.1746 48.124C69.5642 48.1115 69.1033 47.6988 69.0783 47.136C69.0285 46.1855 69.0659 45.235 69.0659 44.2595C70.947 44.2595 72.6786 44.2595 74.5348 44.2595C74.5597 45.1975 74.6345 46.148 74.5722 47.0859ZM75.8553 30.8904C75.793 33.8543 75.8304 36.8058 75.8304 39.7698C75.8304 41.2455 75.1452 41.9209 73.6503 41.9209C66.5868 41.9209 59.5357 41.9209 52.4722 41.9209C52.2604 41.9209 52.0611 41.9209 51.8493 41.9209C44.7111 41.9209 37.5603 41.9209 30.4221 41.9209C28.8026 41.9209 27.6689 40.8578 27.6565 39.2195C27.6316 36.3431 27.5194 33.4541 27.6814 30.5902C27.8433 27.8388 29.3881 25.8753 31.8298 24.6747C32.2907 24.4496 32.8513 24.3371 33.3621 24.3371C44.1131 24.3121 54.8641 24.3121 65.6276 24.3246C67.3716 24.3246 69.1157 24.4121 70.8598 24.3746C71.7692 24.3621 72.4046 24.8748 72.9901 25.3876C73.7126 26.0254 74.3729 26.7758 74.9086 27.5762C75.5813 28.5642 75.8802 29.6647 75.8553 30.8904ZM78.6832 23.174C78.596 23.4616 78.0977 23.7493 77.7614 23.7868C76.9267 23.8743 76.0796 23.8118 75.1203 23.8118C75.4691 22.8363 75.793 21.9359 76.1169 21.0479C76.1543 20.9604 76.2664 20.8353 76.3287 20.8478C76.9018 20.9229 77.6119 20.8478 78.023 21.1605C78.6334 21.6107 78.9324 22.4111 78.6832 23.174Z" fill="rgb(26,26,26)" fill-rule="nonzero" />
		<path id="Vector" d="M2.09305 24.5623C3.86204 24.5623 5.43171 24.5623 7.00138 24.5623C7.22562 24.5623 7.46232 24.5498 7.68655 24.5873C8.59597 24.7874 9.23131 25.4752 9.26868 26.4257C9.31851 27.6138 9.34343 28.8019 9.2936 29.99C9.21885 31.4282 8.06029 32.4787 6.61519 32.4912C5.40679 32.5037 4.21085 32.4912 3.00246 32.4912C2.77822 32.4912 2.55398 32.4912 2.255 32.4912C2.255 33.917 2.24254 35.2801 2.27991 36.6433C2.27991 36.8309 2.52906 37.081 2.71593 37.1936C2.97754 37.3437 3.30144 37.4687 3.60043 37.4687C5.34451 37.4937 7.07613 37.4812 8.85758 37.4812C9.15656 35.8929 9.62996 34.3797 10.5892 33.054C12.3333 30.6778 14.6504 29.4397 17.6029 29.2896C19.7207 29.1771 21.5395 29.8399 23.2462 30.9905C23.757 31.3282 23.9189 31.7284 23.8567 32.2911C23.7819 32.9415 23.7196 33.5918 23.6573 34.1546C22.8725 33.6293 22.0254 33.0415 21.1533 32.4912C18.6618 30.8904 15.3107 31.3157 13.0932 33.5168C9.86665 36.7184 10.5767 42.2836 14.5134 44.5473C17.1544 46.073 20.356 45.6353 22.7604 43.4342C22.9722 43.2466 23.1964 43.0715 23.5078 42.8089C23.8442 43.4842 24.1681 44.0845 24.4422 44.6973C24.492 44.7974 24.3923 45.01 24.3051 45.0975C20.0695 49.012 14.6753 48.3242 11.3616 44.8974C10.1407 43.6343 9.40572 42.1336 9.01953 40.4327C8.9697 40.2326 8.90741 40.0325 8.84512 39.7949C7.18825 39.7949 5.55629 39.8074 3.91187 39.7949C1.94355 39.7824 0.523374 38.7319 0.0873547 36.9685C0.0250662 36.7309 0.0126084 36.4807 0.0126084 36.2306C0.0126084 32.4162 0.0375239 28.6018 0.000150737 24.7874C-0.012307 22.8864 0.747613 21.4107 2.20516 20.2726C3.53814 19.2221 4.92094 18.2091 6.25392 17.1586C6.49061 16.971 6.7024 16.7084 6.82697 16.4457C8.74546 12.2061 10.6764 7.96648 12.5575 3.72686C13.2053 2.26363 14.0774 0.975488 15.6346 0.487744C16.681 0.162581 17.8271 0.0625313 18.9359 0.0625313C24.193 0.0125063 29.4377 0.0375188 34.6949 0.0250125C35.8534 0.0250125 37.0244 0 38.183 0C40.2759 0 42.0574 1.4007 42.456 3.46423C42.6678 4.56478 42.7176 5.69034 42.8547 6.79089C42.9045 7.16608 42.7176 7.32866 42.3937 7.3912C41.8705 7.49125 41.3348 7.56628 40.7244 7.67884C40.6496 7.09105 40.5873 6.52826 40.5126 5.95298C40.4379 5.29015 40.4005 4.62731 40.2884 3.97699C40.089 2.8014 39.6157 2.4012 38.4571 2.4012C32.1037 2.4012 25.7502 2.4012 19.3968 2.4012C18.8985 2.4012 18.4002 2.42621 17.9019 2.4012C16.0581 2.27614 14.7874 3.67684 14.5009 5.19009C14.613 5.2026 14.7376 5.24012 14.8497 5.24012C18.3628 5.21511 21.8634 5.17759 25.3765 5.14007C26.9462 5.12756 27.7933 5.89044 27.8057 7.46623C27.8182 10.6553 27.7933 13.8444 27.7559 17.0335C27.7435 18.2091 26.8465 19.047 25.663 19.047C19.8453 19.0345 14.04 19.022 8.22224 19.022C7.92325 19.022 7.56198 19.1346 7.31282 19.3097C6.07951 20.2226 4.85866 21.1481 3.65026 22.1111C3.23915 22.4487 2.85297 22.8489 2.55398 23.2866C2.36711 23.6243 2.29237 24.0495 2.09305 24.5623ZM25.5384 7.45373C25.2145 7.45373 24.9778 7.45373 24.7287 7.45373C21.2405 7.45373 17.7648 7.47874 14.2767 7.42871C13.6164 7.41621 13.3424 7.66633 13.0807 8.21661C11.835 10.9805 10.5518 13.7194 9.2936 16.4707C9.26868 16.5333 9.26868 16.6208 9.24377 16.7209C14.6878 16.7209 20.0944 16.7209 25.526 16.7209C25.5384 13.6318 25.5384 10.5803 25.5384 7.45373ZM7.10104 26.8134C5.45663 26.8134 3.8745 26.8134 2.27991 26.8134C2.27991 27.989 2.27991 29.1146 2.27991 30.1776C3.77484 30.1776 5.21993 30.1901 6.66502 30.1651C6.81451 30.1651 7.08858 29.915 7.08858 29.7649C7.12596 28.7894 7.10104 27.8139 7.10104 26.8134Z" fill="rgb(26,26,26)" fill-rule="nonzero" />
		<path id="Vector" d="M18.1141 42.6464C15.2737 42.809 13.8162 40.3327 13.7912 38.6069C13.7663 36.4308 15.7347 34.3547 17.8649 34.4923C20.8174 34.6799 21.9261 35.5679 22.0507 38.807C22.1379 41.1206 20.481 42.6464 18.1141 42.6464ZM18.002 40.4453C19.31 40.5829 19.8208 39.4448 19.8332 38.5694C19.8457 37.3938 19.1231 36.6934 17.977 36.7059C16.9555 36.7059 16.0212 37.6064 16.0336 38.5819C16.0586 39.6699 16.8558 40.4328 18.002 40.4453Z" fill="rgb(26,26,26)" fill-rule="nonzero" />
		<path id="Vector" d="M51.9111 29.5647C54.6891 29.5647 57.4797 29.5647 60.2577 29.5647C62.0766 29.5647 63.2974 30.9404 63.0358 32.7538C62.8738 33.8794 62.6745 35.0049 62.4378 36.118C62.0766 37.8438 60.6688 38.9694 58.9248 38.9694C54.1908 38.9694 49.4569 38.9694 44.723 38.9694C42.9914 38.9694 41.6958 38.094 41.2846 36.4056C40.9483 35.0049 40.724 33.5542 40.6742 32.116C40.6244 30.7028 41.9449 29.5772 43.3651 29.5772C46.2304 29.5647 49.0707 29.5647 51.9111 29.5647ZM60.0459 35.1425C60.0086 35.13 59.9712 35.105 59.9338 35.105C54.8262 35.13 49.7185 35.155 44.6109 35.1925C44.3368 35.1925 44.0503 35.3426 43.7762 35.4301C43.9132 35.7428 44.0004 36.093 44.2247 36.3431C44.3742 36.5182 44.6856 36.5932 44.9348 36.6057C45.7694 36.6432 46.5916 36.6182 47.4263 36.6182C51.1262 36.6182 54.8137 36.6307 58.5137 36.6307C59.4854 36.6307 60.183 35.9429 60.0459 35.1425ZM60.6439 32.9539C60.7436 31.8909 60.6688 31.8033 59.6971 31.7783C59.6348 31.7783 59.5726 31.7783 59.5103 31.7783C54.6144 31.7783 49.7061 31.7783 44.8102 31.7783C44.3991 31.7783 43.988 31.8158 43.5769 31.8784C42.792 32.0034 42.7422 32.141 43.0661 32.9539C48.9212 32.9539 54.7639 32.9539 60.6439 32.9539Z" fill="rgb(26,26,26)" fill-rule="nonzero" />
		<path id="Vector" d="M28.877 33.2417C28.9268 31.3658 30.6086 28.4519 33.7106 28.6144C36.252 28.752 38.4321 30.3903 38.4694 33.1542C38.5193 35.8931 36.3765 38.0066 33.748 37.9941C31.0945 37.9691 28.8645 35.8055 28.877 33.2417ZM33.5736 35.6179C34.9688 35.5929 36.1772 34.5299 36.1398 33.3418C36.09 31.7785 35.0436 30.803 33.449 30.8405C32.2904 30.8656 31.1568 32.1037 31.1817 33.3043C31.2191 34.5174 32.3652 35.6429 33.5736 35.6179Z" fill="rgb(26,26,26)" fill-rule="nonzero" />
		<path id="Vector" d="M74.6341 33.2667C74.6466 35.6054 72.4042 37.8315 70.0248 37.8315C66.9103 37.819 65.2036 36.0181 65.0417 33.3792C64.8922 30.803 67.3339 28.5894 70.1493 28.6019C72.6533 28.6144 74.4722 30.7529 74.6341 33.2667ZM69.7507 35.5929C71.2082 35.5553 72.3294 34.5173 72.2921 33.1666C72.2547 31.8285 71.1833 30.8405 69.5015 30.9155C68.3554 30.9655 67.309 32.0911 67.3214 33.2917C67.3214 34.5673 68.4302 35.6179 69.7507 35.5929Z" fill="rgb(26,26,26)" fill-rule="nonzero" />
	</g>
</svg>
