<svg viewBox="0 0 55 50" xmlns="http://www.w3.org/2000/svg" xmlns:xlink="http://www.w3.org/1999/xlink" width="55.000000" height="50.000000" fill="none">
	<rect id="Frame" width="55.000000" height="50.000000" x="0.000000" y="0.000000" />
	<path id="Vector" d="M27.1113 0.0185534C32.571 0.0185534 38.0401 -0.0280102 43.4998 0.0371788C46.3936 0.0744297 49.0626 0.940513 51.2727 2.88687C53.6326 4.97292 54.8688 7.62705 54.9531 10.7468C55.028 13.5127 54.9905 16.2692 54.9905 19.0351C54.9905 22.8254 54.9999 26.6157 54.9812 30.3966C54.9531 35.4907 51.9095 39.6256 47.0117 41.1622C46.3186 41.3763 46.0845 41.7489 45.944 42.3635C45.4852 44.3937 44.9982 46.4238 44.5206 48.454C44.352 49.1897 44.0336 49.8695 43.2095 49.972C42.4041 50.0744 41.7392 49.7112 41.2241 49.0687C39.3137 46.7219 37.3939 44.375 35.4366 42.0562C35.24 41.814 34.7811 41.6837 34.444 41.6837C26.7554 41.6744 19.0668 41.7209 11.3689 41.7023C6.80818 41.693 2.25684 38.5267 0.786551 34.2428C0.337036 32.939 0.0654541 31.5049 0.0467243 30.1266C-0.0281949 23.9057 -0.000100184 17.6941 0.0186296 11.4732C0.0279945 5.88557 4.30775 0.940513 9.86113 0.0558043C10.1702 0.00924066 10.4792 0.00924066 10.7883 0.00924066C16.2386 0.0185534 21.6703 0.0185534 27.1113 0.0185534ZM42.3105 46.964C42.3854 46.9454 42.4603 46.9174 42.5352 46.8988C42.9473 45.1666 43.4998 43.4624 43.7339 41.7116C43.9587 40.0353 44.8015 39.2624 46.3655 38.7967C50.4486 37.5768 52.4527 33.563 52.4714 30.6947C52.5182 24.2875 52.5276 17.8804 52.4714 11.4732C52.4433 8.52107 51.4412 5.96007 48.894 4.20928C47.0117 2.91481 44.8858 2.44917 42.6382 2.44917C32.0934 2.43986 21.5579 2.43986 11.013 2.44917C10.7508 2.44917 10.4886 2.4678 10.2264 2.51436C5.83423 3.23144 2.66889 6.91928 2.66889 11.3521C2.65953 17.7593 2.65016 24.1664 2.66889 30.5736C2.68762 36.0215 6.4804 39.1506 11.5281 39.253C19.3852 39.4207 27.2424 39.2996 35.0995 39.2717C36.2327 39.2717 37.0474 39.6721 37.7029 40.6034C39.2013 42.7453 40.7653 44.85 42.3105 46.964Z" fill="rgb(26,26,26)" fill-rule="nonzero" />
	<g id="Group">
		<path id="Vector" d="M37.0945 11.5385C34.5566 8.99613 31.204 7.5806 27.6453 7.55266C24.0117 7.52472 20.5842 8.91232 17.9995 11.4733C15.4054 14.0343 13.9819 17.4428 14.0007 21.0468C14.0007 24.5949 15.4054 27.9475 17.9527 30.4806C20.5186 33.0229 23.9087 34.4199 27.5142 34.4199C27.5236 34.4199 27.5329 34.4199 27.5517 34.4199C31.1384 34.4105 34.5004 33.023 37.0289 30.5085C39.5575 27.9941 40.9716 24.6322 40.9996 21.0375C41.0277 17.4707 39.6417 14.0995 37.0945 11.5385ZM27.4955 9.82496C27.5048 9.82496 27.5142 9.82496 27.5142 9.82496C33.6576 9.83428 38.6678 14.8725 38.6772 21.0468C38.6865 23.943 37.4597 26.8114 35.3339 28.916C33.1612 31.058 30.2862 32.2127 27.2426 32.1755C21.3053 32.1103 16.2951 26.9883 16.2951 20.9909C16.2951 18.0015 17.475 15.1984 19.6102 13.0844C21.7267 10.9797 24.5268 9.82496 27.4955 9.82496Z" fill="rgb(26,26,26)" fill-rule="nonzero" />
		<path id="Vector" d="M27.3083 28.4409C29.5371 28.4223 31.3352 27.668 32.8242 26.15C33.2081 25.7589 33.5359 25.2932 33.7888 24.7997C33.9292 24.511 33.948 24.2036 33.8169 23.9243C33.6764 23.6169 33.3954 23.3934 33.0396 23.291C32.4121 23.1234 32.0656 23.3934 31.6817 23.9149C30.3893 25.6844 28.7224 26.4014 26.7464 26.0662C25.3229 25.8241 24.1897 25.0884 23.375 23.8684C23.1502 23.5331 22.8225 23.1699 22.2138 23.2631C21.7923 23.3282 21.4552 23.5797 21.296 23.9429C21.1274 24.3247 21.193 24.7903 21.4646 25.1722C22.8974 27.2303 24.9108 28.3571 27.3083 28.4409Z" fill="rgb(26,26,26)" fill-rule="nonzero" />
		<path id="Vector" d="M23.5152 20.0409C24.2457 20.0409 24.8451 19.5474 25.0792 18.7465C25.126 18.6068 25.1447 18.4578 25.1541 18.3647C25.1541 18.3367 25.1635 18.3181 25.1635 18.2995L25.1635 18.2715C25.1822 17.601 25.0043 17.0981 24.6203 16.6697C24.3113 16.3252 23.9367 16.1482 23.5433 16.1389C23.15 16.1389 22.7754 16.3065 22.457 16.6325C21.8951 17.2099 21.7265 17.9363 21.9513 18.7279C22.1761 19.5287 22.7941 20.0409 23.5152 20.0409Z" fill="rgb(26,26,26)" fill-rule="nonzero" />
		<path id="Vector" d="M31.3722 20.0131C31.4752 20.0318 31.5688 20.0411 31.6718 20.0411C32.4023 20.0411 33.0485 19.4544 33.2639 18.5324C33.292 18.4207 33.3013 18.3089 33.3013 18.253L33.3013 18.0761C33.3013 18.0109 33.3013 17.9736 33.3013 17.9364C33.2545 17.0424 32.5896 16.2415 31.8217 16.1483C31.0631 16.0552 30.3607 16.6419 30.1079 17.5732C30.0985 17.5918 30.0985 17.6198 30.0892 17.6384C30.0704 17.6849 30.0611 17.7315 30.0517 17.7874C29.855 18.728 30.5106 19.8269 31.3722 20.0131Z" fill="rgb(26,26,26)" fill-rule="nonzero" />
	</g>
</svg>
