<svg viewBox="0 0 54.0029 50" xmlns="http://www.w3.org/2000/svg" xmlns:xlink="http://www.w3.org/1999/xlink" width="54.002930" height="50.000000" fill="none" customFrame="#000000">
	<g id="Group">
		<path id="Vector" d="M31.6338 48.5319C31.6338 47.9155 31.6269 47.3407 31.6338 46.7659C31.6476 45.6717 31.6614 44.5776 31.7027 43.4834C31.7303 42.7424 32.2539 42.1884 32.9912 42.1607C34.4933 42.0983 35.9954 42.0914 37.5044 42.0568C37.6284 42.0568 37.7525 42.0568 37.904 42.0568C37.9178 41.8767 37.9316 41.7313 37.9316 41.5859C37.9454 39.0374 37.9592 36.482 37.9729 33.9335C37.9729 33.4349 38.2968 33.0748 38.724 33.0817C39.1168 33.0886 39.4199 33.4488 39.4199 33.9127C39.4199 36.0596 39.4199 38.2064 39.4199 40.3532C39.4199 40.8518 39.4062 41.3504 39.4613 41.8421C39.5577 42.7839 39.2683 43.5873 38.6138 44.2244C36.8912 45.9211 35.1479 47.597 33.4046 49.2659C32.8603 49.7923 32.1781 50 31.4271 50C21.9528 49.9862 12.4785 49.9862 3.00421 49.9654C2.07401 49.9654 1.37119 49.4391 0.730382 48.8158C0.17915 48.2756 0 47.597 0 46.8421C0.0137808 38.0679 0.0137808 29.3006 0.0275616 20.5263C0.034452 14.7438 0.0620135 8.96122 0.0620135 3.17867C0.0620135 1.74515 0.757943 0.810249 1.97754 0.221607C2.30139 0.0623269 2.70792 0.0138504 3.07311 0.0138504C14.0633 0.00692521 25.0535 0.0138504 36.0436 0C37.7042 0 38.91 1.08033 39.2615 2.68698C39.2821 2.77701 39.2752 2.87396 39.2752 2.96399C39.3028 7.18837 39.3304 11.4127 39.3579 15.6371C39.3648 16.2881 38.8825 16.6621 38.3726 16.385C38.1934 16.2881 38.0832 16.0319 37.9867 15.831C37.9316 15.7202 37.9729 15.5609 37.9729 15.4224C37.9454 12.4238 37.9178 9.42521 37.8834 6.41967C37.8696 5.38089 37.842 4.34211 37.8351 3.30332C37.8214 2.23684 37.1048 1.50277 36.0367 1.50277C32.4193 1.50277 28.8018 1.50277 25.1844 1.50277C17.915 1.50277 10.6457 1.51662 3.37629 1.48892C2.1498 1.48199 1.52278 2.38227 1.51589 3.37258C1.49522 8.41413 1.46765 13.4626 1.46076 18.5042C1.44698 27.8324 1.45387 37.1537 1.44009 46.482C1.44009 47.2299 1.63302 47.867 2.31517 48.2271C2.63902 48.4003 3.02488 48.5111 3.39007 48.5111C7.12466 48.5319 10.8524 48.5319 14.587 48.5319C20.1199 48.5319 25.6598 48.5319 31.1928 48.5388C31.3237 48.5319 31.4477 48.5319 31.6338 48.5319ZM37.2081 43.6288C35.7611 43.6288 34.4313 43.6288 33.129 43.6288C33.129 44.9446 33.129 46.2258 33.129 47.5139C33.1566 47.5277 33.1841 47.5346 33.2117 47.5485C34.5209 46.2535 35.8369 44.9723 37.2081 43.6288Z" fill="rgb(255,255,255)" fill-rule="nonzero" />
		<path id="Vector" d="M53.9932 14.7507C54.0552 15.3116 53.814 15.8726 53.3455 16.3504C50.989 18.7465 48.6256 21.1357 46.2691 23.5318C42.941 26.9183 39.6129 30.3185 36.2849 33.7119C35.6578 34.3559 35.0515 35.0138 34.4107 35.644C34.1971 35.8518 33.9353 36.0388 33.6596 36.1634C30.869 37.3892 28.0715 38.6011 25.274 39.8199C25.1776 39.8615 25.088 39.903 24.9915 39.9376C24.6677 40.0554 24.3576 40.0692 24.1027 39.7991C23.8408 39.5291 23.827 39.2174 23.9649 38.8781C24.7986 36.8144 25.6185 34.7507 26.4454 32.687C26.8037 31.7936 27.1482 30.8933 27.5134 30.0069C27.5823 29.8407 27.6788 29.6745 27.8028 29.5429C28.6297 28.705 29.4703 27.8878 30.2902 27.0498C32.3849 24.9307 34.4589 22.7908 36.5605 20.6717C39.2271 17.9847 41.9074 15.3116 44.5671 12.6177C45.3251 11.849 46.0555 11.0526 46.7858 10.2562C47.5644 9.40441 48.8736 9.18973 49.8521 9.80607C50.2655 10.0692 50.6513 10.3878 51.0165 10.7133C51.7125 11.3365 52.3808 11.9806 53.0699 12.6108C53.6556 13.1579 53.9449 13.8296 53.9932 14.7507ZM33.763 34.1828C38.4002 29.446 43.003 24.7368 47.6402 20.0069C46.9788 19.3767 46.3104 18.7396 45.6076 18.0678C41.0392 22.7562 36.4847 27.4307 31.875 32.1606C32.5434 32.8809 33.1635 33.5457 33.763 34.1828ZM43.4716 15.8033C38.7654 20.5401 34.1006 25.2285 29.5736 29.7922C29.9595 30.2978 30.3454 30.7964 30.7243 31.2881C31.062 30.9626 31.3031 30.734 31.5374 30.4986C32.2747 29.7576 33.0188 29.0235 33.7492 28.2756C34.3349 27.6731 34.8861 27.0429 35.4649 26.4335C35.9817 25.8933 36.5123 25.367 37.0359 24.8338C38.6552 23.1856 40.2744 21.5374 41.8868 19.8822C42.121 19.6468 42.3278 19.3836 42.562 19.1482C43.1684 18.5249 43.7885 17.9155 44.3949 17.2853C44.45 17.223 44.4707 17.036 44.4155 16.9667C44.1261 16.5789 43.8023 16.205 43.4716 15.8033ZM46.3724 12.8947C47.0132 13.4764 47.6471 14.0512 48.281 14.6329C48.474 14.813 48.6669 14.993 48.8598 15.18C49.4111 15.7133 49.9692 16.2465 50.5204 16.7798C50.6445 16.9044 50.7685 16.9252 50.9063 16.7867C51.3059 16.3919 51.7469 16.0318 52.119 15.6094C52.7116 14.9446 52.6702 14.3352 52.0225 13.7119C51.1474 12.867 50.2586 12.0291 49.3697 11.198C48.9081 10.7687 48.219 10.7825 47.7643 11.2673C47.2957 11.7728 46.8547 12.3268 46.3724 12.8947ZM28.6434 31.1288C28.0853 32.5415 27.5616 33.8365 27.0586 35.1454C27.0104 35.2631 27.0586 35.4709 27.1413 35.5748C27.4169 35.9141 27.7201 36.2257 28.0233 36.5443C28.2507 36.7798 28.4987 36.849 28.8226 36.7036C29.7803 36.2742 30.7519 35.8726 31.7165 35.457C32.0059 35.3324 32.2953 35.2077 32.6605 35.0554C31.3031 33.7327 30.0008 32.4515 28.6434 31.1288ZM48.66 18.9889C48.9287 18.7534 49.1561 18.5595 49.3697 18.3518C49.6936 18.0263 49.7005 17.9778 49.3835 17.6593C49.0872 17.3615 48.7358 17.1122 48.4326 16.8213C47.4887 15.9003 46.5516 14.9723 45.6145 14.0443C45.5111 13.9404 45.4146 13.8088 45.2424 13.9681C44.9599 14.2313 44.6705 14.4875 44.3191 14.813C45.1252 15.554 45.8625 16.2119 46.5653 16.8906C47.2682 17.5623 47.9503 18.2687 48.66 18.9889ZM25.9562 37.8532C26.3214 37.7147 26.5901 37.6108 26.9002 37.4861C26.6797 37.2853 26.4936 37.1122 26.2731 36.9183C26.1698 37.2368 26.0802 37.493 25.9562 37.8532Z" fill="rgb(255,255,255)" fill-rule="nonzero" />
		<path id="Vector" d="M16.4405 44.1551C16.4405 43.8227 16.4405 43.5249 16.4405 43.2271C16.4474 42.0083 16.4474 40.7825 16.4681 39.5637C16.475 39.0789 16.7092 38.8781 17.1847 38.8781C17.4672 38.8781 17.6739 39.0097 17.7566 39.2797C17.8117 39.4667 17.8462 39.6606 17.8462 39.8545C17.853 41.3296 17.8462 42.8116 17.8393 44.2867C17.8324 45.1869 17.4741 45.5401 16.5921 45.547C13.3881 45.547 10.184 45.554 6.98001 45.554C6.75952 45.554 6.53903 45.5678 6.32542 45.5263C5.87755 45.4362 5.60882 45.0692 5.58126 44.5013C5.54681 43.8434 5.54681 43.1855 5.53992 42.5277C5.52614 39.9099 5.51925 37.2922 5.50547 34.6675C5.49858 33.8781 5.86377 33.4903 6.64238 33.4833C9.39854 33.4764 12.1547 33.4764 14.9109 33.4695C15.2898 33.4695 15.5861 33.5941 15.7377 33.9612C15.8548 34.2451 15.7308 34.4944 15.5241 34.6675C15.407 34.7645 15.2209 34.8199 15.0624 34.8199C12.4441 34.8199 9.82574 34.813 7.20739 34.806C7.16605 34.806 7.11782 34.813 7.02824 34.8268C7.00757 35.0346 6.97312 35.2493 6.97312 35.4639C6.9869 38.2132 7.00068 40.9556 7.02135 43.7049C7.02135 44.1551 7.02824 44.1551 7.47612 44.1551C10.3218 44.1551 13.1676 44.1551 16.0202 44.1551C16.1442 44.1551 16.2614 44.1551 16.4405 44.1551Z" fill="rgb(255,255,255)" fill-rule="nonzero" />
		<path id="Vector" d="M18.3076 18.8434C14.8487 18.8434 11.3966 18.8434 7.9376 18.8434C7.40015 18.8434 6.85581 18.8711 6.31836 18.878C5.87048 18.885 5.55352 18.601 5.51907 18.1924C5.49151 17.8116 5.75335 17.4584 6.18055 17.4099C6.61464 17.3614 7.04874 17.3545 7.48283 17.3545C15.0829 17.3545 22.683 17.3545 30.2831 17.3545C30.8068 17.3545 31.1513 17.6661 31.1444 18.1232C31.1375 18.5595 30.8068 18.8642 30.3245 18.8642C26.3143 18.8642 22.311 18.8642 18.3007 18.8642C18.3076 18.8573 18.3076 18.8503 18.3076 18.8434Z" fill="rgb(255,255,255)" fill-rule="nonzero" />
		<path id="Vector" d="M16.9504 24.3489C13.8773 24.3489 10.7973 24.3489 7.72416 24.3489C7.32452 24.3489 6.92488 24.3836 6.52523 24.4113C6.07736 24.439 5.74662 24.1897 5.71906 23.8018C5.68461 23.3032 5.92577 23.0054 6.4081 22.957C6.49767 22.95 6.59414 22.95 6.68371 22.95C12.8093 22.95 18.9417 22.957 25.0673 22.95C25.6736 22.95 26.28 22.9016 26.8932 22.8946C27.3893 22.8877 27.7132 23.1924 27.7063 23.6356C27.6994 24.065 27.3893 24.342 26.907 24.342C23.5858 24.3489 20.2716 24.3489 16.9504 24.3489Z" fill="rgb(255,255,255)" fill-rule="nonzero" />
		<path id="Vector" d="M13.0985 29.8962C10.928 29.8962 8.75756 29.8962 6.59397 29.8962C6.38726 29.8962 6.18055 29.8824 5.98762 29.8201C5.6431 29.7162 5.48462 29.4323 5.52596 29.0721C5.56041 28.7674 5.81536 28.5112 6.15299 28.4835C6.3597 28.4696 6.56641 28.4904 6.77312 28.4904C10.7902 28.4904 14.8073 28.4904 18.8244 28.4904C19.2241 28.4904 19.6237 28.4281 20.0233 28.4419C20.3265 28.4489 20.6021 28.5666 20.7468 28.8782C20.864 29.1275 20.864 29.3976 20.671 29.55C20.4506 29.7162 20.1543 29.8685 19.8855 29.8755C17.6255 29.9032 15.3654 29.8893 13.1054 29.8893C13.0985 29.8893 13.0985 29.8962 13.0985 29.8962Z" fill="rgb(255,255,255)" fill-rule="nonzero" />
		<path id="Vector" d="M12.1135 40.6578C12.9059 39.6952 13.6501 38.7603 14.4218 37.8461C15.476 36.5996 16.5303 35.3531 17.6052 34.1273C18.0048 33.6702 18.687 33.8087 18.8248 34.3697C18.8661 34.5497 18.7972 34.8129 18.6801 34.9583C16.985 37.0497 15.2762 39.1273 13.5674 41.2049C13.3056 41.5234 13.03 41.8351 12.7406 42.1259C12.3685 42.493 11.8379 42.486 11.4934 42.0913C10.6252 41.0802 9.76391 40.0622 8.92328 39.0303C8.80615 38.8918 8.75791 38.6495 8.7648 38.4556C8.77858 37.9569 9.31603 37.6938 9.69501 38.0123C10.0464 38.3032 10.3565 38.6495 10.6597 38.9888C11.1489 39.529 11.6174 40.083 12.1135 40.6578Z" fill="rgb(255,255,255)" fill-rule="nonzero" />
	</g>
</svg>
