<svg viewBox="0 0 55.9912 49.9836" xmlns="http://www.w3.org/2000/svg" xmlns:xlink="http://www.w3.org/1999/xlink" width="55.991211" height="49.983643" fill="none" customFrame="#000000">
	<g id="Group">
		<g id="Group">
			<path id="Vector" d="M24.0015 30.164C25.3788 29.7171 26.302 28.7477 27.2026 27.7405C27.2404 27.695 27.2782 27.6269 27.2782 27.5739C27.248 26.7862 27.2404 25.991 27.1723 25.2109C27.1572 25.0065 27.0058 24.7944 26.8772 24.6126C25.9993 23.4615 25.3939 22.174 25.0231 20.7805C24.9626 20.5533 24.8869 20.4775 24.6372 20.4397C23.8653 20.3185 23.3355 19.8338 22.9042 19.1446C22.1777 16.812 21.9658 16.5923 22.0945 15.2291C22.1474 14.646 22.382 14.0931 22.7453 13.6387C22.7755 13.6008 22.7982 13.5705 22.8285 13.5327C22.889 13.4494 22.8815 13.2979 22.8739 13.1767C22.7831 11.7075 22.6015 10.2382 22.609 8.76895C22.6393 5.3609 24.2436 2.86165 27.2101 1.21821C28.4134 0.551747 29.7226 0.195794 31.0772 0.104913C32.5528 0.00645765 34.0512 -0.0314097 35.5269 0.029178C37.169 0.104913 38.7355 0.521453 40.0145 1.63475C40.4458 2.01343 40.8015 2.48298 41.142 2.93739C41.3539 3.21761 41.5658 3.46753 41.8912 3.64172C43.5031 4.49752 44.5853 5.80016 44.8501 7.62536C44.9939 8.61749 44.9409 9.65505 44.8728 10.6699C44.8123 11.5787 44.6004 12.4799 44.4718 13.3888C44.4566 13.4872 44.4793 13.6311 44.5474 13.6993C45.2058 14.3506 45.2739 15.1761 45.1982 16.0168C45.1226 16.9331 44.9863 17.842 44.6004 18.6826C44.1842 19.5914 43.5939 20.3033 42.5345 20.4851C42.4361 20.5002 42.2999 20.6366 42.2696 20.7426C41.8988 22.1285 41.3009 23.4009 40.4231 24.5369C40.0372 25.0368 40.0674 25.6502 39.9918 26.2258C39.9539 26.5363 39.9766 26.8544 39.9918 27.1725C40.0069 27.536 40.1431 27.8238 40.3928 28.1116C41.5355 29.4218 43.0491 30.0125 44.6761 30.4669C46.4999 30.9819 48.3388 31.5045 50.0945 32.2164C53.1593 33.466 54.9226 35.8517 55.5885 39.0855C55.982 41.0016 55.9518 42.9404 55.982 44.8792C55.9972 45.9774 55.9972 47.0755 55.9518 48.1737C55.9139 49.1507 54.9982 49.9837 54.022 49.9837C41.2858 49.9837 28.542 49.9837 15.8058 49.9837C15.3366 49.9837 14.928 49.8474 14.542 49.5748C14.3907 49.4687 14.1712 49.3779 14.0047 49.4006C12.7788 49.5445 11.5604 49.446 10.3647 49.2037C6.42959 48.3933 3.53121 46.1213 1.58634 42.6375C0.337695 40.4109 -0.184467 37.9874 0.0576948 35.4427C0.314992 32.6859 1.33661 30.2246 3.1604 28.1191C5.08256 25.9077 7.47391 24.4687 10.3345 23.9007C14.2393 23.1207 17.7809 23.9992 20.8912 26.5136C22.1399 27.5284 23.1691 28.7477 24.0015 30.164ZM49.7615 48.5523C49.9204 48.5523 50.0415 48.5523 50.1701 48.5523C51.3431 48.5523 52.5161 48.5523 53.689 48.5523C54.3399 48.5523 54.4836 48.416 54.5139 47.7647C54.5215 47.689 54.5215 47.6132 54.5139 47.5375C54.4912 45.5457 54.4988 43.5539 54.4382 41.562C54.4004 40.2291 54.1885 38.9113 53.6663 37.6693C52.7734 35.5487 51.1842 34.1325 49.0577 33.3827C46.8101 32.5875 44.5096 31.9362 42.2318 31.2394C42.1561 31.2167 41.9896 31.3303 41.9366 31.4212C40.8545 33.2464 39.7874 35.0792 38.7204 36.9119C38.4177 37.4269 38.0393 37.4799 37.5777 37.0861C37.0934 36.6696 36.6015 36.2606 36.102 35.8365C35.6858 36.5939 35.1863 37.3133 35.6858 38.2146C35.6934 38.2221 35.6858 38.2373 35.6934 38.2524C36.0188 39.8883 36.3745 41.509 36.6545 43.1525C36.8436 44.2809 36.9345 45.4245 37.0555 46.5605C37.1236 47.2194 37.1615 47.8783 37.2145 48.5372C40.9377 48.5372 44.6231 48.5372 48.3312 48.5372C48.3312 48.3706 48.3312 48.2343 48.3312 48.0979C48.3312 46.0683 48.3312 44.0386 48.3312 42.0013C48.3312 41.8574 48.3463 41.6908 48.4145 41.5696C48.5658 41.2591 48.9063 41.1304 49.2469 41.2137C49.5874 41.3045 49.7691 41.5696 49.7691 41.9862C49.7691 44.031 49.7691 46.0758 49.7691 48.1207C49.7615 48.2418 49.7615 48.3782 49.7615 48.5523ZM23.4112 15.479C23.4566 16.4863 23.6458 17.3724 24.0318 18.2206C24.2815 18.7659 24.6523 19.0916 25.3258 19.031C26.0372 18.9628 26.2112 19.1294 26.3777 19.8565C26.809 21.7271 27.5809 23.4009 29.0112 24.749C31.2436 26.8468 34.6339 27.2103 37.2145 25.5517C39.3031 24.2037 40.4609 22.2573 40.9074 19.8414C41.0361 19.1446 41.2934 18.925 41.9593 19.0461C42.4966 19.1446 42.8599 18.9098 43.0869 18.4933C43.6393 17.4784 43.7755 16.3576 43.7377 15.214C43.7301 15.0246 43.5863 14.752 43.435 14.6838C43.3064 14.6232 43.0642 14.7974 42.8901 14.8959C42.6101 15.0549 42.3604 15.2746 42.0653 15.4033C41.6718 15.5699 41.2404 15.2594 41.2177 14.8277C41.1874 14.1991 41.1572 13.5705 41.142 12.9344C41.0966 11.0107 40.249 9.54145 38.6145 8.53418C38.5085 8.47359 38.2815 8.47359 38.1907 8.54175C36.662 9.73078 34.8685 10.2231 32.9993 10.4503C31.1226 10.6699 29.2534 10.4957 27.4145 10.1322C27.0436 10.0564 26.9377 10.1625 26.8318 10.473C26.4004 11.8438 26.1885 13.2524 26.0145 14.6763C25.9236 15.4336 25.4545 15.6608 24.8036 15.2594C24.5463 15.1004 24.3269 14.8959 24.0696 14.7293C23.7896 14.5475 23.5853 14.6232 23.4945 14.9413C23.4263 15.1307 23.4263 15.3427 23.4112 15.479ZM24.5842 13.4342C24.6447 13.154 24.675 13.0101 24.7128 12.8586C24.955 11.7983 25.1366 10.7229 25.4545 9.68534C25.8253 8.45844 26.1507 8.34484 27.4069 8.60234C29.4501 9.0113 31.5085 9.23093 33.5745 8.79167C35.0728 8.47359 36.4955 7.98889 37.6609 6.93618C38.0318 6.60294 38.3647 6.59537 38.8036 6.86044C39.1442 7.0725 39.4847 7.29213 39.8101 7.52691C41.0058 8.39028 42.0047 9.43542 42.3982 10.8971C42.6101 11.6772 42.6858 12.4951 42.8372 13.366C42.9053 13.26 43.0112 13.1691 43.0263 13.0631C43.1626 12.0786 43.3291 11.1016 43.3896 10.1095C43.435 9.31424 43.4274 8.49631 43.2912 7.70867C43.0718 6.40603 42.2393 5.51236 41.0739 4.93678C40.5215 4.66414 40.1582 4.2476 39.8177 3.74775C39.4847 3.2479 39.0307 2.79349 38.5388 2.45269C37.5853 1.79379 36.4501 1.60446 35.3226 1.54387C34.142 1.48328 32.9615 1.49843 31.7809 1.5363C30.6609 1.57416 29.5636 1.77865 28.5269 2.21791C25.8934 3.33878 24.4026 5.35332 24.2209 8.19337C24.115 9.80652 24.3042 11.4348 24.3799 13.0555C24.3647 13.1464 24.4707 13.2449 24.5842 13.4342ZM24.289 36.5636C24.3042 30.111 18.9463 24.9231 12.7334 25.014C6.67932 25.1049 1.21553 30.1943 1.41986 36.8892C1.60148 42.8344 6.61121 48.2191 13.3388 48.0071C19.5063 47.8102 24.2285 42.5845 24.289 36.5636ZM17.6674 48.5296C21.9053 48.5296 26.0447 48.5296 30.1842 48.5296C30.1993 48.4766 30.2145 48.4463 30.222 48.4085C30.3734 46.8483 30.5172 45.2806 30.6836 43.7205C30.9031 41.6605 31.3193 39.6384 31.8339 37.6314C31.8793 37.4572 31.902 37.2452 31.8339 37.0937C31.6523 36.6847 31.4177 36.2985 31.1831 35.8819C30.6761 36.3212 30.1993 36.7302 29.7226 37.1316C29.3442 37.4497 28.9582 37.4042 28.7085 36.9877C27.8534 35.5714 26.9982 34.1476 26.1582 32.7162C25.8707 32.224 25.6209 31.7014 25.3485 31.1788C25.2199 31.2394 25.1139 31.2849 25.0155 31.3303C24.902 31.3833 24.7961 31.4288 24.6523 31.4969C25.9918 34.7989 26.075 38.101 24.7204 41.403C23.3582 44.7126 20.982 47.0301 17.6674 48.5296ZM33.9907 37.9344C33.7182 38.0404 33.3777 37.7223 33.2339 38.2979C32.795 40.0852 32.3712 41.8801 32.1745 43.7129C32.0458 44.9095 31.8869 46.1061 31.7507 47.3103C31.7053 47.7117 31.6977 48.1207 31.675 48.5296C33.0599 48.5296 34.3918 48.5296 35.7539 48.5296C35.5193 44.9398 35.0199 41.4257 33.9907 37.9344ZM38.5236 26.4833C35.2696 28.5963 32.0458 28.6947 28.7766 26.4909C28.7539 26.968 28.7463 27.3997 28.7085 27.8238C28.6858 28.0661 28.7766 28.2252 28.9507 28.3691C29.8134 29.0886 30.6609 29.8156 31.5161 30.5351C32.2199 31.1258 32.9236 31.709 33.6199 32.2921C33.6955 32.2467 33.7409 32.224 33.7788 32.1937C35.3453 30.9138 36.9118 29.6338 38.4707 28.3388C38.5539 28.2706 38.6145 28.1267 38.6145 28.0207C38.6069 27.536 38.569 27.0361 38.5236 26.4833ZM37.8955 35.3821C38.9777 33.7311 40.022 32.1104 40.7485 30.2927C40.3626 29.9822 39.9918 29.6869 39.6209 29.3839C38.1453 30.5957 36.6999 31.7771 35.209 32.9965C36.1247 33.822 37.0026 34.5945 37.8955 35.3821ZM32.0382 33.057C32.0231 33.004 32.0231 32.9889 32.0155 32.9813C30.6534 31.8074 29.2912 30.6335 27.9215 29.4748C27.8609 29.4294 27.702 29.4218 27.6415 29.4672C27.3539 29.6717 27.0815 29.8913 26.8242 30.1337C26.7485 30.2019 26.688 30.3912 26.7258 30.4745C27.4674 32.1861 28.4512 33.7614 29.4501 35.3594C30.3204 34.5793 31.1755 33.822 32.0382 33.057ZM34.8458 34.8671C33.9377 33.8144 33.3323 33.8447 32.3788 34.8823C32.6058 35.3518 32.848 35.8138 33.0674 36.2833C33.2415 36.6544 33.5669 36.4803 33.8318 36.4878C33.9604 36.4954 34.1496 36.3969 34.2101 36.2833C34.4447 35.8289 34.6339 35.3442 34.8458 34.8671Z" fill="rgb(255,255,255)" fill-rule="nonzero" />
			<path id="Vector" d="M22.7755 36.5786C22.7074 42.2587 18.1215 46.4846 12.968 46.4771C7.035 46.4695 2.62311 41.4937 2.92582 35.8515C3.18311 31.0424 7.5496 26.3998 13.1874 26.5816C18.4696 26.7558 22.7301 31.2317 22.7755 36.5786ZM20.6491 33.3371C19.7788 30.8 17.0923 28.3386 13.6037 28.0357C9.30528 27.6646 6.24041 30.4289 5.05987 33.1856C5.14311 33.2084 5.22636 33.2311 5.3096 33.2462C6.60365 33.3977 7.89771 33.5643 9.19933 33.6855C9.47176 33.7082 9.78203 33.837 10.0469 33.5643C11.6815 31.9133 14.262 32.1557 15.8361 33.481C15.9269 33.5567 16.0782 33.6173 16.1993 33.6173C16.7896 33.6098 17.3799 33.587 17.9701 33.5416C18.8631 33.4886 19.7485 33.4128 20.6491 33.3371ZM15.0415 44.8033C17.0091 44.1672 18.6209 43.122 19.7788 41.4483C20.5355 40.3501 21.0653 39.1611 21.2469 37.8055C21.1334 37.8055 21.0955 37.7979 21.0577 37.8055C19.8696 38.0099 18.6891 38.2447 17.501 38.4038C16.8577 38.4946 16.3885 38.7218 16.0026 39.2823C15.7453 39.6685 15.5107 40.0093 15.4653 40.4789C15.3442 41.8876 15.1928 43.3038 15.0415 44.8033ZM10.6296 44.72C10.6296 44.614 10.6372 44.5155 10.6296 44.4171C10.5085 43.2432 10.3647 42.0693 10.2739 40.8879C10.221 40.1759 10.1453 39.4943 9.54744 39.0021C9.40365 38.8809 9.23717 38.7521 9.06311 38.7067C8.55609 38.5704 8.04149 38.4643 7.5269 38.3507C6.49771 38.1235 5.46852 37.8888 4.43176 37.654C4.94636 41.0393 7.38311 43.8491 10.6296 44.72ZM12.8696 39.3126C14.3528 39.4338 15.5939 38.0781 15.6242 36.6694C15.6696 34.7609 14.1712 33.7688 12.8242 33.7612C11.341 33.7461 10.115 35.0411 10.115 36.6467C10.1226 37.9115 11.2955 39.4186 12.8696 39.3126ZM11.7799 40.6304C11.7799 40.6531 11.7647 40.7364 11.7647 40.8273C11.8631 42.1678 11.9615 43.5083 12.075 44.8488C12.0826 44.9245 12.1961 45.0533 12.2642 45.0533C12.7031 45.076 13.142 45.0608 13.6037 45.0608C13.7247 43.5613 13.8534 42.092 13.9745 40.6304C13.2177 40.6304 12.5139 40.6304 11.7799 40.6304ZM4.31068 36.1696C5.82419 36.5028 7.2696 36.8209 8.68474 37.1314C8.76041 36.4271 8.82852 35.7909 8.90419 35.1017C7.46636 34.9275 6.00582 34.7533 4.50744 34.5716C4.43933 35.132 4.37879 35.6243 4.31068 36.1696ZM17.0469 37.0178C18.4847 36.7679 19.9301 36.518 21.4134 36.2529C21.315 35.7 21.2242 35.2002 21.1334 34.67C19.6577 34.8064 18.235 34.9427 16.8501 35.0714C16.9182 35.7455 16.9788 36.3665 17.0469 37.0178Z" fill="rgb(255,255,255)" fill-rule="nonzero" />
		</g>
	</g>
</svg>
