<svg viewBox="0 0 52.0068 50.0105" xmlns="http://www.w3.org/2000/svg" xmlns:xlink="http://www.w3.org/1999/xlink" width="52.006836" height="50.010498" fill="none" customFrame="#000000">
	<g id="Group">
		<path id="Vector" d="M39.0415 24.8629C39.0026 24.7402 38.9961 24.6885 38.9767 24.6433C38.6071 23.7195 38.7497 23.2738 39.6122 22.7634C40.935 21.9753 42.2644 21.1937 43.6002 20.4249C44.3848 19.9663 44.8323 20.089 45.3251 20.8642C47.4326 24.1911 49.5401 27.5115 51.6476 30.8384C51.7513 30.9999 51.8551 31.1678 51.9199 31.3487C52.1274 31.8849 51.9588 32.3306 51.453 32.6472C50.0264 33.5192 48.5998 34.3913 47.1732 35.257C46.3626 35.7544 45.9087 35.651 45.3899 34.8565C45.351 34.7919 45.3056 34.7337 45.2473 34.6368C43.6975 36.3552 42.0763 37.9637 39.9364 38.9262C40.7275 41.0709 39.0869 42.9443 37.1026 42.9702C37.1026 43.9068 36.7265 44.682 35.9808 45.2441C35.248 45.7996 34.418 46.0063 33.5166 45.6898C33.2962 47.5373 31.1952 48.9068 29.36 47.7182C29.1655 48.0929 29.0098 48.4999 28.7699 48.8487C27.8491 50.1536 26.2474 50.3797 24.8921 49.4236C24.4641 49.12 24.0491 48.7906 23.6341 48.4869C23.2645 48.7906 22.9208 49.1006 22.5512 49.3655C21.2672 50.2828 19.1144 49.8823 18.6086 47.9314C18.5826 47.828 18.5502 47.7311 18.5178 47.6342C16.4946 47.7182 15.5349 46.9172 15.3468 44.9727C14.4 45.1859 13.6349 44.8565 13.0188 44.1588C12.4093 43.4611 12.2666 42.6407 12.4741 41.7298C11.4171 41.6265 10.6779 41.1032 10.211 40.1988C9.72465 39.2621 9.88677 38.3771 10.438 37.518C9.29018 36.3422 8.1489 35.173 6.97518 33.9779C6.87791 34.1329 6.8001 34.2621 6.7158 34.3978C6.41102 34.8888 5.97656 35.0632 5.44482 34.8306C4.79636 34.5399 4.17384 34.1975 3.54483 33.8681C2.6305 33.3836 1.71617 32.8926 0.80833 32.4081C-0.0606062 31.943 -0.203267 31.5231 0.257139 30.6575C0.834268 29.5528 1.42437 28.4482 2.00798 27.35C3.43459 24.6756 4.87417 22.0012 6.30079 19.3267C6.52775 18.9004 6.8001 18.558 7.33832 18.6226C7.53286 18.6484 7.73388 18.7324 7.90897 18.8293C9.33558 19.5851 10.7622 20.3474 12.1888 21.1032C13.0383 21.5554 13.1874 21.9947 12.7919 22.8603C12.7659 22.9185 12.74 22.9766 12.7011 23.0735C14.0628 23.7583 15.3792 24.4624 17.0069 24.2686C19.043 24.0296 21.0922 23.8616 23.1478 24.0554C23.7768 24.1136 24.4188 24.1975 25.0283 24.359C25.6962 24.5335 26.3317 24.5205 26.9931 24.3526C27.9788 24.1006 28.9969 23.9585 30.0085 24.0683C30.8515 24.1588 31.6815 24.372 32.505 24.5722C33.173 24.7337 33.8344 24.934 34.4764 25.173C35.462 25.5348 36.4477 25.4508 37.4398 25.2764C37.9781 25.1342 38.4968 24.9857 39.0415 24.8629ZM23.3164 25.5218C21.2413 25.4249 19.1727 25.5089 17.1106 25.7285C16.3 25.8125 15.5024 25.8319 14.7243 25.5283C13.8489 25.1859 12.967 24.85 12.0656 24.5012C12.0786 24.4882 12.0526 24.5012 12.0461 24.5205C10.6325 27.1433 9.21885 29.766 7.79224 32.3823C7.68849 32.5761 7.75333 32.6665 7.88303 32.7893C8.79736 33.6743 9.7052 34.5658 10.6195 35.4508C10.8789 35.7027 11.1513 35.9417 11.4042 36.1743C11.6376 35.9482 11.897 35.6898 12.1693 35.4443C13.6024 34.1265 15.7748 34.5722 16.5465 36.3552C16.7021 36.7105 16.7669 37.111 16.8707 37.4986C17.6748 37.3629 18.4205 37.5373 19.069 38.0606C19.7304 38.5968 19.9573 39.3203 19.9379 40.1472C20.8003 40.1988 21.5137 40.5089 22 41.1937C22.4669 41.8526 22.7068 42.589 22.5058 43.4094C23.4072 43.5645 24.0297 44.0683 24.4058 44.85C24.7689 45.6187 24.8273 46.4133 24.4382 47.2273C24.9375 47.589 25.4174 47.9314 25.8972 48.2802C26.189 48.4934 26.5133 48.5257 26.8505 48.4223C27.3822 48.2544 27.7064 47.8862 27.8297 47.3565C27.9399 46.8849 27.7518 46.5296 27.3628 46.2453C26.7013 45.7609 26.0594 45.2505 25.4174 44.7466C25.1126 44.5076 25.0089 44.1265 25.1385 43.8293C25.2747 43.5128 25.6184 43.3061 25.988 43.3901C26.1761 43.4288 26.3576 43.5515 26.5133 43.6743C27.6675 44.5787 28.8153 45.4895 29.9631 46.4004C30.5208 46.8397 31.273 46.7363 31.7399 46.1549C32.1808 45.5993 32.0771 44.8823 31.4999 44.4301C29.9825 43.235 28.4716 42.0399 26.9607 40.8384C26.6495 40.5929 26.5716 40.2893 26.7208 39.9534C26.857 39.6368 27.1877 39.4043 27.486 39.4818C27.7064 39.5399 27.914 39.6756 28.0955 39.8177C29.8853 41.226 31.675 42.6278 33.4453 44.0554C34.0743 44.5593 34.9173 44.3203 35.3129 43.8164C35.7603 43.2415 35.676 42.505 35.0665 42.027C33.8214 41.0451 32.5764 40.0696 31.3313 39.0877C30.6051 38.5128 29.8723 37.9443 29.146 37.3694C28.7634 37.0658 28.6921 36.6071 28.958 36.2583C29.2563 35.8707 29.6648 35.8384 30.0928 36.1678C30.4754 36.465 30.858 36.7621 31.2406 37.0658C32.9979 38.4417 34.7487 39.8242 36.506 41.2001C36.6422 41.3099 36.8173 41.4004 36.9924 41.4262C37.6409 41.5231 38.2634 41.1226 38.5228 40.4831C38.7562 39.9081 38.5617 39.2234 38.0624 38.8358C36.0067 37.2466 33.9511 35.6575 31.8955 34.0748C30.4429 32.9572 28.9839 31.8526 27.5314 30.7285C27.2201 30.4895 26.9088 30.4314 26.5781 30.6252C26.2798 30.7931 25.9751 30.9611 25.7157 31.1872C24.944 31.8461 24.2177 32.5567 23.4331 33.1898C22.4863 33.9585 21.4229 34.4236 20.1454 34.1846C19.2116 34.0102 18.5307 33.5257 18.2065 32.6342C17.8823 31.7298 18.0509 30.89 18.6993 30.1795C19.3413 29.4689 19.9898 28.7583 20.6707 28.08C21.5201 27.195 22.428 26.3616 23.3164 25.5218ZM44.3783 33.3448C44.2746 33.1769 44.1708 33.0089 44.0671 32.8474C42.7183 30.7092 41.376 28.5709 40.0272 26.4327C39.9494 26.3035 39.9105 26.1807 39.69 26.2324C38.9378 26.4198 38.192 26.6329 37.4269 26.7428C36.3374 26.8978 35.2351 26.943 34.1586 26.5877C33.6204 26.4068 33.0757 26.2324 32.531 26.0709C31.5518 25.7802 30.5791 25.4249 29.5351 25.5283C28.53 25.6252 27.5378 25.7867 26.5392 25.9546C25.7546 26.0838 24.9829 26.2776 24.3215 26.7686C23.0116 27.7505 21.8833 28.9262 20.7614 30.1019C20.4502 30.4314 20.1713 30.7931 19.8471 31.1097C19.3737 31.5683 19.6266 32.5955 20.3464 32.673C20.8263 32.7247 21.2802 32.7311 21.6823 32.4534C22.1945 32.0981 22.7068 31.7298 23.1737 31.3229C23.9583 30.6381 24.6587 29.8435 25.5925 29.3332C26.5262 28.8229 27.4406 28.7195 28.3419 29.4172C28.5624 29.5916 28.8153 29.7208 29.0358 29.8952C30.0604 30.6833 31.0719 31.4908 32.0965 32.2789C34.1846 33.881 36.2726 35.4702 38.3606 37.0722C39.1582 37.6859 39.1518 37.6859 40.0531 37.182C41.778 36.213 43.0555 34.7725 44.3783 33.3448ZM7.50044 20.3345C5.60045 23.9391 3.71991 27.518 1.8329 31.1097C3.09739 31.8138 4.34892 32.5115 5.61342 33.2156C7.51989 29.5981 9.41339 26.0063 11.3199 22.3952C10.0229 21.6911 8.77142 21.0192 7.50044 20.3345ZM50.221 31.549C48.1783 28.319 46.1681 25.1342 44.1449 21.9366C42.8739 22.6665 41.6354 23.3707 40.3773 24.0877C42.433 27.3435 44.4691 30.5671 46.5118 33.8099C47.7633 33.0412 48.9759 32.3048 50.221 31.549ZM18.4205 40.0373C18.44 39.611 18.2454 39.3009 17.8823 39.0813C17.4024 38.797 16.8123 38.8035 16.3779 39.204C15.6386 39.8952 14.9383 40.6252 14.2379 41.3552C14.0888 41.5102 13.985 41.7298 13.9137 41.943C13.6738 42.7053 14.1666 43.6291 15.1198 43.474C15.4311 43.4223 15.7748 43.2738 16.0082 43.0606C16.6956 42.4404 17.3441 41.7751 17.986 41.1097C18.2584 40.8255 18.4335 40.4637 18.4205 40.0373ZM19.9573 41.7298C19.6137 41.7105 19.3024 41.8138 19.0625 42.0787C18.4853 42.7053 17.9017 43.3255 17.357 43.9714C17.156 44.2105 16.9939 44.5076 16.8901 44.8048C16.715 45.3022 16.9355 45.7479 17.4024 45.9869C17.8952 46.2389 18.5243 46.1355 18.9782 45.6833C19.5748 45.0761 20.1454 44.4495 20.7096 43.8164C20.8587 43.6484 20.956 43.4159 21.0403 43.1963C21.2413 42.673 20.6836 41.6006 19.9573 41.7298ZM15.3338 37.6665C15.2755 36.9689 15.0615 36.4908 14.5297 36.2583C14.0175 36.0322 13.5441 36.2195 13.1745 36.5877C12.6557 37.1045 12.1693 37.6536 11.683 38.2027C11.5792 38.319 11.5014 38.474 11.4496 38.6226C11.268 39.1265 11.4885 39.6691 11.9943 40.0115C12.4352 40.3151 13.0383 40.2699 13.4792 39.8565C13.998 39.372 14.5038 38.8681 14.9837 38.3448C15.1717 38.1316 15.256 37.828 15.3338 37.6665ZM21.0727 48.3577C21.3126 48.2479 21.5915 48.1898 21.786 48.0283C22.1816 47.6988 22.5512 47.3306 22.8819 46.9366C23.1218 46.6523 23.2256 46.2906 23.1607 45.9094C23.0829 45.4185 22.7911 45.0826 22.3372 44.9146C21.9481 44.766 21.6628 45.005 21.4034 45.2764C21.1246 45.5671 20.8263 45.8319 20.5734 46.1355C20.3724 46.381 20.1584 46.6394 20.0546 46.9301C19.8147 47.589 20.3464 48.2931 21.0727 48.3577Z" fill="rgb(26,26,26)" fill-rule="nonzero" />
		<path id="Vector" d="M15.8201 5.92879C15.8201 5.45721 15.8137 4.97918 15.8201 4.5076C15.8266 4.03603 16.1184 3.73887 16.5918 3.68073C17.5969 3.56445 18.615 3.52569 19.5942 3.31251C21.76 2.83448 23.66 1.79442 25.3849 0.424915C25.4368 0.386155 25.4822 0.340935 25.5341 0.302175C26.0723 -0.117721 26.4095 -0.0854214 26.9607 0.308635C27.7842 0.896491 28.6078 1.49081 29.4832 1.98822C30.8968 2.78926 32.4142 3.33835 34.0354 3.54507C34.5282 3.60967 35.0275 3.61613 35.5204 3.62259C36.3115 3.63551 36.6811 3.97789 36.6422 4.766C36.5773 6.28409 36.5838 7.80218 36.4995 9.3138C36.3309 12.2983 35.449 15.0438 33.6398 17.4598C32.1224 19.4818 30.177 20.9805 27.9463 22.1433C27.5767 22.3371 27.1876 22.505 26.8115 22.6859C26.4678 22.8474 26.1242 22.8409 25.7805 22.6924C21.7406 20.9546 18.6669 18.2285 16.9679 14.1071C16.4686 12.8862 16.1833 11.6071 16.0666 10.3022C15.9369 8.84869 15.8461 7.38874 15.7358 5.93525C15.7747 5.92879 15.7942 5.92879 15.8201 5.92879ZM35.0664 5.26342C34.3142 5.14714 33.5685 5.07608 32.8487 4.91458C30.5207 4.4107 28.4067 3.42879 26.5262 1.96884C26.3187 1.80734 26.202 1.79442 25.9815 1.96238C24.0361 3.46109 21.8573 4.4753 19.445 4.95334C18.7641 5.089 18.0638 5.16006 17.3635 5.26342C17.3635 5.51535 17.357 5.79313 17.3635 6.06445C17.4154 7.8474 17.4607 9.63034 17.8433 11.381C18.4334 14.0942 19.7044 16.4262 21.7471 18.3125C22.8365 19.3203 24.1139 20.0761 25.4238 20.7608C26.4549 21.3035 26.0853 21.297 27.0839 20.7673C28.932 19.7918 30.6764 18.6743 31.9927 17.0011C33.4712 15.1278 34.418 13.0347 34.7487 10.6769C34.9043 9.5722 34.9886 8.46109 35.0599 7.34352C35.1053 6.6523 35.0664 5.94171 35.0664 5.26342Z" fill="rgb(26,26,26)" fill-rule="nonzero" />
		<path id="Vector" d="M4.82909 31.6136C4.71885 31.562 4.64103 31.5297 4.5697 31.4844C4.28438 31.31 4.01203 31.1227 3.72022 30.9612C3.51271 30.8449 3.48677 30.7092 3.59053 30.509C3.73319 30.2441 3.87585 29.9793 4.01851 29.7144C4.10929 29.5465 4.22602 29.5142 4.38813 29.6111C4.70588 29.7919 5.03011 29.9664 5.34785 30.1472C5.53591 30.2506 5.59427 30.3798 5.45809 30.5865C5.28949 30.8449 5.1598 31.1291 5.01065 31.4005C4.96526 31.478 4.89393 31.5361 4.82909 31.6136Z" fill="rgb(26,26,26)" fill-rule="nonzero" />
		<path id="Vector" d="M25.4303 13.3642C26.8829 11.8719 28.303 10.412 29.7232 8.95202C30.0409 8.62902 30.3457 8.29956 30.6699 7.97657C30.9682 7.67941 31.3702 7.66649 31.6945 7.91843C31.9928 8.14452 32.0771 8.56442 31.8955 8.90034C31.8436 8.99078 31.7723 9.08122 31.701 9.15874C29.8658 11.058 28.0242 12.9507 26.1826 14.8435C25.6314 15.4055 25.1839 15.399 24.6392 14.8306C23.6536 13.7905 22.6614 12.7569 21.6822 11.7104C21.3126 11.3164 21.2997 10.8642 21.6369 10.5347C21.9676 10.2182 22.4604 10.2311 22.8235 10.6058C23.6211 11.4262 24.4058 12.2531 25.1969 13.0799C25.2812 13.1704 25.3525 13.2673 25.4303 13.3642Z" fill="rgb(26,26,26)" fill-rule="nonzero" />
	</g>
</svg>
