<svg viewBox="0 0 45.9849 50.02" xmlns="http://www.w3.org/2000/svg" xmlns:xlink="http://www.w3.org/1999/xlink" width="45.984863" height="50.020020" fill="none" customFrame="#000000">
	<g id="Group">
		<path id="Vector" d="M2.83065 23.9728C2.83065 23.5767 2.83065 23.1881 2.83065 22.792C2.83065 22.0225 3.04429 21.7635 3.82252 21.7101C5.40189 21.5959 6.98126 21.4511 8.56062 21.4206C11.6278 21.3521 14.5653 22.053 17.4264 23.0815C19.3034 23.7519 21.0811 24.6204 22.5842 25.9536C22.8588 26.1974 23.0572 26.0679 23.2937 25.9231C24.1559 25.3899 24.9952 24.8109 25.8879 24.3309C27.1544 23.6528 28.5125 23.1805 29.9164 22.8605C30.3971 22.7539 30.7709 22.8986 30.9006 23.2186C31.0914 23.6986 30.893 24.0566 30.3666 24.2319C29.3976 24.5518 28.3981 24.8185 27.4672 25.2299C26.2312 25.7784 24.9952 26.3574 23.9347 27.2335C23.721 27.4088 23.6295 27.5916 23.6295 27.8811C23.6371 33.7092 23.6371 39.5374 23.6371 45.3655C23.6371 45.4874 23.6523 45.6093 23.6676 45.815C23.8889 45.6474 24.0415 45.5178 24.2017 45.4036C25.6895 44.3522 27.3452 43.6666 29.0771 43.1409C31.7704 42.3181 34.5248 41.8915 37.3326 41.9829C38.7364 42.0286 40.1327 42.2419 41.5366 42.3714C41.6129 42.379 41.6815 42.3867 41.7502 42.3867C41.7502 35.9491 41.7502 29.5343 41.7502 23.0891C40.7202 23.051 39.7359 23.0129 38.7441 22.99C38.21 22.9748 37.9963 22.8072 37.9887 22.3577C37.9811 21.8701 38.2558 21.5578 38.7593 21.573C39.7588 21.5959 40.766 21.6492 41.7655 21.7025C42.002 21.7101 42.2461 21.7178 42.4827 21.7711C42.9786 21.8854 43.2075 22.1901 43.2151 22.6929C43.2228 23.1196 43.2151 23.5462 43.2151 24.0033C43.7111 24.0033 44.1689 24.0414 44.6114 23.9957C45.4125 23.9043 45.9847 24.3004 45.9847 25.268C45.9619 32.1017 45.9619 38.9279 45.9847 45.7616C45.9847 46.493 45.4659 46.9425 44.8021 46.9425C39.6749 46.9349 34.5553 46.9501 29.4281 46.9425C28.5736 46.9425 27.7267 46.9044 26.8721 46.8663C26.5822 46.8587 26.4449 46.9425 26.4067 47.2625C26.216 49.0452 25.4377 49.8375 23.6447 49.9746C22.7063 50.0508 21.7525 50.0889 20.8598 49.5937C19.9595 49.0833 19.5017 48.3367 19.4331 47.3234C19.4254 47.2091 19.4331 47.1025 19.4331 47.0187C18.8608 47.0187 18.3191 47.0187 17.7774 47.0187C12.6654 46.9958 7.55349 46.9654 2.44916 46.9425C2.00663 46.9425 1.55648 46.9577 1.11395 46.9425C0.38149 46.8892 0 46.493 0 45.7464C0 38.8745 0 32.0103 0 25.1384C0 24.2547 0.35097 23.9347 1.24366 23.9652C1.75485 23.9881 2.27368 23.9728 2.83065 23.9728ZM22.279 45.7921C22.279 45.5331 22.279 45.3883 22.279 45.236C22.279 39.5983 22.2637 33.9606 22.3019 28.3306C22.3095 27.6221 21.9967 27.2107 21.516 26.8602C20.2876 25.9765 18.9753 25.2375 17.5714 24.6661C14.6187 23.4624 11.5439 22.8834 8.37751 22.8224C7.01178 22.792 5.64604 22.9215 4.28794 22.9748C4.28794 29.5191 4.28794 35.9414 4.28794 42.3867C10.6588 41.4191 16.694 42.0819 22.279 45.7921ZM1.44203 25.3518C1.4344 25.4813 1.42677 25.5498 1.42677 25.626C1.42677 32.1246 1.42677 38.6231 1.41914 45.1293C1.41914 45.4493 1.54885 45.5255 1.82352 45.5255C2.29657 45.5102 2.76198 45.4874 3.23503 45.4874C8.25543 45.495 13.2758 45.5102 18.3039 45.5255C18.4336 45.5255 18.5633 45.5255 18.693 45.5255C18.7006 45.4798 18.7082 45.4417 18.7159 45.396C17.9147 45.0912 17.1289 44.7484 16.3125 44.4817C14.8171 43.9942 13.2758 43.6666 11.7041 43.5828C10.2621 43.5066 8.81241 43.4609 7.37038 43.5066C6.27169 43.5447 5.18063 43.7351 4.08957 43.8799C3.26555 43.9865 2.85354 43.6513 2.83065 42.8285C2.82302 42.6914 2.83065 42.5466 2.83065 42.4095C2.83065 36.909 2.83065 31.4161 2.83065 25.9155C2.83065 25.7555 2.83065 25.6032 2.83065 25.4584C2.33472 25.4203 1.90745 25.3822 1.44203 25.3518ZM27.1468 45.3807C27.162 45.4264 27.1773 45.4721 27.2002 45.5178C32.9759 45.5178 38.7517 45.5178 44.5275 45.5178C44.5275 38.8136 44.5275 32.0941 44.5275 25.3441C44.3596 25.3746 44.2146 25.3975 44.0697 25.4203C43.7797 25.4584 43.3448 25.3975 43.2304 25.5575C43.0778 25.7708 43.1693 26.1669 43.1693 26.4793C43.1922 31.7437 43.2151 37.0156 43.2304 42.28C43.2304 42.5695 43.2304 42.8666 43.1999 43.1561C43.1388 43.7123 42.6963 44.0094 42.147 43.918C41.5366 43.8113 40.9262 43.7275 40.3082 43.6513C38.6144 43.4609 36.9282 43.3618 35.2191 43.4837C33.243 43.6285 31.2974 43.9256 29.4128 44.5274C28.6422 44.7789 27.9021 45.0988 27.1468 45.3807ZM20.9514 46.973C20.7835 47.6739 21.249 48.3748 22.073 48.4814C22.6834 48.5576 23.3166 48.55 23.927 48.4586C24.7968 48.3291 25.1554 47.5977 24.8273 46.6987C24.2551 47.1177 23.6752 47.5672 22.9351 47.4606C22.2714 47.3539 21.6152 47.1406 20.9514 46.973Z" fill="rgb(255,255,255)" fill-rule="nonzero" />
		<path id="Vector" d="M33.6931 12.8957C33.2048 13.0786 32.7928 13.2233 32.3884 13.3909C29.5349 14.5946 26.6813 15.7907 23.843 17.0097C23.2479 17.2687 22.7215 17.2459 22.134 16.9945C19.0363 15.6688 15.9233 14.3813 12.8104 13.0709C12.5891 12.9795 12.3755 12.8881 12.116 12.7738C12.1084 12.911 12.0932 13.0176 12.0932 13.1243C12.0932 14.7775 12.0703 16.4231 12.1084 18.0763C12.116 18.3582 12.2763 18.6858 12.467 18.9067C12.963 19.4933 13.6649 19.7904 14.3592 20.0723C15.992 20.7427 17.7087 21.0627 19.4406 21.3217C21.2718 21.596 23.1106 21.6112 24.9494 21.4513C26.6661 21.2989 28.3675 21.0018 29.9926 20.3999C30.1529 20.339 30.336 20.3009 30.5038 20.278C30.8472 20.2399 31.1142 20.3618 31.2058 20.7199C31.3202 21.1618 31.1753 21.4436 30.7861 21.6189C29.428 22.2055 27.986 22.4874 26.544 22.7388C24.812 23.0435 23.0572 23.074 21.3023 22.9597C18.5861 22.7921 15.9233 22.335 13.4055 21.2379C12.4441 20.8189 11.5438 20.278 10.9792 19.3486C10.8037 19.0514 10.6816 18.6705 10.6816 18.3201C10.6511 16.3621 10.6588 14.4118 10.674 12.4538C10.674 12.1796 10.5901 12.0577 10.3383 11.951C8.30115 11.113 6.264 10.2597 4.22684 9.41408C3.8835 9.26933 3.59357 9.10934 3.57831 8.66747C3.57068 8.21798 3.79957 7.97419 4.18869 7.80658C7.59921 6.35907 11.0021 4.91156 14.4126 3.45644C17.0296 2.35176 19.6466 1.20899 22.2789 0.111929C22.607 -0.0252032 23.0877 -0.0404401 23.4081 0.0890738C25.6131 0.988053 27.8029 1.94036 29.9926 2.87743C33.7694 4.48493 37.5461 6.10004 41.3305 7.70754C41.506 7.78373 41.6815 7.85229 41.8493 7.94371C42.4597 8.28654 42.4826 8.96459 41.8646 9.28456C41.2924 9.58168 40.682 9.78738 40.0869 10.0464C38.5151 10.7245 36.9434 11.4101 35.3793 12.1034C35.2877 12.1415 35.1885 12.2939 35.1809 12.3929C35.1656 13.8556 35.1656 15.3108 35.1733 16.7735C35.1733 16.8573 35.2648 16.9792 35.3411 17.0097C36.3177 17.383 36.7297 18.701 36.333 19.7676C36.1957 20.1333 36.3559 20.6208 36.4017 21.0475C36.5085 22.1674 36.6382 23.2873 36.745 24.4072C36.7755 24.7577 36.7908 25.1157 36.7603 25.4662C36.7221 25.9309 36.4474 26.1671 35.9744 26.1747C34.9062 26.1899 33.8381 26.1976 32.7699 26.1899C32.2892 26.1899 32.0603 25.9309 32.0451 25.451C32.0069 23.6606 32.2358 21.9007 32.6325 20.1485C32.686 19.8971 32.5486 19.6 32.4952 19.3181C32.3121 18.3353 32.6478 17.5811 33.4871 17.0478C33.5786 16.9868 33.6931 16.8726 33.6931 16.7811C33.7007 15.5165 33.6931 14.2442 33.6931 12.8957ZM39.4688 8.69794C39.4688 8.65985 39.4612 8.62938 39.4612 8.59128C38.6372 8.23322 37.8132 7.86753 36.9892 7.51708C32.4265 5.56675 27.8716 3.63166 23.3089 1.68895C23.0419 1.57468 22.8206 1.51373 22.5231 1.64324C18.0062 3.58595 13.4818 5.5058 8.95731 7.43328C8.04937 7.82182 7.14142 8.21036 6.17244 8.62938C6.37844 8.72842 6.52341 8.8046 6.676 8.86555C8.469 9.61216 10.262 10.3435 12.0474 11.0978C15.5647 12.5834 19.0668 14.0766 22.5841 15.5546C22.7901 15.646 23.0953 15.6688 23.3013 15.585C25.5979 14.6403 27.8792 13.6652 30.1681 12.6976C30.687 12.4767 31.2058 12.2634 31.8238 11.9967C31.5567 11.9206 31.4042 11.8748 31.2592 11.8291C28.4438 10.9454 25.6284 10.0616 22.8206 9.17029C22.2179 8.97983 21.9966 8.65223 22.1416 8.17989C22.2637 7.76087 22.7138 7.60088 23.2937 7.78373C26.6126 8.82746 29.9316 9.86357 33.2506 10.9302C33.6702 11.0673 34.0212 11.0444 34.4179 10.8692C35.6768 10.3054 36.951 9.77215 38.2176 9.23123C38.6296 9.04839 39.0492 8.87317 39.4688 8.69794ZM35.3945 24.6967C35.4098 23.3711 35.2267 22.0836 34.9367 20.8723C34.5553 20.8418 34.2501 20.8189 33.8686 20.7884C33.7007 22.0607 33.5329 23.3559 33.3574 24.6967C34.0822 24.6967 34.7155 24.6967 35.3945 24.6967ZM35.097 18.8915C35.097 18.5334 34.8223 18.2439 34.4866 18.2515C34.1204 18.2591 33.8457 18.5181 33.8457 18.861C33.8381 19.219 34.1127 19.4857 34.4713 19.4705C34.807 19.4705 35.097 19.1962 35.097 18.8915Z" fill="rgb(255,255,255)" fill-rule="nonzero" />
		<path id="Vector" d="M36.2339 35.5681C33.2736 35.5377 30.4124 36.0481 27.6504 37.1223C27.1621 37.3128 26.7806 37.229 26.6433 36.9166C26.4602 36.4976 26.6433 36.0481 27.1087 35.8272C28.4286 35.1948 29.8554 34.8901 31.2746 34.5777C33.3956 34.1054 35.5472 34.0826 37.7065 34.1283C38.1795 34.1359 38.3855 34.3644 38.3703 34.852C38.355 35.3472 38.149 35.5605 37.6836 35.5605C37.1953 35.5681 36.7146 35.5681 36.2339 35.5681Z" fill="rgb(255,255,255)" fill-rule="nonzero" />
		<path id="Vector" d="M36.2114 30.3343C33.3655 30.2886 30.6188 30.7914 27.9713 31.8352C27.75 31.919 27.5287 32.0104 27.2922 32.0561C27.0099 32.1094 26.72 32.0409 26.6437 31.7361C26.5598 31.4238 26.5216 31.0733 26.8268 30.8219C26.9489 30.7153 27.1015 30.6315 27.2541 30.5705C29.1157 29.8467 31.0232 29.2601 33.0222 29.0925C34.5863 28.963 36.1657 28.9706 37.7374 28.9325C38.1647 28.9249 38.3783 29.1916 38.3783 29.6487C38.3783 30.0982 38.1723 30.3191 37.745 30.3267C37.2262 30.3419 36.715 30.3343 36.2114 30.3343Z" fill="rgb(255,255,255)" fill-rule="nonzero" />
		<path id="Vector" d="M9.69794 34.1283C12.6659 34.0826 15.3821 34.4712 17.9915 35.4768C18.2662 35.5835 18.5256 35.713 18.7926 35.8349C19.3191 36.0787 19.2962 36.4977 19.1894 36.8557C19.0749 37.2138 18.64 37.3433 18.1823 37.1376C16.374 36.3301 14.4589 35.8577 12.4981 35.6673C11.1094 35.5301 9.71319 35.5911 8.31694 35.5606C7.79049 35.553 7.52345 35.2863 7.5387 34.7988C7.55396 34.3721 7.7676 34.1436 8.2025 34.136C8.75947 34.1207 9.31645 34.1283 9.69794 34.1283Z" fill="rgb(255,255,255)" fill-rule="nonzero" />
		<path id="Vector" d="M9.9035 28.9249C12.9859 28.8487 15.8547 29.4506 18.6243 30.5553C19.0058 30.7076 19.2424 30.9133 19.2424 31.3933C19.2424 32.0637 18.7922 32.2466 18.2352 31.9799C16.5338 31.18 14.7332 30.7838 12.8944 30.4791C11.3684 30.2277 9.83483 30.3877 8.30124 30.3419C7.7519 30.3267 7.53826 30.1591 7.53826 29.6868C7.53063 29.1687 7.76716 28.9401 8.30887 28.9325C8.86585 28.9173 9.42282 28.9249 9.9035 28.9249Z" fill="rgb(255,255,255)" fill-rule="nonzero" />
	</g>
</svg>
