<svg viewBox="0 0 56.0024 49.9939" xmlns="http://www.w3.org/2000/svg" xmlns:xlink="http://www.w3.org/1999/xlink" width="56.002441" height="49.993896" fill="none" customFrame="#000000">
	<g id="Group">
		<path id="Vector" d="M12.2009 23.4076C12.2009 21.1438 12.242 18.9462 12.1845 16.7403C12.1516 15.2284 12.472 13.9313 13.8439 13.0969C14.345 12.7912 14.8954 12.6508 15.4786 12.6508C21.5329 12.6508 27.5789 12.6508 33.6332 12.6508C33.7975 12.6508 33.9536 12.6508 34.1425 12.6508C34.0932 12.0725 34.0029 11.5354 34.0029 10.9902C33.9454 6.00835 37.2641 1.62137 42.1355 0.406892C46.4565 -0.675395 50.2352 0.39863 53.3076 3.66201C54.7698 5.21522 55.6077 7.11542 55.8952 9.25521C56.2977 12.246 55.5666 14.9145 53.7101 17.2773C52.8393 18.3844 51.7878 19.2684 50.5638 19.9459C50.2845 20.1029 50.186 20.2681 50.1942 20.582C50.2024 26.2826 50.2024 31.9832 50.2024 37.6838C50.2024 39.6584 48.6991 41.129 46.7358 41.1207C43.2691 41.1124 39.8107 41.1207 36.3441 41.1207C36.2455 41.1207 36.1552 41.1207 36.0319 41.1207C36.0319 42.3021 36.0319 43.467 36.0319 44.6815C36.7877 44.6815 37.5352 44.7228 38.2828 44.6732C39.4903 44.5906 40.3611 45.5077 40.2707 46.6891C40.2297 47.1683 40.2625 47.6557 40.2625 48.1349C40.2625 49.1924 39.4575 49.9938 38.3731 49.9938C35.0462 49.9938 31.7192 49.9938 28.3922 49.9938C26.6425 49.9938 24.8845 49.9938 23.1348 49.9938C21.9354 49.9938 21.155 49.2089 21.1632 48.0027C21.1632 47.3583 21.1386 46.7056 21.2289 46.0695C21.3522 45.2433 22.0915 44.6815 22.9212 44.6815C23.7016 44.6732 24.482 44.6815 25.2624 44.6732C25.287 44.6732 25.3117 44.6567 25.3774 44.6485C25.3774 43.5001 25.3774 42.3352 25.3774 41.1455C25.3117 41.1372 25.2213 41.1207 25.1309 41.1207C22.4611 41.1207 19.7914 41.129 17.1216 41.1124C16.719 41.1124 16.5794 41.2446 16.604 41.6164C16.6122 41.823 16.604 42.0295 16.604 42.236C16.5958 42.5996 16.4479 42.8805 16.1194 43.0374C15.7579 43.2109 15.4211 43.1366 15.1336 42.8722C14.4353 42.2526 13.7535 41.6247 13.0635 40.9968C12.0695 40.088 11.0673 39.1957 10.0897 38.2704C9.85971 38.0556 9.64613 37.783 9.51469 37.4938C6.52452 30.5126 3.55899 23.515 0.601678 16.5173C0.355236 15.9307 0.0677192 15.3193 0.0102159 14.6914C-0.0883612 13.6009 0.53596 12.8325 1.47244 12.3699C2.42535 11.899 3.41113 11.4776 4.40511 11.0976C5.59625 10.6349 6.96812 11.2298 7.48565 12.4277C8.54535 14.8649 9.58862 17.3187 10.6319 19.7641C11.1494 20.9621 11.667 22.16 12.2009 23.4076ZM48.5594 34.5857C48.5594 30.0004 48.5594 25.4647 48.5594 20.9786C47.6558 21.1191 46.7686 21.3008 45.8814 21.3752C45.2571 21.4247 44.756 21.5734 44.3288 22.0444C43.992 22.4079 43.5895 22.697 43.2198 23.0193C42.5873 23.5728 41.963 24.1263 41.3304 24.6633C40.9279 25.0103 40.4515 25.126 39.9586 24.8864C39.4821 24.6551 39.2768 24.2502 39.285 23.7132C39.3014 22.5401 39.2932 21.3752 39.2768 20.202C39.2768 20.0533 39.1864 19.8467 39.0632 19.7724C37.1163 18.5001 35.6951 16.7816 34.7751 14.6419C34.6601 14.3775 34.5286 14.3031 34.2575 14.3114C33.4936 14.3362 32.7214 14.3196 31.9574 14.3196C26.4699 14.3279 20.9825 14.3279 15.4868 14.3444C14.3943 14.3444 13.8521 14.9228 13.8521 16.005C13.8521 19.7063 13.8521 23.4076 13.8603 27.1171C13.8603 27.3154 13.9096 27.5302 13.9835 27.7119C14.8954 29.9013 15.8318 32.0824 16.7437 34.2717C16.8505 34.5361 16.9901 34.6105 17.2612 34.6105C18.477 34.5939 20.8511 34.6105 22.0668 34.6105C22.1818 34.6105 22.2969 34.5939 22.4283 34.5857C22.4283 33.9413 22.4201 33.3382 22.4283 32.7268C22.4611 30.2565 23.6112 28.4472 25.7306 27.2906C26.5028 26.8692 27.3736 26.6544 28.1622 26.3653C25.3774 24.5725 25.172 21.0364 26.971 18.9793C28.8687 16.8147 32.0724 16.6742 33.9618 18.6405C34.9887 19.7063 35.4815 20.9951 35.3583 22.4657C35.2187 24.1924 34.3561 25.506 32.8364 26.4148C33.0582 26.4644 33.2307 26.5057 33.395 26.5387C36.6562 27.0923 38.9482 29.8765 38.8249 32.9829C38.8003 33.5117 38.8249 34.0487 38.8249 34.5939C42.4887 34.5857 44.9367 34.5857 48.5594 34.5857ZM40.9033 22.821C41.9958 21.8709 43.0063 20.9703 44.0577 20.1111C44.296 19.9128 44.6574 19.822 44.9778 19.7641C45.9143 19.5989 46.8836 19.5906 47.7872 19.3263C52.5436 17.93 55.2709 13.3282 54.1208 8.66862C52.9297 3.84377 48.3376 1.1174 43.7209 1.77834C41.2319 2.13359 39.1371 3.29024 37.5927 5.3061C35.9333 7.47067 35.3008 9.91615 35.9087 12.6177C36.492 15.2119 38.0281 17.1204 40.2625 18.4836C40.7061 18.7562 40.9197 19.0949 40.9115 19.6237C40.8869 20.6647 40.9033 21.7056 40.9033 22.821ZM16.7601 39.4353C16.9573 39.4353 17.1133 39.4353 17.2776 39.4353C26.9628 39.4353 36.6562 39.4353 46.3414 39.4353C46.6043 39.4353 46.859 39.4436 47.1218 39.4353C47.7462 39.4105 48.3869 38.9644 48.4773 38.3695C48.5841 37.6756 48.5759 36.9568 48.6169 36.2132C48.3623 36.2132 48.198 36.2132 48.0419 36.2132C41.199 36.2132 35.5062 36.2132 28.6633 36.2132C25.287 36.2132 20.7525 36.2132 17.3762 36.205C17.0723 36.205 16.9244 36.2793 16.9244 36.6015C16.9162 37.0642 16.8669 37.5351 16.834 37.9978C16.8094 38.4604 16.7847 38.9231 16.7601 39.4353ZM24.0466 34.5691C28.4743 34.5691 32.8035 34.5691 37.1409 34.5691C37.1409 33.7265 37.2313 32.9085 37.1245 32.1072C36.8288 29.9674 35.1037 28.3068 32.9596 28.158C31.3988 28.0506 29.8134 28.0589 28.2526 28.158C26.3303 28.2737 24.597 29.7691 24.2191 31.6528C24.0219 32.5946 24.0959 33.5695 24.0466 34.5691ZM22.8472 48.3084C23.0362 48.3167 23.1594 48.3249 23.2826 48.3249C28.2526 48.3249 33.2225 48.3249 38.1924 48.3249C38.2499 48.3249 38.2992 48.3249 38.3567 48.3249C38.5621 48.3415 38.6524 48.2506 38.6524 48.0358C38.6442 47.6392 38.6524 47.2344 38.6524 46.8378C38.6524 46.2926 38.6524 46.2925 38.1103 46.2925C33.2061 46.2925 28.3101 46.2925 23.4058 46.2925C23.3073 46.2925 23.2005 46.2595 23.1183 46.3008C23.0115 46.3504 22.8637 46.4495 22.8637 46.5404C22.839 47.1105 22.8472 47.6888 22.8472 48.3084ZM33.6989 22.1187C33.7893 20.4003 32.2696 18.8636 30.528 18.9297C28.8604 18.9958 27.5214 20.3672 27.5214 22.1352C27.5214 23.9033 28.8769 25.2417 30.6513 25.2417C32.4257 25.2334 33.7071 23.9198 33.6989 22.1187ZM15.1007 34.4618C12.6527 28.6703 10.2212 22.9201 7.77316 17.1369C7.2392 17.3682 6.78739 17.5665 6.31094 17.7731C8.76715 23.5645 11.2069 29.3147 13.6549 35.0814C14.156 34.8583 14.6078 34.6683 15.1007 34.4618ZM12.1763 35.6845C9.72006 29.9178 7.27206 24.1842 4.82406 18.4257C4.33118 18.6323 3.88758 18.8223 3.38648 19.0371C5.85091 24.812 8.29069 30.554 10.7469 36.3041C11.248 36.081 11.6998 35.891 12.1763 35.6845ZM34.3808 41.1455C31.9163 41.1455 29.4848 41.1455 27.0532 41.1455C27.0532 42.3352 27.0532 43.4918 27.0532 44.6567C29.5094 44.6567 31.9328 44.6567 34.3808 44.6567C34.3808 43.4836 34.3808 42.3352 34.3808 41.1455ZM7.09955 15.6167C6.89418 15.121 6.71346 14.6749 6.53273 14.2288C6.38487 13.8735 6.237 13.5183 6.08092 13.1713C5.85091 12.6756 5.3991 12.4442 4.9555 12.626C4.03545 13.006 3.11539 13.3943 2.21177 13.8157C1.7271 14.0387 1.52995 14.5262 1.7271 15.0219C2.04748 15.8481 2.40893 16.6577 2.77037 17.4922C4.21617 16.8643 5.63732 16.2529 7.09955 15.6167ZM15.3718 36.1389C14.1478 36.6511 12.9895 37.1385 11.7655 37.6425C12.891 38.6587 13.9424 39.6088 15.0843 40.6333C15.1829 39.0883 15.2732 37.659 15.3718 36.1389Z" fill="rgb(26,26,26)" fill-rule="nonzero" />
		<path id="Vector" d="M43.7206 12.9398C44.2135 12.3698 44.6899 11.8245 45.1582 11.2792C46.4725 9.75081 47.7869 8.22239 49.1012 6.69397C49.208 6.57005 49.3066 6.43786 49.4134 6.31393C49.7749 5.90085 50.3006 5.81823 50.6949 6.11565C51.0892 6.42134 51.1385 6.94183 50.7688 7.39622C50.0624 8.25544 49.323 9.08161 48.6001 9.92431C47.2365 11.5023 45.8728 13.072 44.501 14.6418C44.0081 15.2036 43.5563 15.2036 43.0388 14.6831C41.9133 13.5595 40.7961 12.4276 39.6707 11.2958C39.2435 10.8579 39.2025 10.3622 39.5721 9.9904C39.9336 9.62689 40.4511 9.65993 40.8783 10.0813C41.7162 10.9157 42.5377 11.7584 43.3756 12.5928C43.4659 12.7003 43.5809 12.7994 43.7206 12.9398Z" fill="rgb(26,26,26)" fill-rule="nonzero" />
	</g>
</svg>
