<svg viewBox="0 0 55.0103 49.9907" xmlns="http://www.w3.org/2000/svg" xmlns:xlink="http://www.w3.org/1999/xlink" width="55.010254" height="49.990723" fill="none" customFrame="#000000">
	<g id="Group">
		<path id="Vector" d="M47.1727 36.4084C47.1727 33.7374 47.1822 31.0949 47.1632 28.4618C47.1632 28.1587 47.0964 27.8367 46.982 27.5526C46.8294 27.1737 46.5148 26.9748 46.0857 26.9748C40.3168 26.9748 34.5479 26.9748 28.779 26.9748C28.6836 26.9748 28.5978 26.9937 28.4834 27.0032C28.4834 30.1478 28.4834 33.2639 28.4834 36.3895C33.1366 37.384 34.7863 41.3241 34.2237 44.355C33.5657 47.9163 30.5526 50.0568 27.3201 49.9811C23.6966 49.8958 21.2174 47.2722 20.7121 44.2982C20.1209 40.8884 22.3235 37.1282 26.4905 36.4084C26.4905 33.2923 26.4905 30.1667 26.4905 26.9937C26.2902 26.9937 26.1091 26.9937 25.9184 26.9937C20.3592 26.9937 14.7906 27.0127 9.23147 26.9748C8.12537 26.9653 7.79163 27.5715 7.79163 28.405C7.79163 30.0815 7.77256 31.7484 7.77256 33.4249C7.77256 34.4194 7.77256 35.4044 7.77256 36.3895C11.9681 37.1945 14.0278 40.5948 13.6368 44.0519C13.2554 47.4143 10.2994 50.0095 6.87623 49.9905C3.23372 49.9716 0.659175 47.3953 0.115659 44.4308C-0.561352 40.7179 1.78435 37.1282 5.82734 36.4084C5.82734 35.1013 5.82734 33.7943 5.82734 32.4872C5.82734 31.0475 5.82734 29.6173 5.82734 28.1777C5.82734 26.3686 7.12415 25.0994 8.93587 25.0994C14.5903 25.0994 20.2544 25.0994 25.9088 25.0994C26.0805 25.0994 26.2521 25.0994 26.4619 25.0994C26.4619 22.8547 26.4619 20.6478 26.4619 18.3747C26.2902 18.3747 26.1186 18.3747 25.947 18.3747C23.9922 18.3747 22.0375 18.3747 20.0827 18.3747C18.8241 18.3747 17.9373 17.4844 17.9373 16.2341C17.9373 11.5173 17.9373 6.79106 17.9373 2.07426C17.9373 0.89032 18.8431 0 20.0446 0C24.9839 0 29.9328 0 34.8721 0C36.0831 0 37.008 0.918735 37.008 2.11214C37.008 6.81947 37.008 11.5173 37.008 16.2247C37.008 17.456 36.0926 18.3747 34.8625 18.3747C32.7457 18.3747 30.6384 18.3747 28.4929 18.3747C28.4929 20.6194 28.4929 22.8358 28.4929 25.0994C28.6932 25.0994 28.8743 25.0994 29.065 25.0994C34.7386 25.0994 40.4121 25.0994 46.0857 25.0994C47.7925 25.0994 49.1274 26.416 49.1274 28.1114C49.1274 30.8771 49.1274 33.6333 49.1274 36.4273C51.292 36.8441 52.9797 37.9523 54.1049 39.856C54.9059 41.2294 55.1729 42.7259 54.9154 44.2697C54.2765 48.0489 51.1108 50.1231 47.8211 49.9811C44.1977 49.8295 41.6613 47.0828 41.318 43.9667C40.9175 40.1402 43.473 37.0241 47.1727 36.4084ZM35.0819 16.4425C35.0819 11.5742 35.0819 6.73423 35.0819 1.91324C29.99 1.91324 24.9362 1.91324 19.8825 1.91324C19.8825 6.77212 19.8825 11.5931 19.8825 16.4425C24.9553 16.4425 29.9995 16.4425 35.0819 16.4425ZM43.2155 43.1711C43.1297 45.6999 45.2466 48.0394 48.1548 48.0773C50.7866 48.1152 53.1228 45.842 53.1132 43.1995C53.0942 40.4527 50.9201 38.2459 48.069 38.2838C45.094 38.3122 43.1202 40.7748 43.2155 43.1711ZM11.7679 43.2089C11.7869 40.4906 9.62242 38.2648 6.84763 38.2838C3.96795 38.3027 2.06087 40.5001 1.91784 42.9153C1.75574 45.6999 3.95841 48.0678 6.82856 48.0773C9.72731 48.0773 11.8346 45.6715 11.7679 43.2089ZM32.4406 43.2184C32.4406 40.5569 30.133 38.2648 27.4345 38.2648C24.7551 38.2648 22.5333 40.4811 22.5238 43.1711C22.5142 45.8325 24.7837 48.1057 27.5012 48.0678C30.2379 48.0394 32.4024 45.8325 32.4406 43.2184Z" fill="rgb(26,26,26)" fill-rule="nonzero" />
	</g>
</svg>
