<svg viewBox="0 0 39 50" xmlns="http://www.w3.org/2000/svg" xmlns:xlink="http://www.w3.org/1999/xlink" width="39.000000" height="50.000000" fill="none">
	<rect id="Frame" width="39.000000" height="50.000000" x="0.000000" y="0.000000" />
	<g id="Group">
		<path id="Vector" d="M3.65059 48.4246C2.30812 48.4246 1.45196 47.589 1.45196 46.2602C1.43826 40.2807 1.41771 34.2944 1.41771 28.315C1.41771 21.8561 1.44511 15.3903 1.43141 8.93142C1.43141 7.6917 2.39031 6.80129 3.5273 6.82868C5.5547 6.87663 7.58894 6.84238 9.66428 6.84238C9.66428 7.06156 9.66428 7.30129 9.66428 7.54786C9.66428 8.63005 10.6095 9.58896 11.7054 9.58896C14.6506 9.58896 17.5958 9.58896 20.541 9.58896C21.3835 9.58896 22.2328 9.60266 23.0752 9.58896C24.6985 9.56156 25.3218 8.82184 25.3218 7.23964C25.3218 7.10266 25.3081 6.96567 25.3013 6.80129C25.4657 6.80129 25.6095 6.80129 25.7533 6.80129C27.6232 6.81499 29.4999 6.82868 31.3698 6.85608C31.63 6.85608 31.8972 6.89033 32.1437 6.95197C33.0204 7.1643 33.3218 7.84923 33.4588 8.64375C33.5068 8.92457 33.5204 9.21225 33.5204 9.49307C33.5204 15.1643 33.5204 21.4588 33.5204 27.1301C34.315 27.5136 34.6711 27.7191 35.1506 28.0547C35.1574 23.2533 35.0136 16.9931 34.9999 12.1917C34.993 10.815 35.0068 9.42457 34.8492 8.06156C34.7122 6.87663 34.0067 5.98622 32.8013 5.67115C32.1506 5.49992 31.452 5.43142 30.7739 5.41088C29.0958 5.37663 27.4177 5.39033 25.7396 5.40403C25.452 5.40403 25.2944 5.32868 25.1506 5.06841C24.6232 4.08896 23.7807 3.6506 22.678 3.678C22.2328 3.68485 21.7876 3.678 21.3218 3.678C21.2944 3.51362 21.267 3.36978 21.2396 3.22594C20.6437 -0.0959728 17.0958 -0.630219 15.3081 0.636904C14.3561 1.31499 13.8698 2.26019 13.678 3.37663C13.63 3.6369 13.5547 3.7191 13.2944 3.7054C12.8972 3.68485 12.4931 3.71225 12.0958 3.71225C11.0478 3.7054 10.2259 4.07526 9.82867 5.11636C9.74648 5.33553 9.60949 5.39033 9.39031 5.39033C7.49305 5.39033 5.60264 5.39718 3.70538 5.41773C3.30127 5.42458 2.88346 5.47937 2.49305 5.58211C1.36976 5.87663 -0.0411951 7.2054 -9.92505e-05 8.86293C0.0546953 11.2259 0.00675006 13.589 0.00675006 15.952C0.0135994 26.0753 0.027298 36.1985 0.0409966 46.3218C0.0409966 46.6506 0.0546953 46.9862 0.123188 47.3081C0.493051 48.8903 1.73278 49.8629 3.36291 49.8629C6.83552 49.8629 17.7396 49.8629 21.2122 49.8629C20.4383 49.3903 20.0273 48.9794 19.3561 48.4383C16.0547 48.4314 6.95196 48.4314 3.65059 48.4246ZM11.0615 5.76704C11.0752 5.39033 11.3561 5.1917 11.815 5.18485C12.5821 5.178 13.3424 5.18485 14.1095 5.178C14.2328 5.178 14.3629 5.178 14.4862 5.1506C14.9314 5.06841 15.0958 4.85608 15.0684 4.38348C15.0341 3.73279 15.1163 3.11636 15.4451 2.54101C15.9725 1.62321 16.9314 1.24649 18.1026 1.50677C19.0341 1.71225 19.8081 2.57526 19.8972 3.51362C19.9383 3.92458 19.9862 4.32868 19.9999 4.73964C20.0136 5.12321 20.2465 5.178 20.5478 5.178C21.2465 5.178 21.9383 5.178 22.6369 5.178C22.7396 5.178 22.8424 5.17115 22.9451 5.178C23.6643 5.2191 23.8972 5.45882 23.9246 6.178C23.9383 6.48622 23.9314 6.79444 23.904 7.10266C23.8766 7.40403 23.815 7.7054 23.7602 8.08896C22.993 8.08896 22.267 8.08896 21.541 8.08896C18.178 8.08211 14.8081 8.07526 11.4451 8.07526C11.1848 8.07526 11.0547 8.00677 11.0547 7.73964C11.0547 7.08211 11.0341 6.42458 11.0615 5.76704Z" fill="rgb(26,26,26)" fill-rule="nonzero" />
		<path id="Vector" d="M17.5133 11.7944C19.0613 11.7944 26.938 11.7876 28.4859 11.7944C29.9037 11.8013 30.9517 12.8835 30.9585 14.3081C30.9654 16.7602 30.9654 19.2122 30.9722 21.6643C30.9722 22.2328 31.027 22.8081 30.9585 23.3698C30.7667 24.9657 29.8489 25.6437 28.4243 25.678C25.3763 25.7533 9.49961 25.7054 6.45852 25.6917C6.1092 25.6917 5.75304 25.6232 5.41742 25.5341C4.52016 25.2876 4.10235 24.6095 3.90372 23.7602C3.84208 23.5067 3.82838 23.2396 3.82838 22.9793C3.82153 20.1026 3.82153 17.2259 3.82838 14.3561C3.82838 12.8698 4.87632 11.8013 6.36263 11.7944C7.90372 11.7807 15.9654 11.7944 17.5133 11.7944ZM17.4722 24.315C19.0133 24.3081 26.8763 24.3218 28.4174 24.3081C29.0476 24.3013 29.4311 23.9793 29.5476 23.3766C29.5887 23.1643 29.616 22.9451 29.616 22.7328C29.6229 19.9725 29.6297 17.2122 29.6229 14.4451C29.6229 13.767 29.2119 13.267 28.5407 13.2054C27.7119 13.13 20.5544 13.1437 19.7256 13.1369C17.5681 13.13 8.90372 13.13 6.74619 13.1369C5.64345 13.1437 5.19824 13.5615 5.19824 14.5821C5.19824 17.404 5.21194 20.2191 5.22564 23.041C5.23249 23.8355 5.69139 24.3013 6.47906 24.3013C7.97221 24.3218 15.9722 24.315 17.4722 24.315Z" fill="rgb(26,26,26)" fill-rule="nonzero" />
		<path id="Vector" d="M5.93809 37.3561C6.62987 36.6232 7.2874 35.9452 7.93124 35.2534C8.25316 34.9109 8.54768 34.5479 8.87644 34.2191C9.21891 33.8698 9.64357 33.9246 9.92439 34.3287C10.123 34.6164 10.1093 34.8219 9.8148 35.1506C9.04083 36 8.26 36.8493 7.47233 37.6917C7.13672 38.0479 6.7874 38.3972 6.43809 38.7397C6.14357 39.0342 5.95179 39.0547 5.62302 38.8287C4.83535 38.2739 4.14357 37.6095 3.56138 36.8424C3.32165 36.5274 3.39699 36.2876 3.8285 35.9246C4.12302 35.6712 4.30795 35.6849 4.58877 35.9794C5.02713 36.4246 5.46548 36.8698 5.93809 37.3561Z" fill="rgb(26,26,26)" fill-rule="nonzero" />
		<path id="Vector" d="M6.03398 44.5138C6.95864 43.5343 7.84905 42.5686 8.76686 41.6371C8.93124 41.4658 9.20521 41.3768 9.43809 41.3083C9.70521 41.2329 9.93809 41.411 9.99288 41.6439C10.0408 41.8357 9.99973 42.1097 9.89014 42.2672C9.62987 42.6371 9.32165 42.9795 9.00658 43.3083C8.17097 44.185 7.3285 45.048 6.47918 45.911C6.15042 46.2466 5.95179 46.3014 5.58877 46.0001C4.91754 45.4384 4.28055 44.8288 3.66412 44.2124C3.38329 43.9247 3.43124 43.5275 3.69836 43.2672C3.98603 42.9864 4.40384 42.9658 4.74631 43.274C5.12987 43.6165 5.47918 43.9932 5.8422 44.3494C5.89699 44.3973 5.95864 44.4453 6.03398 44.5138Z" fill="rgb(26,26,26)" fill-rule="nonzero" />
		<path id="Vector" d="M5.95892 30.1437C6.75345 29.2944 7.52742 28.4657 8.30139 27.6506C8.51372 27.4246 8.72605 27.2054 8.96577 27.0136C9.27399 26.767 9.60276 26.8013 9.85618 27.0684C10.0891 27.315 10.1165 27.6574 9.85618 27.9314C8.69865 29.1574 7.52742 30.3766 6.34934 31.589C6.17125 31.7739 5.92468 31.8287 5.7329 31.6574C5.00687 31.0205 4.28084 30.3766 3.58906 29.7054C3.36988 29.4931 3.43153 29.1163 3.63701 28.8972C3.87673 28.6437 4.30824 28.5547 4.56851 28.7739C4.98632 29.1232 5.36303 29.5205 5.75345 29.904C5.82194 29.9657 5.86988 30.041 5.95892 30.1437Z" fill="rgb(26,26,26)" fill-rule="nonzero" />
		<path id="Vector" d="M14.4994 28.9863C15.2049 28.9863 15.9104 28.9795 16.6159 28.9932C16.8213 28.9932 17.0268 29.0206 17.2186 29.0685C17.6296 29.1713 17.7939 29.3973 17.7665 29.7672C17.7391 30.1302 17.4994 30.3699 17.0885 30.3973C16.8487 30.4178 16.609 30.4041 16.3693 30.4041C14.9446 30.4041 13.52 30.4041 12.1022 30.3973C11.9583 30.3973 11.8076 30.3699 11.6638 30.3425C11.3761 30.3014 11.2254 30.1028 11.1912 29.8356C11.1569 29.5411 11.2528 29.2672 11.5405 29.1644C11.7939 29.0754 12.0679 29.0206 12.335 29.0137C13.0542 28.9932 13.7734 29.0069 14.4857 29.0069C14.4994 29 14.4994 28.9932 14.4994 28.9863Z" fill="rgb(26,26,26)" fill-rule="nonzero" />
		<path id="Vector" d="M12.1982 37.637C12.0407 37.6096 11.8831 37.589 11.7324 37.5616C11.4448 37.5137 11.253 37.3835 11.2324 37.0548C11.2119 36.7192 11.2941 36.4246 11.6365 36.3082C11.8763 36.2328 12.1502 36.1918 12.4037 36.2123C12.8968 36.2534 13.116 36.5959 13.068 37.1644C13.0475 37.452 12.8009 37.6027 12.342 37.6096C12.2941 37.6096 12.253 37.6096 12.205 37.6096C12.205 37.6233 12.205 37.6301 12.1982 37.637Z" fill="rgb(26,26,26)" fill-rule="nonzero" />
		<path id="Vector" d="M12.0817 44.9932C11.4447 44.9863 11.2461 44.8356 11.2461 44.3562C11.2529 43.8082 11.5954 43.5 12.205 43.5C12.6776 43.5 12.9379 43.7534 12.9379 44.1986C12.9379 44.774 12.6913 45 12.0817 44.9932Z" fill="rgb(26,26,26)" fill-rule="nonzero" />
	</g>
	<g id="Group">
		<path id="Vector" d="M12.3492 21.6919C12.3423 21.7809 12.3149 21.8494 12.267 21.8973C12.2054 21.959 12.1163 21.9727 11.9999 21.9384C11.8903 21.9042 11.7807 21.8289 11.678 21.7193C11.5821 21.6097 11.5273 21.5001 11.5136 21.3768C11.4862 21.1645 11.4588 20.9521 11.4314 20.7398C11.404 20.5275 11.3697 20.3152 11.3355 20.1028C11.0684 20.1439 10.8012 20.1919 10.5273 20.2398C10.2602 20.2946 9.99303 20.3426 9.71906 20.3836C9.56152 20.411 9.40399 20.4316 9.24646 20.4521C9.08207 20.4727 8.93139 20.5138 8.78755 20.5686L8.7807 20.5686L8.7807 20.5754C8.70536 20.7809 8.63002 20.9864 8.55467 21.1919C8.48618 21.3973 8.42454 21.6165 8.36974 21.8425C8.34235 21.9316 8.2944 21.9727 8.21906 21.9727C8.19166 21.9727 8.15741 21.9658 8.11632 21.9521C7.97933 21.911 7.88344 21.8631 7.8355 21.822C7.74646 21.7467 7.67111 21.6508 7.60947 21.5412C7.57522 21.4658 7.56152 21.3905 7.56152 21.3152C7.56152 21.2741 7.56837 21.233 7.57522 21.1919C7.82865 20.185 8.19851 19.2398 8.69851 18.3425C9.19166 17.4521 9.70536 16.5754 10.2602 15.7056C10.3081 15.6234 10.3697 15.5823 10.4519 15.5823C10.4725 15.5823 10.493 15.5823 10.5204 15.5891C10.63 15.6165 10.7191 15.6645 10.7944 15.7261C10.8492 15.7672 10.9108 15.8289 10.9793 15.9247C11.041 16.0138 11.0821 16.096 11.0958 16.1782C11.3012 16.6713 11.4725 17.1645 11.6095 17.6713C11.7533 18.1713 11.8766 18.6782 11.9793 19.1919C12.1232 19.3015 12.2259 19.4521 12.2944 19.6439C12.356 19.8357 12.3012 19.9521 12.13 19.9932C12.1711 20.2672 12.2122 20.5343 12.2533 20.8083C12.2875 21.0823 12.3218 21.3562 12.356 21.6302C12.3423 21.6576 12.3492 21.6782 12.3492 21.6919ZM10.4862 19.2878C10.7122 19.2467 10.9451 19.2056 11.178 19.1713C11.1095 18.8152 11.0273 18.4521 10.9382 18.096C10.8492 17.7398 10.7465 17.3836 10.63 17.0343C10.3766 17.4453 10.13 17.8494 9.89714 18.2604C9.66426 18.6713 9.44509 19.096 9.23276 19.5206C9.3218 19.5069 9.41769 19.4864 9.51358 19.4727C9.60262 19.459 9.69851 19.4453 9.78755 19.4316C10.0273 19.3768 10.2602 19.3289 10.4862 19.2878Z" fill="rgb(26,26,26)" fill-rule="nonzero" />
		<path id="Vector" d="M20.7878 18.9727C20.8084 19.0481 20.8152 19.1234 20.8152 19.1987C20.8152 19.2809 20.8084 19.3631 20.7878 19.4453C20.7467 19.5892 20.6851 19.7193 20.6029 19.8357C20.5139 19.9522 20.418 20.0618 20.3015 20.1645C20.0413 20.4111 19.7536 20.6303 19.4317 20.8152C19.1098 21.007 18.781 21.1645 18.4385 21.2878C18.233 21.37 18.0207 21.4453 17.8015 21.507C17.5892 21.5686 17.37 21.6303 17.144 21.6851C17.0413 21.7125 16.9385 21.7398 16.8289 21.7672C16.7193 21.7946 16.6166 21.8152 16.5139 21.8494C16.4043 21.8768 16.3015 21.8974 16.1988 21.9316C16.1577 21.9453 16.1097 21.9522 16.0618 21.9522C16.0002 21.9522 15.9454 21.9453 15.8769 21.9248C15.8152 21.9042 15.7673 21.8768 15.7193 21.8357C15.6714 21.7946 15.6234 21.7535 15.5824 21.7056C15.5481 21.6577 15.5139 21.6029 15.4865 21.5549C15.4591 21.4933 15.4385 21.4385 15.4248 21.37C15.418 21.3426 15.418 21.322 15.418 21.2946C15.418 21.2672 15.418 21.2467 15.4248 21.2193C15.4317 21.1714 15.4522 21.1303 15.4933 21.1029C15.5139 21.0892 15.5344 21.0755 15.555 21.0686C15.5824 21.0618 15.6029 21.0618 15.6234 21.0549C15.6714 21.0481 15.7193 21.0344 15.7604 21.0207C15.8015 21.0138 15.8495 21.0001 15.8974 20.9933C15.8906 20.9522 15.8906 20.9179 15.8906 20.8905C15.8906 20.8631 15.8906 20.8426 15.8837 20.8083C15.87 20.4522 15.8563 20.0892 15.8426 19.7261C15.8289 19.3631 15.8084 19.0001 15.7947 18.6371C15.7878 18.6234 15.7741 18.6097 15.7673 18.6029C15.7604 18.5892 15.7536 18.5755 15.7467 18.5618C15.6988 18.4933 15.6645 18.3974 15.644 18.2809C15.6166 18.1577 15.6645 18.0755 15.7741 18.0344C15.7604 17.8426 15.7467 17.644 15.7467 17.4522C15.7399 17.2535 15.733 17.0618 15.7262 16.87C15.7125 16.8563 15.6988 16.8426 15.6988 16.8426C15.6919 16.8357 15.6782 16.822 15.6714 16.8152C15.6303 16.7741 15.5961 16.7193 15.5618 16.6577C15.5276 16.596 15.507 16.5412 15.4933 16.4727C15.4865 16.4385 15.4796 16.3905 15.4865 16.3357C15.4933 16.2741 15.5207 16.233 15.5618 16.2056C15.7399 16.096 15.918 16.0001 16.1097 15.9042C16.2947 15.8152 16.4865 15.7398 16.6851 15.6782C16.8632 15.6166 17.0413 15.5686 17.2262 15.5412C17.4111 15.5138 17.5961 15.4864 17.781 15.4659C17.9591 15.4453 18.1303 15.4385 18.3152 15.4385C18.4933 15.4385 18.6714 15.4453 18.8563 15.4659C19.233 15.5001 19.5413 15.6577 19.7878 15.9453C19.9317 16.1029 20.0276 16.2878 20.0618 16.5001C20.1029 16.7125 20.0618 16.9179 19.9454 17.1097C19.8769 17.233 19.7947 17.3494 19.7056 17.459C19.6166 17.5686 19.5139 17.6645 19.3974 17.7535C19.3906 17.7604 19.3837 17.7741 19.3769 17.7741C19.37 17.7809 19.3563 17.7946 19.3495 17.8015C19.6029 17.8494 19.8426 17.9316 20.0618 18.0412C20.281 18.1577 20.4591 18.3289 20.6097 18.5549C20.6919 18.6714 20.7536 18.8152 20.7878 18.9727ZM17.2125 16.5344C16.9865 16.6097 16.7604 16.6987 16.5481 16.8083C16.555 16.9796 16.5618 17.1508 16.5687 17.3152C16.5755 17.4796 16.5824 17.6508 16.5892 17.8152C16.7125 17.7809 16.8426 17.7467 16.9659 17.7125C17.0892 17.6851 17.2125 17.6508 17.3358 17.6097C17.3974 17.5823 17.4591 17.5618 17.5276 17.5412C17.5892 17.5207 17.6508 17.5001 17.7125 17.4727C17.8563 17.4179 18.0002 17.3563 18.144 17.2878C18.2878 17.2125 18.418 17.1303 18.5413 17.0412C18.6508 16.959 18.7536 16.87 18.8563 16.7741C18.9591 16.6714 19.0481 16.5618 19.1303 16.4453L19.1645 16.3768L19.1919 16.3152C19.0824 16.2878 18.9728 16.2809 18.8632 16.2809C18.7536 16.2809 18.644 16.2878 18.5413 16.2946C18.4317 16.3015 18.3221 16.3083 18.2125 16.3152C18.1029 16.322 18.0002 16.3357 17.8906 16.3494C17.6645 16.4111 17.4317 16.459 17.2125 16.5344ZM19.9728 18.7809C19.9728 18.7672 19.9659 18.7604 19.9591 18.7604C19.8152 18.6851 19.6645 18.644 19.4933 18.6303C19.3221 18.6234 19.1577 18.6097 19.007 18.6029C18.6097 18.5823 18.2125 18.596 17.8221 18.6303C17.4317 18.6714 17.0413 18.733 16.6508 18.822C16.6645 19.1508 16.6782 19.4727 16.6919 19.8083C16.7056 20.1371 16.7193 20.459 16.733 20.7809C16.9248 20.7261 17.1166 20.6714 17.3084 20.6234C17.5002 20.5618 17.6851 20.5001 17.87 20.4248C18.0824 20.3426 18.2947 20.2467 18.507 20.1508C18.7125 20.0412 18.9043 19.9248 19.0892 19.7946C19.2467 19.6851 19.4317 19.5481 19.6371 19.3768C19.8358 19.2124 19.9522 19.0275 19.9796 18.8152C19.9728 18.8015 19.9728 18.7946 19.9728 18.7809Z" fill="rgb(26,26,26)" fill-rule="nonzero" />
		<path id="Vector" d="M27.0139 19.7466C27.0618 19.7398 27.1166 19.7398 27.1714 19.7603C27.2331 19.7877 27.2879 19.8151 27.3358 19.8562C27.3837 19.8973 27.4317 19.9384 27.4728 19.9864C27.5344 20.0617 27.5892 20.1576 27.6372 20.2877C27.6577 20.3288 27.6646 20.3631 27.6646 20.4042C27.6646 20.4795 27.6303 20.5412 27.5618 20.596C27.3563 20.7672 27.1372 20.9316 26.918 21.0823C26.692 21.2329 26.4659 21.3699 26.2262 21.5001C26.0139 21.6165 25.7879 21.7055 25.5481 21.774C25.3906 21.8151 25.2262 21.8425 25.0687 21.8425C24.9865 21.8425 24.9043 21.8357 24.8221 21.8288C24.5961 21.7946 24.3769 21.7261 24.1646 21.6165C23.9591 21.5138 23.781 21.3768 23.6166 21.1987C23.4522 21.0069 23.3358 20.7946 23.2673 20.5617C23.1988 20.3288 23.1646 20.0891 23.1577 19.8425C23.1577 19.4316 23.2262 19.0275 23.3632 18.6233C23.5002 18.2329 23.6783 17.8631 23.9043 17.5206C24.0276 17.3425 24.1509 17.1781 24.2879 17.0138C24.418 16.8494 24.5618 16.6918 24.7125 16.548C24.8632 16.3973 25.0276 16.2535 25.1988 16.1096C25.37 15.9727 25.555 15.8699 25.7605 15.7946C25.8974 15.7466 26.0276 15.7192 26.1577 15.7192C26.2947 15.7192 26.4248 15.7466 26.555 15.7946C26.8221 15.8973 27.007 16.0891 27.1166 16.3699C27.1988 16.6028 27.2331 16.8494 27.2262 17.1028C27.2125 17.3631 27.1714 17.6028 27.1098 17.8357C27.0755 17.959 26.9933 17.9932 26.8563 17.9521C26.7194 17.911 26.6235 17.8631 26.5755 17.8151C26.4865 17.7398 26.4043 17.6439 26.3426 17.5343C26.281 17.4179 26.2742 17.3014 26.3084 17.185C26.3358 17.096 26.3495 17.0069 26.37 16.9179C26.3769 16.8288 26.3837 16.7329 26.3837 16.6507C26.2399 16.6918 26.1029 16.7603 25.9659 16.8631C25.8358 16.9658 25.7125 17.0617 25.6098 17.1644C25.2125 17.5206 24.87 17.9384 24.5755 18.411C24.281 18.8768 24.1029 19.3836 24.0276 19.9247C24.0002 20.0823 23.9933 20.2603 23.9933 20.4521C23.9933 20.6439 24.0755 20.7809 24.2468 20.8631C24.3152 20.9042 24.3906 20.9247 24.4659 20.9384C24.5413 20.9453 24.6166 20.9453 24.692 20.9453C24.8906 20.9316 25.0892 20.8836 25.281 20.8151C25.4728 20.7398 25.6577 20.6576 25.8358 20.5549C25.9933 20.4658 26.1509 20.3631 26.3015 20.2466C26.4591 20.1302 26.6029 20.0138 26.7468 19.8905C26.7673 19.8768 26.7879 19.8631 26.8084 19.8494C26.8289 19.8357 26.8495 19.822 26.8769 19.8151C26.918 19.774 26.9659 19.7535 27.0139 19.7466Z" fill="rgb(26,26,26)" fill-rule="nonzero" />
	</g>
	<g id="Group">
		<path id="Vector" d="M37.4381 32.7055C36.7942 31.6165 36.0682 30.6918 35.2668 29.9589C34.6299 29.3699 33.9038 28.9247 33.2668 28.548C32.6093 28.1576 31.9175 27.8356 31.1915 27.5822C30.4175 27.3082 29.5956 27.1987 28.8833 27.1165C27.4175 26.9452 26.0203 27.0137 24.7257 27.3151C23.3901 27.6302 22.1367 28.2055 20.9997 29.0274C20.26 29.5617 19.5545 30.2055 18.897 30.9521C17.2394 32.8288 16.2668 34.8836 15.9929 37.0685C15.7257 39.1987 16.1299 41.4658 17.1983 43.8014L17.2052 43.8151C17.6436 44.5685 18.3353 45.6781 19.1915 46.5411C21.486 48.8493 24.1915 50.0137 27.2463 50.0137C27.6641 50.0137 28.0888 49.9932 28.5203 49.9452C30.9449 49.6987 33.0888 48.8014 34.9038 47.2808C37.5614 45.048 38.9381 42.1439 38.9929 38.6576C39.034 36.5137 38.5066 34.5137 37.4381 32.7055ZM34.9038 45.5343C33.034 47.5 30.4175 48.5959 27.5271 48.6302C24.8148 48.6644 22.2874 47.6576 20.397 45.8082C18.4655 43.911 17.349 41.2808 17.3353 38.5959C17.4381 32.1165 22.534 28.5137 27.2805 28.411C27.3627 28.411 27.4381 28.411 27.5203 28.411C33.0682 28.411 37.3764 32.5617 37.5888 38.1576C37.6915 40.9795 36.7394 43.6028 34.9038 45.5343Z" fill="rgb(26,26,26)" fill-rule="nonzero" />
		<path id="Vector" d="M33.6987 31.9385C32.4932 30.7878 30.3973 29.4385 27.274 29.5344C24.9247 29.6029 22.7672 30.4727 21.1987 31.9864C19.5069 33.6166 18.5617 35.8837 18.4727 38.5549L18.4727 38.5618L18.4727 38.5686C18.5891 41.1371 19.5343 43.3563 21.1987 44.9727C22.8357 46.5618 25.0138 47.4453 27.5001 47.5207C29.9795 47.4933 32.3631 46.4864 34.0343 44.7604C35.685 43.0549 36.5685 40.733 36.5137 38.233C36.4658 35.8837 35.4384 33.596 33.6987 31.9385ZM28.3494 42.7536L28.185 46.1919L26.685 46.2673L26.548 42.7673C27.2124 42.8905 27.8151 42.8837 28.3494 42.7536ZM23.4453 39.37L19.8562 38.8426L19.8562 38.5686C19.8562 38.2467 19.8562 37.9111 19.8562 37.5755C19.8562 37.3563 19.9042 37.2741 20.1987 37.2399C21.0891 37.1234 21.9864 36.9796 22.8631 36.8357C23.2192 36.7809 23.5754 36.7193 23.9316 36.6645C23.4247 37.4659 23.2603 38.3563 23.4453 39.37ZM35.137 38.4796C35.1439 38.6234 35.1507 38.7673 35.1576 38.9111C35.1576 38.9453 35.1507 38.959 35.1507 38.959C35.1507 38.959 35.1302 38.9727 35.048 38.9864C34.0754 39.1029 33.048 39.2399 31.911 39.3974C31.7603 39.4179 31.6165 39.459 31.4727 39.5001L31.4658 39.5001C31.5822 38.0892 31.5275 37.9111 31.0206 36.6645C31.0548 36.6714 31.0891 36.6714 31.1233 36.6782C31.3562 36.7056 31.5754 36.7262 31.8014 36.7604C32.3083 36.8426 32.822 36.9248 33.3151 37.007C33.8151 37.0892 34.3357 37.1782 34.8494 37.2604C35.0685 37.2946 35.1233 37.3289 35.1165 37.5275C35.1028 37.8426 35.1233 38.1645 35.137 38.4796ZM34.4316 35.8015C34.1713 35.7604 33.911 35.7262 33.6507 35.6851C33.3836 35.644 33.1096 35.6029 32.8425 35.5686C32.2055 35.4727 31.5411 35.3768 30.8973 35.2741C30.1713 35.1577 29.4384 35.0207 28.7261 34.8905L28.5206 34.8494C28.1713 34.7809 27.8083 34.7536 27.4316 34.7536C26.8494 34.7536 26.2261 34.8357 25.5343 34.9933C24.0754 35.3289 22.7124 35.5412 21.3631 35.6508C21.0822 35.6714 20.8083 35.7125 20.5206 35.7604C20.4521 35.7741 20.3836 35.7809 20.3151 35.7946C20.5959 34.7193 21.4795 33.5549 22.7535 32.5755C24.0754 31.5549 25.6302 30.9111 26.8973 30.8494C30.7398 30.6645 33.685 33.2467 34.5891 35.8357L34.4316 35.8015ZM25.5617 36.7946C26.0685 36.322 26.7124 36.0618 27.4042 36.0618C27.459 36.0618 27.5138 36.0618 27.5754 36.0686C28.8905 36.1508 30.2261 37.0892 30.2398 38.7262C30.2466 39.5001 29.9727 40.1988 29.4795 40.6919C28.9795 41.1919 28.2672 41.459 27.4727 41.4453C25.7809 41.4248 24.7261 40.3494 24.7261 38.6508C24.7124 37.9933 25.0275 37.2946 25.5617 36.7946ZM29.4795 45.8905C29.5001 45.6371 29.5138 45.3837 29.5343 45.1371C29.5822 44.4385 29.6233 43.7741 29.7329 43.1166C29.8973 42.1577 30.5001 41.4522 31.5343 41.0138C32.3494 40.6714 33.2192 40.5138 34.0411 40.3974C34.2946 40.3631 34.548 40.3357 34.8151 40.3083C34.8768 40.3015 34.9384 40.2946 35.0001 40.2878C34.5822 42.7056 31.8905 45.4453 29.4795 45.8905ZM20.2672 40.3563C20.5685 40.3837 20.8562 40.4042 21.1439 40.4522C21.685 40.5344 22.2946 40.6371 22.8699 40.7878C24.2192 41.144 25.0069 42.0207 25.2192 43.4111C25.3083 44.007 25.3357 44.6097 25.3562 45.2399C25.3631 45.459 25.3699 45.6851 25.3836 45.9111C24.2329 45.5823 22.9316 44.7467 21.8699 43.644C20.822 42.5481 20.137 41.322 20.0138 40.3357C20.1096 40.3426 20.1918 40.3494 20.2672 40.3563Z" fill="rgb(26,26,26)" fill-rule="nonzero" />
		<path id="Vector" d="M27.4725 40.589C27.4794 40.589 27.4862 40.589 27.4931 40.589C27.9725 40.589 28.452 40.3835 28.815 40.0274C29.1575 39.6918 29.3561 39.2465 29.3561 38.815C29.3561 37.7739 28.5136 36.8904 27.5136 36.8904L27.5068 36.8904C26.9588 36.8904 26.452 37.089 26.089 37.452C25.7465 37.7876 25.5616 38.2465 25.5616 38.7397C25.5547 39.7808 26.3766 40.5753 27.4725 40.589ZM27.8287 39.137C27.7396 39.226 27.6232 39.2739 27.4862 39.2739C27.1917 39.2739 26.8835 39.0137 26.8766 38.7534C26.8766 38.6301 26.9177 38.5137 26.9999 38.4246C27.1027 38.315 27.2602 38.2602 27.4383 38.2534L27.4451 38.2534C27.7739 38.2534 27.9725 38.4315 27.9725 38.7328C27.9725 38.9041 27.9246 39.0411 27.8287 39.137Z" fill="rgb(26,26,26)" fill-rule="nonzero" />
	</g>
</svg>
