<svg viewBox="0 0 58.9937 49.9829" xmlns="http://www.w3.org/2000/svg" xmlns:xlink="http://www.w3.org/1999/xlink" width="58.993652" height="49.982910" fill="none" customFrame="#000000">
	<g id="Group">
		<path id="Vector" d="M36.7369 1.81C37.9101 1.70993 39.0672 1.57651 40.2323 1.5098C42.5463 1.38471 44.7633 1.91006 46.964 2.58551C48.3557 3.0108 49.7635 3.31934 51.2361 3.311C52.7815 3.29432 54.2055 2.88571 55.5325 2.08518C55.7995 1.92674 56.0503 1.6599 56.4144 1.88505C56.7785 2.1102 56.8189 2.46877 56.8109 2.8607C56.8028 7.93074 56.8028 13.0091 56.8109 18.0792C56.8109 18.6045 56.6409 18.9464 56.1878 19.1799C54.9418 19.8303 53.6068 20.1472 52.2232 20.3223C49.9173 20.6142 47.7489 19.9388 45.5643 19.3884C44.3425 19.0798 43.1208 18.7379 41.8748 18.5628C40.2242 18.3293 38.5736 18.4711 36.9797 19.0548C36.7288 19.1466 36.7288 19.2883 36.7288 19.4968C36.7288 20.9811 36.7288 22.4738 36.7288 23.9581C36.7288 24.3333 36.6156 24.6836 36.2677 24.8003C36.033 24.8837 35.7094 24.8504 35.4747 24.7586C35.1511 24.6335 35.1106 24.2917 35.1106 23.9498C35.1187 19.822 35.1106 15.6943 35.1106 11.5665C35.1106 8.03915 35.1187 4.50346 35.1025 0.976107C35.1025 0.384046 35.4505 0.0171347 35.9197 0.000456874C36.3809 -0.0162209 36.7208 0.42574 36.7288 0.992785C36.745 1.27631 36.7369 1.57651 36.7369 1.81ZM51.3332 4.97878C51.3332 6.1629 51.3332 7.30533 51.3332 8.47277C52.6278 8.4144 53.8576 8.16423 55.0065 7.60553C55.0875 7.56383 55.1765 7.45543 55.1845 7.37204C55.1926 6.29632 55.1926 5.2206 55.1926 4.10319C53.9385 4.67858 52.6763 4.93708 51.3332 4.97878ZM36.7369 7.04682C37.9991 6.87171 39.2128 6.70493 40.4345 6.53815C40.4345 5.42908 40.4345 4.28665 40.4345 3.13588C39.2371 3.07751 38.1043 3.27764 36.9797 3.56116C36.8826 3.58618 36.7531 3.7613 36.7531 3.86136C36.7369 4.93708 36.7369 6.00446 36.7369 7.04682ZM45.7099 3.86136C44.5205 3.62788 43.3311 3.39439 42.1013 3.14422C42.1013 4.37838 42.1013 5.52914 42.1013 6.66323C43.3069 6.9134 44.4963 7.16357 45.7099 7.41373C45.7099 6.25463 45.7099 5.09552 45.7099 3.86136ZM42.1094 11.8917C43.3231 12.1586 44.5124 12.4171 45.7099 12.6756C45.7099 11.5165 45.7099 10.3407 45.7099 9.12321C44.5124 8.87304 43.3231 8.62287 42.1094 8.36437C42.1094 9.57351 42.1094 10.7493 42.1094 11.8917ZM50.8801 10.2406C49.6988 10.0321 48.5337 9.82367 47.3524 9.6152C47.3524 10.7743 47.3524 11.9334 47.3524 13.1509C48.5175 13.3844 49.6826 13.6179 50.8801 13.8514C50.8801 12.5922 50.8801 11.4081 50.8801 10.2406ZM36.7369 17.262C37.983 17.0702 39.1966 16.8867 40.4426 16.7033C40.4426 15.6859 40.4426 14.6102 40.4426 13.5261C39.2613 13.5095 38.1205 13.6345 37.0039 13.9681C36.8988 14.0015 36.7531 14.1682 36.745 14.2766C36.7288 15.2773 36.7369 16.278 36.7369 17.262ZM45.718 17.6622C45.718 16.5615 45.718 15.4941 45.718 14.36C44.5286 14.0932 43.3311 13.8263 42.1013 13.5428C42.1013 14.7186 42.1013 15.786 42.1013 16.845C43.2988 17.1202 44.4882 17.3871 45.718 17.6622ZM47.3605 18.1626C48.469 18.3544 49.5774 18.5378 50.7183 18.7296C50.7183 17.5622 50.7183 16.5031 50.7183 15.4941C49.5855 15.2773 48.4771 15.0605 47.3605 14.8437C47.3605 15.9111 47.3605 16.9868 47.3605 18.1626ZM52.377 18.5712C53.2993 18.5128 54.157 18.2876 54.9742 17.9291C55.0632 17.8874 55.1845 17.7623 55.1845 17.6789C55.2007 16.6449 55.1926 15.6109 55.1926 14.5935C54.2379 14.8687 53.3236 15.1355 52.377 15.4107C52.377 16.4197 52.377 17.4704 52.377 18.5712Z" fill="rgb(26,26,26)" fill-rule="nonzero" />
		<path id="Vector" d="M46.2359 32.839C47.0774 32.8056 47.8784 32.7639 48.6794 32.7306C48.817 32.7222 48.9464 32.7306 49.084 32.7472C49.7151 32.8473 50.2572 33.0725 50.4433 33.7896C50.6456 34.5818 50.4676 35.2906 49.8931 35.841C49.5856 36.1328 49.1973 36.333 48.817 36.5915C49.7717 37.7172 49.9659 39.1098 49.9335 40.5858C49.9093 41.7366 49.9255 42.8957 49.9255 44.0464C49.9255 44.6969 49.7717 45.3056 49.3914 45.8393C49.3186 45.9394 49.2943 46.0895 49.2943 46.2229C49.2863 46.6649 49.2539 47.1152 49.2943 47.5571C49.3995 48.6579 48.4852 49.892 47.2069 49.9587C46.2683 50.0004 45.3216 49.9921 44.3831 49.9003C43.4526 49.8086 42.6678 48.8163 42.6516 47.849C42.6435 47.5571 42.6516 47.2653 42.6516 46.94C38.5899 46.94 34.5363 46.94 30.4746 46.94C30.4422 47.332 30.4503 47.7322 30.3775 48.1158C30.1833 49.0831 29.4551 49.8503 28.5165 49.9254C27.497 50.0004 26.4695 49.9754 25.45 49.9003C24.6409 49.842 23.6538 48.7746 23.7023 47.8823C23.7185 47.6322 23.6781 47.382 23.6781 47.1318C23.6862 46.5064 23.6619 45.9144 23.3221 45.3473C23.144 45.0471 23.0955 44.6385 23.0955 44.2716C23.0712 42.7456 23.0874 41.2112 23.0874 39.6852C23.0793 38.5761 23.403 37.5921 24.0826 36.7249C24.1231 36.6749 24.1554 36.6082 24.1959 36.5498C23.848 36.308 23.5001 36.0911 23.1683 35.841C22.5615 35.3907 22.343 34.7569 22.4482 34.0148C22.5615 33.2059 23.1926 32.7389 24.1312 32.7222C24.9241 32.7139 25.7251 32.7056 26.518 32.7222C26.7608 32.7306 26.8659 32.6388 26.9388 32.4053C27.2462 31.4631 27.5456 30.5208 27.9097 29.6035C28.6136 27.8523 29.9486 26.9267 31.761 26.8933C34.9408 26.835 38.1206 26.8683 41.3085 26.8767C43.0157 26.885 44.5611 28.0358 45.1598 29.7202C45.5239 30.7876 45.888 31.8383 46.2359 32.839ZM36.4538 45.2472C40.0948 45.2472 43.7277 45.2472 47.3687 45.2472C47.9431 45.2472 48.2587 44.947 48.3234 44.355C48.3315 44.2549 48.3477 44.1632 48.3477 44.0631C48.3477 42.6705 48.3558 41.2863 48.3477 39.8937C48.3477 39.5601 48.2992 39.2266 48.2344 38.9097C47.8784 37.2836 46.5029 36.0411 45.0061 36.0411C39.3585 36.0244 33.711 36.0578 28.0634 36.0244C26.3967 36.0161 24.6733 37.7839 24.6894 39.5851C24.7056 41.1445 24.6894 42.6955 24.6894 44.2549C24.6894 44.9887 24.9564 45.2472 25.6604 45.2472C29.2609 45.2472 32.8533 45.2472 36.4538 45.2472ZM45.0708 34.3233C44.5692 32.9057 44.1161 31.5214 43.5902 30.1622C43.1856 29.1198 42.3765 28.5778 41.2923 28.5695C38.1125 28.5528 34.9327 28.5444 31.7448 28.5695C30.7011 28.5778 29.6654 29.2532 29.3418 30.2706C29.0343 31.2546 28.6622 32.2136 28.3142 33.1892C28.1848 33.5561 28.0634 33.923 27.9259 34.315C33.6786 34.3233 39.3504 34.3233 45.0708 34.3233ZM25.2558 46.9317C25.2558 47.1318 25.2558 47.307 25.2558 47.4821C25.2558 48.1158 25.4581 48.316 26.073 48.3243C26.607 48.3243 27.1491 48.316 27.6831 48.3243C28.7835 48.3577 28.9453 48.3326 28.8725 46.9817C28.8725 46.9734 28.8563 46.9651 28.8321 46.9234C27.675 46.9317 26.4937 46.9317 25.2558 46.9317ZM47.7328 46.94C46.5353 46.94 45.3621 46.94 44.1646 46.94C44.1646 47.1402 44.1565 47.3069 44.1646 47.4737C44.1808 48.1325 44.3831 48.3243 45.0304 48.3326C45.5158 48.3326 46.0013 48.316 46.4868 48.341C47.8218 48.3993 47.7975 47.9991 47.7328 46.94ZM26.3157 34.3733C25.4581 34.3733 24.7299 34.3733 24.0017 34.3733C23.9855 34.415 23.9612 34.4567 23.9451 34.4984C24.4629 34.8153 24.9807 35.1322 25.5552 35.4824C25.806 35.0988 26.0326 34.7736 26.3157 34.3733ZM48.9788 34.365C48.2506 34.365 47.5305 34.365 46.8104 34.365C46.7861 34.415 46.7538 34.4651 46.7295 34.5151C46.9965 34.7819 47.215 35.1238 47.5305 35.2906C47.8218 35.4407 48.8251 34.7486 48.9788 34.365Z" fill="rgb(26,26,26)" fill-rule="nonzero" />
		<path id="Vector" d="M24.1153 11.8751C21.6475 11.8751 19.1797 11.8168 16.712 11.8918C13.4917 11.9835 10.587 13.0926 8.03025 15.1023C4.70482 17.7207 2.62542 21.198 1.91341 25.4258C0.86157 31.7134 2.56878 37.142 7.18878 41.4699C9.45428 43.5879 12.181 44.7637 15.1989 45.2557C16.979 45.5476 18.7671 45.4725 20.5633 45.4892C21.1539 45.4975 21.51 45.8394 21.4533 46.3564C21.4129 46.74 21.1863 46.9902 20.8222 47.0819C20.628 47.132 20.4257 47.1486 20.2235 47.1403C18.9532 47.1236 17.6829 47.157 16.4288 47.0736C13.2328 46.8484 10.2715 45.8561 7.64997 43.9298C3.69344 41.0279 1.23376 37.0836 0.343743 32.172C-0.683822 26.4849 0.602656 21.3231 4.06563 16.8034C6.67095 13.4011 10.0935 11.3081 14.2361 10.4992C15.1423 10.3241 16.0809 10.2407 17.0032 10.2324C22.0197 10.2074 27.0361 10.2157 32.0526 10.2157C32.5947 10.2157 32.886 10.4158 32.9507 10.8411C33.0397 11.3915 32.7646 11.7834 32.2063 11.8585C32.0041 11.8835 31.8018 11.8668 31.5995 11.8668C29.1075 11.8668 26.6073 11.8668 24.1153 11.8668L24.1153 11.8751Z" fill="rgb(26,26,26)" fill-rule="nonzero" />
		<path id="Vector" d="M24.568 21.373C22.2459 21.373 19.9318 21.3814 17.6097 21.373C15.1257 21.3563 12.035 23.3577 11.2663 26.7016C10.6514 29.37 11.1773 31.7883 13.0544 33.7646C14.3166 35.0905 15.9025 35.8243 17.7472 35.8493C18.5402 35.8577 19.3412 35.8493 20.1341 35.8577C20.7733 35.866 21.0889 36.1912 21.0484 36.7916C21.0241 37.1585 20.7814 37.4921 20.4254 37.4838C18.791 37.4754 17.1323 37.6756 15.5384 37.1169C12.1968 35.9411 10.1336 33.6145 9.55101 29.9871C8.90372 25.9761 10.9589 22.0568 14.5351 20.4391C15.5384 19.9888 16.5902 19.7219 17.6987 19.7219C22.4886 19.7219 27.2704 19.7303 32.0603 19.7386C32.7238 19.7386 33.0717 20.1555 32.9423 20.7643C32.8614 21.1729 32.5539 21.373 32.0118 21.373C29.5278 21.3647 27.052 21.3647 24.568 21.373Z" fill="rgb(26,26,26)" fill-rule="nonzero" />
		<path id="Vector" d="M57.434 31.1628C57.3854 28.1775 56.7462 25.3756 55.3222 22.7739C55.1361 22.4403 55.0471 22.1068 55.2817 21.7649C55.6458 21.2312 56.3255 21.2562 56.6249 21.8816C57.1589 22.9907 57.6929 24.1164 58.0893 25.2839C58.9065 27.7105 59.125 30.2205 58.9227 32.7806C58.6233 36.6415 57.2964 40.0604 54.8448 42.9957C54.2946 43.6545 53.6473 44.2382 53.0324 44.8303C52.6926 45.1638 52.2152 45.1221 51.9159 44.7719C51.6327 44.4467 51.6327 43.9797 51.9806 43.6545C52.992 42.7038 53.9305 41.6948 54.6911 40.5191C56.0423 38.426 56.9 36.1328 57.2155 33.6395C57.3207 32.8223 57.3611 31.9884 57.434 31.1628Z" fill="rgb(26,26,26)" fill-rule="nonzero" />
		<path id="Vector" d="M50.0062 29.9787C50.0062 30.1037 50.0223 30.2288 50.0062 30.3539C49.9576 30.8042 49.6097 31.1128 49.1809 31.1044C48.744 31.0961 48.4608 30.7709 48.4041 30.2622C48.3151 29.5284 48.2504 28.7779 48.0805 28.0607C47.9591 27.5604 47.6678 27.1101 47.4575 26.6431C47.3927 26.5097 47.3118 26.3763 47.2795 26.2262C47.1905 25.7925 47.4089 25.3923 47.8135 25.2172C48.129 25.0754 48.574 25.2005 48.7601 25.6174C49.1323 26.468 49.4802 27.3352 49.7553 28.2192C49.9333 28.7779 49.9576 29.3866 50.0547 29.9703C50.0385 29.9787 50.0223 29.9787 50.0062 29.9787Z" fill="rgb(26,26,26)" fill-rule="nonzero" />
		<path id="Vector" d="M18.1841 16.3947C17.4317 16.4947 16.6711 16.5948 15.9186 16.7032C15.5383 16.7616 15.1823 16.5364 15.0852 16.1612C15.0043 15.8443 15.1743 15.469 15.5383 15.394C16.7601 15.1188 17.998 14.952 19.2521 15.1355C19.6648 15.1939 19.7942 15.4274 19.77 15.8693C19.7457 16.2696 19.4949 16.428 19.1631 16.4614C18.8395 16.4947 18.5159 16.4697 18.1922 16.4697C18.1841 16.4364 18.1841 16.4197 18.1841 16.3947Z" fill="rgb(26,26,26)" fill-rule="nonzero" />
		<path id="Vector" d="M17.1088 42.2036C16.1783 42.0119 15.2478 41.8284 14.3174 41.6116C13.9533 41.5282 13.7753 41.1613 13.8481 40.8027C13.9128 40.4858 14.2769 40.219 14.6167 40.2857C15.5148 40.4441 16.413 40.6026 17.303 40.786C17.6833 40.8611 17.9179 41.1863 17.8855 41.5199C17.8532 41.8701 17.5133 42.162 17.1088 42.2036Z" fill="rgb(26,26,26)" fill-rule="nonzero" />
		<path id="Vector" d="M6.32271 26.7683C6.32271 27.6105 6.32271 28.4527 6.32271 29.2949C6.32271 29.6702 6.13662 29.8953 5.7968 29.9621C5.40033 30.0371 5.08478 29.837 5.01196 29.445C4.95533 29.1365 4.94724 28.8113 4.96342 28.4944C4.99578 27.844 5.04433 27.1935 5.10097 26.5514C5.14951 26.0261 5.42461 25.7676 5.82916 25.8093C6.21753 25.851 6.4279 26.1428 6.41172 26.6432C6.41172 26.6849 6.41172 26.7266 6.40363 26.7683C6.37935 26.7683 6.35508 26.7683 6.32271 26.7683Z" fill="rgb(26,26,26)" fill-rule="nonzero" />
		<path id="Vector" d="M7.94882 35.2156C7.95691 35.6325 7.80318 35.841 7.47954 35.9327C7.13971 36.0245 6.87271 35.8827 6.73516 35.5909C6.41152 34.9154 6.12024 34.2149 5.82896 33.5228C5.73996 33.306 5.65905 33.0892 5.60241 32.8557C5.51341 32.4804 5.69951 32.1052 5.99887 31.9968C6.34679 31.8717 6.69471 32.0385 6.85653 32.4221C7.20444 33.256 7.54427 34.0982 7.88409 34.9321C7.93264 35.0488 7.94073 35.1739 7.94882 35.2156Z" fill="rgb(26,26,26)" fill-rule="nonzero" />
		<path id="Vector" d="M12.1486 39.5685C12.1648 40.2189 11.6227 40.6109 11.2182 40.294C10.409 39.6769 9.64849 39.0015 8.90411 38.3093C8.65329 38.0758 8.70184 37.7256 8.96075 37.4588C9.23585 37.1752 9.52712 37.1336 9.82649 37.3754C10.5466 37.9758 11.2505 38.5929 11.9464 39.2183C12.0515 39.335 12.1163 39.5185 12.1486 39.5685Z" fill="rgb(26,26,26)" fill-rule="nonzero" />
		<path id="Vector" d="M53.6641 26.96C53.6803 27.3186 53.4861 27.5437 53.1786 27.6271C52.8631 27.7105 52.5637 27.6021 52.4262 27.2936C52.0459 26.443 51.6737 25.5924 51.342 24.7252C51.2125 24.4 51.3662 24.0998 51.6737 23.9163C51.9893 23.7329 52.3372 23.7746 52.4909 24.0914C52.9197 24.9754 53.2757 25.8926 53.656 26.8016C53.6722 26.8349 53.6641 26.9016 53.6641 26.96Z" fill="rgb(26,26,26)" fill-rule="nonzero" />
		<path id="Vector" d="M10.4166 19.1132C10.2709 18.9715 10.012 18.8381 9.94728 18.6379C9.88255 18.4294 9.9311 18.0375 10.0686 17.9375C10.8535 17.3871 11.6626 16.8784 12.4879 16.4114C12.8196 16.228 13.1837 16.4365 13.3132 16.7783C13.4426 17.1202 13.3455 17.4121 13.0462 17.6039C12.318 18.0709 11.5898 18.5295 10.8535 18.9882C10.7645 19.0382 10.635 19.0465 10.4166 19.1132Z" fill="rgb(26,26,26)" fill-rule="nonzero" />
		<path id="Vector" d="M6.15318 22.9992C6.50919 22.1653 6.9542 21.1896 7.68239 20.3974C7.89276 20.1639 8.24877 20.2056 8.49959 20.4308C8.77468 20.6726 8.79087 20.9895 8.62096 21.298C8.20831 22.0569 7.77949 22.8074 7.34257 23.5579C7.18075 23.833 6.91374 23.9498 6.61437 23.8581C6.29882 23.7663 6.12082 23.5412 6.15318 22.9992Z" fill="rgb(26,26,26)" fill-rule="nonzero" />
		<path id="Vector" d="M23.8567 16.4698C23.4279 16.4698 22.9909 16.4781 22.5621 16.4698C22.1657 16.4614 21.9148 16.1946 21.8987 15.7943C21.8906 15.4107 22.109 15.1439 22.5217 15.1356C23.4117 15.1189 24.3017 15.1189 25.1836 15.1356C25.5639 15.1439 25.8147 15.4274 25.8147 15.8027C25.8147 16.1946 25.5558 16.4614 25.1432 16.4698C24.7143 16.4781 24.2855 16.4698 23.8567 16.4698Z" fill="rgb(26,26,26)" fill-rule="nonzero" />
		<path id="Vector" d="M29.8601 15.1272C30.2647 15.1272 30.6692 15.1188 31.0738 15.1272C31.4622 15.1438 31.6968 15.4023 31.6968 15.7859C31.6968 16.1278 31.4379 16.4447 31.1062 16.453C30.2404 16.4697 29.3828 16.4697 28.517 16.453C28.1448 16.4447 27.8778 16.1195 27.8859 15.7693C27.894 15.3857 28.1206 15.1355 28.5251 15.1188C28.9701 15.1021 29.4151 15.1105 29.8601 15.1105C29.8601 15.1188 29.8601 15.1272 29.8601 15.1272Z" fill="rgb(26,26,26)" fill-rule="nonzero" />
		<path id="Vector" d="M54.2219 31.263C54.2219 31.6216 54.23 31.9801 54.2219 32.3471C54.2057 32.8307 53.963 33.0809 53.5261 33.0725C53.1053 33.0725 52.8545 32.8057 52.8545 32.3304C52.8545 31.5966 52.8545 30.8627 52.8626 30.1289C52.8626 29.7203 53.162 29.4118 53.5422 29.4034C53.963 29.3867 54.23 29.6202 54.2542 30.0622C54.2785 30.4625 54.2623 30.8627 54.2623 31.2713C54.2381 31.263 54.23 31.263 54.2219 31.263Z" fill="rgb(26,26,26)" fill-rule="nonzero" />
		<path id="Vector" d="M20.7093 40.8943C21.4213 40.8943 21.7773 41.3112 21.5508 41.8616C21.4051 42.2118 21.0249 42.3369 20.4585 42.2285C20.1268 42.1618 19.8678 41.8533 19.8678 41.5364C19.8517 41.1028 20.1348 40.8943 20.7093 40.8943Z" fill="rgb(26,26,26)" fill-rule="nonzero" />
		<path id="Vector" d="M29.0026 42.904C28.679 42.904 28.3553 42.904 28.0317 42.904C26.996 42.8956 26.0008 42.0034 25.9037 41.0111C25.7662 39.5934 26.3811 38.5427 27.5867 38.3676C28.7761 38.1925 29.9655 38.2926 30.8959 39.2432C31.5513 39.9187 31.7455 40.7692 31.6322 41.6865C31.5594 42.2786 30.7988 42.8873 30.1677 42.904C29.7794 42.9123 29.391 42.904 29.0026 42.904ZM30.0949 41.3613C30.0545 40.494 29.836 40.1688 29.1321 40.0271C28.7275 39.9437 28.3068 39.9437 27.8941 39.9687C27.7566 39.977 27.5705 40.1688 27.522 40.3106C27.3601 40.7692 27.5381 41.1528 27.9912 41.2195C28.6709 41.3196 29.3667 41.3196 30.0949 41.3613Z" fill="rgb(26,26,26)" fill-rule="nonzero" />
		<path id="Vector" d="M43.8978 42.9291C43.6308 42.9291 43.3557 42.9124 43.0886 42.9291C42.0368 43.0124 41.0821 42.2619 41.3895 40.7443C41.697 39.2433 42.7488 38.3844 44.3428 38.326C44.715 38.3093 45.1033 38.2926 45.4674 38.3677C46.3655 38.5595 46.9643 39.2766 47.0937 40.2523C47.2232 41.2279 46.7863 42.1369 45.8962 42.6372C45.6212 42.7873 45.2975 42.8707 44.982 42.9124C44.626 42.9624 44.2619 42.9207 43.8978 42.9291ZM42.9026 41.3197C43.4366 41.3197 43.9463 41.3363 44.456 41.3113C44.6826 41.303 44.9091 41.2613 45.1195 41.1779C45.4512 41.0445 45.5888 40.7026 45.516 40.319C45.4512 39.9437 45.1842 39.9354 44.9011 39.9354C44.715 39.9354 44.5208 39.9187 44.3347 39.9354C43.5175 40.0021 42.9754 40.2356 42.9026 41.3197Z" fill="rgb(26,26,26)" fill-rule="nonzero" />
		<path id="Vector" d="M36.486 39.4434C37.4003 39.4434 38.3146 39.4434 39.2289 39.4434C39.7629 39.4434 40.0865 39.7353 40.1027 40.2106C40.1189 40.7026 39.7952 41.0445 39.2531 41.0445C37.4327 41.0528 35.6203 41.0445 33.7998 41.0445C33.7027 41.0445 33.6137 41.0278 33.5166 41.0111C33.0473 40.911 32.8127 40.5775 32.8531 40.0855C32.8855 39.7019 33.1525 39.4601 33.6137 39.4517C34.5765 39.4267 35.5312 39.4351 36.486 39.4434Z" fill="rgb(26,26,26)" fill-rule="nonzero" />
	</g>
</svg>
