<svg width="15" height="20" viewBox="0 0 15 20" fill="none" xmlns="http://www.w3.org/2000/svg">
<g clip-path="url(#clip0_413_3189)">
<path d="M12.3892 12.7619C12.2943 12.7619 12.1994 12.7619 12.1519 12.7619C11.3449 12.7619 10.4905 12.7619 9.68354 12.7619C8.92405 12.7619 8.4019 13.2857 8.4019 14.0476C8.4019 15 8.4019 15.9048 8.4019 16.8571C8.4019 16.9524 8.4019 17 8.4019 17.0952C8.30696 17.0952 8.21203 17.0952 8.16456 17.0952C5.98101 17.0952 3.75 17.0952 1.56646 17.0952C0.56962 17.1429 0 16.5714 0 15.619C0 10.9048 0 6.19048 0 1.52381C0 0.571429 0.56962 0 1.51899 0C4.6519 0 7.78481 0 10.9177 0C11.8196 0 12.3892 0.571429 12.3892 1.47619C12.3892 5.19048 12.3892 8.85714 12.3892 12.5714C12.3892 12.619 12.3892 12.6667 12.3892 12.7619ZM10.0158 11.1905C10.1108 11.1905 10.1582 11.1905 10.2532 11.1905C10.443 11.1429 10.538 11.0476 10.5854 10.8571C10.5854 10.6667 10.443 10.5238 10.2532 10.5238C10.2057 10.5238 10.1108 10.5238 10.0633 10.5238C7.5 10.5238 4.93671 10.5238 2.37342 10.5238C2.27848 10.5238 2.23101 10.5238 2.13608 10.5238C1.9462 10.5714 1.85127 10.6667 1.85127 10.8571C1.85127 11.0476 1.9462 11.1905 2.13608 11.1905C2.23101 11.1905 2.32595 11.1905 2.42089 11.1905C3.65506 11.1905 8.73418 11.1905 10.0158 11.1905ZM9.68354 8.47619C9.77848 8.47619 9.87342 8.47619 9.92089 8.47619C10.1108 8.42857 10.2057 8.28571 10.2057 8.09524C10.2057 7.90476 10.0633 7.80952 9.87342 7.7619C9.82595 7.7619 9.77848 7.7619 9.73101 7.7619C7.26266 7.7619 4.74684 7.7619 2.27848 7.7619C2.23101 7.7619 2.18354 7.7619 2.18354 7.7619C1.99367 7.7619 1.85127 7.90476 1.85127 8.09524C1.85127 8.28571 1.9462 8.42857 2.13608 8.47619C2.23101 8.47619 2.27848 8.47619 2.37342 8.47619C3.60759 8.47619 8.49683 8.47619 9.68354 8.47619ZM3.08544 2.33333C2.8481 2.33333 2.65823 2.47619 2.65823 2.71429C2.65823 2.90476 2.80063 3.04762 3.03797 3.09524C3.08544 3.09524 3.13291 3.09524 3.18038 3.09524C5.36392 3.09524 7.59494 3.09524 9.77848 3.09524C9.87342 3.09524 9.96835 3.09524 10.0633 3.04762C10.1582 3 10.2532 2.85714 10.3006 2.7619C10.3006 2.66667 10.2532 2.52381 10.1582 2.42857C10.0633 2.38095 9.96835 2.38095 9.87342 2.38095C8.73418 2.33333 4.22468 2.33333 3.08544 2.33333ZM7.21519 5.76191C7.40506 5.76191 7.59494 5.76191 7.78481 5.76191C7.97468 5.76191 8.11709 5.61905 8.11709 5.42857C8.11709 5.2381 8.02215 5.09524 7.78481 5.04762C7.73734 5.04762 7.68987 5.04762 7.64241 5.04762C5.83861 5.04762 4.08228 5.04762 2.27848 5.04762C2.18354 5.04762 2.13608 5.04762 2.04114 5.09524C1.89873 5.14286 1.8038 5.28571 1.8038 5.47619C1.8038 5.61905 1.9462 5.76191 2.08861 5.76191C2.18354 5.76191 2.23101 5.76191 2.32595 5.76191C3.22785 5.76191 6.50316 5.76191 7.21519 5.76191ZM5.45886 15.3333C5.6962 15.3333 5.88608 15.1905 5.88608 15C5.88608 14.7619 5.74367 14.619 5.50633 14.619C4.31962 14.619 3.18038 14.619 1.99367 14.619C1.70886 14.619 1.56646 14.7619 1.56646 15C1.56646 15.2381 1.70886 15.3333 1.99367 15.3333C2.56329 15.3333 4.88924 15.3333 5.45886 15.3333Z" fill="#F2D502"/>
<path d="M13.0999 2.85742C13.3847 2.85742 13.6695 2.85742 13.9543 2.95266C14.5239 3.0479 14.9037 3.57171 14.9511 4.09552C14.9511 4.19076 14.9511 4.33361 14.9511 4.42885C14.9511 9.09552 14.9511 13.8098 14.9511 18.4765C14.9511 18.6669 14.9511 18.8098 14.9037 19.0003C14.8087 19.6193 14.2391 20.0003 13.5746 20.0003C11.486 20.0003 5.1252 20.0003 4.03343 20.0003C3.179 20.0003 2.60938 19.4289 2.60938 18.5717C2.60938 18.3336 2.60938 18.0955 2.60938 17.8574C2.70431 17.8574 2.79925 17.8574 2.89419 17.8574C4.74545 17.8574 6.59672 17.8574 8.44798 17.8574C9.20748 17.8574 9.82457 17.5717 10.2992 17.0003C11.0113 16.0955 11.7708 15.2384 12.5303 14.3812C12.91 13.905 13.0999 13.3812 13.0999 12.7622C13.0999 9.57171 13.0999 6.38123 13.0999 3.19076C13.0999 3.09552 13.0999 3.00028 13.0999 2.85742Z" fill="#F2D502"/>
<path d="M9.06641 17.0956C9.06641 16.9528 9.06641 16.9051 9.06641 16.8099C9.06641 15.9051 9.06641 15.048 9.06641 14.1432C9.06641 13.667 9.25628 13.4766 9.73096 13.4766C10.5854 13.4766 11.3924 13.4766 12.2943 13.4766C12.2468 13.5718 12.1993 13.6194 12.1518 13.7147C11.3449 14.7147 10.4905 15.667 9.68349 16.667C9.49362 16.8099 9.30375 16.9051 9.06641 17.0956Z" fill="#F2D502"/>
</g>
<defs>
<clipPath id="clip0_413_3189">
<rect width="15" height="20" fill="white"/>
</clipPath>
</defs>
</svg>
