<svg width="15" height="16" viewBox="0 0 15 16" fill="none" xmlns="http://www.w3.org/2000/svg">
<g clip-path="url(#clip0_413_3200)">
<path d="M0.613281 16C0.695312 15.9515 0.773438 15.903 0.859375 15.8583C2.39844 15.0862 3.9375 14.3142 5.48047 13.5422C5.55469 13.5049 5.64453 13.4825 5.73047 13.4825C6.91016 13.4788 8.08984 13.4788 9.27344 13.4825C9.34766 13.4825 9.42969 13.4974 9.49609 13.531C11.0898 14.3254 12.6797 15.1235 14.2734 15.9217C14.3125 15.944 14.3516 15.9739 14.3867 16C9.79687 16 5.20703 16 0.613281 16Z" fill="#F2D502"/>
<path d="M0 9.0625C0.898438 9.80842 1.80078 10.5506 2.69922 11.2965C3.36719 11.8485 4.03125 12.4042 4.71875 12.9749C3.13672 13.7655 1.57031 14.545 0 15.3282C0 13.2397 0 11.1511 0 9.0625Z" fill="#F2D502"/>
<path d="M15 15.329C13.4844 14.5719 11.9688 13.8185 10.4531 13.0614C10.4023 13.0353 10.3516 13.0092 10.2891 12.9719C10.5859 12.7258 10.8711 12.4871 11.1563 12.2484C12.4219 11.1966 13.6914 10.1449 14.957 9.09314C14.9727 9.08195 14.9883 9.07076 15.0039 9.05957C15 11.1519 15 13.2405 15 15.329Z" fill="#F2D502"/>
<path d="M8.13281 0C9.51953 0 10.9062 0 12.293 0C12.6406 0 12.8594 0.28345 12.7422 0.570629C12.6758 0.731002 12.543 0.820513 12.3633 0.835431C12.0391 0.868998 11.8984 1.01445 11.8984 1.32774C11.8984 3.77809 11.8984 7.91049 11.9023 10.3608C11.9023 10.469 11.8711 10.5399 11.7852 10.6107C11 11.2597 10.2187 11.9161 9.43359 12.5688C9.38281 12.6135 9.29687 12.6396 9.22656 12.6396C8.07812 12.6434 6.93359 12.6434 5.78516 12.6396C5.71094 12.6396 5.62109 12.6061 5.56641 12.5613C4.78125 11.9124 4 11.2559 3.21484 10.6033C3.13672 10.5399 3.10547 10.4765 3.10547 10.3795C3.10937 7.78368 3.10937 3.50956 3.10937 0.913753C3.10547 0.343124 3.46875 0 4.0625 0C5.42187 0 6.77734 0 8.13281 0ZM4.42578 6.32914C4.42578 7.76876 5.48047 8.96597 6.96875 9.21958C7.49219 9.30909 8.00781 9.26807 8.51172 9.10396C8.73437 9.02937 8.85937 8.82797 8.8125 8.62284C8.76953 8.41772 8.57422 8.27599 8.35156 8.29091C8.26172 8.29837 8.17187 8.32821 8.08203 8.35058C6.71484 8.71981 5.32031 7.72401 5.30469 6.37389C5.28906 5.04988 6.44531 4.08019 7.82812 4.25548C8.87109 4.38974 9.70703 5.30723 9.69531 6.31049C9.69141 6.55664 9.50391 6.74685 9.26172 6.74685C9.02344 6.75058 8.83203 6.57156 8.81641 6.33287C8.8125 6.25828 8.80469 6.18368 8.79297 6.11282C8.69141 5.55338 8.21875 5.13566 7.62891 5.07599C7.05859 5.01632 6.49219 5.34825 6.27734 5.86294C6.0625 6.37762 6.22656 6.97063 6.67969 7.31375C7.14844 7.66807 7.78516 7.68298 8.26953 7.34359C8.35547 7.28392 8.40625 7.28392 8.49219 7.34359C9.19922 7.83963 10.1797 7.55991 10.4844 6.77669C10.6094 6.45594 10.5898 6.12774 10.5273 5.79953C10.2461 4.3338 8.81641 3.27459 7.28125 3.4014C5.65234 3.53566 4.42188 4.79627 4.42578 6.32914Z" fill="#F2D502"/>
<path d="M2.21484 9.76811C1.62891 9.2758 1.05469 8.79842 0.472656 8.30984C1.05469 7.82126 1.62891 7.34387 2.21484 6.85156C2.21484 7.82872 2.21484 8.78723 2.21484 9.76811Z" fill="#F2D502"/>
<path d="M12.7812 9.7753C12.7812 8.78696 12.7812 7.83218 12.7812 6.84756C13.3711 7.3436 13.9453 7.82099 14.5312 8.3133C13.9492 8.79815 13.375 9.27554 12.7812 9.7753Z" fill="#F2D502"/>
<path d="M7.50397 5.91113C7.74225 5.91486 7.93756 6.10507 7.93756 6.33258C7.93756 6.56381 7.73053 6.75775 7.48443 6.75029C7.24615 6.74283 7.05475 6.5489 7.05865 6.32139C7.06646 6.09761 7.26959 5.91113 7.50397 5.91113Z" fill="#F2D502"/>
</g>
<defs>
<clipPath id="clip0_413_3200">
<rect width="15" height="16" fill="white"/>
</clipPath>
</defs>
</svg>
