<svg width="15" height="20" viewBox="0 0 15 20" fill="none" xmlns="http://www.w3.org/2000/svg">
<g clip-path="url(#clip0_413_3181)">
<path d="M8.03288 0C8.41697 0.0625489 8.80624 0.0990357 9.17994 0.192859C12.2059 0.969507 14.0796 2.91895 14.7959 5.94214C15.3201 8.14178 14.8322 10.1903 13.4879 11.999C11.5363 14.6364 9.55365 17.2583 7.58652 19.8853C7.56056 19.9218 7.52942 19.9531 7.49309 19.9948C7.44638 19.9375 7.41005 19.8958 7.37371 19.8541C5.43773 17.2687 3.49655 14.6833 1.56056 12.098C0.429077 10.5864 -0.110716 8.89236 0.0242323 7.00026C0.257796 3.71645 2.63496 0.80271 5.99309 0.15116C6.3097 0.0886109 6.6315 0.0469116 6.94811 0C7.30624 0 7.66956 0 8.03288 0ZM1.74742 7.5215C1.74742 10.7011 4.32181 13.2916 7.4879 13.2916C10.6488 13.2916 13.2076 10.7219 13.2284 7.53714C13.244 4.368 10.6644 1.76179 7.49828 1.75658C4.33219 1.75658 1.75261 4.34193 1.74742 7.5215Z" fill="#F2D502"/>
<path d="M2.9141 7.51631C2.92448 4.97266 4.97466 2.92419 7.50753 2.93461C10.0248 2.94503 12.0698 5.00915 12.0594 7.53716C12.049 10.086 9.99888 12.1293 7.466 12.1189C4.9487 12.1084 2.90372 10.0443 2.9141 7.51631Z" fill="#F2D502"/>
</g>
<defs>
<clipPath id="clip0_413_3181">
<rect width="15" height="20" fill="white"/>
</clipPath>
</defs>
</svg>
