<svg width="15" height="21" viewBox="0 0 15 21" fill="none" xmlns="http://www.w3.org/2000/svg">
<g clip-path="url(#clip0_413_3185)">
<path d="M13.1486 21C9.38182 21 5.61508 21 1.84834 21C1.81486 20.9891 1.78695 20.9672 1.75347 20.9617C0.849454 20.7812 0.190972 20.1359 0.0347222 19.25C-0.00992064 19.0094 0.00124008 18.7578 0.00124008 18.5172C0.00124008 13.0758 0.00124008 7.63438 0.00124008 2.19844C0.00124008 0.929688 0.916419 0.00546875 2.172 0C5.72111 0 9.27579 0 12.8249 0.00546875C13.0593 0.00546875 13.2992 0.04375 13.5224 0.114844C14.4376 0.399219 14.9957 1.19766 14.9957 2.19844C14.9957 6.9125 14.9957 11.632 14.9957 16.3461C14.9957 17.2047 15.0124 18.0688 14.9901 18.9273C14.9678 19.8188 14.5157 20.4477 13.701 20.825C13.528 20.907 13.3327 20.9453 13.1486 21ZM12.8472 2.11641C9.27021 2.11641 5.70995 2.11641 2.16084 2.11641C2.16084 6.31641 2.16084 10.5055 2.16084 14.6891C5.73227 14.6891 9.28695 14.6891 12.8472 14.6891C12.8472 10.4891 12.8472 6.31094 12.8472 2.11641ZM7.50682 16.8055C6.86508 16.8 6.43539 17.2102 6.42981 17.8336C6.42423 18.4133 6.90972 18.9055 7.49008 18.9055C8.03137 18.9055 8.56151 18.3859 8.57267 17.85C8.57825 17.2375 8.14298 16.8109 7.50682 16.8055Z" fill="#F2D502"/>
<path d="M4.23438 6.54082C4.25112 6.24004 4.35156 5.99941 4.57478 5.80254C4.70871 5.68223 4.83147 5.55098 4.95982 5.4252C5.17188 5.22285 5.43415 5.22285 5.64062 5.4252C6.05915 5.83535 6.47768 6.24551 6.89621 6.65566C7.0971 6.85801 7.0971 7.1041 6.89062 7.30645C6.68973 7.50879 6.49442 7.71113 6.28237 7.89707C6.12054 8.04473 6.07589 8.21426 6.16518 8.39473C6.47768 9.0291 6.98549 9.4502 7.67188 9.66348C7.8058 9.70723 7.92299 9.66348 8.02902 9.5541C8.21875 9.35176 8.41964 9.16582 8.62054 8.97441C8.81027 8.79395 9.07812 8.79395 9.27344 8.97988C9.69754 9.39551 10.1217 9.80566 10.5458 10.2268C10.7411 10.4182 10.7411 10.6697 10.5513 10.8666C10.4621 10.9596 10.356 11.0416 10.2723 11.1455C9.91518 11.5885 9.45201 11.6377 8.93304 11.501C8.25781 11.3205 7.66629 10.976 7.10826 10.5768C5.9029 9.7291 4.9933 8.64629 4.44085 7.29004C4.33482 7.05488 4.30134 6.79238 4.23438 6.54082Z" fill="#F2D502"/>
</g>
<defs>
<clipPath id="clip0_413_3185">
<rect width="15" height="21" fill="white"/>
</clipPath>
</defs>
</svg>
