<svg width="15" height="21" viewBox="0 0 15 21" fill="none" xmlns="http://www.w3.org/2000/svg">
<g clip-path="url(#clip0_413_3209)">
<path d="M13.1486 21C9.38182 21 5.61508 21 1.84834 21C1.81486 20.9891 1.78695 20.9672 1.75347 20.9617C0.849454 20.7812 0.190972 20.1359 0.0347222 19.25C-0.00992063 19.0094 0.00124008 18.7578 0.00124008 18.5172C0.00124008 13.0758 0.00124008 7.63438 0.00124008 2.19844C0.00124008 0.929688 0.916419 0.00546875 2.172 0C5.72111 0 9.27579 0 12.8249 0.00546875C13.0593 0.00546875 13.2992 0.04375 13.5224 0.114844C14.4376 0.399219 14.9957 1.19766 14.9957 2.19844C14.9957 6.9125 14.9957 11.632 14.9957 16.3461C14.9957 17.2047 15.0124 18.0688 14.9901 18.9273C14.9678 19.8188 14.5157 20.4477 13.701 20.825C13.528 20.907 13.3327 20.9453 13.1486 21ZM12.8472 2.11641C9.27021 2.11641 5.70995 2.11641 2.16084 2.11641C2.16084 6.31641 2.16084 10.5055 2.16084 14.6891C5.73227 14.6891 9.28695 14.6891 12.8472 14.6891C12.8472 10.4891 12.8472 6.31094 12.8472 2.11641ZM7.50682 16.8055C6.86508 16.8 6.43539 17.2102 6.42981 17.8336C6.42423 18.4133 6.90972 18.9055 7.49008 18.9055C8.03137 18.9055 8.56151 18.3859 8.57267 17.85C8.57825 17.2375 8.14298 16.8109 7.50682 16.8055Z" fill="#F2D502"/>
<path d="M2.96094 4.10703C2.97768 4.05234 2.98884 3.99766 3.00558 3.94844C3.13393 3.57656 3.47991 3.33594 3.89844 3.33594C5.00335 3.33594 6.10826 3.33594 7.21317 3.33594C8.49107 3.33594 9.76897 3.33594 11.0469 3.33594C11.6496 3.33594 12.029 3.70781 12.029 4.29844C12.029 4.92734 12.029 5.55625 12.029 6.18516C12.029 6.75391 11.6384 7.13125 11.0636 7.13125C9.18304 7.13125 7.29688 7.13125 5.41629 7.13125C5.34933 7.13125 5.27679 7.14766 5.2154 7.175C4.8471 7.35 4.48438 7.53047 4.11607 7.71094C3.84821 7.84219 3.63058 7.71094 3.63058 7.41563C3.63058 7.31172 3.63058 7.21328 3.63058 7.09844C3.60826 7.0875 3.58036 7.07656 3.55804 7.07109C3.2567 6.95625 3.06696 6.74297 2.98326 6.43672C2.97768 6.41484 2.96652 6.39297 2.96094 6.37109C2.96094 5.61641 2.96094 4.86172 2.96094 4.10703ZM8.40737 4.94375C7.73772 4.94375 7.06808 4.94375 6.40402 4.94375C6.26451 4.94375 6.1529 4.99297 6.09152 5.12422C5.99665 5.32656 6.1529 5.53984 6.39286 5.53984C7.24107 5.53984 8.08929 5.53984 8.9375 5.53984C9.42299 5.53984 9.90848 5.53984 10.394 5.53984C10.5335 5.53984 10.6395 5.49062 10.6953 5.36484C10.7958 5.1625 10.6395 4.94375 10.3996 4.94375C9.74107 4.94375 9.07143 4.94375 8.40737 4.94375ZM4.2779 5.24453C4.2779 5.34844 4.27232 5.45781 4.2779 5.56172C4.28348 5.79687 4.52902 5.93359 4.73549 5.81328C4.91406 5.70938 5.08147 5.59453 5.24888 5.47969C5.41629 5.35937 5.41629 5.12422 5.24888 5.00391C5.08705 4.88906 4.91406 4.77422 4.74665 4.67578C4.5346 4.55 4.28906 4.68672 4.28348 4.92734C4.2779 5.03125 4.2779 5.13516 4.2779 5.24453Z" fill="#F2D502"/>
<path d="M9.18638 13.5076C8.76786 13.2943 8.34933 13.0811 7.9308 12.8678C7.89732 12.8514 7.85268 12.8514 7.81362 12.8514C7.11607 12.8514 6.41295 12.8514 5.7154 12.8514C5.13504 12.8514 4.75 12.474 4.75 11.9053C4.75 10.8498 4.75 9.7998 4.75 8.74434C4.75 8.18105 5.14063 7.80371 5.70982 7.80371C6.90402 7.80371 8.09821 7.80371 9.28683 7.80371C9.85045 7.80371 10.2411 8.18652 10.2411 8.73887C10.2411 9.7834 10.2411 10.8279 10.2411 11.867C10.2411 12.3537 10.0402 12.6381 9.57143 12.8186C9.57143 12.9115 9.56585 13.0154 9.57143 13.1139C9.58817 13.2943 9.51563 13.4256 9.34822 13.5021C9.29241 13.5076 9.24219 13.5076 9.18638 13.5076ZM9.08594 9.93652C9.09152 9.56465 8.90179 9.23105 8.57813 9.06152C8.23214 8.88105 7.88616 8.89199 7.55134 9.0998C7.49554 9.13262 7.46763 9.12715 7.41741 9.09434C7.08817 8.89199 6.74777 8.87559 6.40737 9.05606C6.06138 9.24199 5.88281 9.5373 5.88281 9.92559C5.88281 10.6857 6.36272 11.3584 7.11049 11.6428C7.5346 11.8068 7.41741 11.8068 7.85826 11.6428C8.59487 11.3584 9.07478 10.6912 9.08594 9.93652Z" fill="#F2D502"/>
<path d="M6.49219 9.94228C6.49219 9.76728 6.57589 9.63057 6.72098 9.57041C6.87165 9.50478 7.03348 9.53213 7.15625 9.66338C7.39063 9.92588 7.58594 9.91494 7.81473 9.66338C7.93192 9.53213 8.09933 9.50478 8.25 9.57041C8.40067 9.63603 8.48438 9.77275 8.47879 9.94775C8.46763 10.4946 8.04911 11.0142 7.51339 11.1399C7.49665 11.1454 7.47433 11.1454 7.45759 11.1399C6.91071 10.9923 6.49777 10.4837 6.49219 9.94228Z" fill="#F2D502"/>
</g>
<defs>
<clipPath id="clip0_413_3209">
<rect width="15" height="21" fill="white"/>
</clipPath>
</defs>
</svg>
