<svg width="35" height="35" viewBox="0 0 35 35" fill="none" xmlns="http://www.w3.org/2000/svg">
<path d="M30.625 7.39353C30.459 7.07155 30.459 7.07155 30.2931 7.07155C29.9611 6.91056 29.2972 7.07155 29.2972 7.07155C29.2972 7.07155 6.22731 15.121 4.89955 15.9259C4.56761 16.0869 4.56761 16.2479 4.40164 16.4089C4.23567 17.0528 4.89955 17.3748 4.89955 17.3748L10.8745 19.3066C10.8745 19.3066 11.0405 19.3066 11.2064 19.3066C12.5342 18.5017 24.6501 11.0963 25.3139 10.7743C25.4799 10.7743 25.4799 10.7743 25.4799 10.7743C25.148 11.7402 14.6918 20.7555 14.6918 20.7555C14.6918 20.7555 14.6918 20.7555 14.6918 20.9165L14.1939 26.5511C14.1939 26.5511 14.0279 28.322 15.6876 26.5511C17.0154 25.2632 18.1772 24.2973 18.8411 23.8143C20.8327 25.1022 22.9903 26.7121 23.9862 27.517C24.4841 27.839 24.816 28 25.148 28C25.9778 28 26.3098 27.0341 26.3098 27.0341C26.3098 27.0341 30.459 10.6133 30.625 8.35945C30.625 8.19847 30.625 8.03748 30.625 7.87649C30.625 7.7155 30.625 7.55451 30.625 7.39353Z" fill="#1A1A1A"/>
</svg>
