<svg width="35" height="35" viewBox="0 0 35 35" fill="none" xmlns="http://www.w3.org/2000/svg">
<path d="M26.2575 9.81443C26.0774 9.71149 25.8973 9.60855 25.7171 9.50561C25.2282 9.17106 24.765 8.78504 24.3533 8.34754C23.3497 7.18948 22.9637 6.00567 22.8351 5.18216C22.7321 4.51305 22.7579 4.07556 22.7836 4.07556H18.1774V21.9098C18.1774 22.1414 18.1774 22.373 18.1774 22.6304C18.1774 22.6561 18.1774 22.6818 18.1774 22.7076C18.1774 22.7333 18.1774 22.7333 18.1774 22.7591C18.0745 24.0458 17.3282 25.2296 16.196 25.873C15.6041 26.2075 14.9608 26.3877 14.2917 26.3877C12.1559 26.3877 10.406 24.6377 10.406 22.476C10.406 20.3142 12.1559 18.5643 14.2917 18.5643C14.7034 18.5643 15.1152 18.6157 15.5012 18.7444V14.0607C13.1337 13.7519 10.7406 14.4467 8.91354 15.9908C8.09008 16.6599 7.42103 17.4834 6.90637 18.3841C6.7005 18.7187 5.97998 20.0569 5.87705 22.2444C5.82558 23.4796 6.18585 24.7664 6.36598 25.3068C6.46891 25.6156 6.90637 26.6965 7.62689 27.5972C8.19301 28.3178 8.86207 28.9611 9.63406 29.4758C11.8728 30.9942 14.3432 30.8913 14.3432 30.8913C14.7806 30.8655 16.196 30.8913 17.8429 30.1192C19.6442 29.27 20.6735 27.9832 20.6735 27.9832C21.3425 27.2112 21.8572 26.3619 22.2175 25.4097C22.6292 24.3031 22.7836 22.9907 22.7836 22.476V13.057C22.8351 13.0828 23.5813 13.5717 23.5813 13.5717C23.5813 13.5717 24.6621 14.2666 26.3347 14.704C27.5442 15.0129 29.1654 15.0901 29.1654 15.0901V10.5093C28.5735 10.5865 27.4155 10.4063 26.2575 9.81443Z" fill="#1A1A1A"/>
</svg>
