<svg width="15" height="18" viewBox="0 0 15 18" fill="none" xmlns="http://www.w3.org/2000/svg">
<g clip-path="url(#clip0_413_3195)">
<path d="M7.48964 18.0004C3.4011 18.0158 0.0104713 14.7031 5.46225e-05 10.6798C-0.0155704 6.59516 3.32297 3.29269 7.47922 3.27735C11.6146 3.26201 14.9844 6.54404 15.0001 10.598C15.0157 14.6775 11.6563 17.9851 7.48964 18.0004ZM8.32818 8.74739C8.32818 8.28218 8.33339 7.81697 8.32297 7.34665C8.31255 6.89167 7.95318 6.54404 7.50005 6.54404C7.04693 6.54404 6.67193 6.88655 6.66672 7.33643C6.6563 8.44066 6.66151 9.54489 6.66151 10.6491C6.66151 10.8638 6.73964 11.0479 6.89589 11.2012C7.45318 11.7534 8.01568 12.3055 8.57818 12.8525C8.76047 13.0263 8.98443 13.1081 9.23964 13.0774C9.57818 13.0365 9.82297 12.8576 9.93755 12.5406C10.0573 12.2134 9.97922 11.9221 9.73443 11.6767C9.30214 11.2421 8.85943 10.8178 8.42714 10.3833C8.36985 10.3219 8.32297 10.2197 8.32297 10.1379C8.32297 9.68292 8.32818 9.21771 8.32818 8.74739Z" fill="#F2D502"/>
<path d="M7.53711 3.41432e-06C8.4694 0.0255643 9.29232 0.362969 9.95378 1.05823C10.2871 1.41097 10.2767 1.90685 9.93816 2.2238C9.61003 2.53565 9.11003 2.52542 8.76107 2.19824C7.98503 1.47231 7.0267 1.47231 6.24024 2.19824C5.89128 2.52031 5.39128 2.52542 5.06315 2.21358C4.72461 1.89151 4.72461 1.40585 5.05795 1.048C5.67774 0.388529 6.5892 -0.00510877 7.53711 3.41432e-06Z" fill="#F2D502"/>
</g>
<defs>
<clipPath id="clip0_413_3195">
<rect width="15" height="18" fill="white"/>
</clipPath>
</defs>
</svg>
