<svg width="35" height="35" viewBox="0 0 35 35" fill="none" xmlns="http://www.w3.org/2000/svg">
<g clip-path="url(#clip0_413_3179)">
<path d="M0.500977 10.7309C0.691824 10.3607 1.07352 10.1756 1.45522 10.1756C3.17284 10.1756 4.89047 10.1756 6.6081 10.1756C7.37149 10.1756 7.75319 10.5458 7.94404 11.1011C8.51658 12.3967 9.08912 13.6924 9.85251 14.803C10.4251 15.9136 11.1884 16.839 11.9518 17.7645C12.1427 18.1347 12.5244 18.3198 12.9061 18.5049C13.2878 18.8751 13.8603 18.69 14.0512 18.1347C14.242 17.7645 14.4329 17.3943 14.4329 16.839C14.6237 15.3583 14.6237 13.6924 14.4329 12.2116C14.242 11.2861 13.8603 10.7309 12.9061 10.5458C12.3335 10.3607 12.3335 10.3607 12.7152 9.99048C13.0969 9.43519 13.6695 9.25009 14.4329 9.25009C16.1505 9.25009 17.8681 9.25009 19.5857 9.25009C20.7308 9.25009 21.1125 9.62028 21.1125 10.7309C21.1125 11.6563 21.1125 12.5818 21.1125 13.5073C21.1125 14.6179 21.1125 15.7285 21.1125 16.6539C21.1125 17.0241 21.3034 17.3943 21.3034 17.7645C21.6851 18.5049 22.2576 18.5049 22.8302 17.9496C23.7844 17.0241 24.7386 15.9136 25.3112 14.6179C26.0746 13.3222 26.6471 12.0265 27.2197 10.7309C27.6014 9.99048 27.7922 9.80538 28.7464 9.80538C30.4641 9.80538 32.3725 9.80538 34.0902 9.80538C34.281 9.80538 34.6627 9.80538 34.8536 9.99048C35.4261 10.1756 35.617 10.5458 35.4261 11.1011C35.2353 12.0265 34.8536 12.7669 34.281 13.5073C33.1359 14.9881 31.9908 16.6539 30.8458 18.1347C30.6549 18.5049 30.2732 18.8751 30.0824 19.2453C29.7007 19.9857 29.7007 20.3559 30.2732 21.0962C30.8458 21.6515 31.2275 22.0217 31.8 22.577C32.9451 23.6876 34.0902 24.7982 35.0444 26.0938C35.4261 26.464 35.617 27.0193 35.4261 27.5746C35.2353 28.1299 34.8536 28.5001 34.281 28.5001C32.5634 28.5001 30.6549 28.5001 28.9373 28.5001C27.983 28.5001 27.0288 28.1299 26.4563 27.3895C25.6929 26.6491 24.9295 25.9087 24.1661 25.1684C23.7844 24.7982 23.5935 24.6131 23.2119 24.2429C22.4485 23.6876 21.8759 23.8727 21.4942 24.6131C21.1125 25.3535 21.1125 26.2789 20.9217 27.0193C20.9217 27.9448 20.54 28.315 19.5857 28.315C15.1962 28.6852 11.5701 27.2044 8.70743 24.0578C6.6081 21.8366 5.08132 19.4304 3.55454 16.839C2.40945 14.803 1.45522 12.952 0.500977 10.916C0.500977 11.1011 0.500977 10.916 0.500977 10.7309Z" fill="#1A1A1A"/>
</g>
<defs>
<clipPath id="clip0_413_3179">
<rect width="35" height="35" fill="white"/>
</clipPath>
</defs>
</svg>
