<svg width="366" height="71" viewBox="0 0 366 71" fill="none" xmlns="http://www.w3.org/2000/svg">
<g clip-path="url(#clip0_394_1037)">
<rect width="366" height="71" rx="10" fill="#FF383C"/>
<g opacity="0.4">
<path d="M76.0327 -31.093L130.768 36.1463C130.768 36.1463 95.2123 79.9403 76.4753 103.091C90.3437 103.091 102.442 103.091 102.442 103.091L157.177 36.1463L101.851 -31.093H76.0327Z" fill="white"/>
<path d="M66.0022 36.2949L31.0363 79.3517H56.7075L91.9685 36.1475L56.1173 -7.20417H30.7412L66.0022 36.2949Z" fill="white"/>
</g>
<path d="M75.225 44.375C73.875 44.375 72.6458 44.2042 71.5375 43.8625C70.4292 43.5208 69.45 43.0292 68.6 42.3875L70.0875 39.8125C70.6875 40.3375 71.4083 40.7542 72.25 41.0625C73.1 41.3625 73.9875 41.5125 74.9125 41.5125C75.7125 41.5125 76.4042 41.4 76.9875 41.175C77.5708 40.95 78.0208 40.6375 78.3375 40.2375C78.6625 39.8375 78.825 39.3708 78.825 38.8375C78.825 38.0042 78.5417 37.375 77.975 36.95C77.4083 36.5167 76.5292 36.3 75.3375 36.3H71.875V33.7375H75.0875C75.7542 33.7375 76.325 33.6417 76.8 33.45C77.2833 33.2583 77.6542 32.9875 77.9125 32.6375C78.1708 32.2792 78.3 31.85 78.3 31.35C78.3 30.8583 78.1708 30.4458 77.9125 30.1125C77.6625 29.7792 77.2833 29.5292 76.775 29.3625C76.275 29.1875 75.6625 29.1 74.9375 29.1C74.1292 29.1 73.3458 29.2333 72.5875 29.5C71.8375 29.7667 71.1958 30.1375 70.6625 30.6125L69.15 28.225C69.9083 27.55 70.825 27.0333 71.9 26.675C72.975 26.3083 74.125 26.125 75.35 26.125C76.6333 26.125 77.7375 26.3125 78.6625 26.6875C79.5875 27.0542 80.2958 27.5833 80.7875 28.275C81.2875 28.9667 81.5375 29.7958 81.5375 30.7625C81.5375 31.2958 81.4167 31.8167 81.175 32.325C80.9333 32.825 80.6125 33.275 80.2125 33.675C79.8208 34.0667 79.3917 34.3667 78.925 34.575C79.9 34.8917 80.6875 35.4208 81.2875 36.1625C81.8958 36.9042 82.1958 37.8375 82.1875 38.9625C82.1875 39.9792 81.8958 40.8958 81.3125 41.7125C80.7375 42.5292 79.925 43.1792 78.875 43.6625C77.8333 44.1375 76.6167 44.375 75.225 44.375ZM88.7547 44.375C87.9047 44.375 87.1505 44.2125 86.4922 43.8875C85.8339 43.5625 85.3172 43.1042 84.9422 42.5125C84.5672 41.9125 84.3797 41.2042 84.3797 40.3875C84.3797 39.6875 84.5547 39.0625 84.9047 38.5125C85.2547 37.9625 85.7922 37.5083 86.5172 37.15C87.2422 36.7833 88.1672 36.5375 89.2922 36.4125C90.4255 36.2875 91.7672 36.3042 93.3172 36.4625L93.3672 38.575C92.3505 38.4167 91.463 38.3458 90.7047 38.3625C89.9464 38.3792 89.3172 38.4667 88.8172 38.625C88.3255 38.7833 87.9547 39 87.7047 39.275C87.463 39.55 87.3422 39.8708 87.3422 40.2375C87.3422 40.7875 87.5422 41.2125 87.9422 41.5125C88.3422 41.8042 88.888 41.95 89.5797 41.95C90.1714 41.95 90.7005 41.8417 91.1672 41.625C91.6422 41.4083 92.0172 41.1042 92.2922 40.7125C92.5672 40.3125 92.7047 39.8417 92.7047 39.3V36.1375C92.7047 35.6125 92.5922 35.1583 92.3672 34.775C92.1505 34.3833 91.8172 34.0833 91.3672 33.875C90.9172 33.6583 90.338 33.55 89.6297 33.55C88.9797 33.55 88.3339 33.65 87.6922 33.85C87.0589 34.0417 86.463 34.3417 85.9047 34.75L85.0422 32.4625C85.8339 31.9375 86.6672 31.5625 87.5422 31.3375C88.4172 31.1125 89.263 31 90.0797 31C91.2464 31 92.2547 31.1833 93.1047 31.55C93.963 31.9167 94.6214 32.4792 95.0797 33.2375C95.5464 33.9875 95.7797 34.9417 95.7797 36.1V44H92.9547V42.575C92.538 43.15 91.963 43.5958 91.2297 43.9125C90.4964 44.2208 89.6714 44.375 88.7547 44.375ZM99.3178 44V31.5H111.468V44H108.268V34.1H102.518V44H99.3178ZM115.163 44V31.5H118.238V39.4L124.55 31.5H127.375V44H124.3V36L117.95 44H115.163ZM136.856 44.375C135.531 44.375 134.352 44.0875 133.319 43.5125C132.294 42.9292 131.485 42.1417 130.894 41.15C130.302 40.15 130.006 39.0167 130.006 37.75C130.006 36.7917 130.181 35.9125 130.531 35.1125C130.881 34.3042 131.373 33.6042 132.006 33.0125C132.639 32.4125 133.381 31.95 134.231 31.625C135.089 31.2917 136.023 31.125 137.031 31.125C137.906 31.125 138.719 31.2417 139.469 31.475C140.219 31.7083 140.906 32.0667 141.531 32.55L140.044 34.9625C139.652 34.6125 139.206 34.3542 138.706 34.1875C138.214 34.0125 137.698 33.925 137.156 33.925C136.339 33.925 135.635 34.075 135.044 34.375C134.46 34.675 134.01 35.1083 133.694 35.675C133.377 36.2417 133.219 36.9292 133.219 37.7375C133.219 38.9375 133.569 39.8792 134.269 40.5625C134.977 41.2375 135.939 41.575 137.156 41.575C137.764 41.575 138.339 41.4625 138.881 41.2375C139.423 41.0125 139.894 40.7042 140.294 40.3125L141.719 42.7375C141.035 43.2458 140.273 43.6458 139.431 43.9375C138.589 44.2292 137.731 44.375 136.856 44.375ZM147.593 44.375C146.743 44.375 145.988 44.2125 145.33 43.8875C144.672 43.5625 144.155 43.1042 143.78 42.5125C143.405 41.9125 143.218 41.2042 143.218 40.3875C143.218 39.6875 143.393 39.0625 143.743 38.5125C144.093 37.9625 144.63 37.5083 145.355 37.15C146.08 36.7833 147.005 36.5375 148.13 36.4125C149.263 36.2875 150.605 36.3042 152.155 36.4625L152.205 38.575C151.188 38.4167 150.301 38.3458 149.543 38.3625C148.784 38.3792 148.155 38.4667 147.655 38.625C147.163 38.7833 146.793 39 146.543 39.275C146.301 39.55 146.18 39.8708 146.18 40.2375C146.18 40.7875 146.38 41.2125 146.78 41.5125C147.18 41.8042 147.726 41.95 148.418 41.95C149.009 41.95 149.538 41.8417 150.005 41.625C150.48 41.4083 150.855 41.1042 151.13 40.7125C151.405 40.3125 151.543 39.8417 151.543 39.3V36.1375C151.543 35.6125 151.43 35.1583 151.205 34.775C150.988 34.3833 150.655 34.0833 150.205 33.875C149.755 33.6583 149.176 33.55 148.468 33.55C147.818 33.55 147.172 33.65 146.53 33.85C145.897 34.0417 145.301 34.3417 144.743 34.75L143.88 32.4625C144.672 31.9375 145.505 31.5625 146.38 31.3375C147.255 31.1125 148.101 31 148.918 31C150.084 31 151.093 31.1833 151.943 31.55C152.801 31.9167 153.459 32.4792 153.918 33.2375C154.384 33.9875 154.618 34.9417 154.618 36.1V44H151.793V42.575C151.376 43.15 150.801 43.5958 150.068 43.9125C149.334 44.2208 148.509 44.375 147.593 44.375ZM160.428 44V34.1H156.491V31.5H167.566V34.1H163.628V44H160.428ZM169.996 44V31.5H173.196V41.65H175.334C176.151 41.65 176.767 41.4875 177.184 41.1625C177.609 40.8292 177.821 40.3458 177.821 39.7125C177.821 39.0875 177.626 38.6042 177.234 38.2625C176.842 37.9125 176.28 37.7375 175.546 37.7375H172.809V35.4125H175.796C177.446 35.4125 178.746 35.7792 179.696 36.5125C180.646 37.2375 181.121 38.3042 181.121 39.7125C181.121 40.6042 180.896 41.3708 180.446 42.0125C179.996 42.6542 179.363 43.1458 178.546 43.4875C177.73 43.8292 176.771 44 175.671 44H169.996ZM189.688 44.375C188.363 44.375 187.184 44.0875 186.151 43.5125C185.126 42.9292 184.317 42.1417 183.726 41.15C183.134 40.15 182.838 39.0167 182.838 37.75C182.838 36.7917 183.013 35.9125 183.363 35.1125C183.713 34.3042 184.205 33.6042 184.838 33.0125C185.471 32.4125 186.213 31.95 187.063 31.625C187.921 31.2917 188.855 31.125 189.863 31.125C190.738 31.125 191.551 31.2417 192.301 31.475C193.051 31.7083 193.738 32.0667 194.363 32.55L192.876 34.9625C192.484 34.6125 192.038 34.3542 191.538 34.1875C191.046 34.0125 190.53 33.925 189.988 33.925C189.171 33.925 188.467 34.075 187.876 34.375C187.292 34.675 186.842 35.1083 186.526 35.675C186.209 36.2417 186.051 36.9292 186.051 37.7375C186.051 38.9375 186.401 39.8792 187.101 40.5625C187.809 41.2375 188.771 41.575 189.988 41.575C190.596 41.575 191.171 41.4625 191.713 41.2375C192.255 41.0125 192.726 40.7042 193.126 40.3125L194.551 42.7375C193.867 43.2458 193.105 43.6458 192.263 43.9375C191.421 44.2292 190.563 44.375 189.688 44.375ZM196.05 44L200.687 37.525L201.45 39.5375C200.433 39.5375 199.558 39.3833 198.825 39.075C198.091 38.7583 197.525 38.3083 197.125 37.725C196.725 37.1417 196.525 36.45 196.525 35.65C196.525 34.7833 196.737 34.0417 197.162 33.425C197.595 32.8 198.208 32.325 199 32C199.791 31.6667 200.72 31.5 201.787 31.5H207.4V44H204.337V33.85H202.125C201.333 33.85 200.729 33.9958 200.312 34.2875C199.904 34.5708 199.7 34.9958 199.7 35.5625C199.7 36.1125 199.887 36.5417 200.262 36.85C200.645 37.1583 201.195 37.3125 201.912 37.3125H204.7V39.5625H202.762L199.625 44H196.05ZM217.091 44V31.5H220.291V36.2125H226.054V31.5H229.254V44H226.054V38.8125H220.291V44H217.091ZM236.411 44.375C235.561 44.375 234.807 44.2125 234.148 43.8875C233.49 43.5625 232.973 43.1042 232.598 42.5125C232.223 41.9125 232.036 41.2042 232.036 40.3875C232.036 39.6875 232.211 39.0625 232.561 38.5125C232.911 37.9625 233.448 37.5083 234.173 37.15C234.898 36.7833 235.823 36.5375 236.948 36.4125C238.082 36.2875 239.423 36.3042 240.973 36.4625L241.023 38.575C240.007 38.4167 239.119 38.3458 238.361 38.3625C237.603 38.3792 236.973 38.4667 236.473 38.625C235.982 38.7833 235.611 39 235.361 39.275C235.119 39.55 234.998 39.8708 234.998 40.2375C234.998 40.7875 235.198 41.2125 235.598 41.5125C235.998 41.8042 236.544 41.95 237.236 41.95C237.828 41.95 238.357 41.8417 238.823 41.625C239.298 41.4083 239.673 41.1042 239.948 40.7125C240.223 40.3125 240.361 39.8417 240.361 39.3V36.1375C240.361 35.6125 240.248 35.1583 240.023 34.775C239.807 34.3833 239.473 34.0833 239.023 33.875C238.573 33.6583 237.994 33.55 237.286 33.55C236.636 33.55 235.99 33.65 235.348 33.85C234.715 34.0417 234.119 34.3417 233.561 34.75L232.698 32.4625C233.49 31.9375 234.323 31.5625 235.198 31.3375C236.073 31.1125 236.919 31 237.736 31C238.903 31 239.911 31.1833 240.761 31.55C241.619 31.9167 242.278 32.4792 242.736 33.2375C243.203 33.9875 243.436 34.9417 243.436 36.1V44H240.611V42.575C240.194 43.15 239.619 43.5958 238.886 43.9125C238.153 44.2208 237.328 44.375 236.411 44.375ZM261.205 44L257.155 37.4L261.055 31.5H264.455L260.592 37.2375L265.017 44H261.205ZM252.98 44V31.5H256.18V36.2125H259.955V38.8125H256.18V44H252.98ZM268.648 49.6C268.157 49.6 267.673 49.5458 267.198 49.4375C266.723 49.3292 266.265 49.1542 265.823 48.9125L266.536 46.2C266.794 46.3583 267.082 46.4792 267.398 46.5625C267.715 46.6458 268.003 46.6875 268.261 46.6875C268.794 46.6875 269.228 46.5625 269.561 46.3125C269.894 46.0708 270.148 45.6833 270.323 45.15L270.661 44.15L265.761 31.5H269.248L272.473 40.8125L275.611 31.5H278.998L273.673 45.6125C273.273 46.6292 272.819 47.425 272.311 48C271.803 48.5833 271.24 48.9958 270.623 49.2375C270.015 49.4792 269.357 49.6 268.648 49.6ZM281.032 49.25V31.5H283.857V33.15C284.34 32.5417 284.961 32.0542 285.719 31.6875C286.477 31.3125 287.394 31.125 288.469 31.125C289.677 31.125 290.752 31.4083 291.694 31.975C292.636 32.5417 293.373 33.325 293.907 34.325C294.448 35.3167 294.719 36.4583 294.719 37.75C294.719 38.675 294.565 39.5375 294.257 40.3375C293.948 41.1375 293.515 41.8417 292.957 42.45C292.398 43.05 291.732 43.5208 290.957 43.8625C290.19 44.2042 289.344 44.375 288.419 44.375C287.519 44.375 286.719 44.2208 286.019 43.9125C285.327 43.5958 284.727 43.1667 284.219 42.625V49.25H281.032ZM287.882 41.575C288.59 41.575 289.219 41.4208 289.769 41.1125C290.319 40.7958 290.752 40.3542 291.069 39.7875C291.386 39.2125 291.544 38.5333 291.544 37.75C291.544 36.9667 291.386 36.2875 291.069 35.7125C290.752 35.1375 290.315 34.6958 289.757 34.3875C289.207 34.0792 288.582 33.925 287.882 33.925C287.173 33.925 286.544 34.0792 285.994 34.3875C285.444 34.6958 285.011 35.1375 284.694 35.7125C284.377 36.2875 284.219 36.9667 284.219 37.75C284.219 38.5333 284.373 39.2125 284.682 39.7875C284.998 40.3542 285.432 40.7958 285.982 41.1125C286.54 41.4208 287.173 41.575 287.882 41.575ZM303.287 44.375C301.962 44.375 300.783 44.0875 299.749 43.5125C298.724 42.9292 297.916 42.1417 297.324 41.15C296.733 40.15 296.437 39.0167 296.437 37.75C296.437 36.7917 296.612 35.9125 296.962 35.1125C297.312 34.3042 297.803 33.6042 298.437 33.0125C299.07 32.4125 299.812 31.95 300.662 31.625C301.52 31.2917 302.453 31.125 303.462 31.125C304.337 31.125 305.149 31.2417 305.899 31.475C306.649 31.7083 307.337 32.0667 307.962 32.55L306.474 34.9625C306.083 34.6125 305.637 34.3542 305.137 34.1875C304.645 34.0125 304.128 33.925 303.587 33.925C302.77 33.925 302.066 34.075 301.474 34.375C300.891 34.675 300.441 35.1083 300.124 35.675C299.808 36.2417 299.649 36.9292 299.649 37.7375C299.649 38.9375 299.999 39.8792 300.699 40.5625C301.408 41.2375 302.37 41.575 303.587 41.575C304.195 41.575 304.77 41.4625 305.312 41.2375C305.853 41.0125 306.324 40.7042 306.724 40.3125L308.149 42.7375C307.466 43.2458 306.703 43.6458 305.862 43.9375C305.02 44.2292 304.162 44.375 303.287 44.375Z" fill="white"/>
</g>
<defs>
<clipPath id="clip0_394_1037">
<rect width="366" height="71" rx="10" fill="white"/>
</clipPath>
</defs>
</svg>
