<svg width="56" height="50" viewBox="0 0 56 50" fill="none" xmlns="http://www.w3.org/2000/svg">
<g clip-path="url(#clip0_426_1426)">
<path d="M12.197 23.4056C12.197 21.1419 12.2381 18.9443 12.1806 16.7384C12.1477 15.2265 12.4681 13.9294 13.84 13.095C14.3411 12.7893 14.8914 12.6488 15.4747 12.6488C21.529 12.6488 27.575 12.6488 33.6293 12.6488C33.7936 12.6488 33.9497 12.6488 34.1386 12.6488C34.0893 12.0705 33.999 11.5335 33.999 10.9882C33.9415 6.00639 37.2602 1.61941 42.1316 0.404939C46.4525 -0.677348 50.2313 0.396677 53.3037 3.66006C54.7659 5.21327 55.6038 7.11346 55.8913 9.25325C56.2938 12.244 55.5627 14.9125 53.7062 17.2754C52.8354 18.3825 51.7839 19.2665 50.5599 19.9439C50.2806 20.1009 50.182 20.2661 50.1903 20.5801C50.1985 26.2807 50.1985 31.9813 50.1985 37.6819C50.1985 39.6564 48.6952 41.127 46.7319 41.1188C43.2652 41.1105 39.8068 41.1188 36.3402 41.1188C36.2416 41.1188 36.1512 41.1188 36.028 41.1188C36.028 42.3002 36.028 43.4651 36.028 44.6796C36.7838 44.6796 37.5313 44.7209 38.2789 44.6713C39.4864 44.5887 40.3572 45.5057 40.2668 46.6872C40.2258 47.1663 40.2586 47.6538 40.2586 48.133C40.2586 49.1905 39.4536 49.9918 38.3692 49.9918C35.0423 49.9918 31.7153 49.9918 28.3883 49.9918C26.6386 49.9918 24.8806 49.9918 23.1309 49.9918C21.9315 49.9918 21.1511 49.207 21.1593 48.0008C21.1593 47.3564 21.1347 46.7037 21.225 46.0675C21.3482 45.2414 22.0876 44.6796 22.9173 44.6796C23.6977 44.6713 24.4781 44.6796 25.2585 44.6713C25.2831 44.6713 25.3078 44.6548 25.3735 44.6465C25.3735 43.4981 25.3735 42.3332 25.3735 41.1435C25.3078 41.1353 25.2174 41.1188 25.127 41.1188C22.4572 41.1188 19.7874 41.127 17.1176 41.1105C16.7151 41.1105 16.5755 41.2427 16.6001 41.6145C16.6083 41.821 16.6001 42.0275 16.6001 42.2341C16.5919 42.5976 16.444 42.8785 16.1154 43.0355C15.754 43.209 15.4172 43.1346 15.1297 42.8702C14.4314 42.2506 13.7496 41.6227 13.0596 40.9948C12.0656 40.086 11.0634 39.1938 10.0858 38.2685C9.8558 38.0536 9.64222 37.781 9.51078 37.4918C6.52061 30.5107 3.55508 23.513 0.597772 16.5153C0.351329 15.9287 0.0638129 15.3174 0.00630962 14.6895C-0.0922675 13.5989 0.532054 12.8306 1.46854 12.3679C2.42145 11.897 3.40722 11.4757 4.40121 11.0956C5.59234 10.633 6.96421 11.2278 7.48174 12.4258C8.54144 14.863 9.58472 17.3167 10.628 19.7622C11.1455 20.9601 11.663 22.1581 12.197 23.4056ZM48.5555 34.5837C48.5555 29.9985 48.5555 25.4628 48.5555 20.9767C47.6519 21.1171 46.7647 21.2989 45.8775 21.3732C45.2532 21.4228 44.7521 21.5715 44.3249 22.0424C43.9881 22.4059 43.5856 22.6951 43.2159 23.0173C42.5834 23.5708 41.9591 24.1244 41.3265 24.6614C40.924 25.0084 40.4476 25.124 39.9547 24.8844C39.4782 24.6531 39.2729 24.2483 39.2811 23.7113C39.2975 22.5381 39.2893 21.3732 39.2729 20.2C39.2729 20.0513 39.1825 19.8448 39.0593 19.7704C37.1124 18.4981 35.6912 16.7797 34.7712 14.6399C34.6562 14.3755 34.5247 14.3012 34.2536 14.3094C33.4897 14.3342 32.7175 14.3177 31.9535 14.3177C26.466 14.326 20.9786 14.326 15.4829 14.3425C14.3903 14.3425 13.8482 14.9208 13.8482 16.0031C13.8482 19.7043 13.8482 23.4056 13.8564 27.1151C13.8564 27.3134 13.9057 27.5282 13.9796 27.71C14.8914 29.8993 15.8279 32.0804 16.7398 34.2698C16.8466 34.5341 16.9862 34.6085 17.2573 34.6085C18.4731 34.592 20.8471 34.6085 22.0629 34.6085C22.1779 34.6085 22.2929 34.592 22.4244 34.5837C22.4244 33.9393 22.4162 33.3362 22.4244 32.7248C22.4572 30.2546 23.6073 28.4453 25.7267 27.2886C26.4989 26.8673 27.3697 26.6525 28.1583 26.3633C25.3735 24.5705 25.1681 21.0345 26.9671 18.9773C28.8648 16.8127 32.0685 16.6723 33.9579 18.6386C34.9847 19.7043 35.4776 20.9932 35.3544 22.4638C35.2148 24.1905 34.3522 25.5041 32.8325 26.4129C33.0543 26.4624 33.2268 26.5037 33.3911 26.5368C36.6523 27.0903 38.9443 29.8745 38.821 32.9809C38.7964 33.5097 38.821 34.0467 38.821 34.592C42.4848 34.5837 44.9328 34.5837 48.5555 34.5837ZM40.8994 22.819C41.9919 21.8689 43.0023 20.9684 44.0538 20.1092C44.2921 19.9109 44.6535 19.82 44.9739 19.7622C45.9104 19.5969 46.8797 19.5887 47.7833 19.3243C52.5397 17.9281 55.267 13.3263 54.1169 8.66667C52.9258 3.84182 48.3337 1.11545 43.717 1.77639C41.228 2.13164 39.1332 3.28828 37.5888 5.30414C35.9294 7.46872 35.2969 9.91419 35.9048 12.6158C36.488 15.21 38.0242 17.1184 40.2586 18.4816C40.7022 18.7542 40.9158 19.093 40.9076 19.6217C40.8829 20.6627 40.8994 21.7037 40.8994 22.819ZM16.7562 39.4334C16.9534 39.4334 17.1094 39.4334 17.2737 39.4334C26.9589 39.4334 36.6523 39.4334 46.3375 39.4334C46.6004 39.4334 46.8551 39.4416 47.1179 39.4334C47.7423 39.4086 48.383 38.9624 48.4734 38.3676C48.5802 37.6736 48.572 36.9548 48.613 36.2113C48.3584 36.2113 48.1941 36.2113 48.038 36.2113C41.1951 36.2113 35.5023 36.2113 28.6594 36.2113C25.2831 36.2113 20.7486 36.2113 17.3723 36.203C17.0684 36.203 16.9205 36.2774 16.9205 36.5996C16.9123 37.0622 16.863 37.5332 16.8301 37.9958C16.8055 38.4585 16.7808 38.9211 16.7562 39.4334ZM24.0427 34.5672C28.4704 34.5672 32.7996 34.5672 37.137 34.5672C37.137 33.7245 37.2274 32.9066 37.1206 32.1052C36.8249 29.9654 35.0998 28.3048 32.9557 28.1561C31.3949 28.0487 29.8094 28.057 28.2486 28.1561C26.3264 28.2718 24.5931 29.7671 24.2152 31.6508C24.018 32.5926 24.092 33.5675 24.0427 34.5672ZM22.8433 48.3065C23.0323 48.3147 23.1555 48.323 23.2787 48.323C28.2486 48.323 33.2186 48.323 38.1885 48.323C38.246 48.323 38.2953 48.323 38.3528 48.323C38.5582 48.3395 38.6485 48.2486 38.6485 48.0338C38.6403 47.6373 38.6485 47.2324 38.6485 46.8359C38.6485 46.2906 38.6485 46.2906 38.1064 46.2906C33.2021 46.2906 28.3061 46.2906 23.4019 46.2906C23.3034 46.2906 23.1966 46.2575 23.1144 46.2989C23.0076 46.3484 22.8598 46.4476 22.8598 46.5384C22.8351 47.1085 22.8433 47.6868 22.8433 48.3065ZM33.695 22.1168C33.7854 20.3983 32.2657 18.8616 30.5241 18.9277C28.8565 18.9938 27.5175 20.3653 27.5175 22.1333C27.5175 23.9013 28.873 25.2397 30.6474 25.2397C32.4217 25.2314 33.7032 23.9178 33.695 22.1168ZM15.0968 34.4598C12.6488 28.6683 10.2173 22.9182 7.76926 17.1349C7.2353 17.3663 6.78348 17.5646 6.30703 17.7711C8.76324 23.5626 11.203 29.3127 13.651 35.0794C14.1521 34.8564 14.6039 34.6663 15.0968 34.4598ZM12.1724 35.6825C9.71615 29.9158 7.26816 24.1822 4.82016 18.4238C4.32727 18.6303 3.88368 18.8203 3.38258 19.0351C5.847 24.8101 8.28679 30.552 10.743 36.3022C11.2441 36.0791 11.6959 35.8891 12.1724 35.6825ZM34.3769 41.1435C31.9124 41.1435 29.4809 41.1435 27.0493 41.1435C27.0493 42.3332 27.0493 43.4899 27.0493 44.6548C29.5055 44.6548 31.9289 44.6548 34.3769 44.6548C34.3769 43.4816 34.3769 42.3332 34.3769 41.1435ZM7.09565 15.6148C6.89028 15.1191 6.70955 14.6729 6.52883 14.2268C6.38096 13.8716 6.2331 13.5163 6.07702 13.1693C5.847 12.6736 5.39519 12.4423 4.95159 12.624C4.03154 13.0041 3.11149 13.3924 2.20786 13.8137C1.72319 14.0368 1.52604 14.5242 1.72319 15.0199C2.04357 15.8461 2.40502 16.6558 2.76647 17.4902C4.21227 16.8623 5.63342 16.2509 7.09565 15.6148ZM15.3679 36.1369C14.1439 36.6492 12.9856 37.1366 11.7616 37.6406C12.887 38.6568 13.9385 39.6069 15.0804 40.6313C15.179 39.0864 15.2693 37.6571 15.3679 36.1369Z" fill="#1A1A1A"/>
<path d="M43.7167 12.9374C44.2096 12.3673 44.686 11.8221 45.1543 11.2768C46.4686 9.74837 47.783 8.21995 49.0973 6.69153C49.2041 6.56761 49.3027 6.43542 49.4095 6.31149C49.7709 5.89841 50.2967 5.81579 50.691 6.11321C51.0853 6.41889 51.1346 6.93938 50.7649 7.39378C50.0585 8.253 49.3191 9.07917 48.5962 9.92187C47.2326 11.4999 45.8689 13.0696 44.4971 14.6393C44.0042 15.2011 43.5524 15.2011 43.0349 14.6806C41.9094 13.557 40.7922 12.4252 39.6668 11.2933C39.2396 10.8554 39.1986 10.3597 39.5682 9.98796C39.9297 9.62445 40.4472 9.65749 40.8744 10.0788C41.7123 10.9133 42.5337 11.756 43.3717 12.5904C43.462 12.6978 43.577 12.797 43.7167 12.9374Z" fill="#1A1A1A"/>
</g>
<defs>
<clipPath id="clip0_426_1426">
<rect width="56" height="50" fill="white"/>
</clipPath>
</defs>
</svg>
