<svg width="52" height="50" viewBox="0 0 52 50" fill="none" xmlns="http://www.w3.org/2000/svg">
<g clip-path="url(#clip0_426_1471)">
<path d="M39.0376 24.8634C38.9987 24.7407 38.9922 24.689 38.9728 24.6438C38.6031 23.72 38.7458 23.2743 39.6083 22.7639C40.9311 21.9758 42.2605 21.1942 43.5963 20.4254C44.3809 19.9668 44.8284 20.0895 45.3212 20.8647C47.4287 24.1916 49.5362 27.512 51.6437 30.8389C51.7474 31.0004 51.8512 31.1683 51.916 31.3492C52.1235 31.8854 51.9549 32.3311 51.4491 32.6476C50.0225 33.5197 48.5959 34.3918 47.1693 35.2575C46.3587 35.7549 45.9048 35.6515 45.386 34.8569C45.3471 34.7923 45.3017 34.7342 45.2434 34.6373C43.6936 36.3557 42.0724 37.9642 39.9325 38.9267C40.7236 41.0714 39.083 42.9448 37.0987 42.9706C37.0987 43.9073 36.7226 44.6825 35.9769 45.2445C35.2441 45.8001 34.4141 46.0068 33.5127 45.6903C33.2923 47.5378 31.1913 48.9073 29.3561 47.7187C29.1616 48.0934 29.0059 48.5004 28.766 48.8492C27.8452 50.1541 26.2435 50.3802 24.8882 49.4241C24.4602 49.1205 24.0452 48.7911 23.6302 48.4874C23.2606 48.7911 22.9169 49.1011 22.5473 49.366C21.2633 50.2833 19.1104 49.8828 18.6046 47.9319C18.5787 47.8285 18.5463 47.7316 18.5139 47.6347C16.4907 47.7187 15.5309 46.9177 15.3429 44.9732C14.3961 45.1864 13.631 44.8569 13.0149 44.1593C12.4054 43.4616 12.2627 42.6412 12.4702 41.7303C11.4132 41.627 10.674 41.1037 10.2071 40.1993C9.72075 39.2626 9.88286 38.3776 10.4341 37.5184C9.28628 36.3427 8.14499 35.1735 6.97128 33.9784C6.87401 34.1334 6.79619 34.2626 6.71189 34.3983C6.40712 34.8892 5.97265 35.0637 5.44091 34.8311C4.79245 34.5404 4.16993 34.198 3.54092 33.8686C2.6266 33.3841 1.71227 32.8931 0.804424 32.4086C-0.0645125 31.9435 -0.207174 31.5236 0.253233 30.658C0.830362 29.5533 1.42046 28.4487 2.00407 27.3505C3.43069 24.6761 4.87027 22.0016 6.29688 19.3272C6.52384 18.9009 6.79619 18.5585 7.33441 18.6231C7.52895 18.6489 7.72998 18.7329 7.90506 18.8298C9.33167 19.5856 10.7583 20.3479 12.1849 21.1037C13.0344 21.5559 13.1835 21.9952 12.788 22.8608C12.762 22.919 12.7361 22.9771 12.6972 23.074C14.0589 23.7588 15.3753 24.4629 17.003 24.2691C19.0391 24.0301 21.0882 23.8621 23.1439 24.0559C23.7729 24.1141 24.4148 24.198 25.0244 24.3595C25.6923 24.5339 26.3278 24.521 26.9892 24.3531C27.9749 24.1011 28.993 23.959 30.0046 24.0688C30.8476 24.1593 31.6776 24.3724 32.5011 24.5727C33.1691 24.7342 33.8305 24.9345 34.4725 25.1735C35.4581 25.5352 36.4438 25.4513 37.4359 25.2768C37.9741 25.1347 38.4929 24.9861 39.0376 24.8634ZM23.3125 25.5223C23.3254 25.5223 23.3449 25.5417 23.3125 25.5223C21.2374 25.4254 19.1688 25.5094 17.1067 25.729C16.2961 25.813 15.4985 25.8324 14.7204 25.5288C13.845 25.1864 12.963 24.8505 12.0617 24.5016C12.0747 24.4887 12.0487 24.5016 12.0422 24.521C10.6286 27.1438 9.21495 29.7665 7.78834 32.3828C7.68458 32.5766 7.74943 32.667 7.87912 32.7898C8.79345 33.6748 9.70129 34.5662 10.6156 35.4513C10.875 35.7032 11.1474 35.9422 11.4003 36.1748C11.6337 35.9487 11.8931 35.6903 12.1654 35.4448C13.5985 34.127 15.7709 34.5727 16.5425 36.3557C16.6982 36.711 16.763 37.1115 16.8668 37.4991C17.6709 37.3634 18.4166 37.5378 19.0651 38.0611C19.7265 38.5973 19.9534 39.3208 19.934 40.1476C20.7964 40.1993 21.5097 40.5094 21.9961 41.1942C22.463 41.8531 22.7029 42.5895 22.5019 43.4099C23.4032 43.565 24.0258 44.0688 24.4019 44.8505C24.765 45.6192 24.8234 46.4138 24.4343 47.2277C24.9336 47.5895 25.4135 47.9319 25.8933 48.2807C26.1851 48.4939 26.5094 48.5262 26.8466 48.4228C27.3783 48.2549 27.7025 47.8867 27.8257 47.3569C27.936 46.8854 27.7479 46.5301 27.3589 46.2458C26.6974 45.7613 26.0555 45.251 25.4135 44.7471C25.1087 44.5081 25.0049 44.127 25.1346 43.8298C25.2708 43.5133 25.6145 43.3066 25.9841 43.3905C26.1722 43.4293 26.3537 43.552 26.5094 43.6748C27.6636 44.5792 28.8114 45.49 29.9592 46.4009C30.5169 46.8401 31.2691 46.7368 31.736 46.1554C32.1769 45.5998 32.0732 44.8828 31.496 44.4306C29.9786 43.2355 28.4677 42.0404 26.9568 40.8389C26.6455 40.5934 26.5677 40.2898 26.7169 39.9538C26.8531 39.6373 27.1838 39.4048 27.4821 39.4823C27.7025 39.5404 27.91 39.6761 28.0916 39.8182C29.8814 41.2265 31.6711 42.6283 33.4414 44.0559C34.0704 44.5598 34.9134 44.3208 35.309 43.8169C35.7564 43.242 35.6721 42.5055 35.0626 42.0275C33.8175 41.0456 32.5725 40.0701 31.3274 39.0882C30.6012 38.5133 29.8684 37.9448 29.1421 37.3699C28.7595 37.0662 28.6882 36.6076 28.9541 36.2588C29.2524 35.8712 29.6609 35.8389 30.0889 36.1683C30.4715 36.4655 30.8541 36.7626 31.2366 37.0662C32.994 38.4422 34.7448 39.8246 36.5021 41.2006C36.6383 41.3104 36.8134 41.4009 36.9885 41.4267C37.6369 41.5236 38.2595 41.1231 38.5188 40.4836C38.7523 39.9086 38.5578 39.2239 38.0584 38.8363C36.0028 37.2471 33.9472 35.658 31.8916 34.0753C30.439 32.9577 28.98 31.8531 27.5275 30.729C27.2162 30.49 26.9049 30.4319 26.5742 30.6257C26.2759 30.7936 25.9711 30.9616 25.7118 31.1877C24.9401 31.8466 24.2138 32.5572 23.4292 33.1903C22.4824 33.959 21.419 34.4241 20.1415 34.1851C19.2077 34.0107 18.5268 33.5262 18.2026 32.6347C17.8784 31.7303 18.047 30.8905 18.6954 30.1799C19.3374 29.4693 19.9859 28.7588 20.6667 28.0805C21.5162 27.1954 22.4241 26.3621 23.3125 25.5223ZM44.3744 33.3453C44.2707 33.1774 44.1669 33.0094 44.0632 32.8479C42.7144 30.7097 41.3721 28.5714 40.0233 26.4332C39.9455 26.304 39.9066 26.1812 39.6861 26.2329C38.9339 26.4203 38.1881 26.6334 37.423 26.7433C36.3335 26.8983 35.2312 26.9435 34.1547 26.5882C33.6165 26.4073 33.0718 26.2329 32.5271 26.0714C31.5479 25.7807 30.5752 25.4254 29.5312 25.5288C28.5261 25.6257 27.5339 25.7872 26.5353 25.9551C25.7507 26.0843 24.979 26.2781 24.3176 26.7691C23.0077 27.751 21.8794 28.9267 20.7575 30.1024C20.4463 30.4319 20.1674 30.7936 19.8432 31.1102C19.3698 31.5688 19.6227 32.596 20.3425 32.6735C20.8224 32.7252 21.2763 32.7316 21.6783 32.4538C22.1906 32.0985 22.7029 31.7303 23.1698 31.3234C23.9544 30.6386 24.6548 29.844 25.5886 29.3337C26.5223 28.8234 27.4367 28.72 28.338 29.4177C28.5585 29.5921 28.8114 29.7213 29.0319 29.8957C30.0564 30.6838 31.068 31.4913 32.0926 32.2794C34.1807 33.8815 36.2687 35.4706 38.3567 37.0727C39.1543 37.6864 39.1479 37.6864 40.0492 37.1825C41.7741 36.2135 43.0516 34.773 44.3744 33.3453ZM7.49653 20.335C5.59654 23.9396 3.71601 27.5184 1.82899 31.1102C3.09349 31.8143 4.34501 32.512 5.60951 33.2161C7.51598 29.5985 9.40949 26.0068 11.316 22.3957C10.019 21.6916 8.76751 21.0197 7.49653 20.335ZM50.2171 31.5495C48.1744 28.3195 46.1642 25.1347 44.141 21.937C42.87 22.667 41.6315 23.3712 40.3734 24.0882C42.4291 27.344 44.4652 30.5675 46.5079 33.8104C47.7594 33.0417 48.972 32.3053 50.2171 31.5495ZM18.4166 40.0378C18.436 39.6115 18.2415 39.3014 17.8784 39.0818C17.3985 38.7975 16.8084 38.804 16.3739 39.2045C15.6347 39.8957 14.9344 40.6257 14.234 41.3557C14.0849 41.5107 13.9811 41.7303 13.9098 41.9435C13.6699 42.7058 14.1627 43.6296 15.1159 43.4745C15.4272 43.4228 15.7709 43.2743 16.0043 43.0611C16.6917 42.4409 17.3401 41.7756 17.9821 41.1102C18.2545 40.8259 18.4296 40.4642 18.4166 40.0378ZM19.9534 41.7303C19.6098 41.711 19.2985 41.8143 19.0586 42.0792C18.4814 42.7058 17.8978 43.3259 17.3531 43.9719C17.1521 44.211 16.99 44.5081 16.8862 44.8053C16.7111 45.3027 16.9316 45.7484 17.3985 45.9874C17.8913 46.2394 18.5203 46.136 18.9743 45.6838C19.5709 45.0766 20.1415 44.45 20.7057 43.8169C20.8548 43.6489 20.9521 43.4164 21.0364 43.1967C21.2374 42.6735 20.6797 41.6011 19.9534 41.7303ZM15.3299 37.667C15.2716 36.9693 15.0576 36.4913 14.5258 36.2588C14.0136 36.0327 13.5402 36.22 13.1706 36.5882C12.6518 37.105 12.1654 37.6541 11.6791 38.2032C11.5753 38.3195 11.4975 38.4745 11.4457 38.6231C11.2641 39.127 11.4846 39.6696 11.9904 40.012C12.4313 40.3156 13.0344 40.2704 13.4753 39.8569C13.9941 39.3724 14.4999 38.8686 14.9798 38.3453C15.1678 38.1321 15.2521 37.8285 15.3299 37.667ZM21.0688 48.3582C21.3087 48.2484 21.5876 48.1903 21.7821 48.0288C22.1777 47.6993 22.5473 47.3311 22.878 46.937C23.1179 46.6528 23.2217 46.2911 23.1568 45.9099C23.079 45.419 22.7872 45.083 22.3333 44.9151C21.9442 44.7665 21.6589 45.0055 21.3995 45.2768C21.1207 45.5675 20.8224 45.8324 20.5695 46.136C20.3685 46.3815 20.1545 46.6399 20.0507 46.9306C19.8108 47.5895 20.3425 48.2936 21.0688 48.3582Z" fill="#1A1A1A"/>
<path d="M15.8148 5.92977C15.8148 5.45819 15.8083 4.98015 15.8148 4.50858C15.8213 4.037 16.1131 3.73984 16.5864 3.6817C17.5915 3.56543 18.6096 3.52667 19.5888 3.31349C21.7547 2.83545 23.6546 1.7954 25.3796 0.425891C25.4314 0.387131 25.4768 0.341912 25.5287 0.303152C26.0669 -0.116745 26.4041 -0.0844448 26.9553 0.309612C27.7789 0.897467 28.6024 1.49178 29.4778 1.9892C30.8915 2.79023 32.4089 3.33933 34.03 3.54605C34.5228 3.61065 35.0222 3.61711 35.515 3.62357C36.3061 3.63649 36.6757 3.97886 36.6368 4.76698C36.572 6.28506 36.5785 7.80315 36.4942 9.31478C36.3256 12.2993 35.4436 15.0448 33.6344 17.4608C32.1171 19.4827 30.1717 20.9814 27.941 22.1442C27.5713 22.338 27.1823 22.506 26.8062 22.6869C26.4625 22.8484 26.1188 22.8419 25.7751 22.6933C21.7352 20.9556 18.6615 18.2295 16.9625 14.1081C16.4632 12.8871 16.1779 11.6081 16.0612 10.3032C15.9315 8.84966 15.8407 7.38972 15.7305 5.93623C15.7694 5.92977 15.7888 5.92977 15.8148 5.92977ZM35.0611 5.26439C34.3088 5.14811 33.5631 5.07705 32.8433 4.91556C30.5154 4.41168 28.4014 3.42977 26.5208 1.96982C26.3133 1.80832 26.1966 1.7954 25.9761 1.96336C24.0308 3.46207 21.8519 4.47628 19.4397 4.95431C18.7588 5.08997 18.0584 5.16103 17.3581 5.26439C17.3581 5.51633 17.3516 5.79411 17.3581 6.06543C17.41 7.84837 17.4554 9.63132 17.838 11.382C18.4281 14.0951 19.699 16.4272 21.7417 18.3135C22.8311 19.3212 24.1086 20.0771 25.4185 20.7618C26.4495 21.3044 26.0799 21.298 27.0785 20.7683C28.9266 19.7928 30.671 18.6752 31.9874 17.0021C33.4658 15.1287 34.4126 13.0357 34.7433 10.6778C34.8989 9.57318 34.9832 8.46207 35.0546 7.3445C35.1 6.65328 35.0611 5.94269 35.0611 5.26439Z" fill="#1A1A1A"/>
<path d="M4.82518 31.6144C4.71494 31.5627 4.63713 31.5304 4.56579 31.4852C4.28047 31.3108 4.00812 31.1234 3.71631 30.9619C3.50881 30.8456 3.48287 30.71 3.58662 30.5097C3.72928 30.2449 3.87194 29.98 4.0146 29.7151C4.10539 29.5472 4.22211 29.5149 4.38423 29.6118C4.70197 29.7927 5.0262 29.9671 5.34395 30.148C5.532 30.2513 5.59036 30.3805 5.45418 30.5872C5.28559 30.8456 5.15589 31.1299 5.00675 31.4012C4.96136 31.4787 4.89002 31.5369 4.82518 31.6144Z" fill="#1A1A1A"/>
<path d="M25.4269 13.3656C26.8795 11.8734 28.2996 10.4134 29.7197 8.95348C30.0375 8.63049 30.3423 8.30103 30.6665 7.97803C30.9648 7.68087 31.3668 7.66795 31.6911 7.91989C31.9893 8.14599 32.0736 8.56589 31.8921 8.9018C31.8402 8.99224 31.7689 9.08268 31.6975 9.1602C29.8624 11.0594 28.0208 12.9522 26.1791 14.845C25.628 15.407 25.1805 15.4005 24.6358 14.832C23.6501 13.792 22.658 12.7584 21.6788 11.7119C21.3092 11.3178 21.2962 10.8656 21.6334 10.5362C21.9642 10.2196 22.457 10.2326 22.8201 10.6072C23.6177 11.4276 24.4024 12.2545 25.1935 13.0814C25.2778 13.1718 25.3491 13.2687 25.4269 13.3656Z" fill="#1A1A1A"/>
</g>
<defs>
<clipPath id="clip0_426_1471">
<rect width="52" height="50" fill="white"/>
</clipPath>
</defs>
</svg>
