<svg width="47" height="50" viewBox="0 0 47 50" fill="none" xmlns="http://www.w3.org/2000/svg">
<g clip-path="url(#clip0_426_1433)">
<path d="M24.0486 24.2267C30.0018 24.2267 35.8627 24.2267 41.8057 24.2267C41.8057 24.0309 41.8057 23.8557 41.8057 23.6702C41.8057 20.5993 41.8057 17.5181 41.8057 14.4472C41.8057 13.6331 42.5345 13.1281 43.1298 13.561C43.3454 13.7155 43.5301 14.0865 43.5301 14.3647C43.5609 16.3227 43.5506 18.2807 43.5506 20.2386C43.5506 25.2572 43.5506 30.2654 43.5506 35.284C43.5506 35.4179 43.5506 35.5622 43.5506 35.6962C43.5301 36.2217 43.1811 36.5927 42.6884 36.5927C42.2163 36.603 41.8262 36.2217 41.8057 35.7065C41.7852 35.0882 41.8057 34.4699 41.8057 33.8516C41.8057 31.4299 41.8057 29.0082 41.8057 26.5865C41.8057 26.401 41.8057 26.2155 41.8057 25.9991C35.873 25.9991 29.9916 25.9991 24.0486 25.9991C24.0486 26.1949 24.0486 26.3804 24.0486 26.5659C24.0486 29.5234 24.0486 32.4707 24.0486 35.4282C24.0486 36.2114 23.7714 36.5824 23.2069 36.5927C22.6424 36.603 22.3139 36.1702 22.3139 35.3973C22.3139 32.4295 22.3139 29.4513 22.3139 26.4835C22.3139 26.3289 22.3139 26.1846 22.3139 25.9991C16.2785 25.9991 10.2842 25.9991 4.23856 25.9991C4.23856 26.1846 4.23856 26.3701 4.23856 26.5556C4.23856 29.5441 4.23856 32.5325 4.23856 35.521C4.23856 36.2217 3.96143 36.5824 3.41742 36.5927C2.88368 36.6133 2.50391 36.1805 2.50391 35.521C2.50391 28.5136 2.50391 21.5061 2.50391 14.4987C2.50391 13.6228 3.16082 13.1694 3.83826 13.5403C4.16672 13.7258 4.23856 14.0041 4.23856 14.3647C4.2283 17.4356 4.23856 20.5168 4.23856 23.5877C4.23856 23.7732 4.23856 23.9587 4.23856 24.1854C10.2534 24.1854 16.2477 24.1854 22.3139 24.1854C22.3139 24.0206 22.3139 23.8351 22.3139 23.6599C22.3139 20.6714 22.3139 17.683 22.3139 14.6945C22.3139 14.5399 22.3036 14.3854 22.3242 14.2308C22.3858 13.7464 22.7861 13.3961 23.2274 13.4064C23.6996 13.427 24.0486 13.8083 24.0486 14.3441C24.0486 17.4356 24.0486 20.5272 24.0486 23.6187C24.0486 23.8145 24.0486 23.9999 24.0486 24.2267Z" fill="white"/>
<path d="M41.0182 46.1038C41.0182 47.1034 41.0182 48.0514 41.0182 48.9892C41.0182 49.5663 40.6487 49.9991 40.156 49.9991C39.6736 49.9991 39.2733 49.5663 39.2733 48.9892C39.2631 46.0523 39.2631 43.1153 39.2733 40.1784C39.2733 39.4674 39.6428 39.0964 40.3408 39.0964C41.3467 39.0861 42.3629 39.0964 43.3688 39.0964C45.0521 39.1067 46.4686 40.1784 46.8689 41.7139C47.2794 43.3111 46.6328 44.7229 45.0726 45.6195C45.011 45.6504 44.9597 45.7019 44.8776 45.7534C45.4319 46.5984 45.9759 47.4435 46.5301 48.2885C46.602 48.4018 46.6841 48.5152 46.7457 48.6388C46.9818 49.082 46.8791 49.5663 46.4891 49.8136C46.099 50.0609 45.6269 49.9579 45.3395 49.5251C44.6826 48.5255 44.0257 47.5259 43.3995 46.5057C43.2148 46.2172 43.03 46.0729 42.6708 46.0935C42.1576 46.1244 41.6238 46.1038 41.0182 46.1038ZM41.0388 44.4344C41.7573 44.4344 42.4142 44.4447 43.0814 44.4344C43.2866 44.4344 43.4919 44.3932 43.687 44.3519C44.5799 44.1768 45.2163 43.476 45.2471 42.6413C45.2779 41.7345 44.8058 41.0131 43.8306 40.8688C42.9274 40.7349 41.9831 40.8379 41.0388 40.8379C41.0388 42.0024 41.0388 43.1772 41.0388 44.4344Z" fill="white"/>
<path d="M41.0061 1.78197C40.9548 2.4518 40.9034 3.0701 40.8521 3.73993C41.7862 3.4823 42.6689 3.38955 43.5619 3.62657C45.5429 4.15213 46.4153 5.83185 46.2819 7.52187C46.1279 9.54166 44.6191 10.9638 42.751 11.0668C41.2832 11.1389 40.0926 10.6031 39.1072 9.54166C38.7479 9.15007 38.7172 8.63481 39.0148 8.29475C39.333 7.92377 39.7744 7.93407 40.2568 8.26383C40.8111 8.64512 41.3551 9.08824 41.9709 9.32525C42.7818 9.6344 43.5208 9.29434 44.0648 8.63482C44.6088 7.9856 44.7525 7.23333 44.383 6.42954C44.0238 5.63605 43.3977 5.24446 42.5355 5.18263C41.8067 5.1311 41.2011 5.40934 40.6366 5.81124C40.2876 6.05856 39.9386 6.25435 39.5075 6.00703C39.0661 5.75971 39.0046 5.35782 39.0456 4.90439C39.1483 3.62657 39.2406 2.33844 39.3638 1.06062C39.4151 0.462927 39.8052 0.143471 40.3902 0.143471C41.9299 0.133166 43.4695 0.133166 45.0091 0.143471C45.5942 0.143471 45.9432 0.473232 45.9329 0.998788C45.9227 1.49343 45.5942 1.79228 45.0091 1.79228C43.6851 1.78197 42.3712 1.78197 41.0061 1.78197Z" fill="white"/>
<path d="M24.849 47.712C24.849 48.1551 24.849 48.557 24.849 48.9692C24.8387 49.5463 24.5616 49.8761 24.0586 49.8967C23.5454 49.9173 23.1657 49.5772 23.1246 49.0207C23.0938 48.5982 23.1143 48.1757 23.1143 47.712C21.9134 47.712 20.7741 47.712 19.6348 47.712C19.1934 47.712 18.7623 47.6811 18.5262 47.238C18.2901 46.8052 18.4646 46.4136 18.7007 46.0323C20.0761 43.9094 21.4515 41.7866 22.8372 39.6741C23.1964 39.1176 23.6378 38.9321 24.1715 39.097C24.6232 39.2413 24.849 39.6225 24.849 40.2821C24.849 42.1473 24.849 44.0228 24.849 45.9395C25.547 46.0117 26.481 45.8571 26.4399 46.8876C26.4092 47.8253 25.547 47.7017 24.849 47.712ZM23.1041 42.4152C22.3035 43.6621 21.5747 44.7854 20.8357 45.9292C21.6363 45.9292 22.365 45.9292 23.1041 45.9292C23.1041 44.7854 23.1041 43.6724 23.1041 42.4152Z" fill="white"/>
<path d="M25.4785 5.19329C26.936 6.48141 26.9155 8.06839 26.4536 9.05767C25.4682 11.1496 22.3992 11.7679 20.6953 10.1809C20.2848 9.78933 19.9255 9.30499 19.6484 8.81035C19.3507 8.27449 19.5355 7.75924 19.9974 7.54283C20.4798 7.31612 20.8903 7.49131 21.1983 8.06839C21.7936 9.19164 22.6558 9.61414 23.7027 9.30499C24.5752 9.04737 25.0474 8.38784 24.9755 7.51192C24.9242 6.83179 24.2878 6.23409 23.4872 6.11043C23.3024 6.07952 23.1177 6.05891 22.9329 6.00738C22.5121 5.90433 22.2863 5.60549 22.3171 5.18298C22.3376 4.78108 22.6045 4.54407 22.9945 4.45132C23.3127 4.37919 23.6412 4.33797 23.9286 4.204C24.5239 3.91546 24.801 3.22503 24.606 2.65825C24.3802 2.01934 23.6104 1.56592 22.9227 1.69988C22.2863 1.82354 21.7936 2.13269 21.4959 2.75099C21.2188 3.31777 20.7672 3.49296 20.2848 3.25594C19.8537 3.04984 19.7202 2.5552 19.9358 2.01934C20.449 0.710598 22.0707 -0.165329 23.6001 0.0407715C25.15 0.246872 26.2072 1.28768 26.392 2.80252C26.4741 3.52387 26.2072 4.25553 25.4785 5.19329Z" fill="white"/>
<path d="M2.5464 48.3402C3.71653 48.3402 4.79427 48.3402 5.87202 48.3402C6.52893 48.3402 6.83686 48.6081 6.82659 49.144C6.81633 49.6386 6.49814 49.8963 5.88228 49.8963C4.26053 49.8963 2.62852 49.8963 1.00677 49.8963C0.626988 49.8963 0.288268 49.8344 0.103511 49.4531C-0.101774 49.0409 0.0316613 48.7009 0.308796 48.3711C1.56103 46.9181 2.81327 45.4651 4.06551 44.0121C4.49661 43.5071 4.9585 43.0125 4.9585 42.2808C4.94824 41.4874 4.45555 40.8278 3.74732 40.7145C2.8338 40.5702 2.13583 40.9515 1.87923 41.7553C1.73553 42.1881 1.53024 42.5385 1.01703 42.5694C0.493553 42.6003 0.134304 42.2808 0.12404 41.745C0.103511 40.8691 0.637252 40.2714 1.24284 39.7561C2.80301 38.4371 6.01572 38.8287 6.63157 41.4461C6.92924 42.693 6.49814 43.7235 5.677 44.651C4.64031 45.8464 3.63441 47.0624 2.5464 48.3402Z" fill="white"/>
<path d="M2.90424 2.97766C2.50393 3.21468 2.20627 3.40017 1.88808 3.56505C1.45698 3.79176 1.01562 3.67841 0.748746 3.31773C0.492139 2.97766 0.522932 2.53455 0.902709 2.2254C1.70332 1.56587 2.50393 0.926963 3.33534 0.339576C3.87934 -0.0417099 4.56705 0.349881 4.61837 1.04032C4.64916 1.43191 4.62863 1.83381 4.62863 2.2254C4.62863 4.80165 4.62863 7.36761 4.62863 9.94386C4.62863 10.6137 4.3207 10.995 3.7767 10.995C3.21217 10.995 2.89397 10.6652 2.89397 10.0469C2.89397 7.90347 2.89397 5.76002 2.89397 3.61658C2.90424 3.43108 2.90424 3.24559 2.90424 2.97766Z" fill="white"/>
</g>
<defs>
<clipPath id="clip0_426_1433">
<rect width="47" height="50" fill="white"/>
</clipPath>
</defs>
</svg>
