<svg width="15" height="16" viewBox="0 0 15 16" fill="none" xmlns="http://www.w3.org/2000/svg">
<g clip-path="url(#clip0_2001_2891)">
<path d="M0.59668 15.9998C0.676504 15.9513 0.752528 15.9028 0.836153 15.858C2.33381 15.086 3.83148 14.314 5.33294 13.542C5.40516 13.5047 5.49259 13.4823 5.57621 13.4823C6.72416 13.4786 7.87212 13.4786 9.02387 13.4823C9.0961 13.4823 9.17592 13.4972 9.24054 13.5308C10.7914 14.3252 12.3385 15.1233 13.8894 15.9215C13.9274 15.9438 13.9654 15.9737 13.9996 15.9998C9.53323 15.9998 5.06685 15.9998 0.59668 15.9998Z" fill="#F2D502"/>
<path d="M0 9.0625C0.874269 9.80842 1.75234 10.5506 2.62661 11.2965C3.27661 11.8485 3.92281 12.4042 4.59181 12.9749C3.05234 13.7655 1.52807 14.545 0 15.3282C0 13.2397 0 11.1511 0 9.0625Z" fill="#F2D502"/>
<path d="M14.5969 15.3281C13.1221 14.5709 11.6472 13.8176 10.1723 13.0605C10.1229 13.0344 10.0735 13.0082 10.0127 12.9709C10.3016 12.7248 10.5791 12.4861 10.8566 12.2474C12.0881 11.1957 13.3235 10.1439 14.5551 9.09216C14.5703 9.08097 14.5855 9.06978 14.6007 9.05859C14.5969 11.1509 14.5969 13.2395 14.5969 15.3281Z" fill="#F2D502"/>
<path d="M7.91359 0C9.263 0 10.6124 0 11.9618 0C12.3001 0 12.513 0.28345 12.399 0.570629C12.3344 0.731002 12.2051 0.820513 12.0303 0.835431C11.7148 0.868998 11.5779 1.01445 11.5779 1.32774C11.5779 3.77809 11.5779 7.91049 11.5817 10.3608C11.5817 10.469 11.5513 10.5399 11.4677 10.6107C10.7036 11.2597 9.94341 11.9161 9.17938 12.5688C9.12996 12.6135 9.04634 12.6396 8.97792 12.6396C7.86037 12.6434 6.74663 12.6434 5.62909 12.6396C5.55686 12.6396 5.46944 12.6061 5.41622 12.5613C4.65219 11.9124 3.89195 11.2559 3.12792 10.6033C3.05189 10.5399 3.02148 10.4765 3.02148 10.3795C3.02529 7.78368 3.02529 3.50956 3.02529 0.913753C3.02148 0.343124 3.37499 0 3.95277 0C5.27558 0 6.59458 0 7.91359 0ZM4.30628 6.32914C4.30628 7.76876 5.3326 8.96597 6.78084 9.21958C7.2902 9.30909 7.79195 9.26807 8.2823 9.10396C8.49897 9.02937 8.62061 8.82797 8.57499 8.62284C8.53318 8.41772 8.34312 8.27599 8.12646 8.29091C8.03903 8.29837 7.9516 8.32821 7.86417 8.35058C6.53376 8.71981 5.17675 7.72401 5.16154 6.37389C5.14634 5.04988 6.27148 4.08019 7.6171 4.25548C8.63201 4.38974 9.44546 5.30723 9.43406 6.31049C9.43026 6.55664 9.2478 6.74685 9.01213 6.74685C8.78026 6.75058 8.594 6.57156 8.57879 6.33287C8.57499 6.25828 8.56739 6.18368 8.55599 6.11282C8.45716 5.55338 7.99722 5.13566 7.42324 5.07599C6.86827 5.01632 6.3171 5.34825 6.10803 5.86294C5.89897 6.37762 6.05862 6.97063 6.49955 7.31375C6.95569 7.66807 7.57529 7.68298 8.04663 7.34359C8.13026 7.28392 8.17967 7.28392 8.2633 7.34359C8.95131 7.83963 9.9054 7.55991 10.2019 6.77669C10.3235 6.45594 10.3045 6.12774 10.2437 5.79953C9.97002 4.3338 8.57879 3.27459 7.08493 3.4014C5.49985 3.53566 4.30248 4.79627 4.30628 6.32914Z" fill="#F2D502"/>
<path d="M2.15528 9.76811C1.58511 9.2758 1.02634 8.79842 0.459961 8.30984C1.02634 7.82126 1.58511 7.34387 2.15528 6.85156C2.15528 7.82872 2.15528 8.78723 2.15528 9.76811Z" fill="#F2D502"/>
<path d="M12.4375 9.77539C12.4375 8.78705 12.4375 7.83227 12.4375 6.84766C13.0115 7.34369 13.5702 7.82108 14.1404 8.31339C13.574 8.79824 13.0153 9.27563 12.4375 9.77539Z" fill="#F2D502"/>
<path d="M7.30253 5.91211C7.5344 5.91584 7.72446 6.10605 7.72446 6.33355C7.72446 6.56479 7.523 6.75873 7.28353 6.75127C7.05165 6.74381 6.8654 6.54987 6.8692 6.32237C6.8768 6.09859 7.07446 5.91211 7.30253 5.91211Z" fill="#F2D502"/>
</g>
<defs>
<clipPath id="clip0_2001_2891">
<rect width="14.5965" height="16" fill="white"/>
</clipPath>
</defs>
</svg>
