<svg width="114" height="34" viewBox="0 0 114 34" fill="none" xmlns="http://www.w3.org/2000/svg">
<g clip-path="url(#clip0_2001_206)">
<path d="M107.821 8.27776C107.705 8.34467 107.599 8.42114 107.483 8.48805C106.932 8.81304 106.4 9.16671 105.839 9.46303C105.298 9.74023 104.737 9.96964 104.176 10.2086C103.422 10.524 102.629 10.7343 101.846 10.9446C101.459 11.0498 101.063 11.1071 100.666 11.1836C100.482 11.2218 100.299 11.2505 100.125 11.2792C99.8443 11.327 99.5639 11.3939 99.2835 11.4321C98.9257 11.4799 98.568 11.5277 98.2005 11.5564C95.5415 11.738 92.8825 11.7284 90.2234 11.6424C89.4209 11.6233 88.6183 11.5659 87.8158 11.5086C87.139 11.4512 86.4621 11.3556 85.7853 11.2887C85.3211 11.2409 84.857 11.2218 84.4026 11.1645C83.8611 11.0976 83.3196 11.002 82.7781 10.9255C82.3624 10.8681 81.9466 10.8204 81.5405 10.7726C81.2988 10.7439 81.0474 10.7152 80.8056 10.677C80.3028 10.6005 79.8 10.5049 79.2972 10.4284C79.0748 10.3902 78.8524 10.3615 78.6301 10.3233C77.9629 10.2182 77.3054 10.1226 76.6382 10.0079C76.0484 9.90272 75.4585 9.77846 74.8687 9.66376C74.4336 9.58729 73.9985 9.52038 73.5731 9.43435C73.2056 9.36744 72.8285 9.29097 72.4611 9.22406C72.0647 9.14759 71.6585 9.06157 71.2621 8.97554C70.711 8.86084 70.1598 8.73657 69.6087 8.62187C69.2509 8.5454 68.8932 8.47849 68.5451 8.40202C68.139 8.31599 67.7328 8.22041 67.3267 8.13438C66.8626 8.02924 66.3888 7.93365 65.9247 7.82851C65.4026 7.7138 64.8901 7.58954 64.368 7.47484C63.9812 7.38881 63.5944 7.3219 63.2077 7.23587C62.8209 7.1594 62.4438 7.06382 62.057 6.98735C61.6702 6.91088 61.2835 6.83441 60.8967 6.75794C60.4036 6.65279 59.9105 6.54765 59.427 6.45206C59.0015 6.36604 58.5858 6.27045 58.1603 6.18442C57.6285 6.07928 57.0967 5.97413 56.5746 5.86899C56.3232 5.8212 56.0718 5.7734 55.8204 5.72561C55.0178 5.58223 54.225 5.44841 53.4224 5.31459C52.8713 5.219 52.3298 5.13298 51.7786 5.05651C51.4016 5.00871 51.0244 4.96092 50.6474 4.9418C49.6804 4.90357 48.7135 4.84622 47.7466 4.84622C46.8377 4.84622 45.9384 4.91313 45.0489 5.1043C44.169 5.28591 43.2891 5.47709 42.4672 5.8212C42.0031 6.01237 41.5583 6.23222 41.1135 6.47118C40.456 6.82485 39.8178 7.21675 39.17 7.58954C38.9379 7.72336 38.6962 7.85718 38.4641 7.991C38.1354 8.18217 37.8066 8.36379 37.4876 8.56452C37.3522 8.65055 37.2168 8.73657 37.1975 8.9373C37.2555 8.94686 37.2942 8.95642 37.3328 8.95642C38.7736 8.94686 40.2046 9.04245 41.6356 9.23362C42.6896 9.36744 43.7339 9.50126 44.7781 9.66376C45.8998 9.83581 47.0214 10.027 48.1334 10.2277C48.8876 10.3615 49.6321 10.5145 50.3863 10.6674C51.0825 10.8012 51.7786 10.9446 52.4748 11.088C52.9776 11.1931 53.4708 11.3078 53.9639 11.413C54.5344 11.5277 55.0952 11.6328 55.6657 11.7475C56.0331 11.824 56.3909 11.91 56.7486 11.9865C57.1064 12.063 57.4641 12.1299 57.8122 12.1968C58.2087 12.2733 58.5954 12.3593 58.9919 12.4453C59.3883 12.5313 59.7944 12.6174 60.1909 12.6938C60.5873 12.7703 60.9741 12.8468 61.3705 12.9232C61.8443 13.0093 62.3278 13.0953 62.8112 13.1718C63.5461 13.2865 64.2713 13.4107 65.0061 13.5159C65.654 13.6115 66.3115 13.6975 66.9593 13.7453C68.5741 13.8791 70.1792 13.9938 71.7939 14.099C72.3257 14.1372 72.8575 14.1659 73.3893 14.099C73.4473 14.0894 73.5054 14.099 73.5731 14.1085C73.5731 14.2328 73.4957 14.2615 73.4087 14.2806C72.8575 14.3762 72.3161 14.4813 71.7552 14.4909C69.773 14.5482 67.7909 14.4909 65.8183 14.3857C64.9288 14.3379 64.0489 14.2232 63.1593 14.1372C62.7049 14.099 62.2504 14.0703 61.7959 14.0225C61.4769 13.9938 61.1481 13.9651 60.829 13.9269C60.4423 13.8791 60.0458 13.8218 59.6591 13.7644C59.0306 13.6688 58.4117 13.5637 57.7832 13.4585C57.3094 13.3821 56.8453 13.2865 56.3715 13.2004C55.9461 13.124 55.5206 13.0666 55.0952 12.9806C54.6891 12.9041 54.2926 12.8277 53.8865 12.7512C53.3064 12.6365 52.7166 12.5218 52.1364 12.4071C51.4789 12.2828 50.8214 12.1586 50.1542 12.0439C49.7094 11.9674 49.255 11.91 48.8005 11.8336C48.3074 11.7571 47.8239 11.6806 47.3405 11.6042C46.7023 11.5086 46.0545 11.413 45.4163 11.3365C44.3624 11.2123 43.3181 11.0784 42.2641 10.9828C41.5776 10.9159 40.8911 10.8873 40.2046 10.849C38.7445 10.7534 37.2845 10.6865 35.8245 10.7056C34.171 10.7343 32.5176 10.763 30.8641 10.8012C30.1486 10.8204 29.4428 10.8299 28.7272 10.8586C27.9247 10.8873 27.1222 10.9255 26.3196 10.9733C25.3237 11.0211 24.3278 11.0593 23.3318 11.1262C22.2392 11.1931 21.1563 11.2887 20.0733 11.3748C18.8937 11.4703 17.714 11.5755 16.5344 11.6997C15.8479 11.7762 15.1613 11.9005 14.4652 12.0056C14.1171 12.0534 13.7593 12.0916 13.4112 12.149C13.0535 12.1968 12.6957 12.2541 12.3379 12.3211C11.8158 12.4166 11.284 12.5027 10.7715 12.6269C10.027 12.8085 9.29213 13.0188 8.55727 13.2196C8.2962 13.2865 8.03514 13.3629 7.78374 13.449C7.20358 13.6401 6.64277 13.8695 6.09162 14.1372C5.57916 14.3857 5.06669 14.6438 4.61223 14.9879C4.05142 15.418 3.56796 15.9247 3.23921 16.5555C3.03615 16.9474 2.90078 17.3776 2.87178 17.8268C2.84277 18.5724 2.88145 19.3084 3.05549 20.0349C3.20053 20.6371 3.32623 21.2392 3.47127 21.8414C3.55829 22.2142 3.67432 22.5774 3.79035 22.9407C3.92572 23.3804 4.07076 23.8105 4.20613 24.2502C4.2448 24.3936 4.30282 24.537 4.2448 24.7281C4.17712 24.6803 4.12877 24.6612 4.0901 24.623C3.9644 24.4605 3.84837 24.2789 3.713 24.1355C3.27788 23.6671 2.96847 23.1223 2.62038 22.5966C2.0789 21.7745 1.53743 20.962 0.995949 20.14C0.667196 19.643 0.367451 19.1172 0.212743 18.5437C0.0193591 17.8651 -0.0579946 17.1673 0.0386975 16.4599C0.0870435 16.1349 0.154728 15.8291 0.290097 15.5423C0.444804 15.2173 0.696204 14.9879 0.966942 14.7681C1.64379 14.2232 2.39799 13.8218 3.2102 13.4968C4.06109 13.1527 4.94099 12.885 5.82089 12.646C6.60409 12.4358 7.3873 12.2255 8.18984 12.1108C8.48959 12.0725 8.77 11.9674 9.06974 11.9196C9.39849 11.8527 9.73692 11.8144 10.0753 11.7571C10.3461 11.7189 10.6168 11.6997 10.8779 11.6424C11.5161 11.5086 12.1639 11.4512 12.8021 11.3748C13.0825 11.3461 13.3725 11.2983 13.6529 11.26C14.0204 11.2027 14.3878 11.1358 14.7552 11.088C15.5384 10.9924 16.3216 10.8968 17.1049 10.8204C18.1491 10.7152 19.1934 10.6196 20.2473 10.524C21.1079 10.4476 21.9685 10.352 22.829 10.2851C24.0764 10.1799 25.3237 10.1035 26.5807 10.0079C26.9384 9.97919 27.2865 9.96008 27.6443 9.92184C27.944 9.88361 28.2341 9.77846 28.4952 9.63508C29.0077 9.35788 29.5201 9.07113 30.0326 8.79393C30.2163 8.69834 30.4097 8.61231 30.5934 8.51673C31.4733 8.03879 32.3532 7.56086 33.2428 7.08293C33.9776 6.69103 34.7222 6.31824 35.457 5.9359C36.6753 5.29547 37.8743 4.63593 39.0926 4.00506C40.0982 3.48889 41.1232 3.0014 42.1965 2.61906C42.796 2.39921 43.4244 2.25583 44.0433 2.11245C45.2036 1.83525 46.3736 1.83525 47.5532 1.85437C48.5588 1.87349 49.5644 1.95951 50.5603 2.09334C51.5659 2.23671 52.5812 2.38009 53.5771 2.56171C54.2056 2.67641 54.8245 2.85802 55.4433 3.01096C55.9171 3.13522 56.4005 3.24037 56.884 3.35507C57.1934 3.43154 57.4932 3.51757 57.8026 3.59404C58.1217 3.67051 58.4504 3.73742 58.7695 3.82344C59.0499 3.89036 59.3303 3.97638 59.6204 4.05285C60.3552 4.23447 61.0901 4.41608 61.8153 4.60725C62.1924 4.70284 62.5695 4.81754 62.9563 4.91313C63.5654 5.06607 64.1842 5.20944 64.7934 5.36238C65.2092 5.46753 65.6346 5.57267 66.0504 5.67782C66.6596 5.83075 67.2591 5.97413 67.8682 6.12707C68.5547 6.29913 69.2412 6.4903 69.9278 6.66235C70.7013 6.84397 71.4748 7.01602 72.2484 7.17852C72.7802 7.29322 73.3216 7.40793 73.8535 7.52263C74.3756 7.62777 74.8977 7.74248 75.4199 7.84762C75.7776 7.92409 76.1257 8.00056 76.4835 8.06747C76.7832 8.12482 77.0733 8.17262 77.3731 8.22997C77.5664 8.2682 77.7695 8.29688 77.9629 8.33511C78.7848 8.49761 79.6163 8.65055 80.4382 8.81304C81.0377 8.92775 81.6372 9.04245 82.2367 9.14759C82.9619 9.28141 83.6774 9.42479 84.4026 9.5395C85.1954 9.67332 85.9883 9.79758 86.7812 9.91228C87.4 9.99831 88.0189 10.0652 88.6474 10.1417C88.9954 10.1799 89.3339 10.2373 89.682 10.2755C90.1267 10.3233 90.5715 10.3711 91.0163 10.4093C91.5771 10.4667 92.1379 10.524 92.6988 10.5718C93.3949 10.6292 94.0815 10.6674 94.7776 10.7248C95.9766 10.8204 97.1756 10.7917 98.3746 10.7726C98.9161 10.763 99.4479 10.6674 99.9893 10.6196C100.047 10.6101 100.096 10.6101 100.154 10.6101C100.55 10.5527 100.947 10.5049 101.343 10.4476C101.614 10.4093 101.894 10.3615 102.165 10.3233C102.358 10.2851 102.561 10.2564 102.755 10.2086C103.064 10.1321 103.383 10.0461 103.693 9.96008C103.983 9.88361 104.273 9.82626 104.563 9.73067C104.843 9.64464 105.104 9.52038 105.385 9.41524C106.168 9.12848 106.864 8.66966 107.609 8.29688C107.676 8.2682 107.744 8.23953 107.812 8.22041C107.802 8.23953 107.812 8.25864 107.821 8.27776Z" fill="#1A1A1A"/>
<path d="M48.7227 0.277194C48.8677 0.248519 49.0224 0.210284 49.1674 0.200725C49.7186 0.162491 50.2601 0.143374 50.8112 0.105139C51.2463 0.0764634 51.6718 0.0477876 52.1069 0.0286703C52.2713 0.0191117 52.4356 0.0191117 52.5903 0.00955309C53.8957 -0.0286814 55.201 0.0573462 56.5064 0.114698C56.9705 0.133815 57.4346 0.248519 57.8987 0.334546C58.3532 0.411015 58.8076 0.487484 59.2621 0.573512C59.8616 0.678656 60.4611 0.79336 61.0606 0.898504C61.5247 0.984532 61.9888 1.07056 62.4529 1.15659C63.0331 1.26173 63.6229 1.37644 64.2031 1.49114C64.6285 1.56761 65.054 1.65364 65.4794 1.73966C65.9822 1.83525 66.4753 1.94995 66.9781 2.04554C67.4713 2.14112 67.9644 2.21759 68.4575 2.31318C68.5832 2.3323 68.7089 2.38009 68.8443 2.39921C69.5308 2.52347 70.2076 2.65729 70.8942 2.78155C71.4743 2.8867 72.0545 2.98228 72.6249 3.09699C73.1277 3.19257 73.6209 3.31683 74.114 3.42198C74.6458 3.53668 75.1873 3.63227 75.7288 3.73741C76.1252 3.81388 76.512 3.89991 76.9084 3.98594C77.1018 4.02417 77.2855 4.05285 77.4789 4.09108C78.2234 4.23446 78.9679 4.37784 79.7028 4.52122C80.0606 4.58813 80.4087 4.68372 80.7664 4.75063C80.9985 4.79842 81.2402 4.83665 81.4723 4.87489C81.8784 4.95136 82.2942 5.01827 82.7003 5.09474C83.0193 5.15209 83.3384 5.19032 83.6575 5.24768C84.1506 5.32414 84.6438 5.41017 85.1466 5.4962C85.5237 5.55355 85.9104 5.60134 86.2972 5.6587C86.771 5.72561 87.2448 5.80208 87.7186 5.86899C88.1344 5.92634 88.5501 5.97413 88.9562 6.03148C89.372 6.08883 89.7781 6.14619 90.1939 6.20354C90.542 6.25133 90.8998 6.28956 91.2575 6.31824C91.8763 6.37559 92.4855 6.43294 93.1043 6.48074C93.2881 6.49985 93.4718 6.49985 93.6555 6.51897C94.9898 6.62412 96.3242 6.73882 97.6585 6.68147C98.4998 6.64323 99.341 6.58588 100.182 6.51897C100.666 6.48074 101.149 6.40427 101.633 6.33736C102.087 6.27045 102.532 6.19398 102.986 6.12707C103.015 6.11751 103.044 6.11751 103.073 6.10795C103.586 5.96457 104.098 5.84031 104.611 5.67781C105.017 5.54399 105.423 5.3815 105.829 5.22856C106.525 4.98003 107.173 4.60725 107.821 4.24402C108.043 4.11976 108.256 3.96682 108.488 3.833C108.662 3.73741 108.836 3.65139 109.068 3.53668C109.02 3.61315 109.01 3.65139 108.981 3.68006C108.053 4.47343 107.105 5.24768 105.993 5.80208C105.307 6.14619 104.591 6.4425 103.856 6.67191C103.489 6.78661 103.131 6.92999 102.754 7.03514C102.396 7.13072 102.029 7.20719 101.671 7.2741C101.323 7.35057 100.975 7.41748 100.627 7.47483C100.26 7.54174 99.9018 7.60865 99.5344 7.64689C98.9639 7.7138 98.3934 7.78071 97.8326 7.81894C96.5562 7.90497 95.2799 7.93365 94.0036 7.88585C92.9109 7.83806 91.828 7.79983 90.745 7.65645C89.8458 7.54174 88.9466 7.45572 88.0473 7.34101C87.4865 7.2741 86.9354 7.16896 86.3746 7.09249C85.9008 7.02558 85.427 6.96823 84.9532 6.89176C84.2667 6.77705 83.5802 6.66235 82.9033 6.53809C82.3038 6.43294 81.7043 6.31824 81.1048 6.20354C80.6311 6.10795 80.1573 6.00281 79.6835 5.89766C78.9679 5.74472 78.2428 5.60134 77.5272 5.43885C76.8697 5.29547 76.2219 5.14253 75.5644 4.99915C75.0809 4.89401 74.5975 4.79842 74.1237 4.68372C73.7079 4.58813 73.3018 4.47343 72.8957 4.36828C72.4509 4.25358 71.9964 4.13888 71.5517 4.02417C71.1069 3.90947 70.6524 3.80432 70.2076 3.68962C69.5888 3.54624 68.9603 3.40286 68.3415 3.25948C67.829 3.14478 67.3165 3.02052 66.8137 2.90581C66.34 2.80067 65.8662 2.69552 65.3924 2.59038C64.8606 2.47568 64.3288 2.35141 63.7873 2.23671C63.4585 2.1698 63.1201 2.10289 62.7914 2.03598C62.4239 1.95951 62.0662 1.87348 61.7084 1.80657C61.3893 1.73966 61.0702 1.69187 60.7512 1.63452C60.3837 1.56761 60.026 1.48158 59.6585 1.41467C59.3975 1.36688 59.1267 1.31908 58.8657 1.26173C58.4596 1.18526 58.0631 1.09924 57.657 1.02277C57.4056 0.974973 57.1542 0.92718 56.9028 0.898504C56.4484 0.831594 55.9842 0.774243 55.5201 0.716891C55.0173 0.659539 54.5048 0.611746 53.9924 0.573512C52.9094 0.506601 51.8361 0.439691 50.7532 0.391898C50.1634 0.363222 49.5639 0.353663 48.9644 0.344105C48.887 0.344105 48.8193 0.344105 48.742 0.344105C48.7227 0.30587 48.7227 0.286753 48.7227 0.277194Z" fill="#FF383C"/>
<path d="M17.2984 22.4532C17.2114 23.0458 17.3178 23.648 17.2307 24.2693C16.7473 24.298 16.2638 24.2884 15.7514 24.2789C15.7417 24.1833 15.732 24.1068 15.732 24.0304C15.732 23.5716 15.732 23.1127 15.732 22.6539C15.732 22.5775 15.7224 22.501 15.7224 22.415C15.645 22.4054 15.587 22.3863 15.529 22.3958C12.8506 22.4914 10.1626 22.4341 7.47451 22.4532C7.20378 22.4532 6.93304 22.415 6.67197 22.3863C6.25619 22.3289 5.99513 22.0613 5.82108 21.7172C5.68571 21.44 5.60836 21.1437 5.61803 20.8282C5.62769 20.5893 5.60836 20.3503 5.61803 20.1209C5.63736 19.8915 5.64703 19.6621 5.71472 19.4422C5.85009 19.0408 6.12082 18.7731 6.5366 18.6393C6.75899 18.5724 6.97172 18.5533 7.20378 18.5533C9.74678 18.5437 12.2898 18.5246 14.8328 18.515C17.6755 18.515 20.5279 18.515 23.3707 18.5246C24.2893 18.5246 25.2078 18.5342 26.1264 18.5533C26.4165 18.5628 26.6872 18.6489 26.929 18.8114C27.3254 19.079 27.4608 19.49 27.4801 19.9202C27.4995 20.379 27.4801 20.8378 27.4124 21.287C27.3351 21.8414 27.0063 22.2238 26.4262 22.3385C26.1844 22.3863 25.933 22.4245 25.6913 22.4245C23.9992 22.4341 22.3071 22.4245 20.615 22.4245C19.5417 22.4245 18.4684 22.4245 17.3855 22.4245C17.3758 22.4341 17.3564 22.4436 17.2984 22.4532ZM17.2888 19.6716C17.2791 19.8055 17.2598 19.9297 17.2598 20.0444C17.2501 20.3312 17.2501 20.6275 17.2501 20.9143C17.2501 21.3348 17.2598 21.287 17.6369 21.287C20.1315 21.287 22.6358 21.2966 25.1305 21.2966C25.2465 21.2966 25.3626 21.2966 25.4786 21.287C25.701 21.2679 25.7977 21.1723 25.8363 20.9621C25.8944 20.6562 25.9137 20.3599 25.8557 20.054C25.8073 19.7863 25.7203 19.7003 25.4496 19.6908C25.2852 19.6812 25.1208 19.6812 24.9661 19.6812C22.8969 19.6812 20.818 19.6812 18.7488 19.6812C18.275 19.6716 17.8012 19.6716 17.2888 19.6716ZM15.732 19.6908C15.645 19.6908 15.558 19.6812 15.471 19.6812C14.4267 19.6812 13.3824 19.6812 12.3381 19.6812C10.8781 19.6812 9.41803 19.6812 7.95798 19.6908C7.80327 19.6908 7.64856 19.7099 7.49385 19.729C7.36815 19.7385 7.28113 19.815 7.24245 19.9297C7.12642 20.2929 7.08775 20.6562 7.22311 21.029C7.27146 21.1532 7.33915 21.2297 7.46484 21.2393C7.6679 21.2584 7.86128 21.287 8.06434 21.287C10.5493 21.2966 13.044 21.2966 15.529 21.2966C15.587 21.2966 15.645 21.287 15.7224 21.287C15.732 20.7613 15.732 20.2356 15.732 19.6908Z" fill="#1A1A1A"/>
<path d="M90.3875 24.2693C89.846 24.2693 89.3432 24.2693 88.8114 24.2693C88.8114 23.6385 88.8114 23.0267 88.8114 22.3958C88.7631 22.3863 88.7244 22.3672 88.6857 22.3672C86.0364 22.3863 83.3773 22.4054 80.728 22.4245C79.703 22.4341 78.6684 22.4245 77.6435 22.4341C77.5951 22.4341 77.5468 22.4341 77.5081 22.4341C77.4114 22.4341 77.3727 22.4914 77.3631 22.5774C77.3631 22.6348 77.3631 22.6826 77.3631 22.7399C77.3631 23.1796 77.3534 23.6098 77.3534 24.0495C77.3534 24.1164 77.3534 24.1833 77.3534 24.2693C76.8603 24.3076 76.3865 24.2884 75.8934 24.2789C75.8837 24.2024 75.874 24.1451 75.874 24.0877C75.874 22.7017 75.8837 21.3157 75.8837 19.9393C75.8837 19.6238 75.9804 19.3562 76.1834 19.1172C76.3768 18.8878 76.5509 18.6584 76.8603 18.5915C76.9666 18.5628 77.073 18.5437 77.1794 18.5437C78.3203 18.5342 79.471 18.515 80.6119 18.515C83.1453 18.515 85.6689 18.515 88.2023 18.515C88.531 18.515 88.8694 18.515 89.1982 18.5533C89.9427 18.6297 90.4939 19.0886 90.4939 19.901C90.4939 20.3981 90.4552 20.8951 90.4455 21.3922C90.4262 22.2238 90.4165 23.0554 90.4068 23.887C90.4068 24.0017 90.3972 24.1164 90.3875 24.2693ZM88.8598 21.287C88.8598 20.876 88.8694 20.4937 88.8598 20.1113C88.8501 19.6907 88.8404 19.6907 88.3957 19.6907C85.5142 19.6812 82.6231 19.6716 79.7417 19.6716C79.1422 19.6716 78.5524 19.6812 77.9529 19.7003C77.6628 19.7099 77.4888 19.8246 77.4598 20.0827C77.4211 20.4268 77.4211 20.7709 77.4114 21.115C77.4114 21.2106 77.4694 21.2679 77.5661 21.2775C77.7015 21.287 77.8272 21.2966 77.9626 21.2966C81.5305 21.2966 85.1081 21.3062 88.6761 21.3062C88.7437 21.2966 88.8018 21.2966 88.8598 21.287Z" fill="#1A1A1A"/>
<path d="M35.8244 24.2789C34.0066 24.2789 32.1887 24.2789 30.3709 24.2789C30.2742 24.2789 30.1872 24.2789 30.0905 24.2789C29.5587 24.2789 29.1623 24.0112 28.8239 23.6576C28.6208 23.4473 28.5918 23.1796 28.5918 22.912C28.6015 22.4723 28.6111 22.0422 28.6208 21.6025C28.6305 21.0385 28.6208 20.4746 28.6305 19.901C28.6401 19.318 29.0269 18.8209 29.5877 18.6297C29.9261 18.515 30.2742 18.515 30.6223 18.515C33.2814 18.5055 35.9404 18.5055 38.5994 18.4959C39.3923 18.4959 40.1755 18.4959 40.9684 18.5055C41.2971 18.5055 41.6162 18.515 41.9353 18.5533C42.4671 18.6202 42.9022 18.8783 43.144 19.3658C43.2116 19.4996 43.2407 19.6621 43.2407 19.8055C43.2407 20.3407 43.2116 20.876 43.202 21.4113C43.1923 21.9657 43.1826 22.5297 43.1826 23.0841C43.1826 23.476 42.9893 23.7436 42.6605 23.9443C42.3317 24.1451 41.974 24.2598 41.5872 24.2693C41.0457 24.2789 40.5043 24.2789 39.9628 24.2789C38.5898 24.2789 37.2071 24.2789 35.8244 24.2789ZM35.8727 23.1223C36.3078 23.1223 36.7429 23.1223 37.1684 23.1223C38.4447 23.1223 39.7211 23.1319 40.9974 23.1319C41.4712 23.1319 41.6742 22.9311 41.7032 22.4627C41.7032 22.4245 41.7032 22.3863 41.7032 22.348C41.7032 21.7841 41.7032 21.2201 41.6936 20.6562C41.6936 20.4554 41.6839 20.2547 41.6549 20.0635C41.6259 19.8246 41.4905 19.7194 41.2585 19.6907C41.1714 19.6812 41.0844 19.6812 41.0071 19.6812C40.5719 19.6812 40.1368 19.6812 39.7114 19.6812C37.033 19.6812 34.345 19.6812 31.6666 19.6812C31.3379 19.6812 31.0188 19.6812 30.69 19.6907C30.4676 19.7003 30.3709 19.7672 30.3032 19.9775C30.2742 20.0827 30.2452 20.1974 30.2356 20.3121C30.2066 21.0003 30.1872 21.6885 30.1679 22.3767C30.1679 22.501 30.1872 22.6252 30.2259 22.7399C30.2936 22.998 30.458 23.1223 30.7287 23.1319C30.8641 23.1319 30.9898 23.1414 31.1251 23.1414C32.7109 23.1223 34.287 23.1223 35.8727 23.1223Z" fill="#1A1A1A"/>
<path d="M45.9288 22.4819C45.9095 23.0745 45.8998 23.6576 45.8805 24.2311C45.7161 24.298 44.8555 24.3171 44.3817 24.2598C44.3817 24.1833 44.3721 24.1068 44.3721 24.0208C44.3817 22.6444 44.3914 21.2679 44.4011 19.8915C44.4011 19.4996 44.4011 19.1077 44.4107 18.7253C44.4107 18.5055 44.4301 18.4959 44.6525 18.4959C46.2866 18.4959 47.911 18.4864 49.5451 18.4864C51.0728 18.4864 52.6102 18.4768 54.138 18.4768C55.1629 18.4768 56.1782 18.4864 57.2031 18.5055C57.5512 18.515 57.8896 18.5628 58.2184 18.7062C58.6535 18.8878 58.8856 19.2319 58.9726 19.6621C59.0983 20.2738 59.0403 20.8856 58.8856 21.4782C58.7599 21.9561 58.4021 22.2047 57.9573 22.3576C57.6672 22.4627 57.3675 22.4819 57.0677 22.4819C55.7431 22.4914 54.4281 22.501 53.1034 22.501C50.9085 22.501 48.7135 22.4914 46.5186 22.4914C46.3253 22.4819 46.1415 22.4819 45.9288 22.4819ZM45.9288 21.2584C46.0545 21.2679 46.1705 21.287 46.2866 21.287C46.625 21.287 46.9634 21.287 47.3115 21.287C50.4153 21.287 53.5095 21.287 56.6133 21.287C56.7777 21.287 56.9324 21.2679 57.0968 21.2584C57.2225 21.2488 57.2998 21.1819 57.3095 21.0576C57.3288 20.6944 57.3578 20.3216 57.3578 19.9584C57.3578 19.7959 57.2901 19.729 57.1161 19.7003C56.9614 19.6812 56.8067 19.6812 56.652 19.6812C55.5497 19.6812 54.4377 19.6812 53.3354 19.6812C50.9568 19.6812 48.5878 19.6812 46.2092 19.6812C46.1222 19.6812 46.0352 19.6908 45.9288 19.7003C45.9288 20.2356 45.9288 20.7326 45.9288 21.2584Z" fill="#1A1A1A"/>
<path d="M74.7328 18.5437C74.7328 18.9261 74.7328 19.2893 74.7328 19.6621C74.6652 19.6716 74.6071 19.6812 74.5588 19.6812C70.7008 19.6812 66.8428 19.6812 62.9847 19.6812C62.685 19.6812 62.3853 19.6907 62.0758 19.7003C61.8438 19.7099 61.7858 19.7481 61.7568 19.9775C61.7181 20.1974 61.6987 20.4172 61.6891 20.637C61.6794 21.2297 61.6697 21.8319 61.6697 22.4245C61.6697 22.5774 61.6794 22.7304 61.7181 22.8833C61.7664 23.0936 61.8244 23.1318 62.0372 23.1414C62.2209 23.151 62.4046 23.151 62.598 23.151C65.8662 23.151 69.144 23.151 72.4122 23.151C73.0891 23.151 73.7562 23.1605 74.4331 23.1701C74.4911 23.1701 74.5394 23.1701 74.5975 23.1796C74.6845 23.1796 74.7328 23.2274 74.7328 23.3039C74.7232 23.5907 74.7135 23.887 74.6942 24.1737C74.6845 24.2598 74.6168 24.2884 74.5395 24.2884C74.3944 24.2884 74.2494 24.2884 74.0947 24.2884C70.5364 24.2884 66.9781 24.2884 63.4199 24.2884C62.8107 24.2884 62.2015 24.2884 61.5827 24.2884C61.1766 24.2789 60.8092 24.1546 60.4998 23.887C60.3064 23.7149 60.1613 23.5333 60.1227 23.2752C60.0936 23.0458 60.0453 22.8164 60.055 22.5966C60.055 21.8032 60.0743 21.0098 60.1033 20.2165C60.113 19.9488 60.1517 19.6812 60.229 19.4327C60.345 19.0503 60.6255 18.8114 61.0026 18.668C61.2056 18.5915 61.4183 18.5724 61.6407 18.5724C64.2224 18.5724 66.8041 18.5628 69.3858 18.5533C71.0585 18.5533 72.7313 18.5533 74.3944 18.5533C74.5104 18.515 74.6168 18.5342 74.7328 18.5437Z" fill="#1A1A1A"/>
<path d="M112.821 24.2789C112.792 23.9061 112.753 23.5524 112.724 23.2083C112.705 22.8642 112.705 22.8547 112.337 22.8547C110.345 22.8642 108.363 22.8642 106.371 22.8738C105.694 22.8738 105.008 22.8738 104.331 22.8833C104.147 22.8833 104.138 22.9025 104.128 23.0841C104.118 23.4091 104.109 23.7245 104.099 24.0495C104.099 24.1068 104.089 24.1642 104.08 24.2215C104.051 24.2407 104.031 24.2598 104.012 24.2598C103.645 24.2598 103.267 24.2693 102.9 24.2598C102.658 24.2502 102.639 24.2215 102.629 23.9826C102.62 23.7341 102.629 23.476 102.629 23.2274C102.629 23.1127 102.629 22.998 102.629 22.8738C99.8059 22.8929 97.0018 22.9025 94.159 22.9216C94.1107 23.1605 94.072 23.3804 94.0333 23.5907C93.9947 23.8105 93.9657 24.0304 93.927 24.2789C93.4435 24.3076 92.9601 24.2885 92.4766 24.2789C92.4573 24.2502 92.4379 24.2407 92.4379 24.2311C92.3992 23.7245 92.3606 23.2179 92.5153 22.7304C92.6603 22.2811 92.9794 21.9753 93.4532 21.8701C93.6756 21.8223 93.9173 21.8032 94.1397 21.8128C95.9478 21.8223 97.756 21.8319 99.5641 21.8414C102.484 21.851 105.395 21.851 108.315 21.8606C109.813 21.8606 111.312 21.8701 112.811 21.8701C112.927 21.8701 113.043 21.8892 113.159 21.8892C113.555 21.8797 113.749 22.1186 113.865 22.4436C113.923 22.5966 113.962 22.7495 113.971 22.912C113.981 23.2944 113.981 23.6767 113.962 24.059C113.952 24.2502 113.913 24.2885 113.72 24.2885C113.449 24.2885 113.159 24.2789 112.821 24.2789Z" fill="#1A1A1A"/>
<path d="M102.687 18.4577C103.199 18.4577 103.692 18.4577 104.215 18.4577C104.224 18.5342 104.224 18.5915 104.224 18.6584C104.215 18.9834 104.205 19.2988 104.195 19.6238C104.186 19.8724 104.186 19.8724 104.456 19.8819C104.785 19.8819 105.104 19.8819 105.433 19.8819C107.695 19.8819 109.968 19.8819 112.23 19.8819C112.308 19.8819 112.385 19.8819 112.462 19.8819C112.636 19.8724 112.704 19.7959 112.733 19.6334C112.791 19.2606 112.849 18.8783 112.907 18.4768C113.246 18.429 113.603 18.4672 113.961 18.4768C113.971 18.5246 113.99 18.5628 113.99 18.6011C114 19.1746 114.009 19.7481 113.922 20.3216C113.913 20.379 113.913 20.4268 113.893 20.4746C113.835 20.6179 113.758 20.7231 113.594 20.7613C113.294 20.8473 112.994 20.8473 112.694 20.8473C109.707 20.8473 106.729 20.8473 103.741 20.8569C101.062 20.8569 98.3937 20.8665 95.7153 20.8665C95.1738 20.8665 94.6323 20.8856 94.0909 20.8856C93.9168 20.8856 93.7524 20.876 93.5784 20.8569C93.0369 20.8091 92.7178 20.4841 92.5341 20.0062C92.4181 19.7194 92.3988 19.4231 92.4084 19.1268C92.4181 18.9547 92.4374 18.7922 92.4374 18.6202C92.4374 18.5055 92.4858 18.4481 92.6018 18.4481C93.0176 18.4481 93.4334 18.4386 93.8588 18.4386C94.0232 18.4386 94.0425 18.4672 94.0522 18.6297C94.0812 18.9452 94.1102 19.2511 94.1392 19.5665C94.1585 19.8055 94.1682 19.815 94.4196 19.8341C94.7097 19.8532 95.0094 19.8628 95.2995 19.8628C97.6588 19.8724 100.018 19.8724 102.377 19.8724C102.397 19.8724 102.406 19.8724 102.426 19.8724C102.629 19.8724 102.648 19.8437 102.658 19.6525C102.658 19.2988 102.667 18.9452 102.677 18.6011C102.677 18.5533 102.677 18.515 102.687 18.4577Z" fill="#1A1A1A"/>
<path d="M62.4631 33.3213C62.4631 32.6905 62.4631 32.0692 62.4631 31.4383C62.4631 30.817 62.4728 30.1861 62.4824 29.5361C62.7532 29.4979 62.9949 29.5074 63.2753 29.517C63.314 30.989 63.256 32.4419 63.227 33.8949C63.0723 33.9522 62.9272 33.9426 62.7918 33.9426C61.7669 33.9426 60.7323 33.9331 59.7074 33.9235C58.9145 33.9235 58.1313 33.9235 57.3384 33.914C57.2611 33.914 57.1837 33.9044 57.0967 33.8949C57.0967 32.4324 57.0967 30.9986 57.0967 29.5361C57.3094 29.4788 57.5318 29.5074 57.7929 29.4883C57.7929 29.5839 57.7929 29.6604 57.7929 29.7273C57.7832 30.7692 57.7735 31.8111 57.7639 32.8434C57.7639 33.3118 57.7735 33.3213 58.2376 33.3309C58.7211 33.3405 59.1949 33.3405 59.6784 33.3405C59.7267 33.3405 59.7847 33.3309 59.8621 33.3213C59.8331 32.05 59.8427 30.7883 59.8524 29.5074C60.0845 29.4883 60.2778 29.4788 60.4906 29.4597C60.5002 29.517 60.5292 29.5744 60.5292 29.6222C60.5292 30.7214 60.5196 31.8206 60.5099 32.9199C60.5099 32.9963 60.5099 33.0728 60.5099 33.1493C60.5099 33.264 60.5679 33.3405 60.6936 33.3405C61.2448 33.3405 61.7959 33.3405 62.3374 33.3309C62.3761 33.3596 62.4147 33.3405 62.4631 33.3213Z" fill="#FF383C"/>
<path d="M18.7772 29.5457C18.9029 29.5361 18.9803 29.517 19.0673 29.517C19.9666 29.5074 20.8755 29.4979 21.7747 29.4883C22.0068 29.4883 22.2388 29.5074 22.4709 29.5361C23.2154 29.6508 23.7956 30.6449 23.2348 31.4478C23.0317 31.7346 23.022 31.8206 23.2348 32.0978C23.6022 32.5758 23.4862 33.0728 23.1477 33.4552C23.0994 33.5029 23.0607 33.5603 23.0027 33.6081C22.8093 33.7897 22.5966 33.9044 22.3258 33.914C22.0744 33.9235 21.8134 33.9235 21.562 33.9235C20.8465 33.9235 20.1213 33.9235 19.4057 33.9235C19.2704 33.9235 19.1253 33.9235 18.99 33.914C18.8739 33.914 18.8063 33.8662 18.8063 33.7324C18.7966 33.4647 18.7676 33.1971 18.7676 32.9294C18.7676 31.9353 18.7772 30.9412 18.7869 29.9471C18.7772 29.842 18.7772 29.7082 18.7772 29.5457ZM20.7401 30.1096C20.7401 30.1192 20.7401 30.1192 20.7401 30.1096C20.3727 30.1096 20.0149 30.1096 19.6475 30.1096C19.4154 30.1096 19.3767 30.1383 19.3671 30.3677C19.3574 30.6354 19.3671 30.903 19.3574 31.1706C19.3574 31.2854 19.4057 31.3427 19.5218 31.3523C19.7538 31.3714 19.9859 31.4192 20.218 31.4192C20.8561 31.4287 21.4846 31.4287 22.1228 31.4192C22.2485 31.4192 22.3742 31.4001 22.4806 31.3618C22.5579 31.3331 22.6353 31.2758 22.6643 31.2089C22.761 30.9986 22.79 30.7692 22.7126 30.5398C22.6643 30.3964 22.5676 30.2817 22.4129 30.2435C22.2001 30.1861 21.9971 30.1288 21.7844 30.1192C21.4363 30.1001 21.0882 30.1096 20.7401 30.1096ZM20.9141 32.05C20.9141 32.0596 20.9141 32.0692 20.9141 32.0692C20.4887 32.05 20.0633 32.0405 19.6378 32.0214C19.3767 32.0118 19.3381 32.0405 19.3381 32.2986C19.3381 32.4993 19.3381 32.7 19.3381 32.8912C19.3477 33.3022 19.3477 33.3213 19.7635 33.3213C20.4984 33.3309 21.2332 33.3309 21.9681 33.3309C22.0841 33.3309 22.2001 33.3118 22.3162 33.2927C22.4709 33.264 22.5869 33.1684 22.6546 33.0346C22.7126 32.9294 22.761 32.8052 22.7803 32.6905C22.8383 32.3655 22.6449 32.1074 22.3162 32.0978C21.8424 32.0787 21.3783 32.0692 20.9141 32.05Z" fill="#FF383C"/>
<path d="M9.68793 33.9809C9.67826 33.8949 9.66859 33.8279 9.66859 33.7706C9.66859 33.4838 9.67826 33.2066 9.67826 32.9199C9.67826 32.7 9.66859 32.6905 9.43653 32.6905C8.62432 32.7 7.8121 32.7 6.99989 32.7096C6.89353 32.7096 6.78717 32.7 6.67114 32.7C6.44875 32.6905 6.41974 32.7096 6.41007 32.9199C6.4004 33.1971 6.4004 33.4743 6.39073 33.7419C6.39073 33.7993 6.38106 33.8566 6.37139 33.9331C6.11032 33.9427 5.86859 33.9618 5.60752 33.9713C5.59785 33.9044 5.57852 33.8471 5.57852 33.7897C5.57852 32.853 5.56885 31.9258 5.57852 30.989C5.57852 30.6449 5.63653 30.3104 5.87826 30.0236C6.12966 29.7273 6.44874 29.5457 6.83551 29.517C7.36732 29.4788 7.89913 29.4597 8.43093 29.4405C8.80803 29.431 9.17546 29.5075 9.51389 29.6413C10.036 29.842 10.3358 30.2339 10.3744 30.7883C10.3938 31.1324 10.3841 31.4956 10.3551 31.8398C10.3164 32.1839 10.3261 32.528 10.3551 32.8721C10.3841 33.178 10.3841 33.4838 10.3938 33.7897C10.3938 33.9618 10.3744 33.9809 10.2101 33.9809C10.065 33.9904 9.88131 33.9809 9.68793 33.9809ZM8.0635 32.0309C8.4116 32.0309 8.75969 32.0309 9.10778 32.0309C9.24315 32.0309 9.36885 32.0214 9.50422 32.0214C9.62992 32.0214 9.70727 31.9449 9.71694 31.8206C9.74595 31.4479 9.78462 31.0751 9.67826 30.7023C9.62025 30.492 9.50422 30.3295 9.28182 30.253C9.05943 30.1766 8.84671 30.1001 8.61465 30.1001C8.25689 30.1001 7.89913 30.0905 7.55104 30.1001C7.35765 30.1096 7.16427 30.1383 6.98055 30.1861C6.60345 30.2817 6.39073 30.5398 6.37139 30.9221C6.36172 31.1802 6.36172 31.4383 6.38106 31.6964C6.39073 31.964 6.42941 31.9831 6.70014 32.0023C6.79684 32.0118 6.9032 32.0118 6.99989 32.0118C7.35765 32.0309 7.70574 32.0309 8.0635 32.0309Z" fill="#FF383C"/>
<path d="M47.0601 34C46.6443 33.9809 46.2285 33.9618 45.8128 33.9426C45.3293 33.914 44.9812 33.675 44.7395 33.2544C44.5558 32.939 44.4688 32.6044 44.4688 32.2508C44.4688 31.8493 44.4881 31.4383 44.5171 31.0368C44.5461 30.7118 44.6331 30.406 44.8362 30.1383C45.1166 29.7464 45.484 29.4788 45.9868 29.4692C46.5283 29.4501 47.0698 29.4501 47.6112 29.4692C47.9593 29.4883 48.2881 29.5935 48.5975 29.7751C48.9263 29.9663 49.1196 30.2435 49.2067 30.5971C49.2647 30.8265 49.3034 31.0655 49.313 31.2949C49.3324 31.6677 49.3227 32.0405 49.313 32.4133C49.3034 32.6044 49.2647 32.7956 49.2067 32.9772C48.9939 33.6081 48.4235 33.9522 47.911 33.9522C47.6306 33.9522 47.3502 33.9522 47.0794 33.9522C47.0601 33.9713 47.0601 33.9809 47.0601 34ZM46.9634 33.3882C46.9634 33.3787 46.9634 33.3691 46.9634 33.35C47.2148 33.35 47.4565 33.3596 47.7079 33.35C47.8626 33.3405 48.0077 33.3118 48.1624 33.2735C48.3074 33.2449 48.3945 33.1493 48.4525 33.0059C48.5202 32.8243 48.5588 32.6427 48.5588 32.4515C48.5492 31.9449 48.5685 31.4478 48.5492 30.9412C48.5395 30.5876 48.3364 30.3582 47.998 30.2626C47.8433 30.2243 47.6789 30.1957 47.5242 30.1861C47.0891 30.1574 46.6443 30.1383 46.2092 30.1096C46.1512 30.1096 46.0835 30.1096 46.0255 30.1288C45.6581 30.2148 45.3196 30.492 45.2616 30.9986C45.2229 31.3809 45.1939 31.7633 45.2133 32.1361C45.2229 32.4037 45.31 32.6714 45.3873 32.939C45.4453 33.1302 45.5807 33.2449 45.7934 33.264C46.1609 33.3118 46.567 33.35 46.9634 33.3882Z" fill="#FF383C"/>
<path d="M85.9692 33.9809C85.5534 33.9713 85.1376 33.9618 84.7219 33.9427C84.2191 33.914 83.871 33.6559 83.6486 33.2162C83.4359 32.7861 83.3682 32.3272 83.3778 31.8589C83.3875 31.5339 83.4069 31.1993 83.4552 30.8743C83.5035 30.5493 83.6002 30.2339 83.8226 29.9758C84.045 29.7177 84.3351 29.5839 84.6638 29.5361C85.0409 29.4788 85.418 29.4597 85.7951 29.4501C86.1046 29.4405 86.414 29.4501 86.7234 29.4692C87.0231 29.4883 87.3132 29.5744 87.584 29.7177C87.903 29.8898 88.0868 30.167 88.1738 30.5111C88.3478 31.1993 88.3381 31.9067 88.2608 32.6044C88.2028 33.1875 87.874 33.6081 87.3422 33.8566C87.2165 33.914 87.0618 33.9427 86.9168 33.9522C86.6074 33.9618 86.2979 33.9522 85.9885 33.9522C85.9692 33.9618 85.9692 33.9713 85.9692 33.9809ZM85.9015 33.3596V33.35C86.1916 33.35 86.4913 33.3596 86.7814 33.35C87.1102 33.3405 87.3326 33.1684 87.4292 32.853C87.4583 32.7478 87.4969 32.6331 87.4969 32.5184C87.4969 32.0023 87.5066 31.4765 87.4873 30.9604C87.4776 30.817 87.4292 30.6545 87.3712 30.5207C87.2552 30.2817 87.0618 30.1096 86.7814 30.0905C86.2399 30.0619 85.6985 30.0427 85.1666 30.0427C84.6542 30.0427 84.3158 30.3391 84.2191 30.8361C84.1417 31.2471 84.0934 31.6677 84.1224 32.0883C84.1417 32.3559 84.2094 32.6331 84.2868 32.8912C84.3448 33.0919 84.4898 33.2353 84.7025 33.2831C84.8669 33.3213 85.0313 33.3405 85.2053 33.35C85.4374 33.3691 85.6695 33.3596 85.9015 33.3596Z" fill="#FF383C"/>
<path d="M101.314 33.9904C101.024 33.9904 100.791 33.9904 100.53 33.9904C100.521 33.9044 100.511 33.8279 100.511 33.761C100.511 32.6522 100.521 31.5434 100.521 30.4346C100.521 30.4155 100.521 30.406 100.521 30.3868C100.53 30.1096 100.521 30.1001 100.24 30.1001C99.5055 30.1001 98.7706 30.1001 98.0358 30.1096C97.9391 30.1096 97.852 30.1288 97.7553 30.1383C97.4073 30.2052 97.2719 30.3486 97.2525 30.6927C97.2332 31.0368 97.2332 31.3809 97.2332 31.7251C97.2332 32.3942 97.2429 33.0728 97.2429 33.7419C97.2429 33.8184 97.2332 33.8949 97.2332 33.9809C96.9721 33.9809 96.7207 33.9809 96.45 33.9809C96.4403 33.9331 96.4307 33.8853 96.4307 33.8279C96.45 32.7765 96.4597 31.7155 96.479 30.664C96.479 30.4824 96.5564 30.3199 96.6531 30.1766C96.7111 30.0905 96.7691 30.0141 96.8368 29.9376C97.0398 29.6795 97.3009 29.5266 97.649 29.5266C98.2968 29.5266 98.9447 29.5075 99.6022 29.5075C100.057 29.5075 100.511 29.5075 100.975 29.517C101.062 29.517 101.159 29.5266 101.265 29.5361C101.323 31.0273 101.294 32.4993 101.314 33.9904Z" fill="#FF383C"/>
<path d="M110.229 32.6809C110.219 32.7765 110.209 32.8625 110.209 32.939C110.219 33.2066 110.229 33.4743 110.229 33.7419C110.238 33.9331 110.219 33.9618 110.026 33.9713C109.881 33.9809 109.736 33.9713 109.571 33.9713C109.571 33.8949 109.571 33.8184 109.571 33.7419C109.591 32.8339 109.6 31.9258 109.62 31.0177C109.62 30.8839 109.62 30.7596 109.639 30.6258C109.697 30.0332 110.074 29.6317 110.664 29.5648C111.37 29.4788 112.085 29.4788 112.791 29.5648C112.985 29.5839 113.188 29.6413 113.381 29.6986C113.797 29.8133 113.951 30.1192 113.971 30.5111C113.99 30.9795 113.98 31.4479 113.98 31.9067C113.98 32.4897 113.971 33.0728 113.951 33.6463C113.942 33.9713 113.932 33.9713 113.603 33.9522C113.584 33.9522 113.565 33.9426 113.507 33.9235C113.507 33.7993 113.507 33.6559 113.507 33.5221C113.507 33.3118 113.516 33.0919 113.516 32.8816C113.516 32.7191 113.487 32.7 113.323 32.6905C113.159 32.6809 112.994 32.6905 112.839 32.6905C112.008 32.6905 111.186 32.6809 110.355 32.6809C110.325 32.6714 110.296 32.6714 110.229 32.6809ZM110.229 31.9258C110.432 31.9449 110.596 31.964 110.77 31.9736C111.544 31.9831 112.317 31.9927 113.091 32.0023C113.188 32.0023 113.275 31.9927 113.371 31.9927C113.478 31.9927 113.536 31.9449 113.526 31.8398C113.526 31.4574 113.536 31.0751 113.507 30.6927C113.497 30.4824 113.371 30.3199 113.139 30.2817C112.946 30.253 112.762 30.1957 112.569 30.1766C111.989 30.1096 111.408 30.1096 110.838 30.1861C110.49 30.2339 110.345 30.3582 110.267 30.6927C110.18 31.0942 110.209 31.4956 110.229 31.9258Z" fill="#FF383C"/>
<path d="M75.0909 29.4883C75.1102 29.6413 75.0232 29.7177 74.9458 29.7846C74.5784 30.1096 74.2013 30.4346 73.8339 30.7596C73.5148 31.0464 73.1957 31.3331 72.8766 31.6295C72.7606 31.7442 72.7703 31.8206 72.896 31.9353C73.6212 32.5566 74.3367 33.1875 75.0619 33.8088C75.0909 33.8375 75.1199 33.8757 75.1779 33.9331C74.8298 33.9522 74.5204 34.0382 74.211 33.914C74.1143 33.8757 74.0273 33.7993 73.9499 33.7324C73.5438 33.3596 73.1377 32.9772 72.7316 32.5949C72.5769 32.4515 72.4319 32.3081 72.2675 32.1839C72.1901 32.1265 72.0934 32.0692 72.0064 32.0596C71.7357 32.0309 71.4649 32.0214 71.1749 32.0022C71.1652 32.1169 71.1362 32.2125 71.1362 32.3081C71.1362 32.7574 71.1362 33.2066 71.1362 33.6654C71.1362 33.7515 71.1265 33.8471 71.1265 33.9522C70.8848 33.9522 70.6527 33.9522 70.3917 33.9522C70.382 32.4993 70.411 31.0464 70.4013 29.5839C70.6334 29.4979 70.8654 29.5648 71.1072 29.5361C71.1168 29.6126 71.1362 29.6699 71.1362 29.7177C71.1362 30.167 71.1265 30.6162 71.1265 31.0751C71.1265 31.1993 71.1459 31.3236 71.1555 31.4574C71.5326 31.467 71.8904 31.4861 72.2191 31.3618C72.3932 31.2949 72.5479 31.1706 72.6833 31.0368C73.0797 30.664 73.4665 30.2721 73.8436 29.8802C74.0273 29.6986 74.2303 29.5839 74.4914 29.5552C74.6945 29.517 74.8878 29.5074 75.0909 29.4883Z" fill="#FF383C"/>
<path d="M31.5215 30.0905C31.5215 29.8898 31.5215 29.7273 31.5215 29.5457C31.6182 29.5361 31.6955 29.5266 31.7826 29.5266C33.1846 29.517 34.577 29.517 35.979 29.5075C36.2207 29.5075 36.2401 29.517 36.2401 29.7655C36.2401 29.8611 36.2401 29.9663 36.2401 30.0905C36.1337 30.1001 36.0467 30.1192 35.9597 30.1192C35.5052 30.1192 35.0507 30.1096 34.5866 30.1001C34.4706 30.1001 34.3642 30.1096 34.2192 30.1192C34.1902 30.7787 34.2192 31.4192 34.2095 32.0596C34.1999 32.6905 34.2095 33.3213 34.1999 33.9809C33.9678 33.9809 33.7647 33.9809 33.5327 33.9809C33.523 33.9331 33.5133 33.8757 33.5133 33.8184C33.5133 32.6618 33.523 31.5148 33.523 30.3582C33.523 30.1096 33.5133 30.1096 33.2523 30.1096C32.7495 30.1096 32.2467 30.1096 31.7439 30.1096C31.6955 30.1001 31.6182 30.1001 31.5215 30.0905Z" fill="#FF383C"/>
</g>
<defs>
<clipPath id="clip0_2001_206">
<rect width="114" height="34" fill="white"/>
</clipPath>
</defs>
</svg>
