<svg width="114" height="34" viewBox="0 0 114 34" fill="none" xmlns="http://www.w3.org/2000/svg">
<g clip-path="url(#clip0_2001_3476)">
<path d="M107.821 8.27817C107.705 8.34508 107.599 8.42155 107.483 8.48846C106.932 8.81346 106.4 9.16712 105.839 9.46344C105.298 9.74064 104.737 9.97005 104.176 10.209C103.422 10.5244 102.629 10.7347 101.846 10.945C101.459 11.0502 101.063 11.1075 100.666 11.184C100.482 11.2222 100.299 11.2509 100.125 11.2796C99.8443 11.3274 99.5639 11.3943 99.2835 11.4325C98.9257 11.4803 98.568 11.5281 98.2005 11.5568C95.5415 11.7384 92.8825 11.7288 90.2234 11.6428C89.4209 11.6237 88.6183 11.5663 87.8158 11.509C87.139 11.4516 86.4621 11.356 85.7853 11.2891C85.3211 11.2413 84.857 11.2222 84.4026 11.1649C83.8611 11.098 83.3196 11.0024 82.7781 10.9259C82.3624 10.8686 81.9466 10.8208 81.5405 10.773C81.2988 10.7443 81.0474 10.7156 80.8056 10.6774C80.3028 10.6009 79.8 10.5053 79.2972 10.4289C79.0748 10.3906 78.8524 10.362 78.6301 10.3237C77.9629 10.2186 77.3054 10.123 76.6382 10.0083C76.0484 9.90314 75.4585 9.77887 74.8687 9.66417C74.4336 9.5877 73.9985 9.52079 73.5731 9.43476C73.2056 9.36785 72.8285 9.29139 72.4611 9.22447C72.0647 9.14801 71.6585 9.06198 71.2621 8.97595C70.711 8.86125 70.1598 8.73699 69.6087 8.62228C69.2509 8.54581 68.8932 8.4789 68.5451 8.40243C68.139 8.31641 67.7328 8.22082 67.3267 8.13479C66.8626 8.02965 66.3888 7.93406 65.9247 7.82892C65.4026 7.71421 64.8901 7.58995 64.368 7.47525C63.9812 7.38922 63.5944 7.32231 63.2077 7.23628C62.8209 7.15981 62.4438 7.06423 62.057 6.98776C61.6702 6.91129 61.2835 6.83482 60.8967 6.75835C60.4036 6.65321 59.9105 6.54806 59.427 6.45248C59.0015 6.36645 58.5858 6.27086 58.1603 6.18483C57.6285 6.07969 57.0967 5.97455 56.5746 5.8694C56.3232 5.82161 56.0718 5.77381 55.8204 5.72602C55.0178 5.58264 54.225 5.44882 53.4224 5.315C52.8713 5.21941 52.3298 5.13339 51.7786 5.05692C51.4016 5.00913 51.0244 4.96133 50.6474 4.94221C49.6804 4.90398 48.7135 4.84663 47.7466 4.84663C46.8377 4.84663 45.9384 4.91354 45.0489 5.10471C44.169 5.28633 43.2891 5.4775 42.4672 5.82161C42.0031 6.01278 41.5583 6.23263 41.1135 6.47159C40.456 6.82526 39.8178 7.21717 39.17 7.58995C38.9379 7.72377 38.6962 7.85759 38.4641 7.99141C38.1354 8.18259 37.8066 8.3642 37.4876 8.56493C37.3522 8.65096 37.2168 8.73699 37.1975 8.93772C37.2555 8.94728 37.2942 8.95683 37.3328 8.95683C38.7736 8.94728 40.2046 9.04286 41.6356 9.23403C42.6896 9.36785 43.7339 9.50167 44.7781 9.66417C45.8998 9.83623 47.0214 10.0274 48.1334 10.2281C48.8876 10.362 49.6321 10.5149 50.3863 10.6678C51.0825 10.8016 51.7786 10.945 52.4748 11.0884C52.9776 11.1936 53.4708 11.3083 53.9639 11.4134C54.5344 11.5281 55.0952 11.6332 55.6657 11.7479C56.0331 11.8244 56.3909 11.9104 56.7486 11.9869C57.1064 12.0634 57.4641 12.1303 57.8122 12.1972C58.2087 12.2737 58.5954 12.3597 58.9919 12.4457C59.3883 12.5318 59.7944 12.6178 60.1909 12.6943C60.5873 12.7707 60.9741 12.8472 61.3705 12.9237C61.8443 13.0097 62.3278 13.0957 62.8112 13.1722C63.5461 13.2869 64.2713 13.4111 65.0061 13.5163C65.654 13.6119 66.3115 13.6979 66.9593 13.7457C68.5741 13.8795 70.1792 13.9942 71.7939 14.0994C72.3257 14.1376 72.8575 14.1663 73.3893 14.0994C73.4473 14.0898 73.5054 14.0994 73.5731 14.1089C73.5731 14.2332 73.4957 14.2619 73.4087 14.281C72.8575 14.3766 72.3161 14.4817 71.7552 14.4913C69.773 14.5486 67.7909 14.4913 65.8183 14.3861C64.9288 14.3383 64.0489 14.2236 63.1593 14.1376C62.7049 14.0994 62.2504 14.0707 61.7959 14.0229C61.4769 13.9942 61.1481 13.9655 60.829 13.9273C60.4423 13.8795 60.0458 13.8222 59.6591 13.7648C59.0306 13.6692 58.4117 13.5641 57.7832 13.4589C57.3094 13.3825 56.8453 13.2869 56.3715 13.2009C55.9461 13.1244 55.5206 13.067 55.0952 12.981C54.6891 12.9045 54.2926 12.8281 53.8865 12.7516C53.3064 12.6369 52.7166 12.5222 52.1364 12.4075C51.4789 12.2832 50.8214 12.159 50.1542 12.0443C49.7094 11.9678 49.255 11.9104 48.8005 11.834C48.3074 11.7575 47.8239 11.681 47.3405 11.6046C46.7023 11.509 46.0545 11.4134 45.4163 11.3369C44.3624 11.2127 43.3181 11.0788 42.2641 10.9833C41.5776 10.9164 40.8911 10.8877 40.2046 10.8494C38.7445 10.7539 37.2845 10.6869 35.8245 10.7061C34.171 10.7347 32.5176 10.7634 30.8641 10.8016C30.1486 10.8208 29.4428 10.8303 28.7272 10.859C27.9247 10.8877 27.1222 10.9259 26.3196 10.9737C25.3237 11.0215 24.3278 11.0597 23.3318 11.1266C22.2392 11.1936 21.1563 11.2891 20.0733 11.3752C18.8937 11.4707 17.714 11.5759 16.5344 11.7002C15.8479 11.7766 15.1613 11.9009 14.4652 12.006C14.1171 12.0538 13.7593 12.0921 13.4112 12.1494C13.0535 12.1972 12.6957 12.2546 12.3379 12.3215C11.8158 12.4171 11.284 12.5031 10.7715 12.6273C10.027 12.809 9.29213 13.0192 8.55727 13.22C8.2962 13.2869 8.03514 13.3634 7.78374 13.4494C7.20358 13.6406 6.64277 13.87 6.09162 14.1376C5.57916 14.3861 5.06669 14.6442 4.61223 14.9883C4.05142 15.4185 3.56796 15.9251 3.23921 16.5559C3.03615 16.9478 2.90078 17.378 2.87178 17.8272C2.84277 18.5728 2.88145 19.3088 3.05549 20.0353C3.20053 20.6375 3.32623 21.2397 3.47127 21.8418C3.55829 22.2146 3.67432 22.5779 3.79035 22.9411C3.92572 23.3808 4.07076 23.8109 4.20613 24.2506C4.2448 24.394 4.30282 24.5374 4.2448 24.7286C4.17712 24.6808 4.12877 24.6616 4.0901 24.6234C3.9644 24.4609 3.84837 24.2793 3.713 24.1359C3.27788 23.6675 2.96847 23.1227 2.62038 22.597C2.0789 21.7749 1.53743 20.9625 0.995949 20.1404C0.667196 19.6434 0.367451 19.1176 0.212743 18.5441C0.0193591 17.8655 -0.0579946 17.1677 0.0386975 16.4603C0.0870435 16.1354 0.154728 15.8295 0.290097 15.5427C0.444804 15.2177 0.696204 14.9883 0.966942 14.7685C1.64379 14.2236 2.39799 13.8222 3.2102 13.4972C4.06109 13.1531 4.94099 12.8854 5.82089 12.6465C6.60409 12.4362 7.3873 12.2259 8.18984 12.1112C8.48959 12.0729 8.77 11.9678 9.06974 11.92C9.39849 11.8531 9.73692 11.8149 10.0753 11.7575C10.3461 11.7193 10.6168 11.7002 10.8779 11.6428C11.5161 11.509 12.1639 11.4516 12.8021 11.3752C13.0825 11.3465 13.3725 11.2987 13.6529 11.2605C14.0204 11.2031 14.3878 11.1362 14.7552 11.0884C15.5384 10.9928 16.3216 10.8972 17.1049 10.8208C18.1491 10.7156 19.1934 10.62 20.2473 10.5244C21.1079 10.448 21.9685 10.3524 22.829 10.2855C24.0764 10.1803 25.3237 10.1039 26.5807 10.0083C26.9384 9.97961 27.2865 9.96049 27.6443 9.92225C27.944 9.88402 28.2341 9.77888 28.4952 9.6355C29.0077 9.3583 29.5201 9.07154 30.0326 8.79434C30.2163 8.69875 30.4097 8.61272 30.5934 8.51714C31.4733 8.03921 32.3532 7.56128 33.2428 7.08334C33.9776 6.69144 34.7222 6.31866 35.457 5.93631C36.6753 5.29588 37.8743 4.63634 39.0926 4.00547C40.0982 3.48931 41.1232 3.00182 42.1965 2.61947C42.796 2.39962 43.4244 2.25624 44.0433 2.11286C45.2036 1.83566 46.3736 1.83566 47.5532 1.85478C48.5588 1.8739 49.5644 1.95993 50.5603 2.09375C51.5659 2.23713 52.5812 2.38051 53.5771 2.56212C54.2056 2.67682 54.8245 2.85844 55.4433 3.01137C55.9171 3.13564 56.4005 3.24078 56.884 3.35548C57.1934 3.43195 57.4932 3.51798 57.8026 3.59445C58.1217 3.67092 58.4504 3.73783 58.7695 3.82386C59.0499 3.89077 59.3303 3.97679 59.6204 4.05326C60.3552 4.23488 61.0901 4.41649 61.8153 4.60766C62.1924 4.70325 62.5695 4.81795 62.9563 4.91354C63.5654 5.06648 64.1842 5.20986 64.7934 5.36279C65.2092 5.46794 65.6346 5.57308 66.0504 5.67823C66.6596 5.83117 67.2591 5.97455 67.8682 6.12748C68.5547 6.29954 69.2412 6.49071 69.9278 6.66277C70.7013 6.84438 71.4748 7.01643 72.2484 7.17893C72.7802 7.29363 73.3216 7.40834 73.8535 7.52304C74.3756 7.62819 74.8977 7.74289 75.4199 7.84803C75.7776 7.9245 76.1257 8.00097 76.4835 8.06788C76.7832 8.12523 77.0733 8.17303 77.3731 8.23038C77.5664 8.26861 77.7695 8.29729 77.9629 8.33552C78.7848 8.49802 79.6163 8.65096 80.4382 8.81345C81.0377 8.92816 81.6372 9.04286 82.2367 9.14801C82.9619 9.28183 83.6774 9.42521 84.4026 9.53991C85.1954 9.67373 85.9883 9.79799 86.7812 9.91269C87.4 9.99872 88.0189 10.0656 88.6474 10.1421C88.9954 10.1803 89.3339 10.2377 89.682 10.2759C90.1267 10.3237 90.5715 10.3715 91.0163 10.4097C91.5771 10.4671 92.1379 10.5244 92.6988 10.5722C93.3949 10.6296 94.0815 10.6678 94.7776 10.7252C95.9766 10.8208 97.1756 10.7921 98.3746 10.773C98.9161 10.7634 99.4479 10.6678 99.9893 10.62C100.047 10.6105 100.096 10.6105 100.154 10.6105C100.55 10.5531 100.947 10.5053 101.343 10.448C101.614 10.4097 101.894 10.362 102.165 10.3237C102.358 10.2855 102.561 10.2568 102.755 10.209C103.064 10.1325 103.383 10.0465 103.693 9.96049C103.983 9.88402 104.273 9.82667 104.563 9.73108C104.843 9.64505 105.104 9.52079 105.385 9.41565C106.168 9.12889 106.864 8.67008 107.609 8.29729C107.676 8.26861 107.744 8.23994 107.812 8.22082C107.802 8.23994 107.812 8.25905 107.821 8.27817Z" fill="white"/>
<path d="M48.7227 0.27712C48.8677 0.248444 49.0224 0.21021 49.1674 0.200651C49.7186 0.162417 50.2601 0.143299 50.8112 0.105065C51.2463 0.076389 51.6718 0.0477132 52.1069 0.0285959C52.2713 0.0190373 52.4356 0.0190373 52.5903 0.0094787C53.8957 -0.0287558 55.201 0.0572718 56.5064 0.114624C56.9705 0.133741 57.4346 0.248444 57.8987 0.334472C58.3532 0.410941 58.8076 0.48741 59.2621 0.573437C59.8616 0.678582 60.4611 0.793285 61.0606 0.89843C61.5247 0.984458 61.9888 1.07049 62.4529 1.15651C63.0331 1.26166 63.6229 1.37636 64.2031 1.49106C64.6285 1.56753 65.054 1.65356 65.4794 1.73959C65.9822 1.83517 66.4753 1.94988 66.9781 2.04546C67.4713 2.14105 67.9644 2.21752 68.4575 2.31311C68.5832 2.33222 68.7089 2.38002 68.8443 2.39913C69.5308 2.5234 70.2076 2.65722 70.8942 2.78148C71.4743 2.88662 72.0545 2.98221 72.6249 3.09691C73.1277 3.1925 73.6209 3.31676 74.114 3.42191C74.6458 3.53661 75.1873 3.63219 75.7288 3.73734C76.1252 3.81381 76.512 3.89984 76.9084 3.98586C77.1018 4.0241 77.2855 4.05277 77.4789 4.09101C78.2234 4.23439 78.9679 4.37777 79.7028 4.52115C80.0606 4.58806 80.4087 4.68364 80.7664 4.75055C80.9985 4.79835 81.2402 4.83658 81.4723 4.87481C81.8784 4.95128 82.2942 5.01819 82.7003 5.09466C83.0193 5.15201 83.3384 5.19025 83.6575 5.2476C84.1506 5.32407 84.6438 5.4101 85.1466 5.49613C85.5237 5.55348 85.9104 5.60127 86.2972 5.65862C86.771 5.72553 87.2448 5.802 87.7186 5.86891C88.1344 5.92626 88.5501 5.97406 88.9562 6.03141C89.372 6.08876 89.7781 6.14611 90.1939 6.20346C90.542 6.25126 90.8998 6.28949 91.2575 6.31817C91.8763 6.37552 92.4855 6.43287 93.1043 6.48066C93.2881 6.49978 93.4718 6.49978 93.6555 6.5189C94.9898 6.62404 96.3242 6.73875 97.6585 6.68139C98.4998 6.64316 99.341 6.58581 100.182 6.5189C100.666 6.48066 101.149 6.40419 101.633 6.33728C102.087 6.27037 102.532 6.1939 102.986 6.12699C103.015 6.11743 103.044 6.11744 103.073 6.10788C103.586 5.9645 104.098 5.84024 104.611 5.67774C105.017 5.54392 105.423 5.38142 105.829 5.22848C106.525 4.97996 107.173 4.60717 107.821 4.24395C108.043 4.11968 108.256 3.96675 108.488 3.83293C108.662 3.73734 108.836 3.65131 109.068 3.53661C109.02 3.61308 109.01 3.65131 108.981 3.67999C108.053 4.47335 107.105 5.2476 105.993 5.802C105.307 6.14611 104.591 6.44243 103.856 6.67183C103.489 6.78654 103.131 6.92992 102.754 7.03506C102.396 7.13065 102.029 7.20712 101.671 7.27403C101.323 7.3505 100.975 7.41741 100.627 7.47476C100.26 7.54167 99.9018 7.60858 99.5344 7.64681C98.9639 7.71372 98.3934 7.78063 97.8326 7.81887C96.5562 7.9049 95.2799 7.93357 94.0036 7.88578C92.9109 7.83799 91.828 7.79975 90.745 7.65637C89.8458 7.54167 88.9466 7.45564 88.0473 7.34094C87.4865 7.27403 86.9354 7.16888 86.3746 7.09241C85.9008 7.0255 85.427 6.96815 84.9532 6.89168C84.2667 6.77698 83.5802 6.66228 82.9033 6.53801C82.3038 6.43287 81.7043 6.31817 81.1048 6.20346C80.6311 6.10788 80.1573 6.00273 79.6835 5.89759C78.9679 5.74465 78.2428 5.60127 77.5272 5.43877C76.8697 5.29539 76.2219 5.14246 75.5644 4.99908C75.0809 4.89393 74.5975 4.79835 74.1237 4.68364C73.7079 4.58806 73.3018 4.47335 72.8957 4.36821C72.4509 4.2535 71.9964 4.1388 71.5517 4.0241C71.1069 3.90939 70.6524 3.80425 70.2076 3.68955C69.5888 3.54617 68.9603 3.40279 68.3415 3.25941C67.829 3.14471 67.3165 3.02044 66.8137 2.90574C66.34 2.8006 65.8662 2.69545 65.3924 2.59031C64.8606 2.4756 64.3288 2.35134 63.7873 2.23664C63.4585 2.16973 63.1201 2.10282 62.7914 2.03591C62.4239 1.95944 62.0662 1.87341 61.7084 1.8065C61.3893 1.73959 61.0702 1.6918 60.7512 1.63444C60.3837 1.56753 60.026 1.48151 59.6585 1.4146C59.3975 1.3668 59.1267 1.31901 58.8657 1.26166C58.4596 1.18519 58.0631 1.09916 57.657 1.02269C57.4056 0.974899 57.1542 0.927106 56.9028 0.89843C56.4484 0.83152 55.9842 0.774168 55.5201 0.716816C55.0173 0.659465 54.5048 0.611672 53.9924 0.573437C52.9094 0.506527 51.8361 0.439617 50.7532 0.391823C50.1634 0.363148 49.5639 0.353589 48.9644 0.34403C48.887 0.34403 48.8193 0.34403 48.742 0.34403C48.7227 0.305796 48.7227 0.286679 48.7227 0.27712Z" fill="#FF383C"/>
<path d="M17.2984 22.4538C17.2114 23.0464 17.3178 23.6486 17.2307 24.2699C16.7473 24.2986 16.2638 24.289 15.7514 24.2795C15.7417 24.1839 15.732 24.1074 15.732 24.0309C15.732 23.5721 15.732 23.1133 15.732 22.6545C15.732 22.578 15.7224 22.5016 15.7224 22.4155C15.645 22.406 15.587 22.3869 15.529 22.3964C12.8506 22.492 10.1626 22.4347 7.47451 22.4538C7.20378 22.4538 6.93304 22.4155 6.67197 22.3869C6.25619 22.3295 5.99513 22.0619 5.82108 21.7178C5.68571 21.4406 5.60836 21.1442 5.61803 20.8288C5.62769 20.5898 5.60836 20.3509 5.61803 20.1215C5.63736 19.8921 5.64703 19.6627 5.71472 19.4428C5.85009 19.0413 6.12082 18.7737 6.5366 18.6399C6.75899 18.573 6.97172 18.5539 7.20378 18.5539C9.74678 18.5443 12.2898 18.5252 14.8328 18.5156C17.6755 18.5156 20.5279 18.5156 23.3707 18.5252C24.2893 18.5252 25.2078 18.5347 26.1264 18.5539C26.4165 18.5634 26.6872 18.6494 26.929 18.8119C27.3254 19.0796 27.4608 19.4906 27.4801 19.9207C27.4995 20.3796 27.4801 20.8384 27.4124 21.2876C27.3351 21.842 27.0063 22.2244 26.4262 22.3391C26.1844 22.3869 25.933 22.4251 25.6913 22.4251C23.9992 22.4347 22.3071 22.4251 20.615 22.4251C19.5417 22.4251 18.4684 22.4251 17.3855 22.4251C17.3758 22.4347 17.3564 22.4442 17.2984 22.4538ZM17.2888 19.6722C17.2791 19.806 17.2598 19.9303 17.2598 20.045C17.2501 20.3318 17.2501 20.6281 17.2501 20.9148C17.2501 21.3354 17.2598 21.2876 17.6369 21.2876C20.1315 21.2876 22.6358 21.2972 25.1305 21.2972C25.2465 21.2972 25.3626 21.2972 25.4786 21.2876C25.701 21.2685 25.7977 21.1729 25.8363 20.9626C25.8944 20.6568 25.9137 20.3604 25.8557 20.0546C25.8073 19.7869 25.7203 19.7009 25.4496 19.6913C25.2852 19.6818 25.1208 19.6818 24.9661 19.6818C22.8969 19.6818 20.818 19.6818 18.7488 19.6818C18.275 19.6722 17.8012 19.6722 17.2888 19.6722ZM15.732 19.6913C15.645 19.6913 15.558 19.6818 15.471 19.6818C14.4267 19.6818 13.3824 19.6818 12.3381 19.6818C10.8781 19.6818 9.41803 19.6818 7.95798 19.6913C7.80327 19.6913 7.64856 19.7105 7.49385 19.7296C7.36815 19.7391 7.28113 19.8156 7.24245 19.9303C7.12642 20.2935 7.08775 20.6568 7.22311 21.0295C7.27146 21.1538 7.33915 21.2303 7.46484 21.2398C7.6679 21.2589 7.86128 21.2876 8.06434 21.2876C10.5493 21.2972 13.044 21.2972 15.529 21.2972C15.587 21.2972 15.645 21.2876 15.7224 21.2876C15.732 20.7619 15.732 20.2362 15.732 19.6913Z" fill="white"/>
<path d="M90.3875 24.2699C89.846 24.2699 89.3432 24.2699 88.8114 24.2699C88.8114 23.639 88.8114 23.0273 88.8114 22.3964C88.7631 22.3869 88.7244 22.3677 88.6857 22.3677C86.0364 22.3869 83.3773 22.406 80.728 22.4251C79.703 22.4347 78.6684 22.4251 77.6435 22.4347C77.5951 22.4347 77.5468 22.4347 77.5081 22.4347C77.4114 22.4347 77.3727 22.492 77.3631 22.578C77.3631 22.6354 77.3631 22.6832 77.3631 22.7405C77.3631 23.1802 77.3534 23.6104 77.3534 24.0501C77.3534 24.117 77.3534 24.1839 77.3534 24.2699C76.8603 24.3081 76.3865 24.289 75.8934 24.2795C75.8837 24.203 75.874 24.1457 75.874 24.0883C75.874 22.7023 75.8837 21.3163 75.8837 19.9399C75.8837 19.6244 75.9804 19.3568 76.1834 19.1178C76.3768 18.8884 76.5509 18.659 76.8603 18.5921C76.9666 18.5634 77.073 18.5443 77.1794 18.5443C78.3203 18.5347 79.471 18.5156 80.6119 18.5156C83.1453 18.5156 85.6689 18.5156 88.2023 18.5156C88.531 18.5156 88.8694 18.5156 89.1982 18.5539C89.9427 18.6303 90.4939 19.0891 90.4939 19.9016C90.4939 20.3987 90.4552 20.8957 90.4455 21.3928C90.4262 22.2244 90.4165 23.056 90.4068 23.8876C90.4068 24.0023 90.3972 24.117 90.3875 24.2699ZM88.8598 21.2876C88.8598 20.8766 88.8694 20.4943 88.8598 20.1119C88.8501 19.6913 88.8404 19.6913 88.3957 19.6913C85.5142 19.6818 82.6231 19.6722 79.7417 19.6722C79.1422 19.6722 78.5524 19.6818 77.9529 19.7009C77.6628 19.7105 77.4888 19.8252 77.4598 20.0832C77.4211 20.4273 77.4211 20.7715 77.4114 21.1156C77.4114 21.2112 77.4694 21.2685 77.5661 21.2781C77.7015 21.2876 77.8272 21.2972 77.9626 21.2972C81.5305 21.2972 85.1081 21.3067 88.6761 21.3067C88.7437 21.2972 88.8018 21.2972 88.8598 21.2876Z" fill="white"/>
<path d="M35.8244 24.2791C34.0066 24.2791 32.1887 24.2791 30.3709 24.2791C30.2742 24.2791 30.1872 24.2791 30.0905 24.2791C29.5587 24.2791 29.1623 24.0114 28.8239 23.6577C28.6208 23.4475 28.5918 23.1798 28.5918 22.9122C28.6015 22.4725 28.6111 22.0423 28.6208 21.6026C28.6305 21.0387 28.6208 20.4747 28.6305 19.9012C28.6401 19.3181 29.0269 18.8211 29.5877 18.6299C29.9261 18.5152 30.2742 18.5152 30.6223 18.5152C33.2814 18.5057 35.9404 18.5057 38.5994 18.4961C39.3923 18.4961 40.1755 18.4961 40.9684 18.5057C41.2971 18.5057 41.6162 18.5152 41.9353 18.5534C42.4671 18.6204 42.9022 18.8784 43.144 19.3659C43.2116 19.4997 43.2407 19.6622 43.2407 19.8056C43.2407 20.3409 43.2116 20.8762 43.202 21.4115C43.1923 21.9659 43.1826 22.5298 43.1826 23.0842C43.1826 23.4761 42.9893 23.7438 42.6605 23.9445C42.3317 24.1452 41.974 24.2599 41.5872 24.2695C41.0457 24.2791 40.5043 24.2791 39.9628 24.2791C38.5898 24.2791 37.2071 24.2791 35.8244 24.2791ZM35.8727 23.1225C36.3078 23.1225 36.7429 23.1225 37.1684 23.1225C38.4447 23.1225 39.7211 23.132 40.9974 23.132C41.4712 23.132 41.6742 22.9313 41.7032 22.4629C41.7032 22.4247 41.7032 22.3865 41.7032 22.3482C41.7032 21.7843 41.7032 21.2203 41.6936 20.6563C41.6936 20.4556 41.6839 20.2549 41.6549 20.0637C41.6259 19.8247 41.4905 19.7196 41.2585 19.6909C41.1714 19.6814 41.0844 19.6814 41.0071 19.6814C40.5719 19.6814 40.1368 19.6814 39.7114 19.6814C37.033 19.6814 34.345 19.6814 31.6666 19.6814C31.3379 19.6814 31.0188 19.6814 30.69 19.6909C30.4676 19.7005 30.3709 19.7674 30.3032 19.9777C30.2742 20.0828 30.2452 20.1975 30.2356 20.3122C30.2066 21.0005 30.1872 21.6887 30.1679 22.3769C30.1679 22.5012 30.1872 22.6254 30.2259 22.7401C30.2936 22.9982 30.458 23.1225 30.7287 23.132C30.8641 23.132 30.9898 23.1416 31.1251 23.1416C32.7109 23.1225 34.287 23.1225 35.8727 23.1225Z" fill="white"/>
<path d="M45.9288 22.4816C45.9095 23.0743 45.8998 23.6573 45.8805 24.2308C45.7161 24.2978 44.8555 24.3169 44.3817 24.2595C44.3817 24.1831 44.3721 24.1066 44.3721 24.0206C44.3817 22.6441 44.3914 21.2677 44.4011 19.8912C44.4011 19.4993 44.4011 19.1074 44.4107 18.7251C44.4107 18.5052 44.4301 18.4957 44.6525 18.4957C46.2866 18.4957 47.911 18.4861 49.5451 18.4861C51.0728 18.4861 52.6102 18.4766 54.138 18.4766C55.1629 18.4766 56.1782 18.4861 57.2031 18.5052C57.5512 18.5148 57.8896 18.5626 58.2184 18.706C58.6535 18.8876 58.8856 19.2317 58.9726 19.6618C59.0983 20.2736 59.0403 20.8853 58.8856 21.478C58.7599 21.9559 58.4021 22.2044 57.9573 22.3574C57.6672 22.4625 57.3675 22.4816 57.0677 22.4816C55.7431 22.4912 54.4281 22.5007 53.1034 22.5007C50.9085 22.5007 48.7135 22.4912 46.5186 22.4912C46.3253 22.4816 46.1415 22.4816 45.9288 22.4816ZM45.9288 21.2581C46.0545 21.2677 46.1705 21.2868 46.2866 21.2868C46.625 21.2868 46.9634 21.2868 47.3115 21.2868C50.4153 21.2868 53.5095 21.2868 56.6133 21.2868C56.7777 21.2868 56.9324 21.2677 57.0968 21.2581C57.2225 21.2486 57.2998 21.1817 57.3095 21.0574C57.3288 20.6942 57.3578 20.3214 57.3578 19.9581C57.3578 19.7957 57.2901 19.7287 57.1161 19.7001C56.9614 19.6809 56.8067 19.6809 56.652 19.6809C55.5497 19.6809 54.4377 19.6809 53.3354 19.6809C50.9568 19.6809 48.5878 19.6809 46.2092 19.6809C46.1222 19.6809 46.0352 19.6905 45.9288 19.7001C45.9288 20.2353 45.9288 20.7324 45.9288 21.2581Z" fill="white"/>
<path d="M74.7328 18.5446C74.7328 18.9269 74.7328 19.2901 74.7328 19.6629C74.6652 19.6725 74.6071 19.682 74.5588 19.682C70.7008 19.682 66.8428 19.682 62.9847 19.682C62.685 19.682 62.3853 19.6916 62.0758 19.7012C61.8438 19.7107 61.7858 19.749 61.7568 19.9784C61.7181 20.1982 61.6987 20.4181 61.6891 20.6379C61.6794 21.2305 61.6697 21.8327 61.6697 22.4254C61.6697 22.5783 61.6794 22.7312 61.7181 22.8842C61.7664 23.0945 61.8244 23.1327 62.0372 23.1423C62.2209 23.1518 62.4046 23.1518 62.598 23.1518C65.8662 23.1518 69.144 23.1518 72.4122 23.1518C73.0891 23.1518 73.7562 23.1614 74.4331 23.1709C74.4911 23.1709 74.5394 23.1709 74.5975 23.1805C74.6845 23.1805 74.7328 23.2283 74.7328 23.3048C74.7232 23.5915 74.7135 23.8878 74.6942 24.1746C74.6845 24.2606 74.6168 24.2893 74.5395 24.2893C74.3944 24.2893 74.2494 24.2893 74.0947 24.2893C70.5364 24.2893 66.9781 24.2893 63.4199 24.2893C62.8107 24.2893 62.2015 24.2893 61.5827 24.2893C61.1766 24.2797 60.8092 24.1555 60.4998 23.8878C60.3064 23.7158 60.1613 23.5342 60.1227 23.2761C60.0936 23.0467 60.0453 22.8173 60.055 22.5974C60.055 21.8041 60.0743 21.0107 60.1033 20.2173C60.113 19.9497 60.1517 19.682 60.229 19.4335C60.345 19.0512 60.6255 18.8122 61.0026 18.6688C61.2056 18.5924 61.4183 18.5732 61.6407 18.5732C64.2224 18.5732 66.8041 18.5637 69.3858 18.5541C71.0585 18.5541 72.7313 18.5541 74.3944 18.5541C74.5104 18.5159 74.6168 18.535 74.7328 18.5446Z" fill="white"/>
<path d="M112.821 24.2791C112.792 23.9063 112.753 23.5526 112.724 23.2085C112.705 22.8644 112.705 22.8548 112.337 22.8548C110.345 22.8644 108.363 22.8644 106.371 22.8739C105.694 22.8739 105.008 22.8739 104.331 22.8835C104.147 22.8835 104.138 22.9026 104.128 23.0842C104.118 23.4092 104.109 23.7247 104.099 24.0497C104.099 24.107 104.089 24.1644 104.08 24.2217C104.051 24.2408 104.031 24.2599 104.012 24.2599C103.645 24.2599 103.267 24.2695 102.9 24.2599C102.658 24.2504 102.639 24.2217 102.629 23.9827C102.62 23.7342 102.629 23.4761 102.629 23.2276C102.629 23.1129 102.629 22.9982 102.629 22.8739C99.8059 22.8931 97.0018 22.9026 94.159 22.9217C94.1107 23.1607 94.072 23.3806 94.0333 23.5908C93.9947 23.8107 93.9657 24.0305 93.927 24.2791C93.4435 24.3077 92.9601 24.2886 92.4766 24.2791C92.4573 24.2504 92.4379 24.2408 92.4379 24.2313C92.3992 23.7247 92.3606 23.2181 92.5153 22.7306C92.6603 22.2813 92.9794 21.9754 93.4532 21.8703C93.6756 21.8225 93.9173 21.8034 94.1397 21.8129C95.9478 21.8225 97.756 21.8321 99.5641 21.8416C102.484 21.8512 105.395 21.8512 108.315 21.8607C109.813 21.8607 111.312 21.8703 112.811 21.8703C112.927 21.8703 113.043 21.8894 113.159 21.8894C113.555 21.8798 113.749 22.1188 113.865 22.4438C113.923 22.5967 113.962 22.7497 113.971 22.9122C113.981 23.2945 113.981 23.6769 113.962 24.0592C113.952 24.2504 113.913 24.2886 113.72 24.2886C113.449 24.2886 113.159 24.2791 112.821 24.2791Z" fill="white"/>
<path d="M102.687 18.4586C103.199 18.4586 103.692 18.4586 104.215 18.4586C104.224 18.535 104.224 18.5924 104.224 18.6593C104.215 18.9843 104.205 19.2997 104.195 19.6247C104.186 19.8732 104.186 19.8732 104.456 19.8828C104.785 19.8828 105.104 19.8828 105.433 19.8828C107.695 19.8828 109.968 19.8828 112.23 19.8828C112.308 19.8828 112.385 19.8828 112.462 19.8828C112.636 19.8732 112.704 19.7968 112.733 19.6343C112.791 19.2615 112.849 18.8792 112.907 18.4777C113.246 18.4299 113.603 18.4681 113.961 18.4777C113.971 18.5255 113.99 18.5637 113.99 18.602C114 19.1755 114.009 19.749 113.922 20.3225C113.913 20.3799 113.913 20.4276 113.893 20.4754C113.835 20.6188 113.758 20.724 113.594 20.7622C113.294 20.8482 112.994 20.8482 112.694 20.8482C109.707 20.8482 106.729 20.8482 103.741 20.8578C101.062 20.8578 98.3937 20.8673 95.7153 20.8673C95.1738 20.8673 94.6323 20.8865 94.0909 20.8865C93.9168 20.8865 93.7524 20.8769 93.5784 20.8578C93.0369 20.81 92.7178 20.485 92.5341 20.0071C92.4181 19.7203 92.3988 19.424 92.4084 19.1277C92.4181 18.9556 92.4374 18.7931 92.4374 18.6211C92.4374 18.5064 92.4858 18.449 92.6018 18.449C93.0176 18.449 93.4334 18.4395 93.8588 18.4395C94.0232 18.4395 94.0425 18.4681 94.0522 18.6306C94.0812 18.9461 94.1102 19.2519 94.1392 19.5674C94.1585 19.8063 94.1682 19.8159 94.4196 19.835C94.7097 19.8541 95.0094 19.8637 95.2995 19.8637C97.6588 19.8732 100.018 19.8732 102.377 19.8732C102.397 19.8732 102.406 19.8732 102.426 19.8732C102.629 19.8732 102.648 19.8446 102.658 19.6534C102.658 19.2997 102.667 18.9461 102.677 18.602C102.677 18.5542 102.677 18.5159 102.687 18.4586Z" fill="white"/>
<path d="M62.4631 33.3207C62.4631 32.6898 62.4631 32.0685 62.4631 31.4376C62.4631 30.8163 62.4728 30.1854 62.4824 29.5355C62.7532 29.4972 62.9949 29.5068 63.2753 29.5163C63.314 30.9884 63.256 32.4413 63.227 33.8942C63.0723 33.9515 62.9272 33.942 62.7918 33.942C61.7669 33.942 60.7323 33.9324 59.7074 33.9229C58.9145 33.9229 58.1313 33.9229 57.3384 33.9133C57.2611 33.9133 57.1837 33.9037 57.0967 33.8942C57.0967 32.4317 57.0967 30.9979 57.0967 29.5355C57.3094 29.4781 57.5318 29.5068 57.7929 29.4877C57.7929 29.5832 57.7929 29.6597 57.7929 29.7266C57.7832 30.7685 57.7735 31.8104 57.7639 32.8427C57.7639 33.3111 57.7735 33.3207 58.2376 33.3302C58.7211 33.3398 59.1949 33.3398 59.6784 33.3398C59.7267 33.3398 59.7847 33.3302 59.8621 33.3207C59.8331 32.0494 59.8427 30.7876 59.8524 29.5068C60.0845 29.4877 60.2778 29.4781 60.4906 29.459C60.5002 29.5163 60.5292 29.5737 60.5292 29.6215C60.5292 30.7207 60.5196 31.82 60.5099 32.9192C60.5099 32.9957 60.5099 33.0721 60.5099 33.1486C60.5099 33.2633 60.5679 33.3398 60.6936 33.3398C61.2448 33.3398 61.7959 33.3398 62.3374 33.3302C62.3761 33.3589 62.4147 33.3398 62.4631 33.3207Z" fill="#FF383C"/>
<path d="M18.7772 29.5456C18.9029 29.5361 18.9803 29.517 19.0673 29.517C19.9666 29.5074 20.8755 29.4978 21.7747 29.4883C22.0068 29.4883 22.2388 29.5074 22.4709 29.5361C23.2154 29.6508 23.7956 30.6449 23.2348 31.4478C23.0317 31.7346 23.022 31.8206 23.2348 32.0978C23.6022 32.5757 23.4862 33.0728 23.1477 33.4551C23.0994 33.5029 23.0607 33.5603 23.0027 33.608C22.8093 33.7897 22.5966 33.9044 22.3258 33.9139C22.0744 33.9235 21.8134 33.9235 21.562 33.9235C20.8465 33.9235 20.1213 33.9235 19.4057 33.9235C19.2704 33.9235 19.1253 33.9235 18.99 33.9139C18.8739 33.9139 18.8063 33.8661 18.8063 33.7323C18.7966 33.4647 18.7676 33.197 18.7676 32.9294C18.7676 31.9353 18.7772 30.9412 18.7869 29.9471C18.7772 29.8419 18.7772 29.7081 18.7772 29.5456ZM20.7401 30.1096C20.7401 30.1191 20.7401 30.1191 20.7401 30.1096C20.3727 30.1096 20.0149 30.1096 19.6475 30.1096C19.4154 30.1096 19.3767 30.1383 19.3671 30.3677C19.3574 30.6353 19.3671 30.903 19.3574 31.1706C19.3574 31.2853 19.4057 31.3427 19.5218 31.3522C19.7538 31.3713 19.9859 31.4191 20.218 31.4191C20.8561 31.4287 21.4846 31.4287 22.1228 31.4191C22.2485 31.4191 22.3742 31.4 22.4806 31.3618C22.5579 31.3331 22.6353 31.2757 22.6643 31.2088C22.761 30.9985 22.79 30.7691 22.7126 30.5397C22.6643 30.3963 22.5676 30.2816 22.4129 30.2434C22.2001 30.1861 21.9971 30.1287 21.7844 30.1192C21.4363 30.1 21.0882 30.1096 20.7401 30.1096ZM20.9141 32.05C20.9141 32.0595 20.9141 32.0691 20.9141 32.0691C20.4887 32.05 20.0633 32.0404 19.6378 32.0213C19.3767 32.0118 19.3381 32.0404 19.3381 32.2985C19.3381 32.4992 19.3381 32.7 19.3381 32.8911C19.3477 33.3022 19.3477 33.3213 19.7635 33.3213C20.4984 33.3308 21.2332 33.3308 21.9681 33.3308C22.0841 33.3308 22.2001 33.3117 22.3162 33.2926C22.4709 33.2639 22.5869 33.1683 22.6546 33.0345C22.7126 32.9294 22.761 32.8051 22.7803 32.6904C22.8383 32.3654 22.6449 32.1073 22.3162 32.0978C21.8424 32.0787 21.3783 32.0691 20.9141 32.05Z" fill="#FF383C"/>
<path d="M9.68793 33.9806C9.67826 33.8946 9.66859 33.8277 9.66859 33.7703C9.66859 33.4835 9.67826 33.2063 9.67826 32.9196C9.67826 32.6997 9.66859 32.6902 9.43653 32.6902C8.62432 32.6997 7.8121 32.6997 6.99989 32.7093C6.89353 32.7093 6.78717 32.6997 6.67114 32.6997C6.44875 32.6902 6.41974 32.7093 6.41007 32.9196C6.4004 33.1968 6.4004 33.474 6.39073 33.7416C6.39073 33.799 6.38106 33.8563 6.37139 33.9328C6.11032 33.9424 5.86859 33.9615 5.60752 33.971C5.59785 33.9041 5.57852 33.8468 5.57852 33.7894C5.57852 32.8527 5.56885 31.9255 5.57852 30.9888C5.57852 30.6446 5.63653 30.3101 5.87826 30.0233C6.12966 29.727 6.44874 29.5454 6.83551 29.5167C7.36732 29.4785 7.89913 29.4594 8.43093 29.4403C8.80803 29.4307 9.17546 29.5072 9.51389 29.641C10.036 29.8417 10.3358 30.2336 10.3744 30.788C10.3938 31.1321 10.3841 31.4954 10.3551 31.8395C10.3164 32.1836 10.3261 32.5277 10.3551 32.8718C10.3841 33.1777 10.3841 33.4835 10.3938 33.7894C10.3938 33.9615 10.3744 33.9806 10.2101 33.9806C10.065 33.9902 9.88131 33.9806 9.68793 33.9806ZM8.0635 32.0306C8.4116 32.0306 8.75969 32.0306 9.10778 32.0306C9.24315 32.0306 9.36885 32.0211 9.50422 32.0211C9.62992 32.0211 9.70727 31.9446 9.71694 31.8203C9.74595 31.4476 9.78462 31.0748 9.67826 30.702C9.62025 30.4917 9.50422 30.3292 9.28182 30.2527C9.05943 30.1763 8.84671 30.0998 8.61465 30.0998C8.25689 30.0998 7.89913 30.0902 7.55104 30.0998C7.35765 30.1094 7.16427 30.138 6.98055 30.1858C6.60345 30.2814 6.39073 30.5395 6.37139 30.9218C6.36172 31.1799 6.36172 31.438 6.38106 31.6961C6.39073 31.9637 6.42941 31.9828 6.70014 32.002C6.79684 32.0115 6.9032 32.0115 6.99989 32.0115C7.35765 32.0306 7.70574 32.0306 8.0635 32.0306Z" fill="#FF383C"/>
<path d="M47.0601 34.0002C46.6443 33.9811 46.2285 33.962 45.8128 33.9429C45.3293 33.9142 44.9812 33.6752 44.7395 33.2546C44.5558 32.9392 44.4688 32.6046 44.4688 32.251C44.4688 31.8495 44.4881 31.4385 44.5171 31.037C44.5461 30.712 44.6331 30.4062 44.8362 30.1385C45.1166 29.7466 45.484 29.479 45.9868 29.4694C46.5283 29.4503 47.0698 29.4503 47.6112 29.4694C47.9593 29.4885 48.2881 29.5937 48.5975 29.7753C48.9263 29.9665 49.1196 30.2437 49.2067 30.5973C49.2647 30.8267 49.3034 31.0657 49.313 31.2951C49.3324 31.6679 49.3227 32.0407 49.313 32.4135C49.3034 32.6046 49.2647 32.7958 49.2067 32.9774C48.9939 33.6083 48.4235 33.9524 47.911 33.9524C47.6306 33.9524 47.3502 33.9524 47.0794 33.9524C47.0601 33.9715 47.0601 33.9811 47.0601 34.0002ZM46.9634 33.3884C46.9634 33.3789 46.9634 33.3693 46.9634 33.3502C47.2148 33.3502 47.4565 33.3598 47.7079 33.3502C47.8626 33.3407 48.0077 33.312 48.1624 33.2737C48.3074 33.2451 48.3945 33.1495 48.4525 33.0061C48.5202 32.8245 48.5588 32.6429 48.5588 32.4517C48.5492 31.9451 48.5685 31.4481 48.5492 30.9414C48.5395 30.5878 48.3364 30.3584 47.998 30.2628C47.8433 30.2245 47.6789 30.1959 47.5242 30.1863C47.0891 30.1576 46.6443 30.1385 46.2092 30.1098C46.1512 30.1098 46.0835 30.1098 46.0255 30.129C45.6581 30.215 45.3196 30.4922 45.2616 30.9988C45.2229 31.3811 45.1939 31.7635 45.2133 32.1363C45.2229 32.4039 45.31 32.6716 45.3873 32.9392C45.4453 33.1304 45.5807 33.2451 45.7934 33.2642C46.1609 33.312 46.567 33.3502 46.9634 33.3884Z" fill="#FF383C"/>
<path d="M85.9692 33.9798C85.5534 33.9703 85.1376 33.9607 84.7219 33.9416C84.2191 33.9129 83.871 33.6549 83.6486 33.2152C83.4359 32.785 83.3682 32.3262 83.3778 31.8578C83.3875 31.5328 83.4069 31.1983 83.4552 30.8733C83.5035 30.5483 83.6002 30.2329 83.8226 29.9748C84.045 29.7167 84.3351 29.5829 84.6638 29.5351C85.0409 29.4777 85.418 29.4586 85.7951 29.4491C86.1046 29.4395 86.414 29.4491 86.7234 29.4682C87.0231 29.4873 87.3132 29.5733 87.584 29.7167C87.903 29.8888 88.0868 30.166 88.1738 30.5101C88.3478 31.1983 88.3381 31.9056 88.2608 32.6034C88.2028 33.1865 87.874 33.6071 87.3422 33.8556C87.2165 33.9129 87.0618 33.9416 86.9168 33.9512C86.6074 33.9607 86.2979 33.9512 85.9885 33.9512C85.9692 33.9607 85.9692 33.9703 85.9692 33.9798ZM85.9015 33.3585V33.349C86.1916 33.349 86.4913 33.3585 86.7814 33.349C87.1102 33.3394 87.3326 33.1674 87.4292 32.8519C87.4583 32.7468 87.4969 32.6321 87.4969 32.5174C87.4969 32.0012 87.5066 31.4755 87.4873 30.9593C87.4776 30.8159 87.4292 30.6534 87.3712 30.5196C87.2552 30.2807 87.0618 30.1086 86.7814 30.0895C86.2399 30.0608 85.6985 30.0417 85.1666 30.0417C84.6542 30.0417 84.3158 30.338 84.2191 30.8351C84.1417 31.2461 84.0934 31.6667 84.1224 32.0872C84.1417 32.3549 84.2094 32.6321 84.2868 32.8902C84.3448 33.0909 84.4898 33.2343 84.7025 33.2821C84.8669 33.3203 85.0313 33.3394 85.2053 33.349C85.4374 33.3681 85.6695 33.3585 85.9015 33.3585Z" fill="#FF383C"/>
<path d="M101.314 33.9908C101.024 33.9908 100.791 33.9908 100.53 33.9908C100.521 33.9048 100.511 33.8283 100.511 33.7614C100.511 32.6526 100.521 31.5438 100.521 30.435C100.521 30.4159 100.521 30.4063 100.521 30.3872C100.53 30.11 100.521 30.1004 100.24 30.1004C99.5055 30.1004 98.7706 30.1004 98.0358 30.11C97.9391 30.11 97.852 30.1291 97.7553 30.1387C97.4073 30.2056 97.2719 30.349 97.2525 30.6931C97.2332 31.0372 97.2332 31.3813 97.2332 31.7254C97.2332 32.3945 97.2429 33.0732 97.2429 33.7423C97.2429 33.8187 97.2332 33.8952 97.2332 33.9812C96.9721 33.9812 96.7207 33.9812 96.45 33.9812C96.4403 33.9335 96.4307 33.8857 96.4307 33.8283C96.45 32.7769 96.4597 31.7159 96.479 30.6644C96.479 30.4828 96.5564 30.3203 96.6531 30.1769C96.7111 30.0909 96.7691 30.0144 96.8368 29.938C97.0398 29.6799 97.3009 29.5269 97.649 29.5269C98.2968 29.5269 98.9447 29.5078 99.6022 29.5078C100.057 29.5078 100.511 29.5078 100.975 29.5174C101.062 29.5174 101.159 29.5269 101.265 29.5365C101.323 31.0276 101.294 32.4997 101.314 33.9908Z" fill="#FF383C"/>
<path d="M110.229 32.6806C110.219 32.7762 110.209 32.8622 110.209 32.9387C110.219 33.2064 110.229 33.474 110.229 33.7416C110.238 33.9328 110.219 33.9615 110.026 33.971C109.881 33.9806 109.736 33.971 109.571 33.971C109.571 33.8946 109.571 33.8181 109.571 33.7416C109.591 32.8336 109.6 31.9255 109.62 31.0174C109.62 30.8836 109.62 30.7593 109.639 30.6255C109.697 30.0329 110.074 29.6314 110.664 29.5645C111.37 29.4785 112.085 29.4785 112.791 29.5645C112.985 29.5836 113.188 29.641 113.381 29.6983C113.797 29.813 113.951 30.1189 113.971 30.5108C113.99 30.9792 113.98 31.4476 113.98 31.9064C113.98 32.4895 113.971 33.0725 113.951 33.6461C113.942 33.971 113.932 33.971 113.603 33.9519C113.584 33.9519 113.565 33.9424 113.507 33.9233C113.507 33.799 113.507 33.6556 113.507 33.5218C113.507 33.3115 113.516 33.0917 113.516 32.8814C113.516 32.7189 113.487 32.6997 113.323 32.6902C113.159 32.6806 112.994 32.6902 112.839 32.6902C112.008 32.6902 111.186 32.6806 110.355 32.6806C110.325 32.6711 110.296 32.6711 110.229 32.6806ZM110.229 31.9255C110.432 31.9446 110.596 31.9637 110.77 31.9733C111.544 31.9829 112.317 31.9924 113.091 32.002C113.188 32.002 113.275 31.9924 113.371 31.9924C113.478 31.9924 113.536 31.9446 113.526 31.8395C113.526 31.4571 113.536 31.0748 113.507 30.6924C113.497 30.4821 113.371 30.3197 113.139 30.2814C112.946 30.2527 112.762 30.1954 112.569 30.1763C111.989 30.1094 111.408 30.1094 110.838 30.1858C110.49 30.2336 110.345 30.3579 110.267 30.6924C110.18 31.0939 110.209 31.4954 110.229 31.9255Z" fill="#FF383C"/>
<path d="M75.0909 29.4883C75.1102 29.6412 75.0232 29.7177 74.9458 29.7846C74.5784 30.1096 74.2013 30.4346 73.8339 30.7596C73.5148 31.0463 73.1957 31.3331 72.8766 31.6294C72.7606 31.7441 72.7703 31.8206 72.896 31.9353C73.6212 32.5566 74.3367 33.1875 75.0619 33.8088C75.0909 33.8375 75.1199 33.8757 75.1779 33.933C74.8298 33.9522 74.5204 34.0382 74.211 33.9139C74.1143 33.8757 74.0273 33.7992 73.9499 33.7323C73.5438 33.3595 73.1377 32.9772 72.7316 32.5948C72.5769 32.4515 72.4319 32.3081 72.2675 32.1838C72.1901 32.1265 72.0934 32.0691 72.0064 32.0595C71.7357 32.0309 71.4649 32.0213 71.1749 32.0022C71.1652 32.1169 71.1362 32.2125 71.1362 32.3081C71.1362 32.7573 71.1362 33.2066 71.1362 33.6654C71.1362 33.7514 71.1265 33.847 71.1265 33.9522C70.8848 33.9522 70.6527 33.9522 70.3917 33.9522C70.382 32.4992 70.411 31.0463 70.4013 29.5839C70.6334 29.4978 70.8654 29.5648 71.1072 29.5361C71.1168 29.6125 71.1362 29.6699 71.1362 29.7177C71.1362 30.1669 71.1265 30.6162 71.1265 31.075C71.1265 31.1993 71.1459 31.3235 71.1555 31.4574C71.5326 31.4669 71.8904 31.486 72.2191 31.3618C72.3932 31.2949 72.5479 31.1706 72.6833 31.0368C73.0797 30.664 73.4665 30.2721 73.8436 29.8802C74.0273 29.6986 74.2303 29.5839 74.4914 29.5552C74.6945 29.517 74.8878 29.5074 75.0909 29.4883Z" fill="#FF383C"/>
<path d="M31.5215 30.0909C31.5215 29.8902 31.5215 29.7277 31.5215 29.546C31.6182 29.5365 31.6955 29.5269 31.7826 29.5269C33.1846 29.5174 34.577 29.5174 35.979 29.5078C36.2207 29.5078 36.2401 29.5174 36.2401 29.7659C36.2401 29.8615 36.2401 29.9666 36.2401 30.0909C36.1337 30.1004 36.0467 30.1196 35.9597 30.1196C35.5052 30.1196 35.0507 30.11 34.5866 30.1004C34.4706 30.1004 34.3642 30.11 34.2192 30.1196C34.1902 30.7791 34.2192 31.4195 34.2095 32.06C34.1999 32.6908 34.2095 33.3217 34.1999 33.9812C33.9678 33.9812 33.7647 33.9812 33.5327 33.9812C33.523 33.9335 33.5133 33.8761 33.5133 33.8187C33.5133 32.6622 33.523 31.5151 33.523 30.3585C33.523 30.11 33.5133 30.11 33.2523 30.11C32.7495 30.11 32.2467 30.11 31.7439 30.11C31.6955 30.1004 31.6182 30.1004 31.5215 30.0909Z" fill="#FF383C"/>
</g>
<defs>
<clipPath id="clip0_2001_3476">
<rect width="114" height="34" fill="white"/>
</clipPath>
</defs>
</svg>
