<svg width="15" height="20" viewBox="0 0 15 20" fill="none" xmlns="http://www.w3.org/2000/svg">
<g clip-path="url(#clip0_2001_2884)">
<path d="M8.03484 0C8.41892 0.0625489 8.80819 0.0990357 9.1819 0.192859C12.2078 0.969507 14.0815 2.91895 14.7978 5.94214C15.322 8.14178 14.8341 10.1903 13.4899 11.999C11.5383 14.6364 9.5556 17.2583 7.58847 19.8853C7.56252 19.9218 7.53138 19.9531 7.49504 19.9948C7.44833 19.9375 7.412 19.8958 7.37567 19.8541C5.43968 17.2687 3.4985 14.6833 1.56252 12.098C0.43103 10.5864 -0.108763 8.89236 0.0261854 7.00026C0.259749 3.71645 2.63691 0.80271 5.99504 0.15116C6.31165 0.0886109 6.63345 0.0469116 6.95006 0C7.30819 0 7.67151 0 8.03484 0ZM1.74937 7.5215C1.74937 10.7011 4.32376 13.2916 7.48985 13.2916C10.6508 13.2916 13.2096 10.7219 13.2303 7.53714C13.2459 4.368 10.6663 1.76179 7.50023 1.75658C4.33414 1.75658 1.75456 4.34193 1.74937 7.5215Z" fill="#F2D502"/>
<path d="M2.91801 7.51631C2.92839 4.97266 4.97856 2.92419 7.51143 2.93461C10.0287 2.94503 12.0737 5.00915 12.0633 7.53716C12.053 10.086 10.0028 12.1293 7.46991 12.1189C4.95261 12.1084 2.90763 10.0443 2.91801 7.51631Z" fill="#F2D502"/>
</g>
<defs>
<clipPath id="clip0_2001_2884">
<rect width="15" height="20" fill="white"/>
</clipPath>
</defs>
</svg>
