<svg width="15" height="21" viewBox="0 0 15 21" fill="none" xmlns="http://www.w3.org/2000/svg">
<path d="M13.1466 21C9.37987 21 5.61313 21 1.84639 21C1.8129 20.9891 1.785 20.9672 1.75152 20.9617C0.847501 20.7812 0.189019 20.1359 0.0327691 19.25C-0.0118738 19.0094 -0.000713046 18.7578 -0.000713046 18.5172C-0.000713046 13.0758 -0.000713046 7.63438 -0.000713046 2.19844C-0.000713046 0.929688 0.914466 0.00546875 2.17005 0C5.71915 0 9.27384 0 12.8229 0.00546875C13.0573 0.00546875 13.2973 0.04375 13.5205 0.114844C14.4357 0.399219 14.9937 1.19766 14.9937 2.19844C14.9937 6.9125 14.9937 11.632 14.9937 16.3461C14.9937 17.2047 15.0104 18.0688 14.9881 18.9273C14.9658 19.8188 14.5138 20.4477 13.6991 20.825C13.5261 20.907 13.3308 20.9453 13.1466 21ZM12.8453 2.11641C9.26826 2.11641 5.70799 2.11641 2.15889 2.11641C2.15889 6.31641 2.15889 10.5055 2.15889 14.6891C5.73031 14.6891 9.285 14.6891 12.8453 14.6891C12.8453 10.4891 12.8453 6.31094 12.8453 2.11641ZM7.50487 16.8055C6.86313 16.8 6.43344 17.2102 6.42786 17.8336C6.42228 18.4133 6.90777 18.9055 7.48813 18.9055C8.02942 18.9055 8.55956 18.3859 8.57072 17.85C8.5763 17.2375 8.14103 16.8109 7.50487 16.8055Z" fill="#F2D502"/>
<path d="M4.23438 6.54082C4.25112 6.24004 4.35156 5.99941 4.57478 5.80254C4.70871 5.68223 4.83147 5.55098 4.95982 5.4252C5.17188 5.22285 5.43415 5.22285 5.64062 5.4252C6.05915 5.83535 6.47768 6.24551 6.89621 6.65566C7.0971 6.85801 7.0971 7.1041 6.89062 7.30645C6.68973 7.50879 6.49442 7.71113 6.28237 7.89707C6.12054 8.04473 6.07589 8.21426 6.16518 8.39473C6.47768 9.0291 6.98549 9.4502 7.67188 9.66348C7.8058 9.70723 7.92299 9.66348 8.02902 9.5541C8.21875 9.35176 8.41964 9.16582 8.62054 8.97441C8.81027 8.79395 9.07812 8.79395 9.27344 8.97988C9.69754 9.39551 10.1217 9.80566 10.5458 10.2268C10.7411 10.4182 10.7411 10.6697 10.5513 10.8666C10.4621 10.9596 10.356 11.0416 10.2723 11.1455C9.91518 11.5885 9.45201 11.6377 8.93304 11.501C8.25781 11.3205 7.66629 10.976 7.10826 10.5768C5.9029 9.7291 4.9933 8.64629 4.44085 7.29004C4.33482 7.05488 4.30134 6.79238 4.23438 6.54082Z" fill="#F2D502"/>
</svg>
