<svg width="35" height="35" viewBox="0 0 35 35" fill="none" xmlns="http://www.w3.org/2000/svg">
<path d="M26.2585 9.81455C26.0784 9.71161 25.8983 9.60867 25.7181 9.50573C25.2292 9.17118 24.766 8.78516 24.3543 8.34767C23.3507 7.1896 22.9647 6.0058 22.836 5.18228C22.7331 4.51318 22.7588 4.07568 22.7846 4.07568H18.1784V21.9099C18.1784 22.1415 18.1784 22.3731 18.1784 22.6305C18.1784 22.6562 18.1784 22.682 18.1784 22.7077C18.1784 22.7334 18.1784 22.7334 18.1784 22.7592C18.0754 24.0459 17.3292 25.2297 16.1969 25.8731C15.6051 26.2076 14.9618 26.3878 14.2927 26.3878C12.1569 26.3878 10.407 24.6378 10.407 22.4761C10.407 20.3144 12.1569 18.5644 14.2927 18.5644C14.7044 18.5644 15.1162 18.6159 15.5021 18.7445V14.0608C13.1347 13.752 10.7416 14.4468 8.91451 15.9909C8.09106 16.66 7.422 17.4835 6.90734 18.3843C6.70148 18.7188 5.98096 20.057 5.87803 22.2445C5.82656 23.4797 6.18682 24.7665 6.36695 25.3069C6.46988 25.6157 6.90734 26.6966 7.62787 27.5973C8.19399 28.3179 8.86305 28.9613 9.63504 29.476C11.8738 30.9943 14.3442 30.8914 14.3442 30.8914C14.7816 30.8656 16.1969 30.8914 17.8438 30.1193C19.6451 29.2701 20.6745 27.9833 20.6745 27.9833C21.3435 27.2113 21.8582 26.362 22.2184 25.4099C22.6302 24.3033 22.7846 22.9908 22.7846 22.4761V13.0571C22.836 13.0829 23.5823 13.5718 23.5823 13.5718C23.5823 13.5718 24.6631 14.2667 26.3357 14.7042C27.5452 15.013 29.1663 15.0902 29.1663 15.0902V10.5094C28.5745 10.5866 27.4165 10.4065 26.2585 9.81455Z" fill="white"/>
</svg>
