<svg width="35" height="35" viewBox="0 0 35 35" fill="none" xmlns="http://www.w3.org/2000/svg">
<g clip-path="url(#clip0_2001_2904)">
<path d="M0.5 10.7308C0.690848 10.3606 1.07254 10.1755 1.45424 10.1755C3.17187 10.1755 4.8895 10.1755 6.60713 10.1755C7.37052 10.1755 7.75221 10.5457 7.94306 11.101C8.5156 12.3966 9.08815 13.6923 9.85154 14.8029C10.4241 15.9135 11.1875 16.8389 11.9509 17.7644C12.1417 18.1346 12.5234 18.3197 12.9051 18.5048C13.2868 18.875 13.8593 18.6899 14.0502 18.1346C14.241 17.7644 14.4319 17.3942 14.4319 16.8389C14.6227 15.3582 14.6227 13.6923 14.4319 12.2115C14.241 11.2861 13.8593 10.7308 12.9051 10.5457C12.3326 10.3606 12.3326 10.3606 12.7143 9.99038C13.0959 9.4351 13.6685 9.25 14.4319 9.25C16.1495 9.25 17.8671 9.25 19.5848 9.25C20.7299 9.25 21.1116 9.62019 21.1116 10.7308C21.1116 11.6563 21.1116 12.5817 21.1116 13.5072C21.1116 14.6178 21.1116 15.7284 21.1116 16.6538C21.1116 17.024 21.3024 17.3942 21.3024 17.7644C21.6841 18.5048 22.2566 18.5048 22.8292 17.9495C23.7834 17.024 24.7377 15.9135 25.3102 14.6178C26.0736 13.3221 26.6461 12.0264 27.2187 10.7308C27.6004 9.99038 27.7912 9.80529 28.7455 9.80529C30.4631 9.80529 32.3716 9.80529 34.0892 9.80529C34.28 9.80529 34.6617 9.80529 34.8526 9.99038C35.4251 10.1755 35.616 10.5457 35.4251 11.101C35.2343 12.0264 34.8526 12.7668 34.28 13.5072C33.135 14.988 31.9899 16.6538 30.8448 18.1346C30.6539 18.5048 30.2722 18.875 30.0814 19.2452C29.6997 19.9856 29.6997 20.3558 30.2722 21.0962C30.8448 21.6514 31.2265 22.0216 31.799 22.5769C32.9441 23.6875 34.0892 24.7981 35.0434 26.0937C35.4251 26.4639 35.616 27.0192 35.4251 27.5745C35.2343 28.1298 34.8526 28.5 34.28 28.5C32.5624 28.5 30.6539 28.5 28.9363 28.5C27.9821 28.5 27.0278 28.1298 26.4553 27.3894C25.6919 26.649 24.9285 25.9087 24.1651 25.1683C23.7834 24.7981 23.5926 24.613 23.2109 24.2428C22.4475 23.6875 21.8749 23.8726 21.4932 24.613C21.1116 25.3534 21.1116 26.2788 20.9207 27.0192C20.9207 27.9447 20.539 28.3149 19.5848 28.3149C15.1953 28.6851 11.5692 27.2043 8.70645 24.0577C6.60713 21.8365 5.08034 19.4303 3.55356 16.8389C2.40848 14.8029 1.45424 12.9519 0.5 10.9159C0.5 11.101 0.5 10.9159 0.5 10.7308Z" fill="white"/>
</g>
<defs>
<clipPath id="clip0_2001_2904">
<rect width="35" height="35" fill="white"/>
</clipPath>
</defs>
</svg>
